<?xml version="1.0" encoding="utf-8"?>
<!-- Generator: Adobe Illustrator 24.1.0, SVG Export Plug-In . SVG Version: 6.00 Build 0)  -->
<svg version="1.1" id="Capa_1" xmlns="http://www.w3.org/2000/svg" xmlns:xlink="http://www.w3.org/1999/xlink" x="0px" y="0px"
	 viewBox="0 0 200 120" style="enable-background:new 0 0 200 120;" xml:space="preserve">
<style type="text/css">
	.st0{fill:#FFFFFF;}
</style>
<g>
	<g>
		<path class="st0" d="M0,83.63c0.22-0.02,0.6-0.06,1.14-0.11c0.54-0.05,1.16-0.09,1.84-0.13c0.69-0.04,1.4-0.07,2.13-0.09
			c0.73-0.02,1.39-0.04,1.97-0.04c2.24,0,4.1,0.33,5.57,0.98c1.47,0.65,2.63,1.55,3.49,2.69c0.85,1.15,1.45,2.49,1.79,4.05
			c0.34,1.55,0.51,3.25,0.51,5.08c0,1.66-0.17,3.29-0.51,4.88c-0.34,1.59-0.95,3.01-1.83,4.25c-0.88,1.24-2.1,2.24-3.65,3
			c-1.55,0.76-3.55,1.14-5.98,1.14c-0.39,0-0.88-0.01-1.48-0.04c-0.6-0.02-1.22-0.05-1.84-0.09c-0.63-0.04-1.23-0.07-1.81-0.11
			c-0.58-0.04-1.02-0.08-1.34-0.13V83.63z M7.27,87.68c-0.46,0-0.9,0.02-1.34,0.05c-0.43,0.04-0.76,0.07-0.98,0.09v16.95
			c0.1,0.02,0.24,0.04,0.43,0.05c0.19,0.01,0.39,0.02,0.6,0.04c0.2,0.01,0.4,0.02,0.6,0.04c0.19,0.01,0.35,0.02,0.47,0.02
			c1.4,0,2.51-0.26,3.34-0.78c0.83-0.52,1.45-1.2,1.86-2.04c0.41-0.84,0.67-1.79,0.8-2.86c0.12-1.06,0.18-2.12,0.18-3.18
			c0-0.92-0.05-1.87-0.16-2.86c-0.11-0.99-0.36-1.89-0.76-2.71c-0.4-0.82-0.99-1.49-1.79-2.02C9.72,87.94,8.64,87.68,7.27,87.68z"/>
		<path class="st0" d="M38.68,107.01c-0.31,0.29-0.72,0.57-1.21,0.85c-0.49,0.28-1.07,0.54-1.73,0.78
			c-0.66,0.24-1.39,0.43-2.19,0.58c-0.8,0.14-1.64,0.22-2.53,0.22c-1.54,0-2.92-0.22-4.14-0.65c-1.22-0.43-2.25-1.07-3.09-1.9
			c-0.84-0.83-1.49-1.83-1.93-3c-0.45-1.17-0.67-2.5-0.67-3.99c0-1.59,0.25-2.98,0.76-4.17c0.51-1.19,1.2-2.19,2.08-2.98
			c0.88-0.8,1.91-1.39,3.09-1.79c1.18-0.4,2.46-0.6,3.83-0.6c0.92,0,1.86,0.12,2.84,0.36c0.98,0.24,1.87,0.66,2.69,1.25
			c0.82,0.59,1.49,1.38,2.01,2.37c0.52,0.99,0.78,2.24,0.78,3.76c0,1.04-0.12,2.16-0.36,3.36H25.88c0.02,0.77,0.19,1.42,0.49,1.95
			c0.3,0.53,0.7,0.96,1.19,1.3c0.49,0.34,1.06,0.58,1.7,0.74c0.64,0.16,1.32,0.23,2.04,0.23c1.45,0,2.63-0.17,3.56-0.51
			c0.93-0.34,1.68-0.75,2.26-1.23L38.68,107.01z M30.87,94.11c-0.63,0-1.22,0.09-1.77,0.26c-0.55,0.17-1.05,0.42-1.5,0.76
			c-0.45,0.33-0.81,0.74-1.1,1.23c-0.29,0.49-0.46,1.04-0.51,1.66h8.89c0-1.2-0.33-2.15-0.99-2.85
			C33.23,94.46,32.22,94.11,30.87,94.11z"/>
		<path class="st0" d="M53.87,103.94c0-0.48-0.3-0.87-0.89-1.16c-0.59-0.29-1.32-0.55-2.19-0.79s-1.82-0.49-2.86-0.74
			c-1.04-0.25-1.99-0.6-2.86-1.05c-0.87-0.45-1.6-1.01-2.19-1.7c-0.59-0.69-0.89-1.57-0.89-2.66c0-0.89,0.2-1.67,0.6-2.35
			c0.4-0.67,0.94-1.25,1.63-1.72c0.69-0.47,1.51-0.83,2.46-1.07c0.95-0.24,1.98-0.36,3.09-0.36c1.18,0,2.22,0.08,3.11,0.25
			c0.89,0.17,1.67,0.37,2.33,0.61c0.66,0.24,1.23,0.51,1.7,0.81c0.47,0.3,0.87,0.57,1.21,0.81l-1.99,3.22
			c-0.36-0.22-0.78-0.44-1.25-0.67c-0.47-0.23-0.96-0.44-1.48-0.63c-0.52-0.19-1.06-0.35-1.63-0.47c-0.57-0.12-1.13-0.18-1.68-0.18
			c-1.01,0-1.83,0.13-2.46,0.4c-0.63,0.27-0.94,0.67-0.94,1.23c0,0.43,0.29,0.78,0.89,1.05c0.59,0.27,1.32,0.51,2.19,0.74
			c0.87,0.23,1.82,0.48,2.86,0.74c1.04,0.27,1.99,0.61,2.86,1.03c0.87,0.42,1.6,0.97,2.19,1.64c0.59,0.67,0.89,1.54,0.89,2.6
			c0,1.83-0.67,3.27-2.01,4.32c-1.34,1.05-3.32,1.57-5.95,1.57c-2.07,0-3.86-0.31-5.37-0.92c-1.51-0.61-2.72-1.33-3.63-2.15
			l2.17-3.4c0.31,0.27,0.73,0.56,1.25,0.89c0.52,0.33,1.1,0.62,1.75,0.89c0.65,0.27,1.34,0.49,2.08,0.67
			c0.73,0.18,1.46,0.27,2.19,0.27c0.77,0,1.43-0.13,1.99-0.4C53.6,105.01,53.87,104.57,53.87,103.94z"/>
		<path class="st0" d="M60.66,90.86h6.14l0.54,2.17h0.14c1.25-1.78,3.28-2.68,6.07-2.68c1.11,0,2.13,0.18,3.05,0.52
			c0.93,0.35,1.72,0.9,2.39,1.65c0.66,0.75,1.17,1.69,1.54,2.82c0.36,1.13,0.54,2.49,0.54,4.08c0,1.54-0.21,2.93-0.61,4.17
			c-0.41,1.24-1,2.3-1.77,3.16c-0.77,0.87-1.71,1.53-2.82,1.99c-1.11,0.46-2.37,0.69-3.8,0.69c-0.75,0-1.48-0.05-2.21-0.16
			c-0.72-0.11-1.33-0.28-1.81-0.52v7.41h-4.7V94.83h-2.71V90.86z M72.15,94.33c-0.92,0-1.75,0.23-2.51,0.69
			c-0.76,0.46-1.28,1.14-1.57,2.06v7.52c0.34,0.27,0.83,0.48,1.46,0.63c0.64,0.16,1.28,0.24,1.93,0.24c0.67,0,1.3-0.11,1.88-0.34
			c0.58-0.23,1.08-0.6,1.52-1.1c0.43-0.51,0.77-1.14,1.01-1.92c0.24-0.77,0.36-1.7,0.36-2.78c0-1.59-0.39-2.82-1.16-3.69
			C74.31,94.76,73.33,94.33,72.15,94.33z"/>
		<path class="st0" d="M84.47,92.08c0.96-0.43,2.08-0.81,3.34-1.12c1.26-0.31,2.77-0.47,4.5-0.47c1.25,0,2.32,0.15,3.2,0.45
			c0.88,0.3,1.59,0.73,2.13,1.28c0.54,0.55,0.93,1.22,1.17,1.99c0.24,0.77,0.36,1.64,0.36,2.6c0,1.23-0.04,2.28-0.13,3.14
			c-0.08,0.87-0.13,1.64-0.13,2.31c0,0.51,0.02,1.07,0.07,1.7c0.05,0.34,0.08,0.66,0.11,0.98h2.35v3.98h-6.07l-0.47-2.46h-0.18
			c-0.48,0.75-1.16,1.39-2.05,1.93c-0.89,0.54-2.08,0.81-3.59,0.81c-1.8,0-3.22-0.48-4.28-1.45c-1.05-0.96-1.58-2.24-1.58-3.83
			c0-1.01,0.19-1.89,0.56-2.62c0.37-0.74,0.91-1.34,1.62-1.81c0.71-0.47,1.56-0.82,2.55-1.05c0.99-0.23,2.1-0.34,3.32-0.34
			c0.43,0,0.89,0.02,1.37,0.07c0.48,0.05,1.07,0.1,1.76,0.14c0.05-0.24,0.07-0.48,0.07-0.72v-0.69c0-0.92-0.26-1.57-0.79-1.97
			c-0.53-0.4-1.3-0.6-2.33-0.6c-1.22,0-2.32,0.16-3.3,0.47c-0.98,0.31-1.81,0.63-2.48,0.94L84.47,92.08z M90.62,105.35
			c1.14,0,2-0.21,2.57-0.63c0.57-0.42,0.99-0.87,1.25-1.36v-2.17c-0.24-0.05-0.6-0.1-1.07-0.16c-0.48-0.06-0.99-0.09-1.54-0.09
			c-0.45,0-0.91,0.04-1.36,0.13c-0.45,0.08-0.86,0.22-1.21,0.4c-0.36,0.18-0.64,0.42-0.86,0.7c-0.21,0.29-0.32,0.64-0.32,1.05
			c0,0.67,0.2,1.2,0.59,1.57C89.06,105.16,89.71,105.35,90.62,105.35z M91.98,82.9h5.71l-4.95,5.57h-2.89L91.98,82.9z"/>
		<path class="st0" d="M120.37,107.19c-0.99,0.75-2.15,1.31-3.47,1.68c-1.33,0.37-2.71,0.56-4.16,0.56c-1.57,0-2.96-0.23-4.17-0.69
			c-1.22-0.46-2.24-1.1-3.07-1.93c-0.83-0.83-1.46-1.84-1.9-3.02c-0.43-1.18-0.65-2.48-0.65-3.9c0-1.52,0.25-2.87,0.76-4.05
			c0.51-1.18,1.21-2.18,2.11-3c0.9-0.82,1.97-1.44,3.2-1.86c1.23-0.42,2.57-0.63,4.01-0.63c1.35,0,2.61,0.16,3.8,0.47
			c1.18,0.31,2.08,0.61,2.71,0.9v6.36h-3.98v-3.33c-0.75-0.17-1.49-0.25-2.24-0.25c-0.67,0-1.34,0.1-2.01,0.31
			c-0.66,0.21-1.25,0.53-1.77,0.98c-0.52,0.45-0.94,1.01-1.27,1.68c-0.33,0.67-0.49,1.48-0.49,2.42c0,0.77,0.13,1.48,0.4,2.13
			c0.27,0.65,0.64,1.22,1.12,1.7c0.48,0.48,1.08,0.86,1.79,1.14c0.71,0.28,1.5,0.42,2.37,0.42c1.37,0,2.5-0.19,3.38-0.58
			c0.88-0.39,1.54-0.72,1.97-1.01L120.37,107.19z"/>
		<path class="st0" d="M121.45,83.63h7.3v9.25h0.14c0.58-0.77,1.35-1.39,2.31-1.84c0.96-0.46,2.1-0.69,3.4-0.69
			c0.92,0,1.76,0.12,2.53,0.36c0.77,0.24,1.43,0.64,1.99,1.19c0.55,0.55,0.99,1.31,1.3,2.26c0.31,0.95,0.47,2.13,0.47,3.52v11.24
			h-4.7V98.66c0-1.47-0.31-2.53-0.94-3.18c-0.63-0.65-1.45-0.98-2.46-0.98c-0.89,0-1.71,0.27-2.46,0.81
			c-0.75,0.54-1.28,1.24-1.59,2.08v11.53h-4.7V87.6h-2.6V83.63z"/>
		<path class="st0" d="M145.13,92.08c0.96-0.43,2.08-0.81,3.34-1.12c1.26-0.31,2.77-0.47,4.5-0.47c1.25,0,2.32,0.15,3.2,0.45
			c0.88,0.3,1.59,0.73,2.13,1.28c0.54,0.55,0.93,1.22,1.17,1.99c0.24,0.77,0.36,1.64,0.36,2.6c0,1.23-0.04,2.28-0.13,3.14
			c-0.08,0.87-0.13,1.64-0.13,2.31c0,0.51,0.02,1.07,0.07,1.7c0.05,0.34,0.08,0.66,0.11,0.98h2.35v3.98h-6.07l-0.47-2.46h-0.18
			c-0.48,0.75-1.16,1.39-2.05,1.93c-0.89,0.54-2.08,0.81-3.59,0.81c-1.8,0-3.22-0.48-4.28-1.45c-1.05-0.96-1.58-2.24-1.58-3.83
			c0-1.01,0.19-1.89,0.56-2.62c0.37-0.74,0.91-1.34,1.62-1.81c0.71-0.47,1.56-0.82,2.55-1.05c0.99-0.23,2.1-0.34,3.32-0.34
			c0.43,0,0.89,0.02,1.37,0.07c0.48,0.05,1.07,0.1,1.76,0.14c0.05-0.24,0.07-0.48,0.07-0.72v-0.69c0-0.92-0.26-1.57-0.79-1.97
			c-0.53-0.4-1.3-0.6-2.33-0.6c-1.22,0-2.32,0.16-3.3,0.47c-0.98,0.31-1.81,0.63-2.48,0.94L145.13,92.08z M151.28,105.35
			c1.14,0,2-0.21,2.57-0.63c0.57-0.42,0.99-0.87,1.25-1.36v-2.17c-0.24-0.05-0.6-0.1-1.07-0.16c-0.48-0.06-0.99-0.09-1.54-0.09
			c-0.45,0-0.91,0.04-1.36,0.13c-0.45,0.08-0.86,0.22-1.21,0.4c-0.36,0.18-0.64,0.42-0.86,0.7c-0.21,0.29-0.32,0.64-0.32,1.05
			c0,0.67,0.2,1.2,0.59,1.57C149.73,105.16,150.38,105.35,151.28,105.35z"/>
		<path class="st0" d="M166.5,94.83h-3.58v-3.98h3.58v-5.38l4.7-1.34v6.72h6.95v3.98h-6.95V100c0,1.86,0.35,3.2,1.05,4.03
			c0.7,0.83,1.67,1.25,2.93,1.25c0.65,0,1.24-0.08,1.77-0.23c0.53-0.16,1.01-0.36,1.43-0.6c0.21-0.12,0.61-0.38,0.61-0.38l1.9,3.5
			c-0.32,0.18-1.28,0.71-1.75,0.91c-0.71,0.3-1.45,0.54-2.22,0.7c-0.77,0.17-1.53,0.25-2.28,0.25c-2.7,0-4.73-0.75-6.09-2.26
			s-2.04-3.9-2.04-7.18V94.83z"/>
		<path class="st0" d="M199.42,107.01c-0.31,0.29-0.72,0.57-1.21,0.85c-0.49,0.28-1.07,0.54-1.73,0.78
			c-0.66,0.24-1.39,0.43-2.19,0.58c-0.79,0.14-1.64,0.22-2.53,0.22c-1.54,0-2.92-0.22-4.14-0.65c-1.22-0.43-2.25-1.07-3.09-1.9
			c-0.84-0.83-1.49-1.83-1.93-3c-0.45-1.17-0.67-2.5-0.67-3.99c0-1.59,0.25-2.98,0.76-4.17c0.51-1.19,1.2-2.19,2.08-2.98
			c0.88-0.8,1.91-1.39,3.09-1.79c1.18-0.4,2.46-0.6,3.83-0.6c0.92,0,1.86,0.12,2.84,0.36c0.98,0.24,1.87,0.66,2.69,1.25
			c0.82,0.59,1.49,1.38,2.01,2.37c0.52,0.99,0.78,2.24,0.78,3.76c0,1.04-0.12,2.16-0.36,3.36h-13.01c0.02,0.77,0.19,1.42,0.49,1.95
			c0.3,0.53,0.7,0.96,1.19,1.3c0.49,0.34,1.06,0.58,1.7,0.74s1.32,0.23,2.04,0.23c1.45,0,2.63-0.17,3.56-0.51
			c0.93-0.34,1.68-0.75,2.26-1.23L199.42,107.01z M191.61,94.11c-0.63,0-1.22,0.09-1.77,0.26c-0.55,0.17-1.05,0.42-1.5,0.76
			c-0.45,0.33-0.81,0.74-1.1,1.23c-0.29,0.49-0.46,1.04-0.51,1.66h8.89c0-1.2-0.33-2.15-0.99-2.85
			C193.97,94.46,192.96,94.11,191.61,94.11z"/>
	</g>
	<path class="st0" d="M132.43,46.82c-0.49-3.25-2.47-6.1-5.28-7.61c-1.84-0.99-4.75-1.79-8.69-0.62V6.68c0-1.02-0.54-1.95-1.42-2.46
		c-0.88-0.51-1.96-0.5-2.84,0.01l-6.63,3.87l-5.89-3.8c-0.94-0.6-2.14-0.6-3.08,0l-5.81,3.75L86.97,4.3c-0.94-0.6-2.14-0.61-3.08,0
		L78,8.09l-6.63-3.87c-0.88-0.51-1.96-0.51-2.84-0.01c-0.88,0.51-1.42,1.44-1.42,2.46v50.84c0,4.74,3.85,8.59,8.59,8.59h34.17
		c0.02,0,0.04,0,0.06,0c0.89,0.21,1.84,0.31,2.83,0.31c4.34,0,9.44-1.95,13.48-5.36C130.95,57.11,133.2,51.92,132.43,46.82z
		 M72.78,57.52v-45.9l3.87,2.26c0.92,0.54,2.07,0.51,2.97-0.07l5.81-3.75l5.81,3.75c0.94,0.6,2.14,0.6,3.08,0l5.81-3.75l5.81,3.75
		c0.9,0.58,2.04,0.61,2.97,0.07l3.87-2.26v23.02c-0.38-0.11-0.75-0.19-1.09-0.25c-3.47-0.57-6.85,0.98-8.52,2.65
		c-4,4.01-5.44,9.92-3.95,16.22c0.63,2.69,1.73,5.15,3.13,7.19H75.7C74.09,60.44,72.78,59.13,72.78,57.52z M123,57.21
		c-3.82,3.21-9.25,4.91-12.36,3.87c-2.76-0.92-5.5-4.7-6.51-8.98c-0.51-2.16-1.27-7.6,2.62-11.5c0.45-0.45,1.84-1.29,3.44-1.29
		c0.23,0,0.46,0.02,0.7,0.06c1.58,0.26,2.91,1.45,3.95,3.55l1.09,2.19l2.22-1.02c2.61-1.2,4.9-1.35,6.61-0.43
		c1.68,0.91,2.49,2.62,2.69,3.93C128.13,52.12,124.96,55.56,123,57.21z"/>
</g>
</svg>
