<svg id="Capa_1" data-name="Capa 1" xmlns="http://www.w3.org/2000/svg" xmlns:xlink="http://www.w3.org/1999/xlink" viewBox="0 0 566.93 566.93"><defs><style>.cls-1{fill:url(#Degradado_sin_nombre_35);}.cls-2{fill:url(#Degradado_sin_nombre_35-2);}.cls-3{fill:url(#Degradado_sin_nombre_35-4);}.cls-4{fill:url(#Degradado_sin_nombre_35-5);}.cls-5{fill:url(#Degradado_sin_nombre_35-7);}.cls-6{fill:url(#Degradado_sin_nombre_35-8);}.cls-7{fill:url(#Degradado_sin_nombre_35-9);}.cls-8{fill:#231f20;}.cls-9{fill:#fc4b44;}</style><linearGradient id="Degradado_sin_nombre_35" x1="2.79" y1="384.44" x2="565.1" y2="384.44" gradientUnits="userSpaceOnUse"><stop offset="0" stop-color="#fc4b44"/><stop offset="0.5" stop-color="#62059e"/><stop offset="1" stop-color="#00d2b8"/></linearGradient><linearGradient id="Degradado_sin_nombre_35-2" x1="2.79" y1="394.45" x2="565.1" y2="394.45" xlink:href="#Degradado_sin_nombre_35"/><linearGradient id="Degradado_sin_nombre_35-4" x1="2.79" y1="403.8" x2="565.1" y2="403.8" xlink:href="#Degradado_sin_nombre_35"/><linearGradient id="Degradado_sin_nombre_35-5" x1="2.79" y1="383.79" x2="565.1" y2="383.79" xlink:href="#Degradado_sin_nombre_35"/><linearGradient id="Degradado_sin_nombre_35-7" x1="2.79" y1="384.39" x2="565.1" y2="384.39" xlink:href="#Degradado_sin_nombre_35"/><linearGradient id="Degradado_sin_nombre_35-8" x1="2.79" y1="394.35" x2="565.1" y2="394.35" xlink:href="#Degradado_sin_nombre_35"/><linearGradient id="Degradado_sin_nombre_35-9" x1="2.79" y1="385.81" x2="565.1" y2="385.81" xlink:href="#Degradado_sin_nombre_35"/></defs><path class="cls-1" d="M5.25,349.2c.61-.07,1.66-.17,3.17-.31s3.22-.25,5.13-.35,3.89-.18,5.93-.25,3.88-.1,5.49-.1q9.34,0,15.48,2.72a23.83,23.83,0,0,1,9.71,7.49,28.86,28.86,0,0,1,5,11.26,66.47,66.47,0,0,1,1.41,14.13,65.2,65.2,0,0,1-1.41,13.58,31.59,31.59,0,0,1-5.07,11.81,26.24,26.24,0,0,1-10.16,8.35q-6.49,3.17-16.64,3.17c-1.08,0-2.45,0-4.13-.1s-3.38-.16-5.13-.26L9,420c-1.61-.1-2.85-.22-3.73-.35Zm20.22,11.26q-1.92,0-3.72.15c-1.21.1-2.11.19-2.72.25V408a7.44,7.44,0,0,0,1.21.16l1.66.1,1.66.1c.53,0,1,.05,1.3.05q5.84,0,9.31-2.16a13.76,13.76,0,0,0,5.18-5.69,24.63,24.63,0,0,0,2.21-7.94,79.55,79.55,0,0,0,.5-8.85,73.49,73.49,0,0,0-.45-8,23,23,0,0,0-2.11-7.54,14.16,14.16,0,0,0-5-5.63Q31.21,360.47,25.47,360.46Z"/><path class="cls-2" d="M112.86,414.26a17.76,17.76,0,0,1-3.37,2.36,31.74,31.74,0,0,1-4.82,2.16,36.24,36.24,0,0,1-6.09,1.61,38.61,38.61,0,0,1-7,.61A34.28,34.28,0,0,1,80,419.19a22.55,22.55,0,0,1-14-13.63,31,31,0,0,1-1.86-11.11,29.45,29.45,0,0,1,2.11-11.61,23.31,23.31,0,0,1,5.78-8.3,24.17,24.17,0,0,1,8.6-5,33.41,33.41,0,0,1,18.56-.65,21.43,21.43,0,0,1,7.49,3.47,18.5,18.5,0,0,1,5.58,6.58,22.45,22.45,0,0,1,2.16,10.46,47.86,47.86,0,0,1-1,9.35H77.26a11.58,11.58,0,0,0,1.36,5.43,10.59,10.59,0,0,0,3.32,3.62,14.38,14.38,0,0,0,4.73,2.07,24,24,0,0,0,5.68.65,29.34,29.34,0,0,0,9.9-1.41,21,21,0,0,0,6.29-3.42Zm-21.72-35.9a16.56,16.56,0,0,0-4.93.72,13.63,13.63,0,0,0-4.17,2.1A11.5,11.5,0,0,0,79,384.61a10.59,10.59,0,0,0-1.4,4.61H102.3a11.09,11.09,0,0,0-2.76-7.94Q96.76,378.36,91.14,378.36Z"/><path class="cls-2" d="M155.14,405.71c0-1.34-.82-2.41-2.47-3.22a36.06,36.06,0,0,0-6.08-2.21q-3.61-1-7.94-2.06a35.85,35.85,0,0,1-8-2.92,19.9,19.9,0,0,1-6.08-4.72,10.91,10.91,0,0,1-2.47-7.39,12.72,12.72,0,0,1,1.66-6.54,15,15,0,0,1,4.53-4.78,21.36,21.36,0,0,1,6.84-3,34.89,34.89,0,0,1,8.59-1,47.81,47.81,0,0,1,8.65.7,42.33,42.33,0,0,1,6.49,1.71,24.55,24.55,0,0,1,4.73,2.27c1.3.84,2.43,1.59,3.36,2.26l-5.53,9c-1-.6-2.16-1.22-3.47-1.86s-2.68-1.22-4.12-1.76a32.38,32.38,0,0,0-4.52-1.31,22.86,22.86,0,0,0-4.68-.5,17.7,17.7,0,0,0-6.84,1.11q-2.61,1.09-2.61,3.41c0,1.21.82,2.18,2.46,2.92a38.92,38.92,0,0,0,6.08,2.06q3.63,1,7.95,2.06a42.19,42.19,0,0,1,7.94,2.87,19,19,0,0,1,6.09,4.58,10.59,10.59,0,0,1,2.46,7.24,14.42,14.42,0,0,1-5.58,12Q157.05,421,146.09,421a39.44,39.44,0,0,1-14.94-2.57,34.57,34.57,0,0,1-10.1-6l6-9.45a30,30,0,0,0,3.47,2.46,31.3,31.3,0,0,0,4.88,2.47,43.47,43.47,0,0,0,5.78,1.86,25.49,25.49,0,0,0,6.08.75,12.73,12.73,0,0,0,5.54-1.11A3.81,3.81,0,0,0,155.14,405.71Z"/><path class="cls-3" d="M174,369.31H191.1l1.51,6H193q5.22-7.44,16.89-7.44a24,24,0,0,1,8.5,1.46,16.55,16.55,0,0,1,6.63,4.57,21.51,21.51,0,0,1,4.28,7.85,37.8,37.8,0,0,1,1.51,11.36,37,37,0,0,1-1.71,11.62,24.73,24.73,0,0,1-4.93,8.8,21.3,21.3,0,0,1-7.84,5.53A27.58,27.58,0,0,1,205.79,421a41.57,41.57,0,0,1-6.14-.45,17.26,17.26,0,0,1-5-1.46V439.7H181.55V380.37H174ZM206,379a13.3,13.3,0,0,0-7,1.91,10,10,0,0,0-4.38,5.74v20.91a10.65,10.65,0,0,0,4.08,1.76,22.26,22.26,0,0,0,5.38.66,14.05,14.05,0,0,0,5.23-1,10.74,10.74,0,0,0,4.22-3.07,14.76,14.76,0,0,0,2.82-5.33,26.12,26.12,0,0,0,1-7.74q0-6.63-3.22-10.26A10.43,10.43,0,0,0,206,379Z"/><path class="cls-4" d="M240.25,372.73a54.37,54.37,0,0,1,9.3-3.12,52.65,52.65,0,0,1,12.52-1.31,27.62,27.62,0,0,1,8.9,1.26,15,15,0,0,1,5.93,3.57,13.57,13.57,0,0,1,3.27,5.53,24.28,24.28,0,0,1,1,7.24c0,3.42-.11,6.34-.35,8.75s-.35,4.56-.35,6.44c0,1.4.07,3,.2,4.72.13.94.24,1.85.3,2.72h6.54v11.06H270.63l-1.32-6.84h-.5a17.3,17.3,0,0,1-5.7,5.38c-2.46,1.51-5.8,2.26-10,2.26q-7.5,0-11.9-4a13.74,13.74,0,0,1-4.39-10.66,16.06,16.06,0,0,1,1.54-7.29,13.17,13.17,0,0,1,4.5-5,21.59,21.59,0,0,1,7.1-2.91,41,41,0,0,1,9.24-1c1.2,0,2.46.07,3.8.2s3,.27,4.89.41a10.56,10.56,0,0,0,.2-2V386.2q0-3.81-2.2-5.48c-1.46-1.1-3.62-1.66-6.49-1.66a30.15,30.15,0,0,0-9.18,1.31,56.53,56.53,0,0,0-6.89,2.62Zm17.11,36.9c3.18,0,5.57-.58,7.16-1.76A11.83,11.83,0,0,0,268,404.1v-6c-.66-.13-1.66-.29-3-.45a33.89,33.89,0,0,0-4.28-.25,20.15,20.15,0,0,0-3.78.35,12.54,12.54,0,0,0-3.38,1.1,6.71,6.71,0,0,0-2.38,2,4.76,4.76,0,0,0-.9,2.92,5.77,5.77,0,0,0,1.64,4.38C253,409.12,254.84,409.63,257.36,409.63Zm3.8-62.45h15.89l-13.78,15.49h-8Z"/><path class="cls-2" d="M340.14,414.76a28.77,28.77,0,0,1-9.66,4.68A42.4,42.4,0,0,1,318.92,421a33,33,0,0,1-11.62-1.91,23.94,23.94,0,0,1-8.55-5.38,23,23,0,0,1-5.28-8.4,31.4,31.4,0,0,1-1.81-10.86,28.3,28.3,0,0,1,2.12-11.26,23.5,23.5,0,0,1,5.88-8.35,25.2,25.2,0,0,1,8.9-5.18,34.27,34.27,0,0,1,11.16-1.76,41.06,41.06,0,0,1,10.56,1.31,49.22,49.22,0,0,1,7.54,2.51v17.7H326.76v-9.25a28.2,28.2,0,0,0-6.23-.7,18.75,18.75,0,0,0-5.58.85A13.61,13.61,0,0,0,310,383a14.08,14.08,0,0,0-3.52,4.67,15.32,15.32,0,0,0-1.36,6.74,15.5,15.5,0,0,0,1.11,5.93,14.05,14.05,0,0,0,3.11,4.73,14.23,14.23,0,0,0,5,3.17,18,18,0,0,0,6.59,1.15,23.45,23.45,0,0,0,9.4-1.61,38,38,0,0,0,5.48-2.81Z"/><path class="cls-5" d="M343.15,349.2h20.31v25.74h.4a17.11,17.11,0,0,1,6.44-5.13,21.86,21.86,0,0,1,9.45-1.91,23.53,23.53,0,0,1,7,1,13.24,13.24,0,0,1,5.53,3.32,15.58,15.58,0,0,1,3.62,6.28,31.75,31.75,0,0,1,1.31,9.8v31.28H384.18V391c0-4.09-.88-7-2.62-8.85a9.05,9.05,0,0,0-6.84-2.71,11.38,11.38,0,0,0-6.84,2.26,12.33,12.33,0,0,0-4.42,5.78v32.08H350.39V360.26h-7.24Z"/><path class="cls-6" d="M409,372.73a54.49,54.49,0,0,1,9.31-3.12,52.65,52.65,0,0,1,12.52-1.31,27.62,27.62,0,0,1,8.9,1.26,15,15,0,0,1,5.93,3.57,13.57,13.57,0,0,1,3.27,5.53,24.28,24.28,0,0,1,1,7.24c0,3.42-.11,6.34-.35,8.75s-.35,4.56-.35,6.44c0,1.4.06,3,.2,4.72.13.94.23,1.85.3,2.72h6.54v11.06H439.41l-1.32-6.84h-.5a17.5,17.5,0,0,1-5.7,5.38q-3.7,2.26-10,2.26-7.5,0-11.9-4a13.74,13.74,0,0,1-4.39-10.66,16.06,16.06,0,0,1,1.54-7.29,13.09,13.09,0,0,1,4.5-5,21.54,21.54,0,0,1,7.09-2.91,41.14,41.14,0,0,1,9.25-1c1.19,0,2.46.07,3.8.2s3,.27,4.89.41a10.56,10.56,0,0,0,.2-2V386.2q0-3.81-2.2-5.48c-1.46-1.1-3.62-1.66-6.49-1.66a30.15,30.15,0,0,0-9.18,1.31,56.53,56.53,0,0,0-6.89,2.62Zm17.12,36.9c3.18,0,5.57-.58,7.16-1.76a11.83,11.83,0,0,0,3.48-3.77v-6c-.66-.13-1.66-.29-3-.45a33.89,33.89,0,0,0-4.28-.25,20.15,20.15,0,0,0-3.78.35,12.42,12.42,0,0,0-3.38,1.1,6.84,6.84,0,0,0-2.39,2,4.82,4.82,0,0,0-.89,2.92,5.77,5.77,0,0,0,1.64,4.38C421.81,409.12,423.62,409.63,426.14,409.63Z"/><path class="cls-7" d="M468.47,380.37h-10V369.31h10v-15l13.07-3.72v18.69h19.33v11.06H481.54v14.38q0,7.74,2.92,11.21a10,10,0,0,0,8.14,3.47,17.26,17.26,0,0,0,4.93-.65,18.86,18.86,0,0,0,4-1.66c.59-.33,1.69-1.06,1.69-1.06l5.29,9.74c-.88.49-3.55,2-4.87,2.53a35,35,0,0,1-6.18,2,29.62,29.62,0,0,1-6.34.71q-11.26,0-16.94-6.29t-5.68-20Z"/><path class="cls-2" d="M560.07,414.26a18.43,18.43,0,0,1-3.37,2.36,32.34,32.34,0,0,1-4.83,2.16,36.37,36.37,0,0,1-6.08,1.61,38.69,38.69,0,0,1-7,.61,34.34,34.34,0,0,1-11.52-1.81,22.55,22.55,0,0,1-14-13.63,31,31,0,0,1-1.86-11.11,29.63,29.63,0,0,1,2.11-11.61,23.21,23.21,0,0,1,5.79-8.3,24,24,0,0,1,8.6-5,33.37,33.37,0,0,1,18.55-.65,21.43,21.43,0,0,1,7.49,3.47,18.5,18.5,0,0,1,5.58,6.58,22.45,22.45,0,0,1,2.16,10.46,47.86,47.86,0,0,1-1,9.35h-36.2a11.46,11.46,0,0,0,1.35,5.43,10.69,10.69,0,0,0,3.32,3.62,14.48,14.48,0,0,0,4.73,2.07,24.1,24.1,0,0,0,5.68.65,29.45,29.45,0,0,0,9.91-1.41,21,21,0,0,0,6.28-3.42Zm-21.73-35.9a16.44,16.44,0,0,0-4.92.72,13.58,13.58,0,0,0-4.18,2.1,11.33,11.33,0,0,0-3.06,3.43,10.47,10.47,0,0,0-1.41,4.61h24.74a11.09,11.09,0,0,0-2.77-7.94Q544,378.36,538.34,378.36Z"/><path class="cls-8" d="M373.69,246.8A29,29,0,0,0,359,225.62c-5.13-2.77-13.21-5-24.17-1.74V135.12A7.89,7.89,0,0,0,323,128.3l-18.45,10.76-16.39-10.57a7.9,7.9,0,0,0-8.56,0l-16.17,10.43-16.18-10.43a7.88,7.88,0,0,0-8.55,0l-16.39,10.57L203.82,128.3A7.89,7.89,0,0,0,192,135.12V276.57a23.93,23.93,0,0,0,23.91,23.9H311.1a34.45,34.45,0,0,0,7.87.87c12.08,0,26.26-5.43,37.51-14.9C369.57,275.43,375.84,261,373.69,246.8ZM207.74,276.57V148.86l10.76,6.28a7.92,7.92,0,0,0,8.26-.19l16.17-10.44L259.11,155a7.9,7.9,0,0,0,8.56,0l16.17-10.43L300,155a7.9,7.9,0,0,0,8.25.19L319,148.86v64a26.41,26.41,0,0,0-3-.69,28.84,28.84,0,0,0-23.71,7.37c-11.12,11.15-15.13,27.6-11,45.12a59.64,59.64,0,0,0,8.72,20H215.86A8.13,8.13,0,0,1,207.74,276.57Zm139.71-.88c-10.62,8.94-25.72,13.66-34.39,10.77-7.67-2.57-15.29-13.08-18.1-25-1.42-6-3.55-21.13,7.28-32a15.11,15.11,0,0,1,9.57-3.58,12.77,12.77,0,0,1,1.94.15c4.39.72,8.09,4,11,9.87l3,6.1,6.19-2.85c7.27-3.35,13.63-3.76,18.38-1.2a15.22,15.22,0,0,1,7.48,10.93C361.73,261.55,352.89,271.12,347.45,275.69Z"/><path class="cls-9" d="M347.45,275.69c-10.62,8.94-25.72,13.66-34.39,10.77-7.67-2.57-15.29-13.08-18.1-25-1.42-6-3.55-21.13,7.28-32a15.11,15.11,0,0,1,9.57-3.58,12.77,12.77,0,0,1,1.94.15c4.39.72,8.09,4,11,9.87l3,6.1,6.19-2.85c7.27-3.35,13.63-3.76,18.38-1.2a15.22,15.22,0,0,1,7.48,10.93C361.73,261.55,352.89,271.12,347.45,275.69Z"/></svg>