<svg id="Capa_1" data-name="Capa 1" xmlns="http://www.w3.org/2000/svg" viewBox="0 0 120 114.7"><defs><style>.cls-1{fill:#231f20;}</style></defs><path class="cls-1" d="M119.73,81.43a19.13,19.13,0,0,0-9.68-14c-3.38-1.82-8.7-3.28-15.93-1.14V7.85a5.19,5.19,0,0,0-7.81-4.49L74.15,10.45l-10.79-7a5.23,5.23,0,0,0-5.64,0L47.06,10.36,36.41,3.48a5.23,5.23,0,0,0-5.64,0l-10.8,7L7.82,3.36A5.2,5.2,0,0,0,0,7.85V101a15.76,15.76,0,0,0,15.75,15.74H78.49a22.87,22.87,0,0,0,5.19.57c8,0,17.3-3.58,24.71-9.82C117,100.29,121.14,90.77,119.73,81.43ZM10.4,101V16.9L17.49,21a5.22,5.22,0,0,0,5.44-.12L33.59,14l10.65,6.88a5.23,5.23,0,0,0,5.64,0L60.54,14l10.65,6.88a5.22,5.22,0,0,0,5.44.12l7.1-4.14V59.09a17.17,17.17,0,0,0-2-.46,19,19,0,0,0-15.62,4.86c-7.33,7.34-10,18.18-7.25,29.72a39.23,39.23,0,0,0,5.75,13.17H15.75A5.35,5.35,0,0,1,10.4,101Zm92-.58c-7,5.88-17,9-22.65,7.09-5.06-1.69-10.08-8.62-11.93-16.46-.93-4-2.33-13.93,4.8-21.07A9.92,9.92,0,0,1,79,67.66a8,8,0,0,1,1.28.1c2.89.47,5.33,2.66,7.24,6.5l2,4,4.07-1.88c4.8-2.2,9-2.48,12.11-.79a10,10,0,0,1,4.93,7.2C111.85,91.15,106,97.45,102.44,100.46Z" transform="translate(0 -2.65)"/></svg>