<svg id="Capa_1" data-name="Capa 1" xmlns="http://www.w3.org/2000/svg" xmlns:xlink="http://www.w3.org/1999/xlink" viewBox="0 0 165 28"><defs><style>.cls-1{fill:url(#Degradado_sin_nombre_35);}.cls-2{fill:url(#Degradado_sin_nombre_35-2);}.cls-3{fill:url(#Degradado_sin_nombre_35-4);}.cls-4{fill:url(#Degradado_sin_nombre_35-5);}.cls-5{fill:url(#Degradado_sin_nombre_35-7);}.cls-6{fill:url(#Degradado_sin_nombre_35-8);}.cls-7{fill:url(#Degradado_sin_nombre_35-9);}</style><linearGradient id="Degradado_sin_nombre_35" x1="-0.73" y1="11.33" x2="166.01" y2="11.33" gradientUnits="userSpaceOnUse"><stop offset="0" stop-color="#fc4b44"/><stop offset="0.5" stop-color="#62059e"/><stop offset="1" stop-color="#00d2b8"/></linearGradient><linearGradient id="Degradado_sin_nombre_35-2" x1="-0.73" y1="14.3" x2="166.01" y2="14.3" xlink:href="#Degradado_sin_nombre_35"/><linearGradient id="Degradado_sin_nombre_35-4" x1="-0.73" y1="17.07" x2="166.01" y2="17.07" xlink:href="#Degradado_sin_nombre_35"/><linearGradient id="Degradado_sin_nombre_35-5" x1="-0.73" y1="11.14" x2="166.01" y2="11.14" xlink:href="#Degradado_sin_nombre_35"/><linearGradient id="Degradado_sin_nombre_35-7" x1="-0.73" y1="11.32" x2="166.01" y2="11.32" xlink:href="#Degradado_sin_nombre_35"/><linearGradient id="Degradado_sin_nombre_35-8" x1="-0.73" y1="14.27" x2="166.01" y2="14.27" xlink:href="#Degradado_sin_nombre_35"/><linearGradient id="Degradado_sin_nombre_35-9" x1="-0.73" y1="11.74" x2="166.01" y2="11.74" xlink:href="#Degradado_sin_nombre_35"/></defs><path class="cls-1" d="M0,.88.94.79c.45,0,1-.08,1.52-.1L4.22.61l1.62,0a11.38,11.38,0,0,1,4.6.81,6.93,6.93,0,0,1,2.87,2.22A8.47,8.47,0,0,1,14.79,7a19.63,19.63,0,0,1,.42,4.19,19.18,19.18,0,0,1-.42,4,9.53,9.53,0,0,1-1.5,3.51,7.75,7.75,0,0,1-3,2.47,11.17,11.17,0,0,1-4.93.94l-1.22,0L2.59,22,1.1,21.89c-.47,0-.84-.07-1.1-.11ZM6,4.22c-.37,0-.74,0-1.1,0l-.8.08v14a1.78,1.78,0,0,0,.35.05l.5,0,.49,0h.39a5.11,5.11,0,0,0,2.75-.64,4.07,4.07,0,0,0,1.54-1.68,7.2,7.2,0,0,0,.66-2.36,25.55,25.55,0,0,0,.14-2.62,21.52,21.52,0,0,0-.13-2.36,6.83,6.83,0,0,0-.63-2.24A4.2,4.2,0,0,0,8.68,4.87,4.86,4.86,0,0,0,6,4.22Z"/><path class="cls-2" d="M31.91,20.17a4.85,4.85,0,0,1-1,.7,8.72,8.72,0,0,1-1.43.64,11.23,11.23,0,0,1-1.8.48,11.7,11.7,0,0,1-2.09.18,10.14,10.14,0,0,1-3.42-.54,6.88,6.88,0,0,1-2.55-1.56A7,7,0,0,1,18,17.59a9.12,9.12,0,0,1-.55-3.29,9,9,0,0,1,.62-3.45,6.94,6.94,0,0,1,1.72-2.46,7.17,7.17,0,0,1,2.55-1.47,9.74,9.74,0,0,1,3.16-.49,10.26,10.26,0,0,1,2.34.29,6.61,6.61,0,0,1,2.22,1,5.51,5.51,0,0,1,1.66,2,6.7,6.7,0,0,1,.64,3.1,14.09,14.09,0,0,1-.3,2.77H21.35a3.42,3.42,0,0,0,.41,1.61,3,3,0,0,0,1,1.07,4.24,4.24,0,0,0,1.4.62,7.06,7.06,0,0,0,1.69.19,8.62,8.62,0,0,0,2.93-.42,6.2,6.2,0,0,0,1.87-1ZM25.47,9.53A4.91,4.91,0,0,0,24,9.74a4.12,4.12,0,0,0-1.24.62,3.55,3.55,0,0,0-.91,1,3.14,3.14,0,0,0-.42,1.37h7.34A3.29,3.29,0,0,0,28,10.39,3.31,3.31,0,0,0,25.47,9.53Z"/><path class="cls-2" d="M44.45,17.64a1.09,1.09,0,0,0-.73-1A11.58,11.58,0,0,0,41.91,16c-.71-.2-1.5-.4-2.35-.61a10.65,10.65,0,0,1-2.36-.87,5.73,5.73,0,0,1-1.8-1.4A3.24,3.24,0,0,1,34.67,11,3.73,3.73,0,0,1,35.16,9,4.42,4.42,0,0,1,36.5,7.6a6.49,6.49,0,0,1,2-.88,10.76,10.76,0,0,1,2.55-.29,14.78,14.78,0,0,1,2.56.2,12,12,0,0,1,1.92.51A7.13,7.13,0,0,1,47,7.81c.38.25.72.47,1,.67l-1.64,2.66c-.3-.18-.65-.37-1-.55s-.8-.37-1.23-.53a9.07,9.07,0,0,0-1.34-.38,6.64,6.64,0,0,0-1.39-.15,5.19,5.19,0,0,0-2,.33,1.06,1.06,0,0,0-.78,1c0,.36.24.64.73.86a10.87,10.87,0,0,0,1.81.61l2.35.62a12.38,12.38,0,0,1,2.36.85,5.68,5.68,0,0,1,1.8,1.35,3.15,3.15,0,0,1,.73,2.15,4.27,4.27,0,0,1-1.65,3.56,7.84,7.84,0,0,1-4.91,1.3,11.67,11.67,0,0,1-4.43-.76,10.41,10.41,0,0,1-3-1.77l1.79-2.81a7.37,7.37,0,0,0,1,.73,8.07,8.07,0,0,0,1.44.73,12.37,12.37,0,0,0,1.72.56,7.91,7.91,0,0,0,1.8.22,3.75,3.75,0,0,0,1.64-.33A1.13,1.13,0,0,0,44.45,17.64Z"/><path class="cls-3" d="M50,6.84h5.07l.45,1.79h.12q1.55-2.21,5-2.2a7.09,7.09,0,0,1,2.52.43,5,5,0,0,1,2,1.35,6.42,6.42,0,0,1,1.26,2.33,11.13,11.13,0,0,1,.45,3.37,10.86,10.86,0,0,1-.51,3.44A7.06,7.06,0,0,1,64.92,20,6.1,6.1,0,0,1,62.6,21.6a8.12,8.12,0,0,1-3.13.57A12.09,12.09,0,0,1,57.65,22a4.88,4.88,0,0,1-1.49-.44v6.12H52.28V10.12H50Zm9.49,2.87a4,4,0,0,0-2.08.56A2.94,2.94,0,0,0,56.16,12v6.2a3.13,3.13,0,0,0,1.2.53,6.67,6.67,0,0,0,1.6.19,4.15,4.15,0,0,0,1.55-.28,3.15,3.15,0,0,0,1.25-.91,4.49,4.49,0,0,0,.84-1.58,7.73,7.73,0,0,0,.3-2.3,4.42,4.42,0,0,0-1-3A3.07,3.07,0,0,0,59.53,9.71Z"/><path class="cls-4" d="M69.68,7.86a16.49,16.49,0,0,1,2.76-.93,15.53,15.53,0,0,1,3.71-.39,8.1,8.1,0,0,1,2.64.38A4.32,4.32,0,0,1,80.55,8a3.94,3.94,0,0,1,1,1.64,7.09,7.09,0,0,1,.3,2.14c0,1,0,1.88-.1,2.6s-.11,1.35-.11,1.91,0,.88.06,1.4c0,.28.07.55.09.8H83.7v3.28h-5l-.39-2h-.15a5.09,5.09,0,0,1-1.69,1.59,5.59,5.59,0,0,1-3,.67A5.06,5.06,0,0,1,70,20.8a4.08,4.08,0,0,1-1.3-3.16,4.65,4.65,0,0,1,.46-2.16A3.82,3.82,0,0,1,70.46,14a6.32,6.32,0,0,1,2.11-.87,12.15,12.15,0,0,1,2.74-.28,11.09,11.09,0,0,1,1.12.06l1.46.12a4,4,0,0,0,0-.6v-.57a1.89,1.89,0,0,0-.65-1.62,3.12,3.12,0,0,0-1.92-.49,9.24,9.24,0,0,0-2.73.38,17.71,17.71,0,0,0-2,.78ZM74.76,18.8a3.54,3.54,0,0,0,2.12-.52,3.45,3.45,0,0,0,1-1.12V15.37c-.19,0-.49-.08-.88-.13a10.06,10.06,0,0,0-1.27-.08,6.07,6.07,0,0,0-1.12.11,3.67,3.67,0,0,0-1,.33,1.85,1.85,0,0,0-.71.58,1.37,1.37,0,0,0-.26.86,1.72,1.72,0,0,0,.48,1.3A2.29,2.29,0,0,0,74.76,18.8ZM75.89.28H80.6L76.51,4.87H74.13Z"/><path class="cls-2" d="M99.31,20.32a8.52,8.52,0,0,1-2.87,1.39,12.46,12.46,0,0,1-3.43.46,9.65,9.65,0,0,1-3.44-.57A7,7,0,0,1,87,20a6.93,6.93,0,0,1-1.56-2.49,9.22,9.22,0,0,1-.54-3.22A8.36,8.36,0,0,1,85.56,11,7.12,7.12,0,0,1,87.3,8.48,7.7,7.7,0,0,1,89.94,7a10.12,10.12,0,0,1,3.31-.52,12.09,12.09,0,0,1,3.13.38,14.37,14.37,0,0,1,2.24.75v5.25H95.34V10.06a8.32,8.32,0,0,0-1.85-.2,5.46,5.46,0,0,0-1.65.25,4.21,4.21,0,0,0-1.47.8,4.34,4.34,0,0,0-1,1.39,4.55,4.55,0,0,0-.4,2,4.63,4.63,0,0,0,.33,1.76,4.11,4.11,0,0,0,.92,1.4,4.22,4.22,0,0,0,1.48.94,5.25,5.25,0,0,0,2,.34,7,7,0,0,0,2.79-.48A10.63,10.63,0,0,0,98,17.43Z"/><path class="cls-5" d="M100.2.88h6V8.51h.12A5.1,5.1,0,0,1,108.25,7a6.42,6.42,0,0,1,2.8-.56,7.28,7.28,0,0,1,2.09.29,3.93,3.93,0,0,1,1.64,1,4.66,4.66,0,0,1,1.07,1.86,9.4,9.4,0,0,1,.39,2.91v9.27h-3.88V13.28a3.68,3.68,0,0,0-.77-2.62,2.67,2.67,0,0,0-2-.8,3.38,3.38,0,0,0-2,.67,3.63,3.63,0,0,0-1.31,1.71v9.51h-3.88V4.16H100.2Z"/><path class="cls-6" d="M119.73,7.86a16.49,16.49,0,0,1,2.76-.93,15.53,15.53,0,0,1,3.71-.39,8.1,8.1,0,0,1,2.64.38A4.32,4.32,0,0,1,130.6,8a3.94,3.94,0,0,1,1,1.64,7.09,7.09,0,0,1,.3,2.14c0,1,0,1.88-.1,2.6s-.11,1.35-.11,1.91,0,.88.06,1.4c0,.28.07.55.09.8h1.94v3.28h-5l-.39-2h-.15a5.19,5.19,0,0,1-1.69,1.59,5.62,5.62,0,0,1-3,.67A5.06,5.06,0,0,1,120,20.8a4.08,4.08,0,0,1-1.3-3.16,4.65,4.65,0,0,1,.46-2.16A3.74,3.74,0,0,1,120.51,14a6.32,6.32,0,0,1,2.11-.87,12.15,12.15,0,0,1,2.74-.28,11.09,11.09,0,0,1,1.12.06l1.45.12a3.05,3.05,0,0,0,.06-.6v-.57a1.89,1.89,0,0,0-.65-1.62,3.12,3.12,0,0,0-1.92-.49,9.24,9.24,0,0,0-2.73.38,17,17,0,0,0-2,.78Zm5.08,10.94a3.54,3.54,0,0,0,2.12-.52,3.45,3.45,0,0,0,1-1.12V15.37c-.19,0-.49-.08-.88-.13a10.06,10.06,0,0,0-1.27-.08,6.07,6.07,0,0,0-1.12.11,3.67,3.67,0,0,0-1,.33,1.85,1.85,0,0,0-.71.58,1.37,1.37,0,0,0-.26.86,1.72,1.72,0,0,0,.48,1.3A2.29,2.29,0,0,0,124.81,18.8Z"/><path class="cls-7" d="M137.36,10.12h-3V6.84h3V2.4l3.88-1.1V6.84H147v3.28h-5.73v4.27a5.16,5.16,0,0,0,.86,3.32,3,3,0,0,0,2.42,1,5.16,5.16,0,0,0,1.46-.19,6.06,6.06,0,0,0,1.18-.49l.5-.32,1.57,2.89c-.26.14-1.06.59-1.45.75A10.26,10.26,0,0,1,146,22a8.74,8.74,0,0,1-1.88.21,6.42,6.42,0,0,1-5-1.86q-1.7-1.87-1.69-5.92Z"/><path class="cls-2" d="M164.52,20.17a4.85,4.85,0,0,1-1,.7,8.36,8.36,0,0,1-1.43.64,11,11,0,0,1-1.8.48,11.62,11.62,0,0,1-2.09.18,10,10,0,0,1-3.41-.54,6.72,6.72,0,0,1-2.55-1.56,6.85,6.85,0,0,1-1.6-2.48,9.12,9.12,0,0,1-.55-3.29,8.78,8.78,0,0,1,.63-3.45,6.8,6.8,0,0,1,1.71-2.46A7.35,7.35,0,0,1,155,6.92a9.78,9.78,0,0,1,3.16-.49,10.12,10.12,0,0,1,2.34.29,6.44,6.44,0,0,1,2.22,1,5.51,5.51,0,0,1,1.66,2,6.57,6.57,0,0,1,.64,3.1,14.09,14.09,0,0,1-.3,2.77H154a3.42,3.42,0,0,0,.4,1.61,3.15,3.15,0,0,0,1,1.07,4.33,4.33,0,0,0,1.4.62,7.06,7.06,0,0,0,1.69.19,8.72,8.72,0,0,0,2.94-.42,6.26,6.26,0,0,0,1.86-1ZM158.08,9.53a5,5,0,0,0-1.46.21,4.12,4.12,0,0,0-1.24.62,3.71,3.71,0,0,0-.91,1,3.13,3.13,0,0,0-.41,1.37h7.33a3.29,3.29,0,0,0-.82-2.36A3.31,3.31,0,0,0,158.08,9.53Z"/></svg>