<svg id="Capa_1" data-name="Capa 1" xmlns="http://www.w3.org/2000/svg" viewBox="0 0 107 107"><defs><style>.cls-1{fill:#8dc63f;}.cls-2{fill:#fff;}</style></defs><path class="cls-1" d="M25.55,8.52C-.66,21-6.34,54.23,7.33,78.08A50.22,50.22,0,0,0,20.12,92.82C38.46,107,64.42,109.63,86.39,102,95.7,98.69,102.58,93,105.2,83.3c4-14.93,0-31.27-4.6-45.56C97.26,27.46,93.38,15.43,84.12,8.9c-14-9.84-33-9.39-49.31-4.07A76.31,76.31,0,0,0,25.55,8.52Z"/><path class="cls-2" d="M36.68,26l-.16,0a1,1,0,0,0-.77.7c-.55,1.56-1.09,3.16-1.61,4.7l-.58,1.73a1.2,1.2,0,0,0-.05.23s0,.06,0,.08a.94.94,0,0,0,.76,1,1,1,0,0,0,1.11-.67c.68-2,1.46-4.26,2.16-6.51a1.26,1.26,0,0,0-.24-1A.79.79,0,0,0,36.68,26Z"/><path class="cls-2" d="M33,26.07c.54-1.53,1-3.08,1.56-4.57L35.05,20a3.58,3.58,0,0,0,.09-.35l0-.16a1,1,0,0,0-.82-1h-.21a.85.85,0,0,0-.85.64l-.09.24c-.71,2.08-1.46,4.24-2.13,6.37a1.2,1.2,0,0,0,.34,1,1.14,1.14,0,0,0,1,.11A1.47,1.47,0,0,0,33,26.07Z"/><path class="cls-2" d="M50.72,91a4,4,0,0,0,1.08.24l26,2.37a30.94,30.94,0,0,0,8.32-.37l11.93-2.17-.34-1.86L85.83,91.35A28.88,28.88,0,0,1,78,91.7L52,89.33a2.14,2.14,0,0,1-1.48-.77A2.21,2.21,0,0,1,50,87a2.18,2.18,0,0,1,2.18-2H72.25a3.21,3.21,0,0,0,3.19-3.2v0a3.15,3.15,0,0,0-.61-1.85L71.4,75.32A2.23,2.23,0,0,1,71,74v-.25a2.23,2.23,0,0,1,3.81-1.58l6.55,6.56A1,1,0,0,0,82,79H97.91v-1.9H82.38L76.1,70.81a5.46,5.46,0,0,0-.44-.38l-.22-.16V36.1a1,1,0,0,0-.94-1h-.77l0-.2a10.94,10.94,0,0,0-.24-4.86c-.72-2.52-2-4-4.07-4.52a7.66,7.66,0,0,0-1.91-.15h-.91l.19-.34a3,3,0,0,1,3.07-1.4c.68.1,1.17-.2,1.25-.75a1,1,0,0,0-.17-.74,1.25,1.25,0,0,0-.88-.42,5,5,0,0,0-5.24,2.86l-.26.52-.23-.21c-1.88-1.75-4-2-6.46-.79l-.18.08-.11-.15A9.71,9.71,0,0,0,54,21.16l0,0a.55.55,0,0,1-.18-.37c0-.43,0-.88,0-1.3v-.55l.16-.05c.66-.26.8-.47.8-1.26v-.9c0-.82,0-1.64,0-2.46s-.33-1.12-1.11-1.12H46.23c-.77,0-1.09.33-1.09,1.13v1.11c0,.68,0,1.38,0,2.07s0,1.25.79,1.44l.18.05v.58c0,.42,0,.82,0,1.21a.65.65,0,0,1-.24.46,9.66,9.66,0,0,0-4,3.41l-.25.37-.27-.69L41.27,24a42.83,42.83,0,0,0-4.66-8.88A10.79,10.79,0,0,0,33,11.66a3.25,3.25,0,0,0-4.56,1.19,4.46,4.46,0,0,0-.68,1.45c-.07.3-.13.6-.2.9A23.21,23.21,0,0,0,27,19.05a51.25,51.25,0,0,0,1.12,12.43c.18.9.4,1.85.57,2.61.07.29.14.57.2.86l0,.2h-.83a1,1,0,0,0-.95,1v6.84l-.05,0-8.34,7.15H9.14V52h9.94a.93.93,0,0,0,.62-.23l8.68-7.44A5.46,5.46,0,0,1,31.94,43a1.17,1.17,0,0,1,.83,2L27.4,50.41a.94.94,0,0,0,0,1.34.93.93,0,0,0,.67.28H43.79a1.3,1.3,0,1,1,0,2.59H32.56a.95.95,0,0,0,0,1.9H48.29a1.3,1.3,0,0,1,0,2.6H32.56a.95.95,0,1,0,0,1.89H45.29a1.3,1.3,0,0,1,0,2.6H32.56a1,1,0,0,0,0,1.9H40a.67.67,0,0,1,.48.21.65.65,0,0,1,.16.46.62.62,0,0,1-.53.6L29.64,68.09l-.09,0L19.34,65.14a1.09,1.09,0,0,0-.26,0H9.14V67H19l8.14,2.33V84a1,1,0,0,0,.93,1H48.63l-.28.74A4.1,4.1,0,0,0,50.72,91ZM33.11,50.13H30.36l2.75-2.75ZM29,70h.67l3.43-.43v8.08L33,77.8,29,81.74Zm1.35,13.08,3.7-3.7,3.7,3.7Zm8.74-1.34L35,77.64V69.33l4.09-.51ZM58.18,26.33a3.7,3.7,0,0,1,3.21-1A3.94,3.94,0,0,1,64,27.81a1.11,1.11,0,0,0,.65.69,1.33,1.33,0,0,0,1.07-.25,5.69,5.69,0,0,1,2-.86,3.08,3.08,0,0,1,3.47,2.08A8.84,8.84,0,0,1,71.82,35l0,.2H54.55V35A10.29,10.29,0,0,1,58.18,26.33ZM47.08,15.05h5.71v1.87H47.08ZM42.39,28.71A6.84,6.84,0,0,1,47,22.81c1-.41,1-.47,1-1.52v-2.4h3.86v2.37c0,1.07.06,1.16,1,1.54A7.18,7.18,0,0,1,56,25.2l.11.14-.1.14c-.17.25-.35.5-.52.73l0,.05a17.31,17.31,0,0,0-1.3,2A12.67,12.67,0,0,0,52.6,35v.2H42.31v-.27C42.27,32.76,42.23,30.75,42.39,28.71Zm-9.28,12.6-.65-.12a4.36,4.36,0,0,0-.52,0,7.5,7.5,0,0,0-2.21.34l-.72.23V37.05h4.1Zm6,8.82H35V37.05H39.1ZM40.47,28v.09c0,.27,0,.54,0,.81V29c0,.4-.06.77-.06,1.14,0,1.36,0,2.73,0,4.06v.95H30.88l-.05-.2a61.66,61.66,0,0,1-2-14.68,15.68,15.68,0,0,1,.69-5.2c.38-1.12.87-1.77,1.46-1.92s1.32.17,2.18,1A19,19,0,0,1,37.31,20c.88,1.82,1.66,3.72,2.42,5.56l.06.13.6,1.43A2.18,2.18,0,0,1,40.47,28ZM41,83.08V68.48l.26-.16a2.54,2.54,0,0,0,1.23-2.17v-.07l0-.57h2.83a3.21,3.21,0,0,0,3.2-3.2,3.25,3.25,0,0,0-.08-.69l-.12-.56.56-.1a3.2,3.2,0,0,0-.56-6.34h-1.5l.13-.66a3.18,3.18,0,0,0-.46-2.4,3.23,3.23,0,0,0-2-1.37,3.47,3.47,0,0,0-.64-.06H41V37.05H73.55V69.58l-.53,0a4.12,4.12,0,0,0-4,4.12V74a4.25,4.25,0,0,0,.83,2.48L73.31,81a1.21,1.21,0,0,1,.24.71v0a1.3,1.3,0,0,1-1.3,1.3Z"/></svg>