<svg id="Capa_1" data-name="Capa 1" xmlns="http://www.w3.org/2000/svg" viewBox="0 0 107 107"><defs><style>.cls-1{fill:#00d2b8;}.cls-2{fill:#fff;}</style></defs><path class="cls-1" d="M63.69,11.34c-2-.88-4-1.77-6-2.68-10.49-4.76-22.92-5.61-33,.56-26,15.93-33.11,53.78-13.1,77,12,14,34.83,17.34,52.37,15.52,17-1.77,30.48-15.74,37.82-30.22C106,63,109,51.2,105.43,41.9c-2.9-7.7-7.91-15.61-15.73-19.24C81.15,18.68,72.35,15.11,63.69,11.34Z"/><path class="cls-2" d="M94.14,60.45h0c-4.61-5.57-9.31-11.22-13.85-16.68Q75.12,37.53,69.94,31.3a2,2,0,0,0-1.68-.79h0c-10.79,0-19.72,0-28.12,0h0a2,2,0,0,0-1.78.91c-3.72,4.85-7.52,9.76-11.19,14.51l-5,6.49c-2.3,3-4.67,6-7,9.09a1.15,1.15,0,0,0-.26,1.13c.14.36.78.56,1.15.6a6.14,6.14,0,0,0,1.05,0,7.53,7.53,0,0,1,.95,0c2.19.21,3.6-.26,4.44-1.94h0V85.64c0,1.33.3,1.64,1.61,1.64H60.26c.43,0,.87,0,1.31,0H82a1.13,1.13,0,0,0,1.14-.93V67.91h0c0-.12,0-.24,0-.37V62.62h3c2.28,0,4.65,0,7-.06a1.69,1.69,0,0,0,1.37-.62A1.73,1.73,0,0,0,94.14,60.45Zm-49,3.06V85.32H34.63V63.51ZM24.61,59.28A2.13,2.13,0,0,1,25,58.09c4.08-5.23,8.24-10.53,12.26-15.66l2.1-2.68.27-.32.07-.08,1.74,2,4.07,4.82,1.12,1.34c2.59,3.07,5.26,6.25,7.86,9.4A2.47,2.47,0,0,1,55,58.37c0,6.61,0,13.34,0,19.85v6.42c0,.17,0,.33,0,.52a.61.61,0,0,0,0,.14H47.29V62.9c0-1.31-.28-1.6-1.55-1.6H34.14c-1.52,0-1.69.18-1.69,1.68q0,7.13,0,14.23v8.1h-7.8v-.09a3.22,3.22,0,0,1,0-.43V79.54C24.59,72.9,24.59,66,24.61,59.28ZM39.68,37h0a1.45,1.45,0,0,0-1,.69c-1.43,1.81-2.4,3.17-3.83,5-4.5,5.71-9.61,12.53-14.13,18.39-.75,1-2.43.69-3.61.62L39.61,32.82,62.85,60.68c-1.1.15-2.78.46-3.56-.47C54.5,54.45,49.35,48,44.59,42.34c-1.43-1.69-2.41-2.92-3.84-4.61C40.36,37.26,40,37,39.68,37Zm17.56,23,.32.38c.41.47.79.91,1.13,1.36a2.08,2.08,0,0,0,1.81.88h0c4.53,0,9.14,0,13.6,0h6.93V85.32H61.57v0H57.24Zm33.8.4h-.92c-8.1,0-16.46,0-24.7,0a1.31,1.31,0,0,1-.83-.44c-5.31-6.38-10.69-12.88-15.9-19.16L45,36.47,42.81,33.8l-1-1.13h6c6.43,0,13.09,0,19.63,0h0a1.65,1.65,0,0,1,1.42.69c5.75,6.93,11.61,14,17.28,20.79l4.67,5.61c.14.17.28.34.43.54l.1.13A2.31,2.31,0,0,1,91,60.45Z"/><path class="cls-2" d="M52.62,17.47a18.89,18.89,0,0,0-26.67,0,1,1,0,1,0,1.4,1.4,16.91,16.91,0,0,1,23.87,0,1,1,0,0,0,.7.29,1,1,0,0,0,.7-.29A1,1,0,0,0,52.62,17.47Z"/><path class="cls-2" d="M47.19,21.64a11.19,11.19,0,0,0-15.8.27,1,1,0,0,0-.27.71,1,1,0,0,0,.3.69,1,1,0,0,0,1.4,0,9.08,9.08,0,0,1,6.45-2.8h.16a9.17,9.17,0,0,1,6.39,2.57.92.92,0,0,0,.7.28,1,1,0,0,0,.67-1.7Z"/><path class="cls-2" d="M41.75,25.85a3.5,3.5,0,0,0-4.94,0,1,1,0,0,0,0,1.4,1,1,0,0,0,1.4,0,1.52,1.52,0,0,1,2.14,0,1,1,0,0,0,.7.29,1,1,0,0,0,1-1A1,1,0,0,0,41.75,25.85Z"/></svg>