<?xml version="1.0" encoding="utf-8"?>
<!-- Generator: Adobe Illustrator 24.1.0, SVG Export Plug-In . SVG Version: 6.00 Build 0)  -->
<svg version="1.1" id="Capa_1" xmlns="http://www.w3.org/2000/svg" xmlns:xlink="http://www.w3.org/1999/xlink" x="0px" y="0px"
	 viewBox="0 0 582.79 418.09" style="enable-background:new 0 0 582.79 418.09;" xml:space="preserve">
<style type="text/css">
	.st0{fill:#62059E;}
	.st1{fill:#1D1D1B;}
	.st2{fill:#00D2B8;}
	.st3{opacity:0.7;fill:#00D2B8;}
	.st4{fill:#FFFFFF;}
	.st5{font-family:'PTMono-Regular';}
	.st6{font-size:200.4334px;}
	.st7{fill:none;stroke:#000000;stroke-miterlimit:10;}
	.st8{fill:none;stroke:#000000;stroke-width:0.75;stroke-miterlimit:10;}
	.st9{fill:#FFFFFF;stroke:#1D1D1B;stroke-miterlimit:10;}
	.st10{fill:#FFFFFF;stroke:#000000;stroke-miterlimit:10;}
	.st11{fill:none;stroke:#1D1D1B;stroke-linecap:round;stroke-linejoin:round;stroke-miterlimit:10;}
	.st12{fill:none;stroke:#000000;stroke-linejoin:round;stroke-miterlimit:10;}
	.st13{fill:none;stroke:#000000;stroke-linecap:round;stroke-linejoin:round;stroke-miterlimit:10;}
	.st14{fill:url(#SVGID_1_);}
	.st15{fill:url(#SVGID_2_);}
	.st16{fill:url(#SVGID_3_);}
	.st17{fill:url(#SVGID_4_);}
	.st18{fill:url(#SVGID_5_);}
	.st19{fill:url(#SVGID_6_);}
	.st20{fill:url(#SVGID_7_);}
	.st21{fill:url(#SVGID_8_);}
	.st22{fill:url(#SVGID_9_);}
	.st23{fill:url(#SVGID_10_);}
	.st24{fill:#8DC63F;}
	.st25{fill:#FF8686;}
	.st26{fill:#FC4B44;}
	.st27{clip-path:url(#SVGID_12_);}
	.st28{clip-path:url(#SVGID_14_);}
	.st29{fill:#FFFFFF;stroke:#000000;stroke-linejoin:round;stroke-miterlimit:10;}
	.st30{fill:#1A2E35;stroke:#000000;stroke-width:0.5;stroke-miterlimit:10;}
	.st31{stroke:#000000;stroke-width:0.5;stroke-linejoin:round;stroke-miterlimit:10;}
	.st32{opacity:0.6;}
	.st33{stroke:#000000;stroke-width:0.5;stroke-miterlimit:10;}
	.st34{opacity:0.4;}
	.st35{fill:#1A2E35;}
	.st36{stroke:#000000;stroke-width:0.75;stroke-miterlimit:10;}
	.st37{clip-path:url(#SVGID_16_);}
	.st38{clip-path:url(#SVGID_18_);}
	.st39{clip-path:url(#SVGID_20_);}
	.st40{clip-path:url(#SVGID_22_);}
	.st41{clip-path:url(#SVGID_24_);}
	.st42{clip-path:url(#SVGID_26_);}
	.st43{clip-path:url(#SVGID_28_);}
	.st44{clip-path:url(#SVGID_30_);}
	.st45{clip-path:url(#SVGID_32_);}
	.st46{clip-path:url(#SVGID_34_);}
	.st47{fill:#231F20;}
	.st48{clip-path:url(#SVGID_56_);fill:#231F20;}
	.st49{clip-path:url(#SVGID_58_);fill:#231F20;}
	.st50{clip-path:url(#SVGID_60_);fill:#231F20;}
	.st51{clip-path:url(#SVGID_62_);fill:#231F20;}
	.st52{clip-path:url(#SVGID_64_);fill:#231F20;}
	.st53{clip-path:url(#SVGID_66_);fill:#231F20;}
	.st54{clip-path:url(#SVGID_68_);fill:#231F20;}
	.st55{clip-path:url(#SVGID_70_);fill:#231F20;}
	.st56{clip-path:url(#SVGID_72_);fill:#231F20;}
	.st57{clip-path:url(#SVGID_74_);fill:#231F20;}
	.st58{clip-path:url(#SVGID_96_);}
	.st59{fill:#FFFFFF;stroke:#1D1D1B;stroke-linejoin:round;stroke-miterlimit:10;}
	.st60{fill:none;stroke:#1D1D1B;stroke-linejoin:round;stroke-miterlimit:10;}
	.st61{fill:#F5F5F5;}
	.st62{fill:#FAFAFA;stroke:#1D1D1B;stroke-width:0.5;stroke-linejoin:round;stroke-miterlimit:10;}
	.st63{fill:#1A2E35;stroke:#1D1D1B;stroke-width:0.5;stroke-linejoin:round;stroke-miterlimit:10;}
	.st64{fill:#1A2E35;stroke:#1D1D1B;stroke-width:0.5;stroke-miterlimit:10;}
	.st65{fill:none;stroke:#1D1D1B;stroke-miterlimit:10;}
	.st66{fill:#1A2E35;stroke:#000000;stroke-miterlimit:10;}
	.st67{opacity:0.3;}
	.st68{clip-path:url(#SVGID_98_);}
	.st69{clip-path:url(#SVGID_100_);}
	.st70{clip-path:url(#SVGID_102_);}
	.st71{clip-path:url(#SVGID_104_);}
	.st72{clip-path:url(#SVGID_106_);}
	.st73{clip-path:url(#SVGID_108_);}
	.st74{clip-path:url(#SVGID_110_);}
	.st75{clip-path:url(#SVGID_112_);}
	.st76{clip-path:url(#SVGID_114_);}
	.st77{clip-path:url(#SVGID_116_);}
	.st78{clip-path:url(#SVGID_118_);}
	.st79{clip-path:url(#SVGID_120_);}
	.st80{clip-path:url(#SVGID_122_);}
	.st81{clip-path:url(#SVGID_144_);fill:#231F20;}
	.st82{clip-path:url(#SVGID_146_);fill:#231F20;}
	.st83{clip-path:url(#SVGID_148_);fill:#231F20;}
	.st84{clip-path:url(#SVGID_150_);fill:#231F20;}
	.st85{clip-path:url(#SVGID_152_);fill:#231F20;}
	.st86{clip-path:url(#SVGID_154_);fill:#231F20;}
	.st87{clip-path:url(#SVGID_156_);fill:#231F20;}
	.st88{clip-path:url(#SVGID_158_);fill:#231F20;}
	.st89{clip-path:url(#SVGID_160_);fill:#231F20;}
	.st90{clip-path:url(#SVGID_162_);fill:#231F20;}
</style>
<g>
	<g>
		<g>
			<path class="st2" d="M442.22,54.66c0,0-62.65-37.66-134.75-11.98s-118.2,96.01-157.04,151.96
				c-38.84,55.96-33.11,121.89,12.08,160.45c45.19,38.56,86.35,3.21,156.88,15.16c70.53,11.95,87.67,26,152.79-3.03
				c65.13-29.03,91.91-122.93,58-203.13C496.28,83.9,442.22,54.66,442.22,54.66z"/>
			<path class="st3" d="M442.22,54.66c0,0-62.65-37.66-134.75-11.98s-118.2,96.01-157.04,151.96
				c-38.84,55.96-33.11,121.89,12.08,160.45c45.19,38.56,86.35,3.21,156.88,15.16c70.53,11.95,87.67,26,152.79-3.03
				c65.13-29.03,91.91-122.93,58-203.13C496.28,83.9,442.22,54.66,442.22,54.66z"/>
		</g>
		<g>
			<g id="XMLID_5_">
				<g>
					<path class="st1" d="M458.17,218.36l26.41,45.51l-8.13,1.48c-0.22-0.6-0.38-0.91-0.38-0.94l-1.44,0.66
						c0,0.03,0.09,0.22,0.25,0.57l-42.34,7.73c0.97,3.39,4.49,15.83,4.68,22.17c0.25,7.76-7.66,9.83-7.76,9.83l-9.27,1.95
						c-1.1,0.28-111.78,26.26-122.17,29.24c-6.03,1.73-7.79,3.61-8.29,4.59c-0.38,0.66-0.25,1.07-0.25,1.1l-0.72,0.28l-0.63-1.7
						c0.03-0.09,0.09-0.19,0.13-0.28c1.07-2.17,4.21-4.02,9.33-5.5c1.01-0.28,2.98-0.79,5.72-1.48l-0.03,0.22l1.57,0.22l0.13-0.85
						c27.32-6.82,113.91-27.14,114.89-27.36l9.27-1.95c0.25-0.06,6.75-1.79,6.53-8.26c-0.19-7.04-4.84-22.46-4.87-22.61l-0.25-0.85
						l51.57-9.42l-25.35-43.62c-7.22-16.05-16.65-26.35-25.63-32.98c-13.1-9.64-25.25-11.46-28.2-11.75l0.28-1.54
						C408.92,173.42,440.27,178.63,458.17,218.36z"/>
					<path class="st4" d="M456.76,219.09l25.35,43.62l-51.57,9.42l-3.36-2.67c0.6,0,1.19-0.63,0.82-1.29
						c-9.86-17.46-36.28-70.64,0.94-76.13c0.53-0.06,0.41-0.97-0.13-0.94l2.32-4.99C440.11,192.74,449.53,203.04,456.76,219.09z"/>
					<path class="st1" d="M476.45,265.35c1.98,4.93,10.4,28.49,2.92,53.86c-8.01,27.14-32.44,31.53-98.12,33.7l-0.06-1.57
						c64.82-2.1,88.91-6.41,96.64-32.57c7.57-25.57-1.35-49.28-2.95-53.14L476.45,265.35z"/>
					<path class="st4" d="M474.88,265.63c1.6,3.86,10.52,27.58,2.95,53.14c-7.73,26.16-31.82,30.47-96.64,32.57l-0.19-3.2
						l-92.24-5.62l0.72-0.28c0-0.03-0.13-0.44,0.25-1.1c0.5-0.97,2.26-2.86,8.29-4.59c10.4-2.98,121.08-28.96,122.17-29.24
						l9.27-1.95c0.09,0,8.01-2.07,7.76-9.83c-0.19-6.34-3.71-18.78-4.68-22.17L474.88,265.63z"/>
					<path class="st1" d="M476.45,265.35l-1.57,0.28c-0.16-0.35-0.25-0.53-0.25-0.57l1.44-0.66
						C476.07,264.44,476.23,264.75,476.45,265.35z"/>
					<path class="st4" d="M435.65,295.59c0.22,6.47-6.28,8.2-6.53,8.26l-9.27,1.95c-0.97,0.22-87.56,20.54-114.89,27.36l7.95-54.68
						c3.45-18.28,6.91-36.56,10.65-54.77c0.13-0.63-0.66-0.94-0.85-0.31c-3.45,12.06-6.38,24.47-8.57,36.97l-36.72,11.81l-3.2-7.13
						l-18.81-41.96l-1.13-2.54c57.35-26.51,98.62-40.86,105.97-43.37c-1.22,10.36,5.53,20.07,15.77,22.52
						c1.63,0.41,3.27,0.6,4.87,0.6c3.96,0,7.85-1.13,11.24-3.36c4.81-3.11,8.04-7.95,9.11-13.57l1.7-8.98
						c2.95,0.28,15.11,2.1,28.2,11.75l-2.32,4.99c-38.76,3.52-12.25,60.65-2.32,77.95c0.19,0.28,0.44,0.41,0.69,0.41l3.36,2.67
						l0.25,0.85C430.81,273.14,435.46,288.56,435.65,295.59z"/>
					<path class="st1" d="M428.8,191.1c0.53-0.03,0.66,0.88,0.13,0.94c-37.22,5.5-10.8,58.67-0.94,76.13
						c0.38,0.66-0.22,1.29-0.82,1.29c-0.25,0-0.5-0.13-0.69-0.41C416.55,251.75,390.05,194.62,428.8,191.1z"/>
					<path class="st1" d="M421.11,77.5c2.32,5.65-0.31,12.94-5.68,15.55c2.76,7.44,2.89,20.92-2.98,26.07v0.03
						c-0.75-0.22-1.38-0.38-1.82-0.47l1.22-16.3c0.97-12.59-7.69-23.93-20.1-26.35l-20.82-4.05c-5.78-1.13-11.81,0.22-16.58,3.67
						c-4.77,3.52-7.79,8.7-8.48,14.6c-0.13,1.04-0.22,2.04-0.35,3.08c-0.16-0.44-0.31-0.88-0.41-1.32c-0.25-1.07-0.41-2.2-0.57-3.3
						c-1.19,0.13-2.42,0.19-3.61,0.09c-3.61-0.25-7.35-1.88-9.14-5.03c-1.82-3.14-1.04-7.82,2.2-9.45
						c-4.87-4.24-2.01-13.03,3.67-16.11c5.68-3.11,12.59-2.23,19-1.29c-2.39-3.8,1.85-8.79,6.28-9.36
						c4.46-0.53,8.76,1.48,13.16,2.29c4.96,0.91,10.05,0.31,15.11,0.5c5.06,0.19,10.43,1.38,13.85,5.09s3.74,10.52-0.44,13.35
						C411.25,67.86,418.53,71.32,421.11,77.5z"/>
					<path class="st1" d="M420.07,124.52c1.79,2.76,2.04,6.19,0.79,10.18c-2.98,9.55-9.01,9.67-12.19,8.98l-5.46,29.15
						c-0.57-0.06-0.88-0.09-0.91-0.09l-0.06,1.57c0.03,0,0.28,0,0.69,0.06l-1.7,8.98c-1.07,5.62-4.3,10.46-9.11,13.57
						c-3.39,2.23-7.29,3.36-11.24,3.36c-1.6,0-3.23-0.19-4.87-0.6c-10.24-2.45-16.99-12.15-15.77-22.52
						c0.75-0.22,1.16-0.38,1.19-0.38l-0.5-1.51c-0.03,0-0.16,0.06-0.41,0.16l2.17-12.31c-20.16-10.96-20.41-39.73-17.18-69.79
						c0.28,0.85,0.72,1.63,1.35,2.17c-2.95,28.96-2.32,56.28,16.93,66.4c-2.17-1.04-3.42-1.82-3.55-1.66
						c-0.13,0.16,1.26,1.6,3.99,3.17l-2.26,12.78c-1.79,9.96,4.55,19.63,14.42,21.99c5.15,1.22,10.43,0.31,14.89-2.58
						c4.43-2.89,7.41-7.35,8.39-12.53l7.6-40.52c0.06-0.22,0.19-0.41,0.38-0.53c0.19-0.13,0.41-0.13,0.63-0.06
						c3.61,1.1,8.48,0.66,11.09-7.69c1.13-3.55,0.91-6.53-0.6-8.89c-2.76-4.37-9.01-5.25-9.08-5.25c-0.41-0.06-0.72-0.44-0.69-0.85
						l0.06-0.72c0.19,0.25,0.47,0.53,0.72,0.79l1.1,0.91c0.47-0.25,0.88-0.53,1.32-0.88c0.06,0.82,0.16,0.63,0.25-0.22
						C414.76,119.9,418.12,121.44,420.07,124.52z"/>
					<path class="st4" d="M418.75,125.37c1.51,2.36,1.73,5.34,0.6,8.89c-2.61,8.35-7.47,8.79-11.09,7.69
						c-0.22-0.06-0.44-0.06-0.63,0.06c-0.19,0.13-0.31,0.31-0.38,0.53l-7.6,40.52c-0.97,5.18-3.96,9.64-8.39,12.53
						c-4.46,2.89-9.74,3.8-14.89,2.58c-9.86-2.36-16.21-12.03-14.42-21.99l2.26-12.78c0.03,0,0.09,0.03,0.13,0.06
						c2.83,1.6,7.22,3.17,12.25,3.27c5.03,0.13,9.45-1.29,12.34-2.76c2.92-1.48,4.37-2.89,4.27-3.05c-0.16-0.22-1.82,0.85-4.74,2.01
						c-2.89,1.16-7.1,2.29-11.84,2.17c-4.74-0.09-8.92-1.38-11.75-2.67c-0.35-0.16-0.63-0.28-0.94-0.44
						c-0.06-0.03-0.09-0.06-0.16-0.09c-19.25-10.11-19.88-37.44-16.93-66.4c0.28,0.22,0.6,0.41,0.97,0.53
						c1.38,0.41,2.8-0.35,3.99-1.1c4.21-2.7,8.01-6.03,11.24-9.83c10.33,3.99,22.64,2.39,31.56-4.11
						c2.58,12.88,5.31,28.08,14.42,37.56l-0.06,0.72c-0.03,0.41,0.28,0.79,0.69,0.85C409.74,120.12,415.99,121,418.75,125.37z
						 M415.14,132.4c0.19-0.53,0.28-1.16,0.06-1.82c-0.16-0.63-0.75-1.32-1.41-1.54c-0.94-0.38-2.2-0.16-2.8,0.85l1.35,0.82
						c0.09-0.16,0.47-0.28,0.85-0.13c0.5,0.16,0.66,0.72,0.5,1.35c-0.13,0.6-0.57,1.04-1.04,1.32c-0.94,0.6-1.79,0.72-1.79,0.97
						c0,0.19,0.85,0.53,2.29,0.09C413.85,134.07,414.76,133.47,415.14,132.4z M391.15,104.45c0.38-0.28-0.75-2.01-3.02-2.61
						c-2.29-0.6-4.11,0.35-3.93,0.75c0.13,0.47,1.73,0.35,3.49,0.85C389.48,103.88,390.83,104.76,391.15,104.45z M388.66,113.9
						c0.22-1.44-0.38-2.64-1.29-2.67c-0.91-0.03-1.82,1.1-2.04,2.54c-0.22,1.44,0.38,2.64,1.29,2.67
						C387.53,116.48,388.44,115.35,388.66,113.9z M380.88,139.34c0.66-1.73,0.41-2.89,0.22-2.89c-0.25,0-0.44,1.04-1.26,2.42
						c-0.79,1.35-2.32,3.05-4.52,3.77c-2.23,0.69-4.49,0.22-5.9-0.44c-1.44-0.63-2.2-1.38-2.39-1.19c-0.16,0.09,0.31,1.16,1.82,2.2
						c1.48,1.04,4.18,1.88,6.97,0.97C378.58,143.27,380.28,141.04,380.88,139.34z M370.6,135.2c1.04-0.47,0.94-1.19,0.88-1.19
						c-0.13-0.06-0.38,0.47-1.04,0.6c-0.66,0.09-1.66-0.57-1.92-1.98c-0.35-1.35-0.19-3.14,0-5.18c0.16-2.14,0.31-4.33,0.47-6.63
						c0.6-9.39,0.72-17.05,0.25-17.09c-0.44,0-1.29,7.6-1.88,16.99c-0.09,2.29-0.22,4.49-0.35,6.63c-0.09,2.04-0.16,3.99,0.41,5.62
						C367.87,134.66,369.57,135.67,370.6,135.2z M362.19,98.55c0.25-0.35-1.29-1.82-3.8-2.01c-2.51-0.25-4.33,0.94-4.11,1.32
						c0.19,0.44,1.92,0.09,3.96,0.28C360.3,98.33,361.94,98.95,362.19,98.55z M360.77,110.35c0.19-1.44-0.35-2.64-1.22-2.67
						c-0.85-0.03-1.7,1.1-1.92,2.54c-0.19,1.44,0.35,2.64,1.22,2.67C359.71,112.93,360.55,111.8,360.77,110.35z"/>
					<path class="st1" d="M415.2,130.58c0.22,0.66,0.13,1.29-0.06,1.82c-0.38,1.07-1.29,1.66-1.98,1.92
						c-1.44,0.44-2.29,0.09-2.29-0.09c0-0.25,0.85-0.38,1.79-0.97c0.47-0.28,0.91-0.72,1.04-1.32c0.16-0.63,0-1.19-0.5-1.35
						c-0.38-0.16-0.75-0.03-0.85,0.13l-1.35-0.82c0.6-1.01,1.85-1.22,2.8-0.85C414.45,129.26,415.05,129.95,415.2,130.58z"/>
					<path class="st1" d="M412.44,119.15c-0.09,0.85-0.19,1.04-0.25,0.22c-0.44,0.35-0.85,0.63-1.32,0.88l-1.1-0.91
						c-0.25-0.25-0.53-0.53-0.72-0.79l1.22-16.27c0.82-10.46-5.4-19.94-14.89-23.59c-1.26-0.47-2.58-0.88-3.96-1.13l-20.79-4.05
						c-1.26-0.25-2.51-0.38-3.74-0.38c-4.15,0-8.23,1.32-11.62,3.8c-4.43,3.23-7.22,8.04-7.85,13.51c-0.19,1.7-0.38,3.39-0.57,5.06
						c-0.63-0.53-1.07-1.32-1.35-2.17c0.13-1.04,0.22-2.04,0.35-3.08c0.69-5.9,3.71-11.09,8.48-14.6c4.77-3.45,10.8-4.81,16.58-3.67
						l20.82,4.05c12.41,2.42,21.07,13.76,20.1,26.35l-1.22,16.3C411.06,118.77,411.69,118.93,412.44,119.15z"/>
					<path class="st1" d="M395.39,78.7c9.49,3.64,15.7,13.13,14.89,23.59l-1.22,16.27c-9.11-9.49-11.84-24.69-14.42-37.56
						L395.39,78.7z"/>
					<path class="st1" d="M403.21,172.82l-0.28,1.54c-0.41-0.06-0.66-0.06-0.69-0.06l0.06-1.57
						C402.33,172.73,402.64,172.76,403.21,172.82z"/>
					<path class="st1" d="M395.39,78.7l-0.75,2.29c-8.92,6.5-21.23,8.1-31.56,4.11c-3.23,3.8-7.04,7.13-11.24,9.83
						c-1.19,0.75-2.61,1.51-3.99,1.1c-0.38-0.13-0.69-0.31-0.97-0.53c0.19-1.66,0.38-3.36,0.57-5.06
						c0.63-5.46,3.42-10.27,7.85-13.51c3.39-2.48,7.47-3.8,11.62-3.8c1.22,0,2.48,0.13,3.74,0.38l20.79,4.05
						C392.81,77.82,394.13,78.22,395.39,78.7z"/>
					<path class="st1" d="M393.22,160.92c0.09,0.16-1.35,1.57-4.27,3.05c-2.89,1.48-7.32,2.89-12.34,2.76
						c-5.03-0.09-9.42-1.66-12.25-3.27c-0.03-0.03-0.09-0.06-0.13-0.06l0.09-0.57c0.06-0.35-0.09-0.66-0.38-0.85
						c0.31,0.16,0.6,0.28,0.94,0.44c2.83,1.29,7,2.58,11.75,2.67c4.74,0.13,8.95-1.01,11.84-2.17
						C391.4,161.77,393.06,160.7,393.22,160.92z"/>
					<path class="st1" d="M388.13,101.84c2.26,0.6,3.39,2.32,3.02,2.61c-0.31,0.31-1.66-0.57-3.45-1.01
						c-1.76-0.5-3.36-0.38-3.49-0.85C384.02,102.19,385.84,101.25,388.13,101.84z"/>
					<path class="st1" d="M387.38,111.23c0.91,0.03,1.51,1.22,1.29,2.67s-1.13,2.58-2.04,2.54c-0.91-0.03-1.51-1.22-1.29-2.67
						C385.55,112.33,386.47,111.2,387.38,111.23z"/>
					<path class="st1" d="M381.25,352.91l0.09,1.44l-190.27,0.44l-34.55-89.48l68.19-3.77c6.5,5.15,15.23,7.73,26.13,7.73
						c3.23,0,6.66-0.22,10.27-0.69l27.01,72.24c-0.44,1.1-0.16,1.88-0.09,1.98l0.72-0.28l92.24,5.62l0.19,3.2
						c-3.74,0.13-7.63,0.22-11.65,0.35l0.06,1.57C373.62,353.13,377.51,353.04,381.25,352.91z M220.45,314.78
						c5.81-0.31,10.24-5.28,9.92-11.06c-0.31-5.81-5.28-10.24-11.09-9.92c-5.78,0.31-10.24,5.28-9.92,11.09
						C209.71,310.67,214.64,315.13,220.45,314.78z"/>
					<path class="st1" d="M381.19,351.34l0.06,1.57c-3.74,0.13-7.63,0.22-11.65,0.35l-0.06-1.57
						C373.56,351.56,377.45,351.47,381.19,351.34z"/>
					<path class="st1" d="M381.09,136.45c0.19,0,0.44,1.16-0.22,2.89c-0.6,1.7-2.29,3.93-5.06,4.84c-2.8,0.91-5.5,0.06-6.97-0.97
						c-1.51-1.04-1.98-2.1-1.82-2.2c0.19-0.19,0.94,0.57,2.39,1.19c1.41,0.66,3.67,1.13,5.9,0.44c2.2-0.72,3.74-2.42,4.52-3.77
						C380.66,137.49,380.84,136.45,381.09,136.45z"/>
					<path class="st1" d="M371.48,134c0.06,0,0.16,0.72-0.88,1.19c-1.04,0.47-2.73-0.53-3.17-2.23c-0.57-1.63-0.5-3.58-0.41-5.62
						c0.13-2.14,0.25-4.33,0.35-6.63c0.6-9.39,1.44-16.99,1.88-16.99c0.47,0.03,0.35,7.69-0.25,17.09
						c-0.16,2.29-0.31,4.49-0.47,6.63c-0.19,2.04-0.35,3.83,0,5.18c0.25,1.41,1.26,2.07,1.92,1.98
						C371.11,134.48,371.36,133.94,371.48,134z"/>
					<path class="st1" d="M363.95,161.99c0.28,0.19,0.44,0.5,0.38,0.85l-0.09,0.57c-2.73-1.57-4.11-3.02-3.99-3.17
						c0.13-0.16,1.38,0.63,3.55,1.66C363.85,161.93,363.88,161.96,363.95,161.99z"/>
					<path class="st1" d="M358.39,96.54c2.51,0.19,4.05,1.66,3.8,2.01c-0.25,0.41-1.88-0.22-3.96-0.41
						c-2.04-0.19-3.77,0.16-3.96-0.28C354.05,97.48,355.87,96.28,358.39,96.54z"/>
					<path class="st1" d="M360.93,175.27l0.5,1.51c-0.03,0-0.44,0.16-1.19,0.38c0.06-0.41,0.13-0.85,0.19-1.26l0.09-0.47
						C360.77,175.34,360.9,175.27,360.93,175.27z"/>
					<path class="st1" d="M359.55,107.68c0.88,0.03,1.41,1.22,1.22,2.67c-0.22,1.44-1.07,2.58-1.92,2.54
						c-0.88-0.03-1.41-1.22-1.22-2.67C357.85,108.78,358.7,107.65,359.55,107.68z"/>
					<path class="st1" d="M360.52,175.43l-0.09,0.47c-0.06,0.41-0.13,0.85-0.19,1.26c-7.35,2.51-48.62,16.87-105.97,43.37l1.13,2.54
						c-0.16-0.38-0.6-0.6-1.01-0.44l-0.79,0.31l-1.41-3.17l0.69-0.35C313.22,191.48,355.97,176.94,360.52,175.43z"/>
					<path class="st1" d="M322.71,223.39c0.19-0.63,0.97-0.31,0.85,0.31c-3.74,18.22-7.19,36.5-10.65,54.77l2.7-18.59l-1.48,0.47
						C316.33,247.86,319.25,235.45,322.71,223.39z"/>
					<path class="st1" d="M315.61,259.88l-2.7,18.59c-0.19,1.01-0.38,1.98-0.57,2.98c-0.16,0.82-1.35,0.53-1.26-0.28
						c0.25-2.17,0.5-4.33,0.82-6.53l1.26-8.57c0.31-1.92,0.63-3.8,0.97-5.72L315.61,259.88z"/>
					<path class="st1" d="M314.13,260.36c-0.35,1.92-0.66,3.8-0.97,5.72l0.57-3.93l-37.15,11.93l-3.45-7.69
						c0.22-0.06,0.41-0.09,0.63-0.16c0.41-0.09,0.69-0.5,0.57-0.94c-0.03-0.09-0.06-0.16-0.09-0.25l3.2,7.13L314.13,260.36z"/>
					<path class="st1" d="M312.34,281.46c0.19-1.01,0.38-1.98,0.57-2.98l-7.95,54.68c-0.6,0.13-1.13,0.28-1.66,0.41l8.61-58.92
						c-0.31,2.2-0.57,4.37-0.82,6.53C310.99,282,312.19,282.28,312.34,281.46z"/>
					<path class="st1" d="M304.96,333.16l-0.13,0.85l-1.57-0.22l0.03-0.22C303.83,333.44,304.37,333.28,304.96,333.16z"/>
					<path class="st1" d="M288.13,340.82l0.63,1.7l-0.72,0.28C287.97,342.71,287.69,341.92,288.13,340.82z"/>
					<path class="st1" d="M274.31,265.29c0.13,0.44-0.16,0.85-0.57,0.94c-0.22,0.06-0.41,0.09-0.63,0.16l-0.66-1.48
						c0.28-0.03,0.6-0.13,0.91-0.19c0.35-0.09,0.69,0.06,0.85,0.31C274.25,265.13,274.28,265.19,274.31,265.29z"/>
					<path class="st1" d="M255.4,223.08l18.81,41.96c-0.16-0.25-0.5-0.41-0.85-0.31c-0.31,0.06-0.63,0.16-0.91,0.19l-18.18-40.52
						l0.69-0.28C255.37,223.95,255.56,223.48,255.4,223.08z"/>
					<path class="st1" d="M272.46,264.91l0.66,1.48c-4.21,0.97-8.2,1.73-12,2.2l-0.57-1.51
						C264.29,266.61,268.25,265.88,272.46,264.91z"/>
					<path class="st4" d="M254.27,224.39l18.18,40.52c-4.21,0.97-8.17,1.7-11.9,2.17l-2.73-7.35l-30.65,1.7
						c-2.01-1.38-3.8-2.98-5.4-4.81c-21.89-25.03,0.79-84.61,1.01-85.21c0.16-0.35,0-0.75-0.35-0.97
						c-13.57-7.54-15.83-12.5-15.95-14.76c-0.13-1.7,0.85-2.61,1.13-2.83l1.04,0.03c-0.03,0.03-0.06,0.03-0.09,0.09
						c-0.06,0.09-0.03,0.22,0.06,0.28c1.29,0.91,2.7,1.76,4.33,2.58c1.41,0.69,2.92,1.32,4.62,1.92c0.75,0.22,1.66,0.47,2.61,0.53
						c0.06,0,0.13,0,0.19,0c-0.22,0.75-0.66,1.32-1.07,1.7c-0.6,0.57-1.41,0.94-2.39,1.1c-0.79,0.16-1.7,0.16-2.83,0
						c-0.5-0.06-1.01-0.16-1.54-0.28c-0.5-0.09-0.97-0.19-1.51-0.25c-0.09,0-0.22,0.06-0.25,0.16c-0.03,0.13,0,0.22,0.09,0.28
						c1.04,0.6,1.98,1.01,2.95,1.29c0.72,0.22,1.48,0.31,2.2,0.31c0.38,0,0.75-0.03,1.13-0.09c1.29-0.22,2.36-0.82,3.05-1.66
						c0.63-0.79,0.94-1.73,0.88-2.61c0.66-0.06,1.29-0.22,1.79-0.5c0.91-0.47,1.6-1.32,1.79-2.2c0.16-0.75,0.03-1.48-0.31-2.04
						c0.47,0.13,1.01,0.25,1.54,0.28c0.13,0,0.22,0,0.35,0c1.16,0,2.23-0.41,2.95-1.13c0.22-0.22,0.41-0.5,0.6-0.75
						c0.22,1.41,0.63,2.8,1.32,4.02c0.94,1.76,2.26,3.2,3.83,4.18c0.03,0.03,0.06,0.06,0.13,0.06c0.06,0,0.13-0.03,0.19-0.09
						c0.06-0.09,0.06-0.22-0.03-0.31c-1.29-1.29-2.29-2.76-3.05-4.37c-0.75-1.66-1.16-3.36-1.19-5.06
						c-0.09-1.66,0.19-3.39,0.82-5.12c0.6-1.63,1.51-3.2,2.7-4.59c0.06-0.06,0.06-0.22,0-0.31c-0.09-0.06-0.22-0.09-0.31,0
						c-1.01,0.72-1.82,1.73-2.51,2.8c-0.09-0.66-0.31-1.32-0.72-1.92c-0.57-0.82-1.32-1.51-2.42-2.17
						c-0.03-0.03-0.09-0.03-0.13-0.03l1.29-1.6c0.44,0.38,2.04,1.54,3.58,0.91c1.38-0.57,2.17-2.23,2.36-5.09
						c0.47-6.41,1.98-12.59,9.61-14.6c0.97-0.25,2.2-0.41,2.76,0.25c1.13,1.35-0.25,5.59-1.41,8.01c-1.44,3.83-1.19,8.42,0.66,12.88
						c2.48,6,1.57,13.1,0.44,19.85c-0.5,2.95-1.35,5.9-2.17,8.79c-1.48,5.12-2.98,10.43-2.67,15.86l2.54,42.49
						c0,0.25,0.16,0.47,0.35,0.63c0.22,0.13,0.47,0.16,0.72,0.06L254.27,224.39z"/>
					<path class="st1" d="M260.55,267.08l0.57,1.51c-3.61,0.47-7.04,0.69-10.27,0.69c-10.9,0-19.63-2.58-26.13-7.73l2.45-0.13
						C235.15,266.92,246.33,268.8,260.55,267.08z"/>
					<path class="st1" d="M257.82,259.73l2.73,7.35c-14.23,1.73-25.41-0.16-33.39-5.65L257.82,259.73z"/>
					<path class="st1" d="M255.4,223.08c0.16,0.41-0.03,0.88-0.44,1.04l-0.69,0.28l-0.66-1.44l0.79-0.31
						C254.81,222.48,255.25,222.7,255.4,223.08z"/>
					<path class="st1" d="M253.61,222.95l0.66,1.44l-7.82,3.02c-0.25,0.09-0.5,0.06-0.72-0.06c-0.19-0.16-0.35-0.38-0.35-0.63
						l-2.54-42.49c-0.31-5.43,1.19-10.74,2.67-15.86c0.82-2.89,1.66-5.84,2.17-8.79c1.13-6.75,2.04-13.85-0.44-19.85
						c-1.85-4.46-2.1-9.05-0.66-12.88c1.16-2.42,2.54-6.66,1.41-8.01c-0.57-0.66-1.79-0.5-2.76-0.25c-7.63,2.01-9.14,8.2-9.61,14.6
						c-0.19,2.86-0.97,4.52-2.36,5.09c-1.54,0.63-3.14-0.53-3.58-0.91c-0.03-0.03-0.06-0.06-0.09-0.09
						c-1.85-1.6-7.38-5.46-10.74-4.24c-1.57,0.6-2.58,2.26-3.05,5.03c-0.03,0-0.09,0.03-0.13,0.06c-0.09,0.06-0.13,0.22-0.06,0.31
						c0,0,0,0.03,0.03,0.03c-0.09,0.13-0.22,0.22-0.41,0.28c-0.19,0.06-4.96,1.48-4.49,5.28c0.06,0.25-0.06,0.53-0.25,0.69
						c-0.06,0.03-4.24,3.58-2.58,7.1c0.16,0.35,0.06,0.75-0.25,0.97c0,0-0.03,0.03-0.06,0.06c-0.28,0.22-1.26,1.13-1.13,2.83
						c0.13,2.26,2.39,7.22,15.95,14.76c0.35,0.22,0.5,0.63,0.35,0.97c-0.22,0.6-22.9,60.18-1.01,85.21c1.6,1.82,3.39,3.42,5.4,4.81
						l-2.45,0.13c-1.51-1.16-2.89-2.45-4.15-3.89c-11.78-13.51-10.93-36.43-8.17-53.3c2.67-16.05,7.54-29.81,8.67-32.85
						c-10.49-5.94-15.95-11.24-16.17-15.8c-0.09-1.92,0.79-3.17,1.35-3.77c-1.35-3.77,1.85-7.16,2.92-8.13
						c-0.22-3.58,3.02-5.65,5.18-6.41c0.57-3.14,1.92-5.09,3.96-5.84c4.93-1.79,12,4.27,12.31,4.52c0.31,0.31,1.35,1.01,2.07,0.72
						c0.41-0.16,1.16-0.88,1.35-3.71c0.5-6.66,2.17-13.76,10.8-16.02c2.04-0.57,3.49-0.28,4.37,0.75c2.1,2.58-0.85,8.92-1.19,9.61
						c-1.29,3.42-1.04,7.57,0.66,11.68c2.64,6.38,1.73,13.72,0.53,20.73c-0.5,3.02-1.35,6.03-2.2,8.95
						c-1.44,4.99-2.92,10.14-2.61,15.33l2.48,41.43L253.61,222.95z"/>
					<path class="st1" d="M235.21,159.73c0.09,0.09,0.09,0.22,0.03,0.31c-0.06,0.06-0.13,0.09-0.19,0.09
						c-0.06,0-0.09-0.03-0.13-0.06c-1.57-0.97-2.89-2.42-3.83-4.18c-0.69-1.22-1.1-2.61-1.32-4.02c-0.19,0.25-0.38,0.53-0.6,0.75
						c-0.72,0.72-1.79,1.13-2.95,1.13c-0.13,0-0.22,0-0.35,0c-0.53-0.03-1.07-0.16-1.54-0.28c0.35,0.57,0.47,1.29,0.31,2.04
						c-0.19,0.88-0.88,1.73-1.79,2.2c-0.5,0.28-1.13,0.44-1.79,0.5c0.06,0.88-0.25,1.82-0.88,2.61c-0.69,0.85-1.76,1.44-3.05,1.66
						c-0.38,0.06-0.75,0.09-1.13,0.09c-0.72,0-1.48-0.09-2.2-0.31c-0.97-0.28-1.92-0.69-2.95-1.29c-0.09-0.06-0.13-0.16-0.09-0.28
						c0.03-0.09,0.16-0.16,0.25-0.16c0.53,0.06,1.01,0.16,1.51,0.25c0.53,0.13,1.04,0.22,1.54,0.28c1.13,0.16,2.04,0.16,2.83,0
						c0.97-0.16,1.79-0.53,2.39-1.1c0.41-0.38,0.85-0.94,1.07-1.7c-0.06,0-0.13,0-0.19,0c-0.94-0.06-1.85-0.31-2.61-0.53
						c-1.7-0.6-3.2-1.22-4.62-1.92c-1.63-0.82-3.05-1.66-4.33-2.58c-0.09-0.06-0.13-0.19-0.06-0.28c0.03-0.06,0.06-0.06,0.09-0.09
						c0.06-0.03,0.16-0.06,0.22-0.03l4.59,1.85c1.44,0.57,3.02,1.16,4.59,1.66c1.26,0.44,2.89,0.88,4.33,0.25
						c0.69-0.28,1.16-0.79,1.38-1.38c0.22-0.53,0.25-1.35-0.25-2.01c0,0,0,0,0-0.03c-0.25-0.09-0.5-0.19-0.75-0.28
						c-1.82-0.82-3.61-1.82-5.43-3.05c-1.6-1.07-3.2-2.29-4.87-3.71c-0.09-0.09-0.09-0.22-0.03-0.31c0.06-0.13,0.19-0.13,0.31-0.09
						c1.04,0.6,2.07,1.22,3.08,1.82c0.72,0.41,1.44,0.85,2.17,1.26c1.54,0.91,3.39,1.92,5.34,2.76c0.72,0.31,1.7,0.69,2.67,0.79
						c0.91,0.09,1.76-0.13,2.36-0.66c0.66-0.57,1.07-1.41,1.04-2.23c-0.03-0.91-0.47-1.79-1.19-2.39c-0.06-0.03-0.03-0.09-0.03-0.16
						c-0.06,0-0.16,0-0.22,0c-0.79,0-1.63-0.19-2.58-0.57c-1.98-0.88-3.8-1.98-5.43-3.33c-1.7-1.38-3.11-2.92-4.27-4.59
						c0.09-0.09,0.16-0.22,0.16-0.35c0-0.03,0-0.03,0-0.06c0.06,0,0.13,0.03,0.19,0.06c1.54,1.54,3.08,2.83,4.65,3.96
						c1.76,1.22,3.52,2.23,5.25,2.98c1.04,0.44,1.88,0.57,2.64,0.47c0.88-0.13,1.6-0.63,1.85-1.35c0.28-0.75,0.19-1.73-0.25-2.54
						c-0.41-0.79-1.04-1.48-1.88-2.26c-0.09-0.06-0.09-0.22-0.03-0.31c0.03-0.06,0.09-0.09,0.19-0.09c0.03,0,0.09,0,0.13,0.03
						c1.1,0.66,1.85,1.35,2.42,2.17c0.41,0.6,0.63,1.26,0.72,1.92c0.69-1.07,1.51-2.07,2.51-2.8c0.09-0.09,0.22-0.06,0.31,0
						c0.06,0.09,0.06,0.25,0,0.31c-1.19,1.38-2.1,2.95-2.7,4.59c-0.63,1.73-0.91,3.45-0.82,5.12c0.03,1.7,0.44,3.39,1.19,5.06
						C232.92,156.96,233.92,158.44,235.21,159.73z M229.71,147.92c0.09-0.53,0.25-1.07,0.44-1.6c-0.44,0.25-0.88,0.47-1.41,0.57
						c0,0-0.03,0-0.06,0C229.08,147.16,229.46,147.51,229.71,147.92z"/>
					<path class="st4" d="M230.12,141.64c0.44,0.82,0.53,1.79,0.25,2.54c-0.25,0.72-0.97,1.22-1.85,1.35
						c-0.75,0.09-1.6-0.03-2.64-0.47c-1.73-0.75-3.49-1.76-5.25-2.98c-1.57-1.13-3.11-2.42-4.65-3.96
						c-0.06-0.03-0.13-0.06-0.19-0.06c0.47-2.76,1.48-4.43,3.05-5.03c3.36-1.22,8.89,2.64,10.74,4.24c0.03,0.03,0.06,0.06,0.09,0.09
						l-1.29,1.6c-0.09,0-0.16,0.03-0.19,0.09c-0.06,0.09-0.06,0.25,0.03,0.31C229.08,140.16,229.71,140.85,230.12,141.64z"/>
					<path class="st4" d="M230.37,303.73c0.31,5.78-4.11,10.74-9.92,11.06c-5.81,0.35-10.74-4.11-11.09-9.89
						c-0.31-5.81,4.15-10.77,9.92-11.09C225.09,293.49,230.06,297.92,230.37,303.73z"/>
					<path class="st4" d="M229.37,149.49c0.03,0.82-0.38,1.66-1.04,2.23c-0.6,0.53-1.44,0.75-2.36,0.66
						c-0.97-0.09-1.95-0.47-2.67-0.79c-1.95-0.85-3.8-1.85-5.34-2.76c-0.72-0.41-1.44-0.85-2.17-1.26c-1.01-0.6-2.04-1.22-3.08-1.82
						c-0.13-0.03-0.25-0.03-0.31,0.09c-0.06,0.09-0.06,0.22,0.03,0.31c1.66,1.41,3.27,2.64,4.87,3.71c1.82,1.22,3.61,2.23,5.43,3.05
						c0.25,0.09,0.5,0.19,0.75,0.28c0,0.03,0,0.03,0,0.03c0.5,0.66,0.47,1.48,0.25,2.01c-0.22,0.6-0.69,1.1-1.38,1.38
						c-1.44,0.63-3.08,0.19-4.33-0.25c-1.57-0.5-3.14-1.1-4.59-1.66l-4.59-1.85c-0.06-0.03-0.16,0-0.22,0.03l-1.04-0.03
						c0.03-0.03,0.06-0.06,0.06-0.06c0.31-0.22,0.41-0.63,0.25-0.97c-1.66-3.52,2.51-7.07,2.58-7.1c0.19-0.16,0.31-0.44,0.25-0.69
						c-0.47-3.8,4.3-5.21,4.49-5.28c0.19-0.06,0.31-0.16,0.41-0.28c1.16,1.66,2.58,3.2,4.27,4.59c1.63,1.35,3.45,2.45,5.43,3.33
						c0.94,0.38,1.79,0.57,2.58,0.57c0.06,0,0.16,0,0.22,0c0,0.06-0.03,0.13,0.03,0.16C228.9,147.7,229.33,148.58,229.37,149.49z"/>
					<path class="st1" d="M215.8,138.06c0,0.03,0,0.03,0,0.06c0,0.13-0.06,0.25-0.16,0.35c-0.03,0-0.03-0.03-0.03-0.03
						c-0.06-0.09-0.03-0.25,0.06-0.31C215.7,138.09,215.77,138.06,215.8,138.06z"/>
				</g>
			</g>
		</g>
	</g>
	<text transform="matrix(1 0 0 1 42.8544 322.728)" class="st5 st6">1</text>
</g>
</svg>
