<svg id="Capa_1" data-name="Capa 1" xmlns="http://www.w3.org/2000/svg" viewBox="0 0 582.79 418.09"><defs><style>.cls-1{font-size:200.43px;font-family:PTMono-Regular, PT Mono;}.cls-2,.cls-3{fill:#8dc63f;}.cls-3{opacity:0.7;}.cls-4{fill:#1d1d1b;}.cls-5{fill:#fff;}</style></defs><text class="cls-1" transform="translate(37.85 322.73)">1</text><path class="cls-2" d="M442.22,54.66S379.58,17,307.47,42.68s-118.2,96-157,152-33.1,121.89,12.09,160.45,86.34,3.22,156.88,15.17,87.67,26,152.79-3,91.92-122.93,58-203.12S442.22,54.66,442.22,54.66Z"/><path class="cls-3" d="M442.22,54.66S379.58,17,307.47,42.68s-118.2,96-157,152-33.1,121.89,12.09,160.45,86.34,3.22,156.88,15.17,87.67,26,152.79-3,91.92-122.93,58-203.12S442.22,54.66,442.22,54.66Z"/><path class="cls-4" d="M458.17,218.36l26.41,45.51-8.13,1.48c-.22-.6-.38-.91-.38-.94l-1.44.66a5.21,5.21,0,0,0,.25.56l-42.34,7.73c1,3.39,4.49,15.83,4.68,22.17.25,7.76-7.66,9.83-7.76,9.83l-9.26,1.95c-1.1.28-111.78,26.26-122.18,29.24-6,1.73-7.79,3.61-8.29,4.59a1.48,1.48,0,0,0-.25,1.09l-.72.29-.63-1.7c0-.09.09-.19.12-.28,1.07-2.17,4.21-4,9.33-5.5,1-.28,3-.78,5.72-1.47l0,.22,1.57.22.12-.85c27.33-6.82,113.92-27.14,114.89-27.36l9.27-1.95c.25-.06,6.75-1.79,6.53-8.26-.19-7-4.84-22.45-4.87-22.61l-.25-.85,51.57-9.42-25.34-43.62c-7.23-16.05-16.65-26.35-25.63-33-13.1-9.64-25.25-11.46-28.21-11.75l.29-1.54C408.92,173.42,440.27,178.63,458.17,218.36Z"/><path class="cls-5" d="M456.76,219.09l25.34,43.62-51.57,9.42-3.36-2.67a.88.88,0,0,0,.82-1.28c-9.87-17.47-36.28-70.64.94-76.14.53-.06.41-1-.13-.94l2.33-5C440.11,192.74,449.53,203,456.76,219.09Z"/><path class="cls-4" d="M476.45,265.35c2,4.93,10.39,28.49,2.92,53.86-8,27.14-32.45,31.54-98.12,33.7l-.06-1.57c64.82-2.1,88.91-6.4,96.64-32.57,7.57-25.56-1.35-49.27-2.95-53.14Z"/><path class="cls-5" d="M474.88,265.63c1.6,3.87,10.52,27.58,2.95,53.14-7.73,26.17-31.82,30.47-96.64,32.57l-.19-3.2-92.24-5.62.72-.29a1.48,1.48,0,0,1,.25-1.09c.5-1,2.26-2.86,8.29-4.59,10.4-3,121.08-29,122.18-29.24l9.26-1.95c.1,0,8-2.07,7.76-9.83-.19-6.34-3.71-18.78-4.68-22.17Z"/><path class="cls-4" d="M476.45,265.35l-1.57.28a5.21,5.21,0,0,1-.25-.56l1.44-.66S476.23,264.75,476.45,265.35Z"/><path class="cls-5" d="M435.65,295.59c.22,6.47-6.28,8.2-6.53,8.26l-9.27,1.95c-1,.22-87.56,20.54-114.89,27.36l8-54.68c3.45-18.28,6.91-36.56,10.65-54.78.12-.62-.66-.94-.85-.31a362.1,362.1,0,0,0-8.58,37l-36.71,11.8-3.2-7.12-18.82-42-1.13-2.55c57.35-26.51,98.62-40.86,106-43.37A20.7,20.7,0,0,0,376,199.68a19.9,19.9,0,0,0,4.87.59,20.4,20.4,0,0,0,11.24-3.36,20.63,20.63,0,0,0,9.11-13.57l1.69-9c3,.29,15.11,2.11,28.21,11.75l-2.33,5c-38.75,3.52-12.25,60.65-2.32,78a.82.82,0,0,0,.69.4l3.36,2.67.25.85C430.81,273.14,435.46,288.56,435.65,295.59Z"/><path class="cls-4" d="M428.8,191.1c.54,0,.66.88.13.94-37.22,5.5-10.81,58.67-.94,76.14a.88.88,0,0,1-.82,1.28.82.82,0,0,1-.69-.4C416.55,251.75,390.05,194.62,428.8,191.1Z"/><path class="cls-4" d="M421.11,77.5c2.32,5.66-.32,12.94-5.69,15.55,2.77,7.44,2.89,20.92-3,26.07v0c-.75-.22-1.38-.38-1.82-.47l1.22-16.3A24.91,24.91,0,0,0,391.74,76L370.92,72a21.34,21.34,0,0,0-16.58,3.68,21,21,0,0,0-8.48,14.6c-.13,1-.22,2-.35,3.08A11.12,11.12,0,0,1,345.1,92c-.25-1.07-.41-2.2-.56-3.3a19.83,19.83,0,0,1-3.61.1c-3.62-.25-7.35-1.89-9.14-5s-1-7.82,2.19-9.45c-4.86-4.24-2-13,3.68-16.11s12.59-2.23,19-1.29c-2.39-3.8,1.85-8.79,6.28-9.36s8.76,1.48,13.16,2.29c5,.91,10,.32,15.11.51s10.43,1.38,13.85,5.08S408.8,66,404.62,68.8C411.25,67.86,418.53,71.32,421.11,77.5Z"/><path class="cls-4" d="M420.07,124.52c1.79,2.76,2,6.19.79,10.18-3,9.54-9,9.67-12.19,9l-5.46,29.14-.92-.09-.06,1.57a4.93,4.93,0,0,1,.69.06l-1.69,9a20.63,20.63,0,0,1-9.11,13.57,20.4,20.4,0,0,1-11.24,3.36,19.9,19.9,0,0,1-4.87-.59,20.7,20.7,0,0,1-15.77-22.52c.75-.22,1.16-.38,1.19-.38l-.5-1.51s-.16.07-.41.16l2.17-12.31c-20.16-11-20.41-39.73-17.18-69.79a4.81,4.81,0,0,0,1.35,2.17c-2.95,29-2.32,56.28,16.93,66.39-2.17-1-3.42-1.82-3.55-1.66s1.26,1.6,4,3.17L362,176.18a19.16,19.16,0,0,0,37.69,6.88l7.6-40.51a1,1,0,0,1,.37-.54.77.77,0,0,1,.63-.06c3.61,1.1,8.48.66,11.09-7.69,1.13-3.55.91-6.54-.6-8.89-2.76-4.37-9-5.25-9.07-5.25a.82.82,0,0,1-.7-.85l.07-.72a8.59,8.59,0,0,0,.72.79l1.1.91a9.18,9.18,0,0,0,1.32-.88c.06.81.16.63.25-.22C414.76,119.9,418.12,121.44,420.07,124.52Z"/><path class="cls-5" d="M418.75,125.37c1.51,2.35,1.73,5.34.6,8.89-2.61,8.35-7.48,8.79-11.09,7.69a.77.77,0,0,0-.63.06,1,1,0,0,0-.37.54l-7.6,40.51A19.16,19.16,0,0,1,362,176.18l2.26-12.78a.23.23,0,0,1,.12.06A26.6,26.6,0,0,0,389,164c2.92-1.48,4.36-2.89,4.27-3.05s-1.82.85-4.74,2a30,30,0,0,1-23.59-.5c-.35-.16-.63-.28-.94-.44a.86.86,0,0,1-.16-.1c-19.25-10.11-19.88-37.43-16.93-66.39a3.13,3.13,0,0,0,1,.53c1.39.41,2.8-.34,4-1.1a51,51,0,0,0,11.25-9.83A33.88,33.88,0,0,0,394.63,81c2.58,12.88,5.31,28.08,14.42,37.56l-.07.72a.82.82,0,0,0,.7.85C409.74,120.12,416,121,418.75,125.37Zm-3.61,7a2.74,2.74,0,0,0,.06-1.82,2.35,2.35,0,0,0-1.41-1.54,2.26,2.26,0,0,0-2.8.85l1.36.82a.72.72,0,0,1,.84-.13c.51.16.66.72.51,1.35a2.11,2.11,0,0,1-1,1.32c-.94.6-1.79.72-1.79,1s.85.54,2.29.1A3.28,3.28,0,0,0,415.14,132.4Zm-24-27.95c.37-.28-.76-2-3-2.61s-4.11.35-3.93.76,1.73.34,3.49.84S390.83,104.76,391.15,104.45Zm-2.49,9.45c.22-1.44-.37-2.63-1.28-2.67s-1.83,1.1-2.05,2.55.38,2.64,1.29,2.67S388.44,115.35,388.66,113.9Zm-7.78,25.44c.65-1.72.4-2.89.21-2.89s-.43,1-1.25,2.42a7.87,7.87,0,0,1-10.43,3.33c-1.44-.63-2.2-1.38-2.39-1.19s.32,1.16,1.83,2.2a8.06,8.06,0,0,0,12-3.87ZM370.6,135.2c1-.47.95-1.2.88-1.2s-.37.48-1,.6-1.67-.56-1.92-2a16.81,16.81,0,0,1,0-5.18c.16-2.14.32-4.33.47-6.63.6-9.39.73-17,.25-17.08s-1.28,7.6-1.88,17c-.09,2.29-.22,4.49-.35,6.63a15.72,15.72,0,0,0,.41,5.62C367.87,134.66,369.57,135.67,370.6,135.2Zm-8.41-36.65c.25-.35-1.29-1.83-3.8-2s-4.34.94-4.12,1.31,1.92.1,4,.29S361.94,99,362.19,98.55Zm-1.42,11.8c.19-1.44-.34-2.63-1.22-2.67s-1.7,1.1-1.92,2.55.35,2.64,1.23,2.67S360.55,111.8,360.77,110.35Z"/><path class="cls-4" d="M415.2,130.58a2.74,2.74,0,0,1-.06,1.82,3.28,3.28,0,0,1-2,1.92c-1.44.44-2.29.09-2.29-.1s.85-.37,1.79-1a2.11,2.11,0,0,0,1-1.32c.15-.63,0-1.19-.51-1.35a.72.72,0,0,0-.84.13l-1.36-.82a2.26,2.26,0,0,1,2.8-.85A2.35,2.35,0,0,1,415.2,130.58Z"/><path class="cls-4" d="M412.44,119.15c-.09.85-.19,1-.25.22a9.18,9.18,0,0,1-1.32.88l-1.1-.91a8.59,8.59,0,0,1-.72-.79l1.22-16.27A23.3,23.3,0,0,0,395.39,78.7a22.29,22.29,0,0,0-4-1.13l-20.79-4.06a19.27,19.27,0,0,0-3.74-.37,19.7,19.7,0,0,0-11.62,3.8,19.24,19.24,0,0,0-7.85,13.5c-.19,1.7-.38,3.39-.57,5.06a4.81,4.81,0,0,1-1.35-2.17c.13-1,.22-2,.35-3.08a21,21,0,0,1,8.48-14.6A21.34,21.34,0,0,1,370.92,72L391.74,76a24.91,24.91,0,0,1,20.1,26.35l-1.22,16.3C411.06,118.77,411.69,118.93,412.44,119.15Z"/><path class="cls-4" d="M395.39,78.7a23.3,23.3,0,0,1,14.88,23.58l-1.22,16.27c-9.11-9.48-11.84-24.68-14.42-37.56Z"/><path class="cls-4" d="M403.21,172.82l-.29,1.54a4.93,4.93,0,0,0-.69-.06l.06-1.57Z"/><path class="cls-4" d="M395.39,78.7,394.63,81a33.88,33.88,0,0,1-31.56,4.11,51,51,0,0,1-11.25,9.83c-1.19.76-2.6,1.51-4,1.1a3.13,3.13,0,0,1-1-.53c.19-1.67.38-3.36.57-5.06a19.24,19.24,0,0,1,7.85-13.5,19.7,19.7,0,0,1,11.62-3.8,19.27,19.27,0,0,1,3.74.37l20.79,4.06A22.29,22.29,0,0,1,395.39,78.7Z"/><path class="cls-4" d="M393.22,160.92c.09.16-1.35,1.57-4.27,3.05a26.6,26.6,0,0,1-24.6-.51.23.23,0,0,0-.12-.06l.09-.56A.82.82,0,0,0,364,162c.31.16.59.28.94.44a30,30,0,0,0,23.59.5C391.4,161.77,393.06,160.7,393.22,160.92Z"/><path class="cls-4" d="M388.13,101.84c2.26.6,3.39,2.33,3,2.61s-1.67-.57-3.46-1-3.36-.37-3.49-.84S385.84,101.25,388.13,101.84Z"/><path class="cls-4" d="M387.38,111.23c.91,0,1.5,1.23,1.28,2.67s-1.13,2.58-2,2.55-1.5-1.23-1.29-2.67S386.47,111.2,387.38,111.23Z"/><path class="cls-4" d="M381.25,352.91l.1,1.45-190.27.44-34.55-89.48,68.19-3.77c6.5,5.15,15.23,7.73,26.13,7.73a78,78,0,0,0,10.27-.7l27,72.24a2.51,2.51,0,0,0-.09,2l.72-.28L381,348.14l.19,3.2c-3.74.13-7.63.22-11.65.35l.06,1.57C373.62,353.13,377.51,353,381.25,352.91Zm-160.8-38.13a10.51,10.51,0,1,0-11.09-9.89A10.49,10.49,0,0,0,220.45,314.78Z"/><path class="cls-4" d="M381.19,351.34l.06,1.57c-3.74.13-7.63.22-11.65.35l-.06-1.57C373.56,351.56,377.45,351.47,381.19,351.34Z"/><path class="cls-4" d="M381.09,136.45c.19,0,.44,1.17-.21,2.89a8.06,8.06,0,0,1-12,3.87c-1.51-1-2-2.11-1.83-2.2s1,.56,2.39,1.19a7.87,7.87,0,0,0,10.43-3.33C380.66,137.49,380.84,136.45,381.09,136.45Z"/><path class="cls-4" d="M371.48,134c.07,0,.16.73-.88,1.2s-2.73-.54-3.17-2.23a15.72,15.72,0,0,1-.41-5.62c.13-2.14.26-4.34.35-6.63.6-9.39,1.44-17,1.88-17s.35,7.69-.25,17.08c-.15,2.3-.31,4.49-.47,6.63a16.81,16.81,0,0,0,0,5.18c.25,1.42,1.26,2.08,1.92,2S371.36,133.94,371.48,134Z"/><path class="cls-4" d="M364,162a.82.82,0,0,1,.37.85l-.09.56c-2.73-1.57-4.12-3-4-3.17s1.38.63,3.55,1.66A.86.86,0,0,0,364,162Z"/><path class="cls-4" d="M358.39,96.54c2.51.18,4.05,1.66,3.8,2s-1.89-.22-4-.41-3.77.15-4-.29S355.87,96.28,358.39,96.54Z"/><path class="cls-4" d="M360.93,175.27l.5,1.51s-.44.16-1.19.38c.06-.41.13-.85.19-1.26l.09-.47C360.77,175.34,360.9,175.27,360.93,175.27Z"/><path class="cls-4" d="M359.55,107.68c.88,0,1.41,1.23,1.22,2.67s-1.06,2.58-1.91,2.55-1.41-1.23-1.23-2.67S358.7,107.65,359.55,107.68Z"/><path class="cls-4" d="M360.52,175.43l-.09.47c-.06.41-.13.85-.19,1.26-7.35,2.51-48.62,16.86-106,43.37l1.13,2.55a.78.78,0,0,0-1-.44l-.79.31-1.41-3.17.69-.35C313.22,191.48,356,176.94,360.52,175.43Z"/><path class="cls-4" d="M322.71,223.39c.19-.63,1-.31.85.31-3.74,18.22-7.2,36.5-10.65,54.78l2.7-18.6-1.48.48A362.1,362.1,0,0,1,322.71,223.39Z"/><path class="cls-4" d="M315.61,259.88l-2.7,18.6-.57,3c-.15.82-1.35.54-1.25-.28.25-2.17.5-4.34.81-6.53l1.26-8.58c.32-1.91.63-3.8,1-5.71Z"/><path class="cls-4" d="M314.13,260.36c-.34,1.91-.65,3.8-1,5.71l.57-3.92-37.16,11.93-3.45-7.69c.22-.07.4-.1.62-.16a.75.75,0,0,0,.57-.94c0-.1-.06-.16-.09-.25l3.2,7.12Z"/><path class="cls-4" d="M312.34,281.46l.57-3-8,54.68c-.59.12-1.13.28-1.66.41l8.6-58.92c-.31,2.19-.56,4.36-.81,6.53C311,282,312.19,282.28,312.34,281.46Z"/><path class="cls-4" d="M305,333.16l-.12.85-1.57-.22,0-.22C303.83,333.44,304.37,333.28,305,333.16Z"/><path class="cls-4" d="M288.13,340.82l.63,1.7-.72.28A2.51,2.51,0,0,1,288.13,340.82Z"/><path class="cls-4" d="M274.31,265.29a.75.75,0,0,1-.57.94c-.22.06-.4.09-.62.16l-.66-1.48c.28,0,.59-.13.91-.19a.78.78,0,0,1,.85.32C274.25,265.13,274.28,265.19,274.31,265.29Z"/><path class="cls-4" d="M255.4,223.08l18.82,42a.78.78,0,0,0-.85-.32c-.32.06-.63.16-.91.19l-18.19-40.52.69-.28A.79.79,0,0,0,255.4,223.08Z"/><path class="cls-4" d="M272.46,264.91l.66,1.48a118.55,118.55,0,0,1-12,2.19l-.57-1.5A119.77,119.77,0,0,0,272.46,264.91Z"/><path class="cls-5" d="M254.27,224.39l18.19,40.52a119.77,119.77,0,0,1-11.91,2.17l-2.73-7.35-30.65,1.69a29.05,29.05,0,0,1-5.4-4.8c-21.9-25,.78-84.61,1-85.21a.78.78,0,0,0-.34-1c-13.57-7.54-15.83-12.5-16-14.76a3.24,3.24,0,0,1,1.13-2.83l1,0s-.07,0-.1.09a.21.21,0,0,0,.07.29,31.94,31.94,0,0,0,4.33,2.57,42.9,42.9,0,0,0,4.62,1.92,12.07,12.07,0,0,0,2.6.53h.19a3.75,3.75,0,0,1-1.07,1.7,4.47,4.47,0,0,1-2.38,1.1,8.88,8.88,0,0,1-2.83,0c-.5-.07-1-.16-1.54-.29s-1-.18-1.51-.25a.29.29,0,0,0-.25.16.23.23,0,0,0,.1.28,12.87,12.87,0,0,0,2.95,1.29,7.59,7.59,0,0,0,2.2.31,7.17,7.17,0,0,0,1.13-.09,5,5,0,0,0,3-1.66,3.82,3.82,0,0,0,.87-2.61,4.56,4.56,0,0,0,1.79-.5,3.42,3.42,0,0,0,1.8-2.2,2.8,2.8,0,0,0-.32-2,8.24,8.24,0,0,0,1.54.28h.35a4.16,4.16,0,0,0,3-1.13,5.51,5.51,0,0,0,.59-.76,12,12,0,0,0,1.32,4,11.06,11.06,0,0,0,3.84,4.17.16.16,0,0,0,.12.06.28.28,0,0,0,.19-.09.24.24,0,0,0,0-.31,15.58,15.58,0,0,1-3.05-4.37,13.44,13.44,0,0,1-.38-10.17,14.72,14.72,0,0,1,2.71-4.59.29.29,0,0,0,0-.31.23.23,0,0,0-.32,0,10.19,10.19,0,0,0-2.51,2.79,4.7,4.7,0,0,0-.72-1.92,7.6,7.6,0,0,0-2.42-2.16.21.21,0,0,0-.13,0l1.29-1.61c.44.38,2,1.54,3.58.92,1.38-.57,2.17-2.23,2.36-5.09.47-6.41,2-12.6,9.61-14.61,1-.25,2.2-.41,2.76.25,1.13,1.35-.25,5.59-1.41,8a17.52,17.52,0,0,0,.66,12.88c2.48,6,1.57,13.1.44,19.85a86.71,86.71,0,0,1-2.17,8.79c-1.48,5.12-3,10.43-2.67,15.86l2.54,42.5a.77.77,0,0,0,1.07.69Z"/><path class="cls-4" d="M260.55,267.08l.57,1.5a78,78,0,0,1-10.27.7c-10.9,0-19.63-2.58-26.13-7.73l2.45-.13C235.15,266.92,246.33,268.8,260.55,267.08Z"/><path class="cls-4" d="M257.82,259.73l2.73,7.35c-14.22,1.72-25.4-.16-33.38-5.66Z"/><path class="cls-4" d="M255.4,223.08a.79.79,0,0,1-.44,1l-.69.28-.66-1.44.79-.31A.78.78,0,0,1,255.4,223.08Z"/><path class="cls-4" d="M253.61,223l.66,1.44-7.82,3a.77.77,0,0,1-1.07-.69l-2.54-42.5c-.31-5.43,1.19-10.74,2.67-15.86a86.71,86.71,0,0,0,2.17-8.79c1.13-6.75,2-13.85-.44-19.85a17.52,17.52,0,0,1-.66-12.88c1.16-2.42,2.54-6.66,1.41-8-.56-.66-1.79-.5-2.76-.25-7.64,2-9.14,8.2-9.61,14.61-.19,2.86-1,4.52-2.36,5.09-1.54.62-3.14-.54-3.58-.92l-.09-.09c-1.86-1.6-7.38-5.46-10.75-4.24-1.57.6-2.57,2.26-3,5a.25.25,0,0,0-.13.06.25.25,0,0,0-.06.31,0,0,0,0,0,0,0,.8.8,0,0,1-.41.29c-.19.06-5,1.47-4.49,5.27a.72.72,0,0,1-.25.69c-.06,0-4.24,3.58-2.57,7.1a.79.79,0,0,1-.26,1l-.06.06a3.24,3.24,0,0,0-1.13,2.83c.13,2.26,2.39,7.22,16,14.76a.78.78,0,0,1,.34,1c-.22.6-22.9,60.18-1,85.21a29.05,29.05,0,0,0,5.4,4.8l-2.45.13a28.33,28.33,0,0,1-4.15-3.9c-11.78-13.5-10.93-36.43-8.16-53.29a194.19,194.19,0,0,1,8.66-32.86c-10.49-5.93-15.95-11.24-16.17-15.79a5.07,5.07,0,0,1,1.35-3.77c-1.35-3.77,1.85-7.16,2.92-8.14-.22-3.58,3-5.65,5.18-6.4.57-3.14,1.92-5.09,4-5.85,4.93-1.79,12,4.28,12.31,4.53s1.35,1,2.08.72c.4-.16,1.16-.88,1.35-3.71.5-6.66,2.16-13.75,10.8-16,2-.57,3.49-.29,4.37.75,2.1,2.57-.85,8.92-1.2,9.61-1.29,3.42-1,7.57.66,11.68,2.64,6.38,1.73,13.73.54,20.73a80,80,0,0,1-2.2,9c-1.45,5-2.92,10.15-2.61,15.33l2.48,41.43Z"/><path class="cls-4" d="M235.21,159.73a.24.24,0,0,1,0,.31.28.28,0,0,1-.19.09.16.16,0,0,1-.12-.06,11.06,11.06,0,0,1-3.84-4.17,12,12,0,0,1-1.32-4,5.51,5.51,0,0,1-.59.76,4.16,4.16,0,0,1-3,1.13h-.35a8.24,8.24,0,0,1-1.54-.28,2.8,2.8,0,0,1,.32,2,3.42,3.42,0,0,1-1.8,2.2,4.56,4.56,0,0,1-1.79.5,3.82,3.82,0,0,1-.87,2.61,5,5,0,0,1-3,1.66,7.17,7.17,0,0,1-1.13.09,7.59,7.59,0,0,1-2.2-.31,12.87,12.87,0,0,1-2.95-1.29.23.23,0,0,1-.1-.28.29.29,0,0,1,.25-.16c.54.07,1,.16,1.51.25s1,.22,1.54.29a8.88,8.88,0,0,0,2.83,0,4.47,4.47,0,0,0,2.38-1.1,3.75,3.75,0,0,0,1.07-1.7h-.19a12.07,12.07,0,0,1-2.6-.53,42.9,42.9,0,0,1-4.62-1.92,31.94,31.94,0,0,1-4.33-2.57.21.21,0,0,1-.07-.29c0-.06.07-.06.1-.09a.28.28,0,0,1,.22,0l4.58,1.85c1.45.57,3,1.16,4.59,1.67a6,6,0,0,0,4.33.25,2.43,2.43,0,0,0,1.38-1.38,2,2,0,0,0-.25-2v0l-.75-.28a36.21,36.21,0,0,1-5.43-3,50.19,50.19,0,0,1-4.87-3.7.23.23,0,0,1,0-.32c.06-.12.18-.12.31-.09,1,.6,2.07,1.23,3.08,1.82.72.41,1.44.85,2.17,1.26a49.62,49.62,0,0,0,5.33,2.76,9.29,9.29,0,0,0,2.67.79,3.05,3.05,0,0,0,2.36-.66,2.91,2.91,0,0,0,1-2.23,3.3,3.3,0,0,0-1.2-2.39c-.06,0,0-.09,0-.16h-.22a6.87,6.87,0,0,1-2.57-.56,23.55,23.55,0,0,1-5.44-3.33,22.47,22.47,0,0,1-4.27-4.59.47.47,0,0,0,.16-.34v-.06a.52.52,0,0,1,.19.06,36.81,36.81,0,0,0,4.65,4,30.43,30.43,0,0,0,5.24,3,5.11,5.11,0,0,0,2.64.47,2.22,2.22,0,0,0,1.85-1.35,3.18,3.18,0,0,0-.25-2.54,8.76,8.76,0,0,0-1.88-2.27.23.23,0,0,1,0-.31.26.26,0,0,1,.32-.06,7.6,7.6,0,0,1,2.42,2.16,4.7,4.7,0,0,1,.72,1.92,10.19,10.19,0,0,1,2.51-2.79.23.23,0,0,1,.32,0,.29.29,0,0,1,0,.31,14.72,14.72,0,0,0-2.71,4.59,13.44,13.44,0,0,0,.38,10.17A15.58,15.58,0,0,0,235.21,159.73Zm-5.5-11.81a10.28,10.28,0,0,1,.44-1.6,4.25,4.25,0,0,1-1.41.56h-.06A3.64,3.64,0,0,1,229.71,147.92Z"/><path class="cls-5" d="M230.12,141.64a3.18,3.18,0,0,1,.25,2.54,2.22,2.22,0,0,1-1.85,1.35,5.11,5.11,0,0,1-2.64-.47,30.43,30.43,0,0,1-5.24-3,36.81,36.81,0,0,1-4.65-4,.52.52,0,0,0-.19-.06c.47-2.77,1.47-4.43,3-5,3.37-1.22,8.89,2.64,10.75,4.24l.09.09L228.39,139a.21.21,0,0,0-.19.09.23.23,0,0,0,0,.31A8.76,8.76,0,0,1,230.12,141.64Z"/><path class="cls-5" d="M230.37,303.73a10.52,10.52,0,1,1-11.09-9.93A10.49,10.49,0,0,1,230.37,303.73Z"/><path class="cls-5" d="M229.37,149.49a2.91,2.91,0,0,1-1,2.23,3.05,3.05,0,0,1-2.36.66,9.29,9.29,0,0,1-2.67-.79,49.62,49.62,0,0,1-5.33-2.76c-.73-.41-1.45-.85-2.17-1.26-1-.59-2-1.22-3.08-1.82-.13,0-.25,0-.31.09a.23.23,0,0,0,0,.32,50.19,50.19,0,0,0,4.87,3.7,36.21,36.21,0,0,0,5.43,3l.75.28v0a2,2,0,0,1,.25,2,2.43,2.43,0,0,1-1.38,1.38,6,6,0,0,1-4.33-.25c-1.57-.51-3.14-1.1-4.59-1.67l-4.58-1.85a.28.28,0,0,0-.22,0l-1,0,.06-.06a.79.79,0,0,0,.26-1c-1.67-3.52,2.51-7.06,2.57-7.1a.72.72,0,0,0,.25-.69c-.47-3.8,4.3-5.21,4.49-5.27a.8.8,0,0,0,.41-.29,22.47,22.47,0,0,0,4.27,4.59,23.55,23.55,0,0,0,5.44,3.33,6.87,6.87,0,0,0,2.57.56h.22c0,.07,0,.13,0,.16A3.3,3.3,0,0,1,229.37,149.49Z"/><path class="cls-4" d="M215.8,138.06v.06a.47.47,0,0,1-.16.34,0,0,0,0,1,0,0,.25.25,0,0,1,.06-.31A.25.25,0,0,1,215.8,138.06Z"/></svg>