<svg id="Capa_1" data-name="Capa 1" xmlns="http://www.w3.org/2000/svg" viewBox="0 0 582.79 418.09"><defs><style>.cls-1{font-size:200.43px;font-family:PTMono-Regular, PT Mono;}.cls-2{fill:#00d2b8;}.cls-3,.cls-6,.cls-7{fill:#fff;}.cls-10,.cls-11,.cls-4,.cls-5,.cls-8{fill:none;}.cls-10,.cls-11,.cls-4,.cls-5,.cls-7{stroke:#000;}.cls-4,.cls-5,.cls-6,.cls-7{stroke-miterlimit:10;}.cls-5{stroke-width:0.75px;}.cls-6,.cls-8{stroke:#1d1d1b;}.cls-11,.cls-8{stroke-linecap:round;}.cls-10,.cls-11,.cls-8{stroke-linejoin:round;}.cls-9{fill:#1d1d1b;}</style></defs><text class="cls-1" transform="translate(105.43 279.79)">2</text><path class="cls-2" d="M449.91,182.09c-2.52-18.47-2.39-37.88,2.48-56,4.6-17.09,18.36-35.53,9.34-53.46-8.8-17.5-30.74-23.1-50.15-25.72-41.34-5.58-85-6-123,11.2C266.28,68.22,246,85,236.66,107.66c-8.93,21.59-7.21,45.85-7.42,69.21-.17,19.14-1.92,40.13-12.38,56.74-12.28,19.5-23.67,39.93-24.16,63.58-.42,20.5,7.28,41.66,23,54.87,22.5,19,58.19,23,86.51,22.49,36.81-.64,75.92-8.56,111.23-19.1,26.21-7.83,55.82-21.86,62-51.34l0-.15c7.79-37.74-9.53-68.75-21.18-103.11A101.34,101.34,0,0,1,449.91,182.09Z"/><path class="cls-3" d="M198.53,328.3s10.23,33.3,57.28,42.08l32.6-27.6s33.37-.93,50-23H298.05V148.71s-3.1-2.92-8.86-1.74-1.34,13.82-13.6,24.31-29.22,35.69-35,66.85c0,0-1.75,11.78-2.83,25.39S241.92,292.83,198.53,328.3Z"/><path d="M412.55,194V93.82a7.29,7.29,0,0,0-7.27-7.27H300a7.29,7.29,0,0,0-7.27,7.27V313.13a7.29,7.29,0,0,0,7.27,7.26H405.28a7.29,7.29,0,0,0,7.27-7.26V264.4c-4.61.18-9.33-1.13-12.34-7.32-4.3-8.83,11.92-18.25,11.92-18.25v-1.67l.41,0v-8a12,12,0,0,1-3.15-1.82c-9.4-7.5,2.89-26.23,2.89-26.23ZM352.67,318.44a5.35,5.35,0,1,1,5.35-5.35A5.36,5.36,0,0,1,352.67,318.44Z"/><circle cx="352.67" cy="313.09" r="4.57"/><path class="cls-4" d="M293.49,147.78s-4-3.24-7.22,3.24-3.6,12.61-11.88,21.61S257.82,187.76,251,207.21,239.09,236,238,258s1.08,36.38-34.22,65.91l-4.68,3.61"/><path class="cls-4" d="M293.49,186.7a30.51,30.51,0,0,1-7,9.49s1.85,5.55-1.62,34.23"/><path class="cls-5" d="M255.81,370.38l32.6-27.6s33-1.49,50-23"/><path class="cls-6" d="M412.55,108.67s9.76-6.9,15.06,0S412.55,134,412.55,134"/><path class="cls-6" d="M412.55,151s23.8-5.29,25.65,3.68-3.65,14-25.65,22.56"/><path class="cls-7" d="M412.29,201.09S400,219.82,409.4,227.32s17.85-4.4,17.85-4.4,11.67-14.76,5-23.93-19.64-6.9-19.64-6.9"/><path class="cls-7" d="M412.14,237.16c8.1-.23,12.15,4.18,12.15,4.18,10.73,12.76-.12,21.1-6.08,22.29s-13.71,2.27-18-6.55,11.92-18.25,11.92-18.25Z"/><path class="cls-3" d="M407.22,264.43v42.08H298.05V102.43H407.22v107s-4.93,10,.08,16.2v15.75s-9.33,6-8.4,13.43S407.22,264.43,407.22,264.43Z"/><path class="cls-8" d="M371.45,192.79l-49.33-10.68S320,218,317,230.1s5.58,16,5.58,16l26.76,12.08s21.26,5.79,33.81-2.75c0,0,15.42-3.87,13-20.94l-6.76-49.55Z"/><line class="cls-8" x1="371.91" y1="197.16" x2="372.57" y2="203.4"/><path class="cls-9" d="M372.3,208l.38,18.9c.06,3.16.05,6.34.42,9.48s1.12,6,1.52,9a38.94,38.94,0,0,1-.05,10.4c-.09.63.87.9,1,.26a40.14,40.14,0,0,0,.25-9.23c-.28-3-1-5.9-1.47-8.86a70.89,70.89,0,0,1-.61-9.66l-.18-9.39L373.3,208a.5.5,0,0,0-1,0Z"/><path class="cls-8" d="M358.19,189.41a15.59,15.59,0,0,1,1.39-4.27c6.63-15.11,13.73-30.53,25.65-41.95,1.54-1.47,3.61-3,5.61-2.24,1.72.62,2.51,2.64,2.66,4.47a23.32,23.32,0,0,1-.9,7.18,212.41,212.41,0,0,1-12.3,36.26"/><path class="cls-8" d="M378.85,153.83a81.27,81.27,0,0,0,10.18,5,6,6,0,0,0-2.25-3.83,8.3,8.3,0,0,0-4.17-1.66,6.7,6.7,0,0,0-3.76.5"/><path class="cls-8" d="M374,162.81a80.33,80.33,0,0,0,10.66,3.86,6,6,0,0,0-2.64-3.56,8.44,8.44,0,0,0-4.33-1.21,6.86,6.86,0,0,0-3.69.91"/><path class="cls-8" d="M368.43,172.55a82.71,82.71,0,0,0,10.66,3.86,6,6,0,0,0-2.65-3.57,8.31,8.31,0,0,0-4.33-1.2,6.64,6.64,0,0,0-3.68.91"/><path class="cls-8" d="M363.49,185.39a82,82,0,0,0,10.93,3,6,6,0,0,0-2.92-3.35,8.27,8.27,0,0,0-4.41-.86,6.67,6.67,0,0,0-3.6,1.19"/><path class="cls-8" d="M338.43,185.64s-1.37-10.73,12.37-10"/><path class="cls-8" d="M352.74,175.9s7,1.4,7.4,8"/><polygon class="cls-8" points="350.6 176.77 351.56 177.48 353.41 172.87 352.02 172.4 350.6 176.77"/><path class="cls-8" d="M335.1,163.55l-5.17-2.23s-2.18,2.92-4.76,3.07.56-3,.56-3l-5.58,4.72s-1.33,1.31-3-.59l-.61,10.9s-.14,2.21-1.75.85l-.6-.51-2,18.14s-.45,3.2-1.89-.43-1.87-10.48,0-17c0,0-4.75,12.93-5.54,5.27s9.22-17.41,9.22-17.41l-7.36,5.25s-2.58.74-.3-2.2a28.93,28.93,0,0,1,10.38-7.76s-5.81-.39-3.78-1.83,14.61-.21,14.61-.21S331.36,158.65,335.1,163.55Z"/><path class="cls-8" d="M332,172.26s-2.39-7.53,4.1-8.84,8,4.09,10.12,12"/><path class="cls-8" d="M323.06,182s-.28-5.14,6.23-8.38"/><polygon class="cls-8" points="329.9 174.87 331.49 174.63 330.06 169.81 328.31 170.36 329.9 174.87"/><path class="cls-8" d="M343.12,176.82s-3-7.48-12-4.12"/><path class="cls-8" d="M328,174.33s-.62-8,2.18-12.43"/><path class="cls-8" d="M331.05,159.64s2.81-5.46,2.72-9.22l.29-9.64h6.09l.28,9.43a21.88,21.88,0,0,0,2.78,9.57c2.63,4.27,3.34,10.25,2.74,14.85"/><line class="cls-8" x1="333.97" y1="143.8" x2="340.24" y2="143.8"/><path class="cls-8" d="M384.26,179.31a8.45,8.45,0,0,1,4.48,5.9"/><path class="cls-8" d="M345.88,166.57s3.32-10.1,14.26-9.26a12.42,12.42,0,0,1,9.79,6.34"/><path class="cls-8" d="M354,176.29s2.47-3.87,10.55-2.29"/><path class="cls-9" d="M345,152.63c1.2-.41,2.4-.89,3.62-1.24a3.06,3.06,0,0,1,3,.79c1.63,1.48,2.18,3.76,3.65,5.39.43.48,1.13-.23.7-.71-1.6-1.78-2.13-4.31-4.12-5.78a3.88,3.88,0,0,0-3-.77,15.31,15.31,0,0,0-2.06.64l-2.06.72c-.6.21-.34,1.17.27,1Z"/><path class="cls-9" d="M345.2,152.56c1-.91,1.72-2.08,2.73-3,1.25-1.11,2.9-1.26,4.5-1.36a6.63,6.63,0,0,1,2.39.19,5.44,5.44,0,0,1,1.89,1.22c1,.93,2.21,2,2.47,3.4.1.57,1,.41,1-.13a6.61,6.61,0,0,1,1.93-3.84,9.43,9.43,0,0,1,3.39-2.95,10.77,10.77,0,0,1,4.3-.52,9,9,0,0,1,4.45.8l.25-.93c-4.27,0-8.6,2.06-10.1,6.29-.16.44.37.73.73.56a14.57,14.57,0,0,1,3.05-1.08c1-.22,2.09-.55,2.74.39a14.73,14.73,0,0,1,2.19,5.54c.11.63,1.08.36,1-.27a16,16,0,0,0-1.06-3.47,7.8,7.8,0,0,0-1.83-3c-.83-.68-2-.43-2.93-.24a15.39,15.39,0,0,0-3.62,1.26l.73.56c1.35-3.79,5.35-5.54,9.14-5.55a.5.5,0,0,0,.25-.93,9.83,9.83,0,0,0-4.85-.94,11.4,11.4,0,0,0-5,.69,11.05,11.05,0,0,0-3.78,3.39,7.23,7.23,0,0,0-2,4.23l1-.14c-.29-1.57-1.52-2.74-2.65-3.77a6.2,6.2,0,0,0-4.61-1.79,9.26,9.26,0,0,0-5,1.18c-1.33.94-2.16,2.38-3.35,3.46-.48.44.23,1.14.71.71Z"/><path class="cls-9" d="M364.22,158.55l2-1.83c.61-.55,1.23-1,2.05-.56a9.91,9.91,0,0,1,1.9,1.52,20.68,20.68,0,0,1,1.81,1.94c.41.5,1.11-.21.71-.7a18.93,18.93,0,0,0-2.09-2.2,7.26,7.26,0,0,0-2.32-1.64,2.44,2.44,0,0,0-2.4.62c-.84.67-1.61,1.43-2.41,2.14-.48.43.23,1.14.71.71Z"/><path class="cls-9" d="M354.14,147.39a6.94,6.94,0,0,0-5.24-2.64,14.23,14.23,0,0,0-7.12,1.93l.68.68a12.25,12.25,0,0,1,7.11-4.41,4,4,0,0,1,4.15.88,7.29,7.29,0,0,1,1.54,4.23c.08.63,1.08.64,1,0a8.68,8.68,0,0,0-1.71-4.8,4.64,4.64,0,0,0-4.38-1.45,14.93,14.93,0,0,0-4.87,1.77,11.07,11.07,0,0,0-3.7,3.27c-.31.45.27.89.68.69,3.27-1.62,8.32-3.21,11,.35.38.51,1.25,0,.87-.5Z"/><path class="cls-9" d="M352.89,142.05a11.25,11.25,0,0,0-3.59-2.2l-4.56-2-.25.93c3.68-.24,7.78-.49,10.93,1.77a12.33,12.33,0,0,1,3.19,3.67,25.82,25.82,0,0,1,2.4,4.64c.21.61,1.18.35,1-.26a25.92,25.92,0,0,0-2.55-5,13.41,13.41,0,0,0-3.33-3.82c-3.33-2.48-7.68-2.28-11.6-2-.44,0-.74.72-.25.93l4.33,1.93a11.49,11.49,0,0,1,3.62,2.13.5.5,0,0,0,.7-.7Z"/><path class="cls-9" d="M356.31,140.08c.33-2-.91-4-1.71-5.78l-2.75-6.14-.68.68c1,.76,2.1,1.3,3.14,2a10.15,10.15,0,0,1,2.83,2.9,16.22,16.22,0,0,1,3,7.23c.05.44.69.75.93.25a12.22,12.22,0,0,0,1-2.82,7.48,7.48,0,0,1,1.1-3,8.06,8.06,0,0,1,1.91-2.08,5.41,5.41,0,0,1,2.89-.81l-.43-.76a14.55,14.55,0,0,0-2.82,6.55c-.1.63.86.9,1,.27a14,14,0,0,1,2.72-6.31.5.5,0,0,0-.43-.75,6.81,6.81,0,0,0-3.07.74,7.55,7.55,0,0,0-2.13,2,7.25,7.25,0,0,0-1.48,2.91,15.94,15.94,0,0,1-1,3.51l.93.25A17.21,17.21,0,0,0,358,133.2a11.48,11.48,0,0,0-2.76-3c-1.15-.81-2.45-1.39-3.58-2.25-.44-.34-.86.29-.68.69l2.45,5.46,1.2,2.68a5.39,5.39,0,0,1,.7,3c-.1.63.86.9,1,.27Z"/><path class="cls-9" d="M362,147.67a7.83,7.83,0,0,1,.68-2.91c.3-.92.62-1.84,1-2.73a8.72,8.72,0,0,1,3-4.09c1.56-1,3.65-.77,5.37-.37a13.29,13.29,0,0,1,2.62.9,5.34,5.34,0,0,1,2.22,1.53l.57-.73c-2.31-.36-4.93-1-7.1.17-2,1.09-3.37,3.34-4.18,5.39-.24.6.73.86,1,.27a9.34,9.34,0,0,1,3.72-4.79c1.9-1,4.33-.39,6.33-.08.39.06.83-.33.57-.73a5.52,5.52,0,0,0-2.2-1.7,14.06,14.06,0,0,0-2.93-1.12c-1.94-.5-4.31-.78-6.14.21a8.75,8.75,0,0,0-3.5,4.31,33.25,33.25,0,0,0-1.22,3.19,8.72,8.72,0,0,0-.75,3.28c.05.63,1.05.64,1,0Z"/><path class="cls-9" d="M356.38,157.78c2.37,5.37,6.31,10,7.85,15.74a.5.5,0,0,0,1-.27c-1.57-5.82-5.55-10.52-8-16-.26-.59-1.12-.08-.86.5Z"/><path class="cls-9" d="M351.35,159.37a12.69,12.69,0,0,0,1.37,3.4c.64,1.19,1.25,2.4,1.84,3.61,1.21,2.5,2.34,5,3.45,7.58.26.59,1.13.08.87-.5-1.09-2.47-2.18-4.94-3.35-7.37-.56-1.15-1.12-2.3-1.73-3.43a13.11,13.11,0,0,1-1.49-3.56c-.13-.63-1.09-.36-1,.27Z"/><path class="cls-9" d="M347.27,163.34q2.12,4.62,4.64,9a.5.5,0,0,0,.86-.5q-2.52-4.41-4.64-9c-.27-.59-1.13-.08-.86.5Z"/><path class="cls-9" d="M346.89,175.34a44,44,0,0,1,4.79-4.14,60.87,60.87,0,0,1,5-4c.86-.57,1.77-1,2.65-1.57s1.71-1.11,2.56-1.69a33.26,33.26,0,0,1,5.44-3c.59-.26.08-1.12-.51-.87a33.22,33.22,0,0,0-5.43,3c-.91.62-1.82,1.25-2.76,1.8s-1.8,1-2.64,1.59c-1.75,1.19-3.33,2.64-4.95,4a46.83,46.83,0,0,0-4.88,4.23c-.43.47.27,1.18.71.7Z"/><path class="cls-9" d="M346.56,169.22c1.34-1,2.64-2.08,3.9-3.2a30.91,30.91,0,0,1,3.73-3.13c1.31-.84,2.69-1.51,4-2.41a21,21,0,0,1,3.93-2.39c.59-.25.08-1.12-.51-.87a21.56,21.56,0,0,0-3.92,2.4c-1.28.9-2.66,1.57-4,2.41a28.21,28.21,0,0,0-3.58,3q-2,1.77-4,3.36c-.51.38,0,1.25.5.86Z"/><path class="cls-9" d="M361.69,157.92c1.37,3.61,4.1,6.48,5.51,10.06.24.59,1.21.33,1-.27-1.42-3.58-4.15-6.46-5.52-10.05-.23-.6-1.19-.34-1,.26Z"/><path class="cls-9" d="M353.09,175.38a65.68,65.68,0,0,1,7.65-5.16c2.88-1.72,5.75-3.48,8.75-5,.57-.29.07-1.15-.5-.86-3.07,1.55-6,3.35-9,5.12a63.84,63.84,0,0,0-7.64,5.2c-.5.4.21,1.1.7.7Z"/><path class="cls-9" d="M342.92,181a.5.5,0,0,0,0-1,.5.5,0,0,0,0,1Z"/><path class="cls-9" d="M345.38,180.41a.5.5,0,0,0,0-1,.5.5,0,0,0,0,1Z"/><path class="cls-9" d="M344.53,182.2a.5.5,0,0,0,0-1,.5.5,0,0,0,0,1Z"/><path class="cls-9" d="M342.36,183.24a.5.5,0,0,0,0-1,.5.5,0,0,0,0,1Z"/><path class="cls-9" d="M326.41,179.94a.5.5,0,0,0,0-1,.5.5,0,0,0,0,1Z"/><path class="cls-9" d="M328.58,180.88a.5.5,0,0,0,0-1,.5.5,0,0,0,0,1Z"/><path class="cls-9" d="M328.86,178.9a.5.5,0,0,0,0-1,.5.5,0,0,0,0,1Z"/><path class="cls-9" d="M331.41,179.18a.5.5,0,0,0,0-1,.5.5,0,0,0,0,1Z"/><path class="cls-10" d="M407.3,250.79s5.25,1.17,5.25,10c0,0,8.06-1.71,9.46-3.11s-1.09-12.14-6.07-13.54Z"/><path class="cls-11" d="M409.21,217.61s7.79,4.51,9,9.16c0,0,6.94-6.29,7.3-7.39s-1.76-11.9-10-12Z"/></svg>