<?xml version="1.0" encoding="utf-8"?>
<!-- Generator: Adobe Illustrator 24.1.0, SVG Export Plug-In . SVG Version: 6.00 Build 0)  -->
<svg version="1.1" id="Capa_1" xmlns="http://www.w3.org/2000/svg" xmlns:xlink="http://www.w3.org/1999/xlink" x="0px" y="0px"
	 viewBox="0 0 582.79 418.09" style="enable-background:new 0 0 582.79 418.09;" xml:space="preserve">
<style type="text/css">
	.st0{fill:#62059E;}
	.st1{fill:#1D1D1B;}
	.st2{fill:#00D2B8;}
	.st3{opacity:0.7;fill:#00D2B8;}
	.st4{fill:#FFFFFF;}
	.st5{fill:none;stroke:#000000;stroke-miterlimit:10;}
	.st6{fill:none;stroke:#000000;stroke-width:0.75;stroke-miterlimit:10;}
	.st7{fill:#FFFFFF;stroke:#1D1D1B;stroke-miterlimit:10;}
	.st8{fill:#FFFFFF;stroke:#000000;stroke-miterlimit:10;}
	.st9{fill:none;stroke:#1D1D1B;stroke-linecap:round;stroke-linejoin:round;stroke-miterlimit:10;}
	.st10{fill:none;stroke:#000000;stroke-linejoin:round;stroke-miterlimit:10;}
	.st11{fill:none;stroke:#000000;stroke-linecap:round;stroke-linejoin:round;stroke-miterlimit:10;}
	.st12{fill:url(#SVGID_1_);}
	.st13{fill:url(#SVGID_2_);}
	.st14{fill:url(#SVGID_3_);}
	.st15{fill:url(#SVGID_4_);}
	.st16{fill:url(#SVGID_5_);}
	.st17{fill:url(#SVGID_6_);}
	.st18{fill:url(#SVGID_7_);}
	.st19{fill:url(#SVGID_8_);}
	.st20{fill:url(#SVGID_9_);}
	.st21{fill:url(#SVGID_10_);}
	.st22{fill:#8DC63F;}
	.st23{fill:#FF8686;}
	.st24{fill:#FC4B44;}
	.st25{clip-path:url(#SVGID_12_);}
	.st26{clip-path:url(#SVGID_14_);}
	.st27{fill:#FFFFFF;stroke:#000000;stroke-linejoin:round;stroke-miterlimit:10;}
	.st28{fill:#1A2E35;stroke:#000000;stroke-width:0.5;stroke-miterlimit:10;}
	.st29{stroke:#000000;stroke-width:0.5;stroke-linejoin:round;stroke-miterlimit:10;}
	.st30{opacity:0.6;}
	.st31{stroke:#000000;stroke-width:0.5;stroke-miterlimit:10;}
	.st32{opacity:0.4;}
	.st33{fill:#1A2E35;}
	.st34{stroke:#000000;stroke-width:0.75;stroke-miterlimit:10;}
	.st35{clip-path:url(#SVGID_16_);}
	.st36{clip-path:url(#SVGID_18_);}
	.st37{clip-path:url(#SVGID_20_);}
	.st38{clip-path:url(#SVGID_22_);}
	.st39{clip-path:url(#SVGID_24_);}
	.st40{clip-path:url(#SVGID_26_);}
	.st41{clip-path:url(#SVGID_28_);}
	.st42{clip-path:url(#SVGID_30_);}
	.st43{clip-path:url(#SVGID_32_);}
	.st44{clip-path:url(#SVGID_34_);}
	.st45{fill:#231F20;}
	.st46{clip-path:url(#SVGID_56_);fill:#231F20;}
	.st47{clip-path:url(#SVGID_58_);fill:#231F20;}
	.st48{clip-path:url(#SVGID_60_);fill:#231F20;}
	.st49{clip-path:url(#SVGID_62_);fill:#231F20;}
	.st50{clip-path:url(#SVGID_64_);fill:#231F20;}
	.st51{clip-path:url(#SVGID_66_);fill:#231F20;}
	.st52{clip-path:url(#SVGID_68_);fill:#231F20;}
	.st53{clip-path:url(#SVGID_70_);fill:#231F20;}
	.st54{clip-path:url(#SVGID_72_);fill:#231F20;}
	.st55{clip-path:url(#SVGID_74_);fill:#231F20;}
	.st56{clip-path:url(#SVGID_96_);}
	.st57{fill:#FFFFFF;stroke:#1D1D1B;stroke-linejoin:round;stroke-miterlimit:10;}
	.st58{fill:none;stroke:#1D1D1B;stroke-linejoin:round;stroke-miterlimit:10;}
	.st59{fill:#F5F5F5;}
	.st60{fill:#FAFAFA;stroke:#1D1D1B;stroke-width:0.5;stroke-linejoin:round;stroke-miterlimit:10;}
	.st61{fill:#1A2E35;stroke:#1D1D1B;stroke-width:0.5;stroke-linejoin:round;stroke-miterlimit:10;}
	.st62{fill:#1A2E35;stroke:#1D1D1B;stroke-width:0.5;stroke-miterlimit:10;}
	.st63{fill:none;stroke:#1D1D1B;stroke-miterlimit:10;}
	.st64{fill:#1A2E35;stroke:#000000;stroke-miterlimit:10;}
	.st65{opacity:0.3;}
	.st66{font-family:'PTMono-Regular';}
	.st67{font-size:200.4334px;}
	.st68{font-family:'AbrilFatface-Regular';}
	.st69{font-size:9px;}
	.st70{fill:none;}
	.st71{clip-path:url(#SVGID_98_);}
	.st72{clip-path:url(#SVGID_100_);}
	.st73{clip-path:url(#SVGID_102_);}
	.st74{clip-path:url(#SVGID_104_);}
	.st75{clip-path:url(#SVGID_106_);}
	.st76{clip-path:url(#SVGID_108_);}
	.st77{clip-path:url(#SVGID_110_);}
	.st78{clip-path:url(#SVGID_112_);}
	.st79{clip-path:url(#SVGID_114_);}
	.st80{clip-path:url(#SVGID_116_);}
	.st81{clip-path:url(#SVGID_132_);fill:#231F20;}
	.st82{clip-path:url(#SVGID_134_);fill:#231F20;}
	.st83{clip-path:url(#SVGID_136_);fill:#231F20;}
	.st84{clip-path:url(#SVGID_138_);fill:#231F20;}
	.st85{clip-path:url(#SVGID_140_);fill:#231F20;}
	.st86{clip-path:url(#SVGID_142_);fill:#231F20;}
	.st87{clip-path:url(#SVGID_144_);fill:#231F20;}
	.st88{clip-path:url(#SVGID_146_);fill:#231F20;}
	.st89{clip-path:url(#SVGID_148_);fill:#231F20;}
	.st90{clip-path:url(#SVGID_150_);fill:#231F20;}
</style>
<g>
	<path class="st0" d="M553.72,253.5c31.96-46.94,28.74-115.67-13.98-157.75C510.53,66.97,466,55.97,419.61,61.24
		c-31.63,3.59-63.22,9.99-95.15,10.01c-32.53,0.02-62-11.7-95.23-10.55C140.68,63.77,92,137.89,90.68,200.6
		c-0.77,36.56,10.23,73.44,28.39,106.26c10.96,19.81,21.79,40.42,39.16,57.15c29.55,28.46,80.39,35.21,125.44,36.42
		c43.97,1.18,89.07-3.28,132.33-11.32c34.31-6.38,70.48-18.31,95.47-40.93C542.72,319.87,532.45,284.74,553.72,253.5z"/>
</g>
<text transform="matrix(1 0 0 1 7.6739 279.455)" class="st66 st67">2</text>
<g>
	<g>
		<path class="st1" d="M454.76,286.66h-264.4c-1.63,0-2.96-1.32-2.96-2.96V94.84c0-1.63,1.32-2.96,2.96-2.96h264.4
			c1.63,0,2.96,1.32,2.96,2.96V283.7C457.71,285.34,456.39,286.66,454.76,286.66z"/>
		<path class="st4" d="M437.23,275.21H200.97c-0.59,0-1.07-0.48-1.07-1.07V105.41c0-0.59,0.48-1.07,1.07-1.07h236.27
			c0.59,0,1.07,0.48,1.07,1.07v168.73C438.3,274.74,437.82,275.21,437.23,275.21z"/>
		<circle class="st4" cx="448.04" cy="190.61" r="6.36"/>
	</g>
	<path class="st57" d="M452.86,379.42l-6.65-32.97c0,0-1.66-6.45-8.21-10.11c-9.75-5.45-47.7-37.28-47.7-37.28s-3.79-5.37,3.16-9.48
		s24.64,8.85,24.64,8.85s6.32,5.37,6.32-6s-6.32-60.26-6.32-60.26s-2.53-10.18,6.63-11.76c9.16-1.58,10.42,11.76,10.42,11.76
		l6.63,38.15c0,0,0.32-9.16,10.11-9.16s11.06,8.85,11.06,8.85s3.16-6.63,10.74-6c7.58,0.63,9.48,10.11,9.48,10.11
		s1.58-6.32,10.11-4.74c8.53,1.58,7.58,10.08,7.58,10.08l-3.79,49.62c0,0-0.23,10.59,7.92,24.52L452.86,379.42z"/>
	<path class="st58" d="M389.56,297.48c0,0,1.53-6.94,6.9-3.04c5.38,3.9,5.56,5.38,4.08,7.79l-2.54,3.26"/>
	<path class="st57" d="M425.59,235.27c0,0-4.3,0.7-4.65-4.87c-0.34-5.56,0.28-6.28,4.65-6.96c4.37-0.68,5.17,2.35,5.34,6.13
		C431.1,233.36,430.58,235.1,425.59,235.27z"/>
	<g>
		<rect x="215.88" y="115.37" class="st59" width="95.39" height="142.99"/>
	</g>
	<g>
		<path class="st33" d="M238.23,201.95v1.18h-0.86v-1.17c-1.03-0.06-2.03-0.4-2.58-0.87l0.47-1.06c0.52,0.42,1.31,0.73,2.11,0.8
			v-2.11c-1.17-0.28-2.42-0.66-2.42-2.13c0-1.07,0.78-2.01,2.42-2.17v-1.19h0.86v1.17c0.78,0.04,1.57,0.27,2.14,0.64l-0.43,1.06
			c-0.56-0.33-1.15-0.51-1.71-0.57v2.13c1.17,0.28,2.44,0.65,2.44,2.12C240.67,200.86,239.88,201.78,238.23,201.95z M237.36,197.45
			v-1.87c-0.75,0.12-1.06,0.49-1.06,0.96C236.3,197.04,236.75,197.27,237.36,197.45z M239.32,199.88c0-0.52-0.46-0.76-1.09-0.94
			v1.86C239,200.69,239.32,200.33,239.32,199.88z"/>
		<path class="st33" d="M246.96,194.5v7.37h-1.37v-6.22h-1.56v-1.15H246.96z"/>
		<path class="st33" d="M254.22,199.6c0,1.3-0.94,2.37-2.92,2.37c-1.04,0-2.09-0.32-2.77-0.85l0.58-1.06
			c0.54,0.44,1.34,0.73,2.17,0.73c0.98,0,1.56-0.43,1.56-1.13c0-0.7-0.45-1.15-1.98-1.15h-1.78l0.38-4.01h4.33v1.15h-3.17l-0.16,1.7
			h0.71C253.35,197.35,254.22,198.3,254.22,199.6z"/>
		<path class="st33" d="M257.14,198.18c0-2.42,1.33-3.79,3.07-3.79c1.76,0,3.08,1.37,3.08,3.79c0,2.42-1.33,3.79-3.08,3.79
			C258.47,201.97,257.14,200.6,257.14,198.18z M261.92,198.18c0-1.78-0.69-2.6-1.71-2.6c-1,0-1.69,0.82-1.69,2.6
			c0,1.78,0.69,2.6,1.69,2.6C261.23,200.78,261.92,199.96,261.92,198.18z"/>
		<path class="st33" d="M263.87,198.18c0-2.42,1.33-3.79,3.07-3.79c1.76,0,3.08,1.37,3.08,3.79c0,2.42-1.33,3.79-3.08,3.79
			C265.19,201.97,263.87,200.6,263.87,198.18z M268.65,198.18c0-1.78-0.69-2.6-1.71-2.6c-1,0-1.69,0.82-1.69,2.6
			c0,1.78,0.69,2.6,1.69,2.6C267.95,200.78,268.65,199.96,268.65,198.18z"/>
		<text transform="matrix(1 0 0 1 254.6429 201.8091)" class="st33 st68 st69">.</text>
	</g>
	<g>
		<g>
			<path class="st33" d="M293.76,211.26c0,0.18-13.51,0.33-30.18,0.33c-16.67,0-30.18-0.15-30.18-0.33c0-0.18,13.51-0.33,30.18-0.33
				C280.25,210.93,293.76,211.08,293.76,211.26z"/>
		</g>
	</g>
	<g>
		<g>
			<path class="st33" d="M261.52,216.17c0,0.18-6.27,0.33-14.01,0.33c-7.74,0-14.01-0.15-14.01-0.33c0-0.18,6.27-0.33,14.01-0.33
				C255.25,215.84,261.52,215.99,261.52,216.17z"/>
		</g>
	</g>
	<g>
		<rect x="320.35" y="115.37" class="st59" width="95.39" height="142.99"/>
	</g>
	<g>
		<g>
			<g>
				<path class="st60" d="M273.68,148.74c0,0.03,0.01,0.04,0.01,0.05v33.2c0,1.46-1.17,2.96-3.33,4.1c-2.15,1.14-5.3,1.92-9.22,1.92
					h-0.05c-7.86-0.02-12.55-3.1-12.55-6.02v-33.2c0-0.01,0.01-0.02,0.01-0.05c0-0.02-0.01-0.04-0.01-0.07
					c0.02-3.25,2.4-6.63,4.8-9.98c1.61-2.23,2-5.45,2.07-7.34c0.01-0.23,0.02-0.43,0.02-0.61h-0.22c-1.04,0-1.87-0.72-1.87-1.61
					v-1.4c0-0.9,0.84-1.61,1.87-1.61h11.79c0.78,0,1.45,0.4,1.73,0.98c0.09,0.2,0.14,0.41,0.14,0.64v1.4c0,0.89-0.84,1.61-1.87,1.61
					h-0.22c0,0.18,0.01,0.38,0.02,0.61c0.08,1.89,0.46,5.11,2.07,7.34c2.4,3.35,4.79,6.73,4.8,9.98
					C273.68,148.7,273.68,148.72,273.68,148.74z"/>
			</g>
			<g>
				<g>
					<path class="st61" d="M273.68,148.74c0,0,0-0.11-0.03-0.34c-0.01-0.23-0.06-0.56-0.13-0.99c-0.17-0.86-0.58-2.11-1.39-3.58
						c-0.8-1.48-1.99-3.18-3.41-5.13c-1.42-2.04-2.03-4.88-2.1-7.96l0-0.2l0.18,0.02c0.84,0.08,1.76-0.41,1.89-1.26
						c0.02-0.42,0-0.94,0.01-1.41c0.03-0.47-0.13-0.87-0.48-1.16c-0.34-0.29-0.8-0.43-1.27-0.42c-0.51,0-1.03,0-1.55,0
						c-1.04,0-2.11,0.01-3.2,0.01c-2.18,0.01-4.45,0.01-6.79,0.02c-0.56-0.03-1.08,0.14-1.45,0.51c-0.17,0.19-0.3,0.42-0.34,0.66
						c-0.04,0.22-0.01,0.58-0.02,0.86c0,0.29-0.01,0.64,0.01,0.88c0.03,0.25,0.15,0.49,0.33,0.68c0.37,0.4,0.91,0.57,1.51,0.54
						l0.25-0.02l0,0.26c-0.02,1.34-0.15,2.69-0.44,4.05c-0.3,1.35-0.77,2.71-1.59,3.92c-1.61,2.3-3.38,4.63-4.35,7.37
						c-0.23,0.68-0.4,1.39-0.46,2.11c-0.04,0.7-0.02,1.49-0.02,2.23c0,1.51,0,3.04,0,4.58c0,3.08,0,6.22,0,9.4
						c0,5.59,0,11.05-0.01,16.32c0.01,0.65-0.04,1.34,0.08,1.9c0.13,0.59,0.48,1.11,0.88,1.57c0.83,0.92,1.92,1.59,3.06,2.08
						c2.3,0.97,4.76,1.37,7.15,1.47c2.4,0.1,4.75-0.09,6.96-0.63c2.17-0.56,4.3-1.45,5.67-3.03c0.33-0.39,0.59-0.84,0.74-1.31
						c0.15-0.46,0.12-0.96,0.12-1.5c0-1.04,0.01-2.06,0.01-3.06c0.01-2,0.01-3.92,0.02-5.75c0.04-7.3,0.07-13.22,0.09-17.35
						c0.02-2.02,0.04-3.61,0.05-4.72C273.64,149.31,273.68,148.74,273.68,148.74c0.04,0,0.04,0.57,0.06,1.64
						c0.01,1.11,0.03,2.69,0.05,4.72c0.02,4.13,0.05,10.05,0.09,17.35c0.01,1.83,0.01,3.75,0.02,5.75c0,1,0.01,2.02,0.01,3.06
						c0,0.5,0.04,1.07-0.13,1.63c-0.17,0.54-0.45,1.04-0.82,1.47c-1.48,1.72-3.68,2.63-5.9,3.21c-2.26,0.56-4.65,0.76-7.09,0.67
						c-2.44-0.1-4.96-0.49-7.34-1.5c-1.18-0.51-2.34-1.2-3.25-2.21c-0.44-0.5-0.84-1.1-1-1.8c-0.16-0.72-0.08-1.36-0.1-2.02
						c0-5.27,0-10.73-0.01-16.32c0-3.18,0-6.32,0-9.4c0-1.54,0-3.07,0-4.58c0-0.77-0.01-1.49,0.03-2.27
						c0.06-0.77,0.25-1.52,0.49-2.24c1.03-2.86,2.83-5.2,4.43-7.49c1.52-2.28,1.89-5.1,1.96-7.67l0.25,0.25
						c-0.64,0.04-1.4-0.17-1.87-0.7c-0.24-0.26-0.4-0.6-0.45-0.95c-0.02-0.36-0.01-0.63-0.01-0.94c0.01-0.32-0.02-0.57,0.03-0.95
						c0.06-0.35,0.24-0.66,0.47-0.91c0.47-0.49,1.19-0.69,1.79-0.65c2.35,0.01,4.62,0.01,6.79,0.02c1.09,0,2.16,0.01,3.2,0.01
						c0.52,0,1.04,0,1.55,0c0.54-0.01,1.11,0.16,1.53,0.52c0.43,0.34,0.67,0.96,0.61,1.46c-0.01,0.5,0.01,0.94-0.02,1.46
						c-0.17,1.12-1.37,1.66-2.26,1.57l0.18-0.18c0.04,3.02,0.62,5.82,1.97,7.79c1.4,1.97,2.57,3.7,3.35,5.2
						c0.79,1.5,1.18,2.78,1.32,3.66c0.06,0.44,0.09,0.78,0.09,1C273.7,148.63,273.69,148.74,273.68,148.74z"/>
				</g>
			</g>
		</g>
		<g>
			<g>
				<path class="st62" d="M264.77,130.66c0,0.15-2.35,0.27-5.25,0.27c-2.9,0-5.25-0.12-5.25-0.27c0-0.15,2.35-0.27,5.25-0.27
					C262.42,130.38,264.77,130.51,264.77,130.66z"/>
			</g>
		</g>
		<g>
			<path class="st63" d="M272.25,153.18c-1.01-0.69-2.34-0.39-3.43,0.15c-1.09,0.54-2.11,1.3-3.29,1.49
				c-1.39,0.23-2.79-0.35-4.02-1.08c-1.24-0.73-2.4-1.63-3.73-2.13c-2.55-0.95-5.56-0.21-7.48,1.85v28.51c0,0,1.49,4.86,12,4.1
				c10.51-0.76,9.68-5.63,9.68-5.63L272.25,153.18z"/>
		</g>
	</g>
	<g>
		<g>
			<g>
				<path class="st5" d="M402.67,163.2c-7.67-10.71-23.97-18.05-37.21-16.08c-10.74,1.6-20.23,6.59-25.43,17.24
					c-1.47,3.01,0.41,6.58,3.74,6.98c17.86,2.13,35.98,2.07,53.82-0.18c2.75-0.35,6.03-1.11,6.22-4.52
					C403.87,165.4,403.39,164.2,402.67,163.2z"/>
			</g>
			<g>
				<g>
					<path class="st64" d="M360.28,162.67c-0.06,0.05-0.61-0.49-1.35-1.5c-0.72-1.01-1.61-2.55-2.03-4.45
						c-0.41-1.89-0.39-3.62-0.4-4.85c0.02-1.24,0.07-2,0.16-2c0.09,0,0.2,0.76,0.3,1.99c0.12,1.22,0.18,2.93,0.57,4.72
						c0.4,1.79,1.18,3.29,1.78,4.34C359.94,161.96,360.36,162.61,360.28,162.67z"/>
				</g>
			</g>
			<g>
				<g>
					<path class="st64" d="M371.66,160.2c-0.2-0.02,0.09-3.05-0.31-6.74c-0.38-3.7-1.28-6.6-1.09-6.66c0.15-0.07,1.36,2.8,1.74,6.59
						C372.4,157.17,371.82,160.23,371.66,160.2z"/>
				</g>
			</g>
			<g>
				<g>
					<path class="st64" d="M383.41,159.5c-0.18-0.08,0.7-2.11,0.92-4.77c0.25-2.66-0.27-4.81-0.08-4.86
						c0.15-0.07,0.99,2.11,0.73,4.92C384.75,157.59,383.55,159.59,383.41,159.5z"/>
				</g>
			</g>
		</g>
		<g>
			<g class="st65">
				<g>
					<path d="M369.57,147.62c0.04,0.06,0.07,0.13,0.1,0.19c0,0,0-0.01,0.01-0.01L369.57,147.62z"/>
				</g>
			</g>
		</g>
	</g>
	<g>
		<path class="st33" d="M343.98,202.09v1.18h-0.86v-1.17c-1.03-0.06-2.03-0.4-2.58-0.87l0.47-1.06c0.52,0.42,1.31,0.73,2.11,0.8
			v-2.11c-1.17-0.28-2.42-0.66-2.42-2.13c0-1.07,0.78-2.01,2.42-2.17v-1.19h0.86v1.17c0.78,0.04,1.57,0.27,2.14,0.64l-0.43,1.06
			c-0.56-0.33-1.15-0.51-1.71-0.57v2.13c1.17,0.28,2.44,0.65,2.44,2.12C346.42,201,345.63,201.93,343.98,202.09z M343.12,197.59
			v-1.87c-0.75,0.12-1.06,0.49-1.06,0.96C342.05,197.18,342.51,197.41,343.12,197.59z M345.07,200.02c0-0.52-0.46-0.76-1.09-0.94
			v1.86C344.75,200.83,345.07,200.47,345.07,200.02z"/>
		<path class="st33" d="M355.5,200.85v1.16h-5.43v-0.92l2.93-2.78c0.72-0.68,0.84-1.12,0.84-1.53c0-0.67-0.46-1.06-1.37-1.06
			c-0.72,0-1.32,0.24-1.73,0.77l-0.96-0.74c0.57-0.77,1.59-1.22,2.8-1.22c1.6,0,2.63,0.81,2.63,2.12c0,0.72-0.2,1.37-1.22,2.33
			l-1.97,1.87H355.5z"/>
		<path class="st33" d="M361.55,200.85v1.16h-5.43v-0.92l2.93-2.78c0.72-0.68,0.84-1.12,0.84-1.53c0-0.67-0.46-1.06-1.37-1.06
			c-0.72,0-1.32,0.24-1.73,0.77l-0.96-0.74c0.57-0.77,1.59-1.22,2.8-1.22c1.6,0,2.63,0.81,2.63,2.12c0,0.72-0.2,1.37-1.22,2.33
			l-1.97,1.87H361.55z"/>
		<path class="st33" d="M370.56,199.75c0,1.3-0.94,2.37-2.92,2.37c-1.04,0-2.09-0.32-2.77-0.85l0.58-1.06
			c0.54,0.44,1.34,0.73,2.17,0.73c0.98,0,1.56-0.43,1.56-1.13c0-0.7-0.45-1.15-1.98-1.15h-1.78l0.38-4.01h4.33v1.15h-3.17l-0.16,1.7
			h0.71C369.69,197.5,370.56,198.44,370.56,199.75z"/>
		<path class="st33" d="M371.18,198.18c0-2.42,1.33-3.79,3.07-3.79c1.76,0,3.08,1.37,3.08,3.79c0,2.42-1.33,3.79-3.08,3.79
			C372.51,201.97,371.18,200.6,371.18,198.18z M375.96,198.18c0-1.78-0.69-2.6-1.71-2.6c-1,0-1.69,0.82-1.69,2.6
			c0,1.78,0.69,2.6,1.69,2.6C375.27,200.78,375.96,199.96,375.96,198.18z"/>
		<text transform="matrix(1 0 0 1 362.028 201.8091)" class="st33 st68 st69">.</text>
	</g>
	<g>
		<g>
			<path class="st33" d="M399.51,211.4c0,0.18-13.51,0.33-30.18,0.33c-16.67,0-30.18-0.15-30.18-0.33c0-0.18,13.51-0.33,30.18-0.33
				C386,211.07,399.51,211.22,399.51,211.4z"/>
		</g>
	</g>
	<g>
		<g>
			<path class="st33" d="M367.27,216.31c0,0.18-6.27,0.33-14.01,0.33c-7.74,0-14.01-0.15-14.01-0.33c0-0.18,6.27-0.33,14.01-0.33
				C361,215.99,367.27,216.13,367.27,216.31z"/>
		</g>
	</g>
	<path class="st0" d="M408,253.14h-79.91c-1.7,0-3.09-1.39-3.09-3.09v-17.64c0-1.7,1.39-3.09,3.09-3.09H408
		c1.7,0,3.09,1.39,3.09,3.09v17.64C411.09,251.75,409.7,253.14,408,253.14z"/>
	<g>
		<g>
			<path class="st4" d="M329.73,244.27l1.75-5.23h0.9l1.75,5.23h-0.67l-1.64-4.86h0.2l-1.62,4.86H329.73z M330.58,243.05v-0.61h2.72
				v0.61H330.58z"/>
			<path class="st4" d="M334.79,244.27v-3.92h0.58v1.05h0.07v2.87H334.79z M337.59,244.27v-1.97c0-0.18-0.02-0.36-0.05-0.53
				c-0.03-0.17-0.09-0.33-0.17-0.46s-0.19-0.25-0.33-0.33c-0.14-0.08-0.31-0.12-0.52-0.12c-0.16,0-0.31,0.03-0.44,0.08
				c-0.13,0.06-0.25,0.14-0.34,0.25c-0.09,0.11-0.17,0.25-0.22,0.42s-0.08,0.37-0.08,0.59l-0.42-0.13c0-0.38,0.07-0.7,0.21-0.98
				s0.33-0.48,0.58-0.63c0.25-0.15,0.54-0.22,0.88-0.22c0.25,0,0.47,0.04,0.65,0.12c0.18,0.08,0.33,0.19,0.45,0.32
				c0.12,0.13,0.21,0.28,0.28,0.44c0.07,0.16,0.12,0.33,0.14,0.5c0.03,0.17,0.04,0.33,0.04,0.48v2.17H337.59z M337.05,239.74
				c-0.11,0-0.21-0.02-0.31-0.07c-0.1-0.04-0.2-0.1-0.29-0.15c-0.09-0.06-0.18-0.11-0.26-0.15c-0.08-0.04-0.16-0.07-0.23-0.07
				c-0.09,0-0.14,0.04-0.17,0.11c-0.03,0.08-0.03,0.16,0,0.26h-0.44c-0.06-0.24-0.04-0.45,0.06-0.62c0.1-0.17,0.27-0.25,0.5-0.25
				c0.11,0,0.21,0.02,0.31,0.07c0.1,0.04,0.2,0.1,0.29,0.15c0.09,0.06,0.18,0.11,0.26,0.15c0.08,0.04,0.16,0.07,0.23,0.07
				c0.08,0,0.14-0.04,0.17-0.11s0.03-0.16,0-0.27h0.44c0.06,0.24,0.04,0.44-0.06,0.62C337.46,239.65,337.29,239.74,337.05,239.74z"
				/>
			<path class="st4" d="M340.3,244.38c-0.29,0-0.54-0.05-0.74-0.16s-0.35-0.25-0.45-0.43c-0.1-0.18-0.15-0.37-0.15-0.58
				c0-0.21,0.04-0.38,0.12-0.53c0.08-0.15,0.19-0.28,0.33-0.38c0.14-0.1,0.32-0.18,0.51-0.24c0.19-0.05,0.39-0.09,0.62-0.13
				s0.46-0.07,0.7-0.1c0.24-0.03,0.46-0.06,0.67-0.09l-0.23,0.13c0-0.35-0.07-0.6-0.21-0.77s-0.4-0.25-0.76-0.25
				c-0.24,0-0.45,0.05-0.62,0.16c-0.18,0.11-0.3,0.28-0.38,0.52l-0.61-0.19c0.09-0.34,0.28-0.61,0.55-0.81
				c0.27-0.2,0.63-0.29,1.07-0.29c0.36,0,0.66,0.06,0.92,0.19c0.26,0.13,0.44,0.32,0.55,0.58c0.06,0.12,0.09,0.25,0.11,0.39
				c0.01,0.14,0.02,0.29,0.02,0.45v2.43h-0.57v-0.94l0.13,0.09c-0.15,0.32-0.36,0.56-0.62,0.72S340.68,244.38,340.3,244.38z
				 M340.4,243.84c0.23,0,0.43-0.04,0.61-0.12c0.17-0.08,0.31-0.19,0.41-0.33c0.1-0.14,0.17-0.29,0.2-0.45
				c0.03-0.12,0.05-0.26,0.06-0.4s0.01-0.26,0.01-0.35l0.23,0.1c-0.21,0.03-0.42,0.06-0.62,0.09c-0.21,0.03-0.4,0.05-0.58,0.08
				c-0.18,0.03-0.34,0.06-0.49,0.1c-0.11,0.03-0.21,0.08-0.3,0.13c-0.09,0.05-0.17,0.12-0.23,0.21c-0.06,0.08-0.09,0.19-0.09,0.31
				c0,0.11,0.03,0.21,0.08,0.31c0.05,0.1,0.14,0.18,0.25,0.24C340.06,243.81,340.21,243.84,340.4,243.84z"/>
			<path class="st4" d="M344.82,244.38c-0.37,0-0.68-0.09-0.94-0.27s-0.46-0.43-0.61-0.74c-0.14-0.31-0.21-0.67-0.21-1.06
				c0-0.39,0.07-0.74,0.21-1.06c0.14-0.31,0.34-0.56,0.61-0.74s0.57-0.27,0.94-0.27c0.37,0,0.68,0.09,0.93,0.27
				c0.25,0.18,0.44,0.43,0.57,0.74c0.13,0.31,0.19,0.66,0.19,1.06c0,0.39-0.07,0.75-0.19,1.06c-0.13,0.31-0.32,0.56-0.57,0.74
				C345.49,244.29,345.18,244.38,344.82,244.38z M344.9,243.79c0.26,0,0.48-0.06,0.65-0.19c0.17-0.13,0.29-0.3,0.38-0.53
				s0.12-0.48,0.12-0.77c0-0.29-0.04-0.54-0.12-0.77c-0.08-0.22-0.21-0.4-0.37-0.52c-0.17-0.12-0.38-0.19-0.63-0.19
				c-0.27,0-0.49,0.07-0.66,0.2s-0.3,0.31-0.39,0.53c-0.08,0.22-0.12,0.47-0.12,0.75c0,0.28,0.04,0.53,0.13,0.75s0.21,0.4,0.38,0.53
				S344.64,243.79,344.9,243.79z M346.04,244.27v-2.89h-0.07v-2.34h0.65v5.23H346.04z"/>
			<path class="st4" d="M347.71,239.65v-0.67h0.65v0.67H347.71z M347.71,244.27v-3.92h0.65v3.92H347.71z"/>
			<path class="st4" d="M349.45,244.27v-3.92h0.58v0.95l-0.09-0.12c0.05-0.12,0.11-0.23,0.18-0.33c0.07-0.1,0.16-0.19,0.25-0.25
				c0.1-0.08,0.22-0.14,0.35-0.19c0.13-0.04,0.26-0.07,0.39-0.08c0.13-0.01,0.26,0,0.37,0.02v0.61c-0.14-0.03-0.29-0.04-0.45-0.03
				c-0.16,0.02-0.31,0.08-0.45,0.17c-0.13,0.09-0.22,0.2-0.29,0.33c-0.07,0.13-0.12,0.27-0.14,0.41s-0.04,0.3-0.04,0.46v1.97H349.45
				z"/>
			<path class="st4" d="M354.73,244.38c-0.29,0-0.54-0.05-0.74-0.16s-0.35-0.25-0.45-0.43c-0.1-0.18-0.15-0.37-0.15-0.58
				c0-0.21,0.04-0.38,0.12-0.53c0.08-0.15,0.19-0.28,0.33-0.38c0.14-0.1,0.32-0.18,0.51-0.24c0.19-0.05,0.39-0.09,0.62-0.13
				s0.46-0.07,0.7-0.1c0.24-0.03,0.46-0.06,0.67-0.09l-0.23,0.13c0-0.35-0.07-0.6-0.21-0.77s-0.4-0.25-0.76-0.25
				c-0.24,0-0.45,0.05-0.62,0.16c-0.18,0.11-0.3,0.28-0.38,0.52l-0.61-0.19c0.09-0.34,0.28-0.61,0.55-0.81
				c0.27-0.2,0.63-0.29,1.07-0.29c0.36,0,0.66,0.06,0.92,0.19c0.26,0.13,0.44,0.32,0.55,0.58c0.06,0.12,0.09,0.25,0.11,0.39
				c0.01,0.14,0.02,0.29,0.02,0.45v2.43h-0.57v-0.94l0.13,0.09c-0.15,0.32-0.36,0.56-0.62,0.72S355.11,244.38,354.73,244.38z
				 M354.83,243.84c0.23,0,0.43-0.04,0.61-0.12c0.17-0.08,0.31-0.19,0.41-0.33c0.1-0.14,0.17-0.29,0.2-0.45
				c0.03-0.12,0.05-0.26,0.06-0.4s0.01-0.26,0.01-0.35l0.23,0.1c-0.21,0.03-0.42,0.06-0.62,0.09c-0.21,0.03-0.4,0.05-0.58,0.08
				c-0.18,0.03-0.34,0.06-0.49,0.1c-0.11,0.03-0.21,0.08-0.3,0.13c-0.09,0.05-0.17,0.12-0.23,0.21c-0.06,0.08-0.09,0.19-0.09,0.31
				c0,0.11,0.03,0.21,0.08,0.31c0.05,0.1,0.14,0.18,0.25,0.24C354.49,243.81,354.64,243.84,354.83,243.84z"/>
			<path class="st4" d="M359.16,244.27v-3.92h0.58v1.05h0.07v2.87H359.16z M361.51,244.27l0-2.49c0-0.3-0.08-0.53-0.23-0.71
				c-0.16-0.17-0.36-0.26-0.62-0.26c-0.25,0-0.46,0.09-0.62,0.26c-0.16,0.18-0.24,0.41-0.24,0.69l-0.34-0.2
				c0-0.25,0.06-0.48,0.18-0.68s0.29-0.36,0.49-0.47c0.21-0.12,0.44-0.17,0.71-0.17c0.26,0,0.5,0.06,0.69,0.17
				c0.2,0.11,0.35,0.27,0.45,0.48c0.11,0.21,0.16,0.45,0.16,0.74l0,2.64H361.51z M363.85,244.27l0-2.51c0-0.29-0.08-0.52-0.23-0.69
				s-0.36-0.25-0.61-0.25c-0.15,0-0.28,0.03-0.42,0.1s-0.24,0.17-0.32,0.31c-0.08,0.14-0.12,0.32-0.12,0.54l-0.34-0.14
				c0-0.28,0.05-0.52,0.17-0.73c0.12-0.21,0.28-0.37,0.49-0.49c0.21-0.12,0.44-0.17,0.71-0.17c0.41,0,0.73,0.12,0.97,0.37
				c0.24,0.25,0.35,0.58,0.35,1l0,2.65H363.85z"/>
			<path class="st4" d="M365.52,239.65v-0.67h0.65v0.67H365.52z M365.52,244.27v-3.92h0.65v3.92H365.52z"/>
			<path class="st4" d="M370.19,244.38c-0.47,0-0.85-0.1-1.15-0.31c-0.3-0.2-0.48-0.49-0.55-0.86l0.66-0.11
				c0.05,0.21,0.18,0.38,0.37,0.51c0.19,0.12,0.43,0.19,0.71,0.19c0.27,0,0.48-0.06,0.63-0.17c0.15-0.11,0.23-0.26,0.23-0.45
				c0-0.11-0.03-0.2-0.08-0.27c-0.05-0.07-0.16-0.13-0.31-0.19c-0.16-0.06-0.4-0.13-0.72-0.22c-0.35-0.09-0.62-0.19-0.82-0.29
				c-0.2-0.1-0.34-0.21-0.43-0.34c-0.08-0.13-0.13-0.29-0.13-0.48c0-0.23,0.06-0.43,0.19-0.6s0.3-0.31,0.53-0.4s0.49-0.14,0.79-0.14
				c0.3,0,0.56,0.05,0.8,0.14c0.24,0.09,0.42,0.23,0.57,0.4c0.14,0.17,0.23,0.38,0.26,0.6l-0.66,0.12c-0.03-0.21-0.13-0.37-0.31-0.5
				c-0.17-0.12-0.39-0.19-0.66-0.19c-0.25-0.01-0.46,0.04-0.62,0.14c-0.16,0.1-0.24,0.23-0.24,0.4c0,0.1,0.03,0.18,0.09,0.25
				c0.06,0.07,0.17,0.13,0.33,0.19s0.4,0.13,0.7,0.21c0.35,0.09,0.62,0.18,0.82,0.29c0.2,0.1,0.34,0.22,0.43,0.36
				c0.08,0.14,0.13,0.31,0.13,0.51c0,0.38-0.14,0.68-0.42,0.89S370.68,244.38,370.19,244.38z"/>
			<path class="st4" d="M374.05,244.37c-0.25,0-0.47-0.04-0.65-0.12c-0.18-0.08-0.33-0.19-0.45-0.32c-0.12-0.13-0.21-0.28-0.28-0.44
				c-0.07-0.16-0.12-0.33-0.14-0.5c-0.03-0.17-0.04-0.33-0.04-0.48v-2.17h0.65v1.97c0,0.18,0.02,0.36,0.05,0.53
				c0.03,0.17,0.09,0.33,0.17,0.47s0.19,0.25,0.33,0.33s0.31,0.12,0.51,0.12c0.16,0,0.31-0.03,0.44-0.08
				c0.13-0.06,0.25-0.14,0.34-0.25c0.09-0.11,0.17-0.25,0.22-0.42s0.08-0.37,0.08-0.59l0.42,0.13c0,0.38-0.07,0.7-0.21,0.98
				s-0.33,0.48-0.58,0.63C374.68,244.3,374.39,244.37,374.05,244.37z M375.36,244.27v-1.05h-0.07v-2.87h0.65v3.92H375.36z"/>
			<path class="st4" d="M378.44,244.38c-0.47,0-0.85-0.1-1.15-0.31c-0.3-0.2-0.48-0.49-0.55-0.86l0.66-0.11
				c0.05,0.21,0.18,0.38,0.37,0.51c0.19,0.12,0.43,0.19,0.71,0.19c0.27,0,0.48-0.06,0.63-0.17c0.15-0.11,0.23-0.26,0.23-0.45
				c0-0.11-0.03-0.2-0.08-0.27c-0.05-0.07-0.16-0.13-0.31-0.19c-0.16-0.06-0.4-0.13-0.72-0.22c-0.35-0.09-0.62-0.19-0.82-0.29
				c-0.2-0.1-0.34-0.21-0.43-0.34c-0.08-0.13-0.13-0.29-0.13-0.48c0-0.23,0.06-0.43,0.19-0.6s0.3-0.31,0.53-0.4s0.49-0.14,0.79-0.14
				c0.3,0,0.56,0.05,0.8,0.14c0.24,0.09,0.42,0.23,0.57,0.4c0.14,0.17,0.23,0.38,0.26,0.6l-0.66,0.12c-0.03-0.21-0.13-0.37-0.31-0.5
				c-0.17-0.12-0.39-0.19-0.66-0.19c-0.25-0.01-0.46,0.04-0.62,0.14c-0.16,0.1-0.24,0.23-0.24,0.4c0,0.1,0.03,0.18,0.09,0.25
				c0.06,0.07,0.17,0.13,0.33,0.19s0.4,0.13,0.7,0.21c0.35,0.09,0.62,0.18,0.82,0.29c0.2,0.1,0.34,0.22,0.43,0.36
				c0.08,0.14,0.13,0.31,0.13,0.51c0,0.38-0.14,0.68-0.42,0.89S378.93,244.38,378.44,244.38z"/>
			<path class="st4" d="M382.47,244.38c-0.4,0-0.73-0.09-1.01-0.27c-0.28-0.18-0.49-0.42-0.64-0.74c-0.15-0.31-0.22-0.67-0.22-1.07
				c0-0.41,0.08-0.77,0.23-1.08c0.15-0.31,0.37-0.55,0.64-0.73s0.61-0.26,1.01-0.26c0.41,0,0.77,0.1,1.07,0.31
				c0.3,0.2,0.5,0.48,0.6,0.84l-0.64,0.19c-0.08-0.23-0.22-0.4-0.41-0.53c-0.19-0.13-0.4-0.19-0.63-0.19
				c-0.27,0-0.49,0.06-0.67,0.19c-0.17,0.12-0.3,0.3-0.39,0.52s-0.13,0.47-0.13,0.75c0,0.44,0.11,0.79,0.3,1.06s0.49,0.4,0.88,0.4
				c0.26,0,0.47-0.06,0.64-0.18c0.17-0.12,0.3-0.29,0.39-0.51l0.65,0.17c-0.14,0.37-0.35,0.65-0.64,0.84
				S382.87,244.38,382.47,244.38z"/>
			<path class="st4" d="M384.89,244.27v-3.92h0.58v0.95l-0.09-0.12c0.05-0.12,0.11-0.23,0.18-0.33c0.07-0.1,0.16-0.19,0.25-0.25
				c0.1-0.08,0.22-0.14,0.35-0.19c0.13-0.04,0.26-0.07,0.39-0.08c0.13-0.01,0.26,0,0.37,0.02v0.61c-0.14-0.03-0.29-0.04-0.45-0.03
				c-0.16,0.02-0.31,0.08-0.45,0.17c-0.13,0.09-0.22,0.2-0.29,0.33c-0.07,0.13-0.12,0.27-0.14,0.41s-0.04,0.3-0.04,0.46v1.97H384.89
				z"/>
			<path class="st4" d="M387.68,239.65v-0.67h0.65v0.67H387.68z M387.68,244.27v-3.92h0.65v3.92H387.68z"/>
			<path class="st4" d="M389.41,246.02v-5.67h0.58v2.89h0.07v2.78H389.41z M391.22,244.38c-0.37,0-0.68-0.09-0.93-0.27
				c-0.25-0.18-0.44-0.43-0.57-0.74s-0.19-0.67-0.19-1.06c0-0.39,0.06-0.75,0.19-1.06s0.32-0.56,0.57-0.74s0.56-0.27,0.93-0.27
				c0.36,0,0.68,0.09,0.94,0.27c0.26,0.18,0.46,0.43,0.6,0.74s0.21,0.67,0.21,1.06c0,0.39-0.07,0.75-0.21,1.06
				c-0.14,0.31-0.34,0.56-0.6,0.74C391.9,244.29,391.58,244.38,391.22,244.38z M391.14,243.79c0.26,0,0.47-0.07,0.64-0.2
				s0.3-0.31,0.38-0.53s0.13-0.48,0.13-0.75c0-0.28-0.04-0.53-0.13-0.75c-0.08-0.22-0.21-0.4-0.38-0.53s-0.39-0.2-0.66-0.2
				c-0.25,0-0.46,0.06-0.63,0.19c-0.17,0.12-0.29,0.3-0.37,0.52c-0.08,0.22-0.12,0.48-0.12,0.77c0,0.29,0.04,0.54,0.12,0.77
				c0.08,0.22,0.21,0.4,0.38,0.53C390.66,243.73,390.87,243.79,391.14,243.79z"/>
			<path class="st4" d="M395.43,244.38c-0.4,0-0.73-0.09-1.01-0.27c-0.28-0.18-0.49-0.42-0.64-0.74c-0.15-0.31-0.22-0.67-0.22-1.07
				c0-0.41,0.08-0.77,0.23-1.08c0.15-0.31,0.37-0.55,0.64-0.73s0.61-0.26,1.01-0.26c0.41,0,0.77,0.1,1.07,0.31
				c0.3,0.2,0.5,0.48,0.6,0.84l-0.64,0.19c-0.08-0.23-0.22-0.4-0.41-0.53c-0.19-0.13-0.4-0.19-0.63-0.19
				c-0.27,0-0.49,0.06-0.67,0.19c-0.17,0.12-0.3,0.3-0.39,0.52s-0.13,0.47-0.13,0.75c0,0.44,0.11,0.79,0.3,1.06s0.49,0.4,0.88,0.4
				c0.26,0,0.47-0.06,0.64-0.18c0.17-0.12,0.3-0.29,0.39-0.51l0.65,0.17c-0.14,0.37-0.35,0.65-0.64,0.84
				S395.84,244.38,395.43,244.38z"/>
			<path class="st4" d="M397.93,239.65v-0.67h0.65v0.67H397.93z M397.93,244.27v-3.92h0.65v3.92H397.93z"/>
			<path class="st4" d="M401.34,244.38c-0.39,0-0.73-0.09-1.01-0.27s-0.5-0.42-0.65-0.73c-0.15-0.31-0.23-0.67-0.23-1.08
				c0-0.41,0.08-0.77,0.23-1.08c0.16-0.31,0.37-0.55,0.66-0.73c0.28-0.17,0.62-0.26,1-0.26c0.39,0,0.73,0.09,1.01,0.27
				s0.5,0.42,0.65,0.73s0.23,0.67,0.23,1.07c0,0.41-0.08,0.77-0.23,1.08c-0.15,0.31-0.37,0.55-0.65,0.73
				C402.06,244.29,401.73,244.38,401.34,244.38z M401.34,243.77c0.4,0,0.71-0.14,0.91-0.41c0.2-0.27,0.3-0.62,0.3-1.05
				c0-0.44-0.1-0.79-0.3-1.06c-0.2-0.26-0.5-0.4-0.9-0.4c-0.27,0-0.5,0.06-0.68,0.19s-0.31,0.29-0.4,0.51
				c-0.09,0.22-0.13,0.47-0.13,0.76c0,0.44,0.1,0.79,0.31,1.06C400.64,243.63,400.94,243.77,401.34,243.77z M401.65,239.8H401
				l0.28-0.87h0.65L401.65,239.8z"/>
			<path class="st4" d="M404.02,244.27v-3.92h0.58v1.05h0.07v2.87H404.02z M406.82,244.27v-1.97c0-0.18-0.02-0.36-0.05-0.53
				c-0.03-0.17-0.09-0.33-0.17-0.46s-0.19-0.25-0.33-0.33c-0.14-0.08-0.31-0.12-0.52-0.12c-0.16,0-0.31,0.03-0.44,0.08
				c-0.13,0.06-0.25,0.14-0.34,0.25c-0.09,0.11-0.17,0.25-0.22,0.42s-0.08,0.37-0.08,0.59l-0.42-0.13c0-0.38,0.07-0.7,0.21-0.98
				s0.33-0.48,0.58-0.63c0.25-0.15,0.54-0.22,0.88-0.22c0.25,0,0.47,0.04,0.65,0.12c0.18,0.08,0.33,0.19,0.45,0.32
				c0.12,0.13,0.21,0.28,0.28,0.44c0.07,0.16,0.12,0.33,0.14,0.5c0.03,0.17,0.04,0.33,0.04,0.48v2.17H406.82z"/>
		</g>
	</g>
	<path class="st0" d="M303.54,253.14h-79.91c-1.7,0-3.09-1.39-3.09-3.09v-17.64c0-1.7,1.39-3.09,3.09-3.09h79.91
		c1.7,0,3.09,1.39,3.09,3.09v17.64C306.63,251.75,305.24,253.14,303.54,253.14z"/>
	<g>
		<g>
			<path class="st4" d="M225.27,244.27l1.75-5.23h0.9l1.75,5.23H229l-1.64-4.86h0.21l-1.62,4.86H225.27z M226.11,243.05v-0.61h2.72
				v0.61H226.11z"/>
			<path class="st4" d="M230.32,244.27v-3.92h0.58v1.05h0.07v2.87H230.32z M233.12,244.27v-1.97c0-0.18-0.02-0.36-0.05-0.53
				c-0.04-0.17-0.09-0.33-0.17-0.46s-0.19-0.25-0.32-0.33c-0.14-0.08-0.31-0.12-0.52-0.12c-0.16,0-0.31,0.03-0.44,0.08
				c-0.13,0.06-0.24,0.14-0.34,0.25c-0.09,0.11-0.17,0.25-0.22,0.42c-0.05,0.17-0.08,0.37-0.08,0.59l-0.43-0.13
				c0-0.38,0.07-0.7,0.21-0.98s0.33-0.48,0.58-0.63s0.54-0.22,0.88-0.22c0.26,0,0.47,0.04,0.65,0.12c0.18,0.08,0.33,0.19,0.45,0.32
				c0.12,0.13,0.21,0.28,0.28,0.44c0.07,0.16,0.12,0.33,0.14,0.5c0.03,0.17,0.04,0.33,0.04,0.48v2.17H233.12z M232.58,239.74
				c-0.11,0-0.21-0.02-0.31-0.07s-0.2-0.1-0.29-0.15s-0.18-0.11-0.26-0.15s-0.16-0.07-0.23-0.07c-0.09,0-0.14,0.04-0.17,0.11
				c-0.03,0.08-0.03,0.16,0,0.26h-0.44c-0.06-0.24-0.04-0.45,0.06-0.62s0.27-0.25,0.51-0.25c0.11,0,0.21,0.02,0.31,0.07
				c0.1,0.04,0.2,0.1,0.29,0.15c0.09,0.06,0.18,0.11,0.26,0.15c0.08,0.04,0.16,0.07,0.23,0.07c0.08,0,0.14-0.04,0.17-0.11
				s0.03-0.16,0-0.27h0.44c0.06,0.24,0.04,0.44-0.06,0.62C232.99,239.65,232.82,239.74,232.58,239.74z"/>
			<path class="st4" d="M235.83,244.38c-0.29,0-0.54-0.05-0.73-0.16s-0.35-0.25-0.45-0.43c-0.1-0.18-0.15-0.37-0.15-0.58
				c0-0.21,0.04-0.38,0.12-0.53c0.08-0.15,0.19-0.28,0.33-0.38c0.14-0.1,0.32-0.18,0.52-0.24c0.19-0.05,0.39-0.09,0.62-0.13
				s0.46-0.07,0.7-0.1c0.24-0.03,0.46-0.06,0.67-0.09l-0.23,0.13c0.01-0.35-0.06-0.6-0.21-0.77c-0.14-0.17-0.4-0.25-0.76-0.25
				c-0.24,0-0.45,0.05-0.62,0.16s-0.3,0.28-0.38,0.52l-0.61-0.19c0.09-0.34,0.28-0.61,0.55-0.81s0.63-0.29,1.07-0.29
				c0.36,0,0.66,0.06,0.92,0.19c0.26,0.13,0.44,0.32,0.55,0.58c0.05,0.12,0.09,0.25,0.11,0.39c0.01,0.14,0.02,0.29,0.02,0.45v2.43
				h-0.57v-0.94l0.13,0.09c-0.15,0.32-0.36,0.56-0.62,0.72C236.53,244.3,236.21,244.38,235.83,244.38z M235.93,243.84
				c0.23,0,0.43-0.04,0.61-0.12c0.17-0.08,0.31-0.19,0.41-0.33c0.1-0.14,0.17-0.29,0.2-0.45c0.03-0.12,0.05-0.26,0.06-0.4
				c0-0.15,0.01-0.26,0.01-0.35l0.23,0.1c-0.21,0.03-0.42,0.06-0.62,0.09c-0.21,0.03-0.4,0.05-0.58,0.08
				c-0.18,0.03-0.34,0.06-0.49,0.1c-0.11,0.03-0.21,0.08-0.3,0.13s-0.17,0.12-0.22,0.21c-0.06,0.08-0.09,0.19-0.09,0.31
				c0,0.11,0.03,0.21,0.08,0.31c0.05,0.1,0.14,0.18,0.25,0.24S235.74,243.84,235.93,243.84z"/>
			<path class="st4" d="M240.35,244.38c-0.37,0-0.68-0.09-0.94-0.27s-0.46-0.43-0.61-0.74c-0.14-0.31-0.21-0.67-0.21-1.06
				c0-0.39,0.07-0.74,0.21-1.06s0.34-0.56,0.61-0.74s0.57-0.27,0.94-0.27c0.37,0,0.68,0.09,0.93,0.27s0.44,0.43,0.57,0.74
				s0.2,0.66,0.2,1.06c0,0.39-0.07,0.75-0.2,1.06s-0.32,0.56-0.57,0.74C241.03,244.29,240.72,244.38,240.35,244.38z M240.43,243.79
				c0.26,0,0.48-0.06,0.65-0.19c0.17-0.13,0.29-0.3,0.38-0.53c0.08-0.22,0.12-0.48,0.12-0.77c0-0.29-0.04-0.54-0.12-0.77
				c-0.08-0.22-0.21-0.4-0.37-0.52c-0.17-0.12-0.38-0.19-0.63-0.19c-0.27,0-0.49,0.07-0.66,0.2c-0.17,0.13-0.3,0.31-0.38,0.53
				c-0.08,0.22-0.12,0.47-0.12,0.75c0,0.28,0.04,0.53,0.13,0.75c0.08,0.22,0.21,0.4,0.38,0.53
				C239.96,243.72,240.17,243.79,240.43,243.79z M241.58,244.27v-2.89h-0.07v-2.34h0.65v5.23H241.58z"/>
			<path class="st4" d="M243.24,239.65v-0.67h0.65v0.67H243.24z M243.24,244.27v-3.92h0.65v3.92H243.24z"/>
			<path class="st4" d="M244.98,244.27v-3.92h0.58v0.95l-0.1-0.12c0.05-0.12,0.11-0.23,0.18-0.33c0.07-0.1,0.16-0.19,0.25-0.25
				c0.1-0.08,0.22-0.14,0.35-0.19c0.13-0.04,0.26-0.07,0.39-0.08c0.13-0.01,0.26,0,0.37,0.02v0.61c-0.13-0.03-0.29-0.04-0.45-0.03
				c-0.16,0.02-0.31,0.08-0.45,0.17c-0.13,0.09-0.22,0.2-0.29,0.33c-0.07,0.13-0.12,0.27-0.14,0.41c-0.03,0.15-0.04,0.3-0.04,0.46
				v1.97H244.98z"/>
			<path class="st4" d="M250.26,244.38c-0.29,0-0.54-0.05-0.74-0.16s-0.35-0.25-0.45-0.43c-0.1-0.18-0.15-0.37-0.15-0.58
				c0-0.21,0.04-0.38,0.12-0.53c0.08-0.15,0.19-0.28,0.33-0.38c0.14-0.1,0.31-0.18,0.51-0.24c0.19-0.05,0.39-0.09,0.62-0.13
				s0.46-0.07,0.7-0.1c0.24-0.03,0.46-0.06,0.67-0.09l-0.23,0.13c0-0.35-0.07-0.6-0.21-0.77c-0.15-0.17-0.4-0.25-0.76-0.25
				c-0.24,0-0.45,0.05-0.62,0.16c-0.18,0.11-0.3,0.28-0.38,0.52l-0.61-0.19c0.09-0.34,0.28-0.61,0.55-0.81
				c0.27-0.2,0.63-0.29,1.07-0.29c0.36,0,0.66,0.06,0.92,0.19c0.26,0.13,0.44,0.32,0.55,0.58c0.06,0.12,0.09,0.25,0.11,0.39
				c0.02,0.14,0.02,0.29,0.02,0.45v2.43h-0.57v-0.94l0.13,0.09c-0.15,0.32-0.36,0.56-0.62,0.72
				C250.96,244.3,250.64,244.38,250.26,244.38z M250.36,243.84c0.23,0,0.44-0.04,0.61-0.12c0.17-0.08,0.31-0.19,0.41-0.33
				c0.11-0.14,0.17-0.29,0.2-0.45c0.04-0.12,0.05-0.26,0.06-0.4c0.01-0.15,0.01-0.26,0.01-0.35l0.22,0.1
				c-0.21,0.03-0.42,0.06-0.62,0.09c-0.21,0.03-0.4,0.05-0.58,0.08c-0.18,0.03-0.34,0.06-0.49,0.1c-0.11,0.03-0.21,0.08-0.3,0.13
				c-0.09,0.05-0.17,0.12-0.23,0.21c-0.06,0.08-0.09,0.19-0.09,0.31c0,0.11,0.03,0.21,0.08,0.31c0.05,0.1,0.14,0.18,0.26,0.24
				C250.02,243.81,250.18,243.84,250.36,243.84z"/>
			<path class="st4" d="M254.69,244.27v-3.92h0.58v1.05h0.07v2.87H254.69z M257.04,244.27l0-2.49c0-0.3-0.08-0.53-0.23-0.71
				c-0.16-0.17-0.36-0.26-0.62-0.26c-0.25,0-0.46,0.09-0.62,0.26c-0.16,0.18-0.24,0.41-0.24,0.69l-0.34-0.2
				c0-0.25,0.06-0.48,0.18-0.68s0.29-0.36,0.49-0.47c0.21-0.12,0.45-0.17,0.71-0.17s0.49,0.06,0.69,0.17
				c0.2,0.11,0.35,0.27,0.45,0.48s0.16,0.45,0.16,0.74l0,2.64H257.04z M259.38,244.27l0-2.51c0-0.29-0.08-0.52-0.23-0.69
				s-0.36-0.25-0.61-0.25c-0.14,0-0.28,0.03-0.41,0.1s-0.24,0.17-0.32,0.31c-0.08,0.14-0.12,0.32-0.12,0.54l-0.34-0.14
				c0-0.28,0.05-0.52,0.17-0.73c0.12-0.21,0.29-0.37,0.49-0.49c0.21-0.12,0.44-0.17,0.71-0.17c0.41,0,0.73,0.12,0.96,0.37
				c0.24,0.25,0.35,0.58,0.35,1l0,2.65H259.38z"/>
			<path class="st4" d="M261.05,239.65v-0.67h0.65v0.67H261.05z M261.05,244.27v-3.92h0.65v3.92H261.05z"/>
			<path class="st4" d="M265.72,244.38c-0.47,0-0.85-0.1-1.15-0.31c-0.3-0.2-0.48-0.49-0.55-0.86l0.66-0.11
				c0.05,0.21,0.18,0.38,0.37,0.51c0.19,0.12,0.43,0.19,0.71,0.19c0.27,0,0.48-0.06,0.63-0.17c0.15-0.11,0.23-0.26,0.23-0.45
				c0-0.11-0.03-0.2-0.08-0.27c-0.05-0.07-0.16-0.13-0.31-0.19c-0.16-0.06-0.4-0.13-0.72-0.22c-0.35-0.09-0.62-0.19-0.82-0.29
				c-0.2-0.1-0.34-0.21-0.43-0.34s-0.13-0.29-0.13-0.48c0-0.23,0.06-0.43,0.19-0.6c0.12-0.17,0.3-0.31,0.53-0.4s0.49-0.14,0.79-0.14
				c0.3,0,0.56,0.05,0.8,0.14c0.24,0.09,0.43,0.23,0.57,0.4c0.14,0.17,0.23,0.38,0.26,0.6l-0.66,0.12c-0.03-0.21-0.13-0.37-0.3-0.5
				c-0.17-0.12-0.39-0.19-0.66-0.19c-0.25-0.01-0.46,0.04-0.62,0.14c-0.16,0.1-0.24,0.23-0.24,0.4c0,0.1,0.03,0.18,0.09,0.25
				c0.06,0.07,0.17,0.13,0.33,0.19c0.16,0.06,0.39,0.13,0.7,0.21c0.35,0.09,0.62,0.18,0.82,0.29c0.2,0.1,0.34,0.22,0.43,0.36
				c0.09,0.14,0.13,0.31,0.13,0.51c0,0.38-0.14,0.68-0.42,0.89C266.6,244.27,266.21,244.38,265.72,244.38z"/>
			<path class="st4" d="M269.59,244.37c-0.25,0-0.47-0.04-0.65-0.12s-0.33-0.19-0.45-0.32s-0.21-0.28-0.28-0.44
				c-0.07-0.16-0.12-0.33-0.14-0.5c-0.03-0.17-0.04-0.33-0.04-0.48v-2.17h0.65v1.97c0,0.18,0.02,0.36,0.05,0.53
				c0.03,0.17,0.09,0.33,0.17,0.47c0.08,0.14,0.19,0.25,0.33,0.33s0.31,0.12,0.51,0.12c0.16,0,0.31-0.03,0.44-0.08
				c0.13-0.06,0.25-0.14,0.34-0.25c0.1-0.11,0.17-0.25,0.22-0.42c0.05-0.17,0.08-0.37,0.08-0.59l0.42,0.13
				c0,0.38-0.07,0.7-0.21,0.98s-0.33,0.48-0.58,0.63C270.22,244.3,269.92,244.37,269.59,244.37z M270.9,244.27v-1.05h-0.07v-2.87
				h0.65v3.92H270.9z"/>
			<path class="st4" d="M273.97,244.38c-0.47,0-0.85-0.1-1.15-0.31s-0.48-0.49-0.55-0.86l0.66-0.11c0.05,0.21,0.18,0.38,0.37,0.51
				c0.19,0.12,0.43,0.19,0.71,0.19c0.27,0,0.48-0.06,0.63-0.17s0.23-0.26,0.23-0.45c0-0.11-0.03-0.2-0.08-0.27
				c-0.05-0.07-0.15-0.13-0.31-0.19c-0.16-0.06-0.4-0.13-0.72-0.22c-0.35-0.09-0.62-0.19-0.82-0.29s-0.34-0.21-0.43-0.34
				c-0.08-0.13-0.13-0.29-0.13-0.48c0-0.23,0.06-0.43,0.19-0.6c0.13-0.17,0.3-0.31,0.53-0.4s0.49-0.14,0.79-0.14
				c0.3,0,0.56,0.05,0.8,0.14c0.23,0.09,0.42,0.23,0.57,0.4c0.14,0.17,0.23,0.38,0.26,0.6l-0.66,0.12c-0.03-0.21-0.13-0.37-0.31-0.5
				c-0.17-0.12-0.39-0.19-0.66-0.19c-0.26-0.01-0.46,0.04-0.62,0.14c-0.16,0.1-0.24,0.23-0.24,0.4c0,0.1,0.03,0.18,0.09,0.25
				c0.06,0.07,0.17,0.13,0.33,0.19c0.16,0.06,0.4,0.13,0.7,0.21c0.35,0.09,0.62,0.18,0.82,0.29s0.34,0.22,0.43,0.36
				c0.08,0.14,0.13,0.31,0.13,0.51c0,0.38-0.14,0.68-0.42,0.89C274.85,244.27,274.46,244.38,273.97,244.38z"/>
			<path class="st4" d="M278,244.38c-0.4,0-0.73-0.09-1.01-0.27c-0.28-0.18-0.49-0.42-0.64-0.74s-0.22-0.67-0.22-1.07
				c0-0.41,0.08-0.77,0.23-1.08c0.15-0.31,0.37-0.55,0.64-0.73c0.28-0.18,0.62-0.26,1.01-0.26c0.41,0,0.77,0.1,1.07,0.31
				c0.3,0.2,0.5,0.48,0.6,0.84l-0.64,0.19c-0.08-0.23-0.22-0.4-0.4-0.53c-0.19-0.13-0.4-0.19-0.63-0.19c-0.27,0-0.49,0.06-0.67,0.19
				c-0.17,0.12-0.3,0.3-0.39,0.52c-0.08,0.22-0.13,0.47-0.13,0.75c0.01,0.44,0.11,0.79,0.3,1.06s0.49,0.4,0.88,0.4
				c0.26,0,0.47-0.06,0.64-0.18c0.17-0.12,0.3-0.29,0.39-0.51l0.65,0.17c-0.14,0.37-0.35,0.65-0.64,0.84
				C278.75,244.28,278.41,244.38,278,244.38z"/>
			<path class="st4" d="M280.42,244.27v-3.92H281v0.95l-0.1-0.12c0.05-0.12,0.11-0.23,0.18-0.33c0.07-0.1,0.16-0.19,0.25-0.25
				c0.1-0.08,0.22-0.14,0.35-0.19c0.13-0.04,0.26-0.07,0.39-0.08c0.13-0.01,0.26,0,0.37,0.02v0.61c-0.13-0.03-0.29-0.04-0.45-0.03
				c-0.16,0.02-0.31,0.08-0.45,0.17c-0.13,0.09-0.22,0.2-0.29,0.33c-0.07,0.13-0.12,0.27-0.14,0.41c-0.03,0.15-0.04,0.3-0.04,0.46
				v1.97H280.42z"/>
			<path class="st4" d="M283.21,239.65v-0.67h0.65v0.67H283.21z M283.21,244.27v-3.92h0.65v3.92H283.21z"/>
			<path class="st4" d="M284.94,246.02v-5.67h0.58v2.89h0.07v2.78H284.94z M286.75,244.38c-0.37,0-0.68-0.09-0.93-0.27
				c-0.25-0.18-0.44-0.43-0.57-0.74c-0.13-0.31-0.2-0.67-0.2-1.06c0-0.39,0.06-0.75,0.2-1.06c0.13-0.31,0.32-0.56,0.57-0.74
				c0.25-0.18,0.56-0.27,0.93-0.27c0.36,0,0.68,0.09,0.94,0.27s0.46,0.43,0.61,0.74s0.21,0.67,0.21,1.06c0,0.39-0.07,0.75-0.21,1.06
				c-0.14,0.31-0.34,0.56-0.61,0.74S287.12,244.38,286.75,244.38z M286.67,243.79c0.26,0,0.47-0.07,0.64-0.2
				c0.17-0.13,0.3-0.31,0.38-0.53c0.08-0.22,0.13-0.48,0.13-0.75c0-0.28-0.04-0.53-0.13-0.75c-0.09-0.22-0.21-0.4-0.38-0.53
				s-0.39-0.2-0.66-0.2c-0.25,0-0.46,0.06-0.63,0.19c-0.17,0.12-0.29,0.3-0.37,0.52c-0.08,0.22-0.12,0.48-0.12,0.77
				c0,0.29,0.04,0.54,0.12,0.77c0.08,0.22,0.21,0.4,0.38,0.53C286.19,243.73,286.41,243.79,286.67,243.79z"/>
			<path class="st4" d="M290.96,244.38c-0.4,0-0.73-0.09-1.01-0.27c-0.28-0.18-0.49-0.42-0.64-0.74s-0.22-0.67-0.22-1.07
				c0-0.41,0.08-0.77,0.23-1.08c0.15-0.31,0.37-0.55,0.64-0.73c0.28-0.18,0.62-0.26,1.01-0.26c0.41,0,0.77,0.1,1.07,0.31
				c0.3,0.2,0.5,0.48,0.6,0.84l-0.64,0.19c-0.08-0.23-0.22-0.4-0.4-0.53c-0.19-0.13-0.4-0.19-0.63-0.19c-0.27,0-0.49,0.06-0.67,0.19
				c-0.17,0.12-0.3,0.3-0.39,0.52c-0.08,0.22-0.13,0.47-0.13,0.75c0.01,0.44,0.11,0.79,0.3,1.06s0.49,0.4,0.88,0.4
				c0.26,0,0.47-0.06,0.64-0.18c0.17-0.12,0.3-0.29,0.39-0.51l0.65,0.17c-0.14,0.37-0.35,0.65-0.64,0.84
				C291.72,244.28,291.37,244.38,290.96,244.38z"/>
			<path class="st4" d="M293.46,239.65v-0.67h0.65v0.67H293.46z M293.46,244.27v-3.92h0.65v3.92H293.46z"/>
			<path class="st4" d="M296.87,244.38c-0.39,0-0.73-0.09-1.01-0.27c-0.28-0.18-0.5-0.42-0.65-0.73c-0.15-0.31-0.23-0.67-0.23-1.08
				c0-0.41,0.08-0.77,0.23-1.08c0.15-0.31,0.37-0.55,0.66-0.73c0.29-0.17,0.62-0.26,1-0.26c0.39,0,0.73,0.09,1.01,0.27
				s0.5,0.42,0.65,0.73c0.15,0.31,0.23,0.67,0.23,1.07c0,0.41-0.08,0.77-0.23,1.08c-0.15,0.31-0.37,0.55-0.65,0.73
				C297.59,244.29,297.26,244.38,296.87,244.38z M296.87,243.77c0.4,0,0.71-0.14,0.91-0.41c0.2-0.27,0.3-0.62,0.3-1.05
				c0-0.44-0.1-0.79-0.3-1.06c-0.2-0.26-0.5-0.4-0.9-0.4c-0.27,0-0.5,0.06-0.68,0.19c-0.18,0.12-0.31,0.29-0.4,0.51
				c-0.09,0.22-0.13,0.47-0.13,0.76c0,0.44,0.1,0.79,0.31,1.06C296.17,243.63,296.47,243.77,296.87,243.77z M297.18,239.8h-0.65
				l0.28-0.87h0.65L297.18,239.8z"/>
			<path class="st4" d="M299.56,244.27v-3.92h0.58v1.05h0.07v2.87H299.56z M302.36,244.27v-1.97c0-0.18-0.02-0.36-0.05-0.53
				c-0.04-0.17-0.09-0.33-0.17-0.46s-0.19-0.25-0.32-0.33c-0.14-0.08-0.31-0.12-0.52-0.12c-0.16,0-0.31,0.03-0.44,0.08
				c-0.13,0.06-0.24,0.14-0.34,0.25c-0.09,0.11-0.17,0.25-0.22,0.42c-0.05,0.17-0.08,0.37-0.08,0.59l-0.43-0.13
				c0-0.38,0.07-0.7,0.21-0.98s0.33-0.48,0.58-0.63s0.54-0.22,0.88-0.22c0.26,0,0.47,0.04,0.65,0.12c0.18,0.08,0.33,0.19,0.45,0.32
				c0.12,0.13,0.21,0.28,0.28,0.44c0.07,0.16,0.12,0.33,0.14,0.5c0.03,0.17,0.04,0.33,0.04,0.48v2.17H302.36z"/>
		</g>
	</g>
	<g>
		<path class="st57" d="M188.15,270.36c0,0,7.66,6.13,13.79-5.36c6.09-11.42,11.51-23.21,16.53-35.14
			c2.61-6.22,7.24-13.51,15.09-9.98c0.18,0.08,0.37,0.17,0.55,0.26c5.27,2.66,5.54,7.87,4.07,12.98c-0.72,2.51-1.76,4.91-2.66,7.36
			c-1.74,4.73-3.42,9.69-4.76,14.55c-1.83,6.63-3.56,14.56-2.49,21.44c0.98,6.28,3.31,12.2,4.06,18.58
			c0.87,7.43,0.76,15.01-0.63,22.37c-4.02,21.35-19.09,73.85-19.09,73.85s-27.57-4.76-55.91-29.45c3.17-6.71,2.87-5.84,5.9-12.61
			c2.94-6.58,6.33-13.1,7.82-20.2c1.54-7.34,1.39-15.04-1.24-22.12c-4.27-11.5-15.44-33.19-8.54-49.95s27.93-36.8,27.93-36.8
			L188.15,270.36z"/>
		<path class="st57" d="M227.62,232.64c0,0-4.72-1.45-2.7-6.65c2.01-5.2,2.96-5.55,7.73-4.05c4.78,1.5,4.3,4.62,2.88,8.13
			S232.82,234.89,227.62,232.64z"/>
	</g>
</g>
<path class="st70" d="M553.72,253.5c31.96-46.94,28.74-115.67-13.98-157.75C510.53,66.98,466,55.98,419.61,61.25
	c-31.63,3.59-63.22,9.99-95.15,10.01c-32.53,0.02-62-11.7-95.23-10.55C140.68,63.77,92,137.9,90.68,200.61
	c-0.77,36.56,10.23,73.44,28.39,106.26c10.96,19.81,21.79,40.42,39.16,57.15c29.55,28.46,80.39,35.21,125.44,36.42
	c43.97,1.18,89.07-3.27,132.33-11.32c34.31-6.39,70.47-18.31,95.47-40.93C542.73,319.88,532.45,284.75,553.72,253.5z"/>
<path class="st4" d="M453.08,377.96l0.43,2.2c0,0,39.42-9.19,51.38-25.73l-0.99-1.74L453.08,377.96z"/>
<path class="st4" d="M157.54,361.18l-1.02,1.88c0,0,14.27,19.59,55.17,29.7l0.81-3C212.5,389.75,186.84,385.68,157.54,361.18z"/>
</svg>
