<svg id="Capa_1" data-name="Capa 1" xmlns="http://www.w3.org/2000/svg" viewBox="0 0 107 107"><defs><style>.cls-1{fill:#fc4b44;}.cls-2{fill:#fff;}</style></defs><path class="cls-1" d="M96.53,77.27a66,66,0,0,0,9.11-21.9c1.88-9,1.8-18.73-4-26.39C94.47,19.36,82,15.37,71.17,11.52,56.14,6.19,34.26-.22,18.41,9.09-1.82,21-1.89,48,1.7,68.24c4.2,23.68,26.09,32.92,47.54,35.17C68.82,105.46,86.13,93.44,96.53,77.27Z"/><path class="cls-2" d="M82.63,37.49l-5.11-11.6a1.22,1.22,0,0,0-1.11-.72H21.55a1.22,1.22,0,0,0-1.11.72l-5.11,11.6a1.33,1.33,0,0,0-.1.48,12.07,12.07,0,0,0,5.11,9.86V83.29a1.21,1.21,0,0,0,1.21,1.2H76.41a1.21,1.21,0,0,0,1.21-1.2V47.83A12.07,12.07,0,0,0,82.73,38,1.15,1.15,0,0,0,82.63,37.49ZM75.2,82.08H22.76V49.15a12,12,0,0,0,15.37-5.91,12.06,12.06,0,0,0,21.7,0A12.06,12.06,0,0,0,70.68,50a11.94,11.94,0,0,0,4.52-.89ZM39.42,39.18H58.54a9.63,9.63,0,0,1-19.12,0Zm31.26,8.44a9.66,9.66,0,0,1-9.57-8.44H76.69a1.21,1.21,0,1,0,0-2.41H21.27a1.21,1.21,0,1,0,0,2.41H36.85a9.64,9.64,0,0,1-19.2-1l4.69-10.63H75.62l4.69,10.63A9.65,9.65,0,0,1,70.68,47.62Z"/><path class="cls-2" d="M45.67,76.24a7.22,7.22,0,0,1-2.3-.34c-2.94-1-5.72-4.72-6.75-9.09-.51-2.17-1.28-7.65,2.71-11.65a6.14,6.14,0,0,1,4-1.54,5.69,5.69,0,0,1,.83.07c1.85.3,3.37,1.62,4.5,3.9l.48,1,1-.45c2.75-1.26,5.22-1.39,7.13-.36a6.27,6.27,0,0,1,3.08,4.48c.72,4.75-2.5,8.25-4.49,9.92h0A17.05,17.05,0,0,1,45.67,76.24ZM43.34,56a3.85,3.85,0,0,0-2.3.82C37.91,60,38.55,64.48,39,66.26c.82,3.48,3,6.64,5.16,7.35,2.45.82,7-.67,10.16-3.32h0c1.59-1.34,4.19-4.13,3.65-7.71a3.73,3.73,0,0,0-1.84-2.71c-1.54-.83-3.55-.23-5,.43L48,61.72l-1.52-3c-.77-1.55-1.69-2.43-2.73-2.59A2.12,2.12,0,0,0,43.34,56Z"/></svg>