<svg id="Capa_1" data-name="Capa 1" xmlns="http://www.w3.org/2000/svg" viewBox="0 0 582.79 418.09"><defs><style>.cls-1{font-size:200.43px;font-family:PTMono-Regular, PT Mono;}.cls-2{fill:#62059e;}.cls-3{fill:#1d1d1b;}.cls-4{fill:#fff;}.cls-5{fill:none;stroke:#000;stroke-miterlimit:10;}</style></defs><text class="cls-1" transform="translate(54.03 305.12)">3</text><path class="cls-2" d="M505.66,256.54c29.31-42.39,32-109,.78-153.55-21.32-30.45-56.34-45.15-94.08-44.3-25.74.57-51.66,3.86-77.36,1-26.19-3-49-17-75.86-18.89-71.53-5.14-116.37,62-122.22,122.36-3.41,35.22,2.63,71.83,14.74,105.17,7.32,20.12,14.47,41,27.17,58.74,21.62,30.18,62,41.34,98.2,46.63,35.31,5.17,72,5,107.4,1.18,28.1-3,58.13-11.22,80-30.77C491.74,319.6,486.15,284.76,505.66,256.54Z"/><rect class="cls-3" x="180.8" y="98.95" width="298.92" height="195.51" rx="2.96"/><rect class="cls-4" x="191.76" y="109.64" width="277.01" height="175.14" rx="1.07"/><polygon points="311.96 294.34 301.94 325.95 269.22 325.95 269.22 338.42 392.1 338.42 392.1 325.51 360.78 325.51 352.48 294.34 311.96 294.34"/><rect class="cls-5" x="218.32" y="191.1" width="225.32" height="42.22" rx="2.73"/><path d="M228.17,173.05V148.57h-9.48v-2.66h21.73v2.66h-9.48v24.48Z"/><path d="M249.34,173.56a8.27,8.27,0,0,1-3.2-.57,6.93,6.93,0,0,1-2.32-1.52,7.89,7.89,0,0,1-1.53-2.2,10.86,10.86,0,0,1-.85-2.62,14.33,14.33,0,0,1-.26-2.76V152.7H244v10.38a13.82,13.82,0,0,0,.32,3.11,7.3,7.3,0,0,0,1,2.5,4.84,4.84,0,0,0,1.83,1.65,5.84,5.84,0,0,0,2.72.58,6.17,6.17,0,0,0,2.59-.51,5,5,0,0,0,1.89-1.46,6.65,6.65,0,0,0,1.16-2.32,11.18,11.18,0,0,0,.39-3.08l2,.44a11.39,11.39,0,0,1-1.09,5.25,7.6,7.6,0,0,1-3,3.23A8.9,8.9,0,0,1,249.34,173.56Zm6.84-.51v-5h-.29V152.7h2.77v20.35Z"/><path d="M279.92,173.62a9.35,9.35,0,0,1-5.2-1.38,8.65,8.65,0,0,1-3.23-3.8,14.19,14.19,0,0,1,0-11.19,8.79,8.79,0,0,1,3.27-3.77,9.42,9.42,0,0,1,5.16-1.35,9.61,9.61,0,0,1,5.38,1.51,7.68,7.68,0,0,1,3.14,4.13l-2.72.86a5.81,5.81,0,0,0-2.27-2.83,6.38,6.38,0,0,0-3.55-1,6.3,6.3,0,0,0-3.71,1,6.07,6.07,0,0,0-2.19,2.85,11.62,11.62,0,0,0-.73,4.2,9.71,9.71,0,0,0,1.69,5.87,5.78,5.78,0,0,0,4.94,2.22,6.35,6.35,0,0,0,3.53-1,5.92,5.92,0,0,0,2.22-2.78l2.79.83a8.83,8.83,0,0,1-3.32,4.13A9.36,9.36,0,0,1,279.92,173.62Z"/><path d="M300.27,173.62a9.38,9.38,0,0,1-5.18-1.38,9,9,0,0,1-3.3-3.81,14.07,14.07,0,0,1,0-11.19,8.89,8.89,0,0,1,3.33-3.76,10.51,10.51,0,0,1,10.34,0,8.78,8.78,0,0,1,3.3,3.79,14.24,14.24,0,0,1,0,11.19,8.8,8.8,0,0,1-3.32,3.78A9.59,9.59,0,0,1,300.27,173.62Zm0-2.66a5.86,5.86,0,0,0,5.05-2.25,9.59,9.59,0,0,0,1.66-5.85,9.44,9.44,0,0,0-1.67-5.88,5.93,5.93,0,0,0-5-2.19,6.42,6.42,0,0,0-3.76,1,6.11,6.11,0,0,0-2.2,2.84,11.17,11.17,0,0,0-.73,4.2,9.4,9.4,0,0,0,1.7,5.88A5.89,5.89,0,0,0,300.27,171Zm1.36-21.09h-2.79l1.43-4.52h2.79Z"/><path d="M322,173.62a8.19,8.19,0,0,1-4.86-1.43,9.09,9.09,0,0,1-3.09-3.85,14.48,14.48,0,0,1,0-11,9,9,0,0,1,3.06-3.84,8.89,8.89,0,0,1,9.61,0,8.6,8.6,0,0,1,3,3.81,15.52,15.52,0,0,1,0,11,8.83,8.83,0,0,1-2.94,3.86A7.81,7.81,0,0,1,322,173.62Zm.28-2.59a5.83,5.83,0,0,0,3.58-1.05,6.21,6.21,0,0,0,2.11-2.91,13.1,13.1,0,0,0,0-8.45,6.15,6.15,0,0,0-2.1-2.87,5.77,5.77,0,0,0-3.53-1,5.85,5.85,0,0,0-3.62,1.08,6.36,6.36,0,0,0-2.12,2.92,12.71,12.71,0,0,0,0,8.32A6.48,6.48,0,0,0,318.7,170,5.65,5.65,0,0,0,322.24,171Zm6.39,2V157.73h-.3V145.91h2.79v27.14Z"/><path d="M336.77,148.84v-3.11h2.77v3.11Zm0,24.21V152.7h2.77v20.35Z"/><path d="M353.09,173.62a8.19,8.19,0,0,1-4.86-1.43,9.16,9.16,0,0,1-3.09-3.85,14.48,14.48,0,0,1,0-11,9,9,0,0,1,3.06-3.84,8.89,8.89,0,0,1,9.61,0,8.6,8.6,0,0,1,3,3.81,15.52,15.52,0,0,1,0,11,8.83,8.83,0,0,1-2.94,3.86A7.81,7.81,0,0,1,353.09,173.62Zm.19,9a10.45,10.45,0,0,1-3.08-.46,8.8,8.8,0,0,1-2.8-1.45,8.26,8.26,0,0,1-2.15-2.57l2.51-1.4a5.13,5.13,0,0,0,2.38,2.44,7.1,7.1,0,0,0,3.14.75,6.94,6.94,0,0,0,3.57-.82,4.74,4.74,0,0,0,2-2.42,11.05,11.05,0,0,0,.6-4V167.3h.32V152.7h2.47v20.07c0,.58,0,1.13-.05,1.66s-.09,1.06-.17,1.58a8.26,8.26,0,0,1-1.48,3.75,6.66,6.66,0,0,1-2.94,2.18A11.72,11.72,0,0,1,353.28,182.66Zm.09-11.63A5.83,5.83,0,0,0,357,170a6.3,6.3,0,0,0,2.12-2.91,13.28,13.28,0,0,0,0-8.45,6.23,6.23,0,0,0-2.11-2.87,5.77,5.77,0,0,0-3.53-1,5.85,5.85,0,0,0-3.62,1.08,6.36,6.36,0,0,0-2.12,2.92,12.89,12.89,0,0,0,0,8.32,6.48,6.48,0,0,0,2.12,2.93A5.65,5.65,0,0,0,353.37,171Z"/><path d="M376,173.62a9.41,9.41,0,0,1-5.19-1.38,8.94,8.94,0,0,1-3.29-3.81,14.07,14.07,0,0,1,0-11.19,8.81,8.81,0,0,1,3.32-3.76,10.53,10.53,0,0,1,10.35,0,8.82,8.82,0,0,1,3.29,3.79,12.92,12.92,0,0,1,1.14,5.57,13.05,13.05,0,0,1-1.14,5.62,8.86,8.86,0,0,1-3.32,3.78A9.61,9.61,0,0,1,376,173.62Zm0-2.66a5.87,5.87,0,0,0,5.05-2.25,9.65,9.65,0,0,0,1.66-5.85,9.44,9.44,0,0,0-1.67-5.88,5.94,5.94,0,0,0-5-2.19,6.4,6.4,0,0,0-3.76,1,6.13,6.13,0,0,0-2.21,2.84,11.37,11.37,0,0,0-.72,4.2,9.4,9.4,0,0,0,1.69,5.88A5.9,5.9,0,0,0,376,171Z"/><path d="M406,173.62a9.72,9.72,0,0,1-5.15-1.32,8.93,8.93,0,0,1-3.39-3.72,12.34,12.34,0,0,1-1.2-5.61,13,13,0,0,1,1.18-5.77,8.87,8.87,0,0,1,3.35-3.75,9.59,9.59,0,0,1,5.1-1.32,9.16,9.16,0,0,1,5.14,1.39,8.54,8.54,0,0,1,3.22,4,14.82,14.82,0,0,1,1,6.17h-2.82v-1c-.06-2.64-.62-4.63-1.71-6a5.77,5.77,0,0,0-4.76-2,6.12,6.12,0,0,0-5,2.13,9.35,9.35,0,0,0-1.74,6.06,9.16,9.16,0,0,0,1.74,6,6.05,6.05,0,0,0,4.95,2.12,7.11,7.11,0,0,0,3.81-1,6.84,6.84,0,0,0,2.57-2.91l2.59,1a9.18,9.18,0,0,1-3.56,4.11A9.76,9.76,0,0,1,406,173.62Zm-7.78-10v-2.32h15.54v2.32Z"/><path d="M427,173.6a10.38,10.38,0,0,1-5.89-1.55,6.41,6.41,0,0,1-2.83-4.29l2.82-.48a4.52,4.52,0,0,0,2.07,2.76,7.21,7.21,0,0,0,4,1,6.09,6.09,0,0,0,3.66-1,3.1,3.1,0,0,0,1.33-2.65,2.59,2.59,0,0,0-.42-1.53,3.79,3.79,0,0,0-1.72-1.11c-.87-.33-2.16-.74-3.89-1.2a26.25,26.25,0,0,1-4.33-1.51,5.39,5.39,0,0,1-2.22-1.74,4.27,4.27,0,0,1-.66-2.42,4.92,4.92,0,0,1,1-3.05,6.29,6.29,0,0,1,2.71-2,10.46,10.46,0,0,1,4-.73,10.69,10.69,0,0,1,4.12.75,7.3,7.3,0,0,1,2.93,2.08,5.84,5.84,0,0,1,1.32,3.11l-2.83.51a4.08,4.08,0,0,0-1.78-2.84,6.6,6.6,0,0,0-3.79-1.08,6.05,6.05,0,0,0-3.53.82,2.66,2.66,0,0,0-1.35,2.33,2,2,0,0,0,.49,1.38,4.54,4.54,0,0,0,1.78,1.08,32.57,32.57,0,0,0,3.68,1.12,23.44,23.44,0,0,1,4.41,1.5,5.42,5.42,0,0,1,2.28,1.87,4.91,4.91,0,0,1,.68,2.66,5.42,5.42,0,0,1-2.14,4.53A9.43,9.43,0,0,1,427,173.6Z"/><path d="M272.62,228.92V226.6h1a2.86,2.86,0,0,0,1.91-.61,2.62,2.62,0,0,0,.71-2.06V203.41h2.39v21.13a4.52,4.52,0,0,1-1.06,3.29,4.29,4.29,0,0,1-3.23,1.09Zm3.61-28.87v-2.7h2.39v2.7Z"/><path d="M290.18,221.51a7.17,7.17,0,0,1-2.77-.49,6.16,6.16,0,0,1-2-1.32,6.69,6.69,0,0,1-1.33-1.91,9.15,9.15,0,0,1-.74-2.27,13,13,0,0,1-.23-2.4v-9.71h2.42v9a12.1,12.1,0,0,0,.28,2.7,6.18,6.18,0,0,0,.89,2.16,4.23,4.23,0,0,0,1.59,1.44,5.14,5.14,0,0,0,2.36.5,5.32,5.32,0,0,0,2.25-.44,4.43,4.43,0,0,0,1.64-1.27,5.74,5.74,0,0,0,1-2,9.54,9.54,0,0,0,.35-2.67l1.7.37a10,10,0,0,1-.95,4.57,6.56,6.56,0,0,1-2.62,2.79A7.53,7.53,0,0,1,290.18,221.51Zm5.94-.44v-4.35h-.24V203.41h2.4v17.66Z"/><path d="M303.19,221.07V197h2.4v24Z"/><path d="M310.82,200.05v-2.7h2.41v2.7Zm0,21V203.41h2.41v17.66Z"/><path d="M323.19,221.56a7.06,7.06,0,0,1-3.35-.72,4.92,4.92,0,0,1-2-1.91,5.3,5.3,0,0,1-.67-2.6,5,5,0,0,1,.58-2.46,4.82,4.82,0,0,1,1.59-1.68,7.81,7.81,0,0,1,2.33-1c.9-.22,1.89-.41,3-.58s2.15-.32,3.19-.44,1.95-.25,2.74-.37l-.85.52a5.74,5.74,0,0,0-1-3.87c-.7-.84-1.94-1.26-3.69-1.26a5.47,5.47,0,0,0-3.07.82,4.38,4.38,0,0,0-1.76,2.58l-2.34-.69a6.32,6.32,0,0,1,2.44-3.68,8,8,0,0,1,4.76-1.3,8.68,8.68,0,0,1,4.12.9,5.14,5.14,0,0,1,2.39,2.63,5.94,5.94,0,0,1,.43,1.72c.06.63.09,1.27.09,1.93v11h-2.14v-4.43l.62.26a7,7,0,0,1-2.79,3.47A8.43,8.43,0,0,1,323.19,221.56Zm.28-2.08a6.77,6.77,0,0,0,2.94-.6,5.28,5.28,0,0,0,2-1.66,5.73,5.73,0,0,0,1-2.38,9,9,0,0,0,.21-1.87c0-.69,0-1.2,0-1.53l.91.47-2.66.33c-.95.11-1.89.23-2.81.37s-1.75.32-2.49.51a6.6,6.6,0,0,0-1.46.6,3.43,3.43,0,0,0-1.15,1,2.69,2.69,0,0,0-.45,1.59,3.2,3.2,0,0,0,.38,1.49,3,3,0,0,0,1.25,1.19A4.66,4.66,0,0,0,323.47,219.48Z"/><path d="M336.29,221.07V203.41h2.18v4.35h.24v13.31Zm12.77,0v-9a12.76,12.76,0,0,0-.27-2.71,6.56,6.56,0,0,0-.9-2.16,4.18,4.18,0,0,0-1.58-1.43,5.06,5.06,0,0,0-2.37-.51,5.24,5.24,0,0,0-2.24.45,4.33,4.33,0,0,0-1.64,1.26,5.76,5.76,0,0,0-1,2,9.91,9.91,0,0,0-.34,2.68l-1.7-.38a9.93,9.93,0,0,1,.95-4.56,6.58,6.58,0,0,1,2.62-2.8,7.6,7.6,0,0,1,3.82-.95,7.22,7.22,0,0,1,2.78.5,5.86,5.86,0,0,1,2,1.32,6.9,6.9,0,0,1,1.33,1.91,9.58,9.58,0,0,1,.74,2.27,13,13,0,0,1,.22,2.39v9.72Z"/><path d="M363.43,221.56a7.54,7.54,0,0,1-7.69-7.69v-9.16a7.69,7.69,0,1,1,15.37,0v9.16a7.71,7.71,0,0,1-1,3.92,7.54,7.54,0,0,1-6.67,3.77Zm0-2.32a5.07,5.07,0,0,0,2.64-.71,5.35,5.35,0,0,0,1.9-1.91,5.06,5.06,0,0,0,.71-2.63V204.6A5.13,5.13,0,0,0,368,202a5.24,5.24,0,0,0-1.9-1.9,5.22,5.22,0,0,0-5.29,0,5.24,5.24,0,0,0-1.9,1.9,5.12,5.12,0,0,0-.7,2.65V214a5.05,5.05,0,0,0,.7,2.63,5.35,5.35,0,0,0,1.9,1.91A5.08,5.08,0,0,0,363.43,219.24Z"/><path d="M379.8,221.07V200.2l-4.44,2.67v-2.7l4.44-2.65h2.43v23.55Z"/></svg>