<?xml version="1.0" encoding="utf-8"?>
<!-- Generator: Adobe Illustrator 24.1.0, SVG Export Plug-In . SVG Version: 6.00 Build 0)  -->
<svg version="1.1" id="Capa_1" xmlns="http://www.w3.org/2000/svg" xmlns:xlink="http://www.w3.org/1999/xlink" x="0px" y="0px"
	 viewBox="0 0 582.79 418.09" style="enable-background:new 0 0 582.79 418.09;" xml:space="preserve">
<style type="text/css">
	.st0{fill:#62059E;}
	.st1{fill:#1D1D1B;}
	.st2{fill:#00D2B8;}
	.st3{opacity:0.7;fill:#00D2B8;}
	.st4{fill:#FFFFFF;}
	.st5{fill:none;stroke:#000000;stroke-miterlimit:10;}
	.st6{fill:none;stroke:#000000;stroke-width:0.75;stroke-miterlimit:10;}
	.st7{fill:#FFFFFF;stroke:#1D1D1B;stroke-miterlimit:10;}
	.st8{fill:#FFFFFF;stroke:#000000;stroke-miterlimit:10;}
	.st9{fill:none;stroke:#1D1D1B;stroke-linecap:round;stroke-linejoin:round;stroke-miterlimit:10;}
	.st10{fill:none;stroke:#000000;stroke-linejoin:round;stroke-miterlimit:10;}
	.st11{fill:none;stroke:#000000;stroke-linecap:round;stroke-linejoin:round;stroke-miterlimit:10;}
	.st12{fill:url(#SVGID_1_);}
	.st13{fill:url(#SVGID_2_);}
	.st14{fill:url(#SVGID_3_);}
	.st15{fill:url(#SVGID_4_);}
	.st16{fill:url(#SVGID_5_);}
	.st17{fill:url(#SVGID_6_);}
	.st18{fill:url(#SVGID_7_);}
	.st19{fill:url(#SVGID_8_);}
	.st20{fill:url(#SVGID_9_);}
	.st21{fill:url(#SVGID_10_);}
	.st22{fill:#8DC63F;}
	.st23{fill:#FF8686;}
	.st24{fill:#FC4B44;}
	.st25{clip-path:url(#SVGID_12_);}
	.st26{clip-path:url(#SVGID_14_);}
	.st27{fill:#FFFFFF;stroke:#000000;stroke-linejoin:round;stroke-miterlimit:10;}
	.st28{fill:#1A2E35;stroke:#000000;stroke-width:0.5;stroke-miterlimit:10;}
	.st29{stroke:#000000;stroke-width:0.5;stroke-linejoin:round;stroke-miterlimit:10;}
	.st30{opacity:0.6;}
	.st31{stroke:#000000;stroke-width:0.5;stroke-miterlimit:10;}
	.st32{opacity:0.4;}
	.st33{fill:#1A2E35;}
	.st34{stroke:#000000;stroke-width:0.75;stroke-miterlimit:10;}
	.st35{clip-path:url(#SVGID_16_);}
	.st36{clip-path:url(#SVGID_18_);}
	.st37{clip-path:url(#SVGID_20_);}
	.st38{clip-path:url(#SVGID_22_);}
	.st39{clip-path:url(#SVGID_24_);}
	.st40{clip-path:url(#SVGID_26_);}
	.st41{clip-path:url(#SVGID_28_);}
	.st42{clip-path:url(#SVGID_30_);}
	.st43{clip-path:url(#SVGID_32_);}
	.st44{clip-path:url(#SVGID_34_);}
	.st45{fill:#231F20;}
	.st46{clip-path:url(#SVGID_56_);fill:#231F20;}
	.st47{clip-path:url(#SVGID_58_);fill:#231F20;}
	.st48{clip-path:url(#SVGID_60_);fill:#231F20;}
	.st49{clip-path:url(#SVGID_62_);fill:#231F20;}
	.st50{clip-path:url(#SVGID_64_);fill:#231F20;}
	.st51{clip-path:url(#SVGID_66_);fill:#231F20;}
	.st52{clip-path:url(#SVGID_68_);fill:#231F20;}
	.st53{clip-path:url(#SVGID_70_);fill:#231F20;}
	.st54{clip-path:url(#SVGID_72_);fill:#231F20;}
	.st55{clip-path:url(#SVGID_74_);fill:#231F20;}
	.st56{clip-path:url(#SVGID_96_);}
	.st57{fill:#FFFFFF;stroke:#1D1D1B;stroke-linejoin:round;stroke-miterlimit:10;}
	.st58{fill:none;stroke:#1D1D1B;stroke-linejoin:round;stroke-miterlimit:10;}
	.st59{fill:#F5F5F5;}
	.st60{fill:#FAFAFA;stroke:#1D1D1B;stroke-width:0.5;stroke-linejoin:round;stroke-miterlimit:10;}
	.st61{fill:#1A2E35;stroke:#1D1D1B;stroke-width:0.5;stroke-linejoin:round;stroke-miterlimit:10;}
	.st62{fill:#1A2E35;stroke:#1D1D1B;stroke-width:0.5;stroke-miterlimit:10;}
	.st63{fill:none;stroke:#1D1D1B;stroke-miterlimit:10;}
	.st64{fill:#1A2E35;stroke:#000000;stroke-miterlimit:10;}
	.st65{opacity:0.3;}
	.st66{fill:none;}
	.st67{font-family:'PTMono-Bold';}
	.st68{font-size:25.1px;}
	.st69{font-family:'PTMono-Regular';}
	.st70{font-size:200.4334px;}
	.st71{clip-path:url(#SVGID_98_);}
	.st72{clip-path:url(#SVGID_100_);}
	.st73{clip-path:url(#SVGID_102_);}
	.st74{clip-path:url(#SVGID_104_);}
	.st75{clip-path:url(#SVGID_106_);}
	.st76{clip-path:url(#SVGID_108_);}
	.st77{clip-path:url(#SVGID_110_);}
	.st78{clip-path:url(#SVGID_112_);}
	.st79{clip-path:url(#SVGID_114_);}
	.st80{clip-path:url(#SVGID_116_);}
	.st81{clip-path:url(#SVGID_132_);fill:#231F20;}
	.st82{clip-path:url(#SVGID_134_);fill:#231F20;}
	.st83{clip-path:url(#SVGID_136_);fill:#231F20;}
	.st84{clip-path:url(#SVGID_138_);fill:#231F20;}
	.st85{clip-path:url(#SVGID_140_);fill:#231F20;}
	.st86{clip-path:url(#SVGID_142_);fill:#231F20;}
	.st87{clip-path:url(#SVGID_144_);fill:#231F20;}
	.st88{clip-path:url(#SVGID_146_);fill:#231F20;}
	.st89{clip-path:url(#SVGID_148_);fill:#231F20;}
	.st90{clip-path:url(#SVGID_150_);fill:#231F20;}
</style>
<g>
	<g>
		<path class="st22" d="M372.27,335.97c24.26-3.64,48.84-4.15,74.06,1.87c10.43,2.49,20.7,5.91,31.38,6.83
			c53.33,4.61,78.38-56.51,77.87-97.4c-0.57-44.94-12.24-98.14-37.24-135.41c-29.12-43.42-83.03-51.65-130.52-39.44
			c-17.79,4.57-34.7,8.72-53.36,6.43c-33.4-4.1-61.46-22.39-95.05-25.48c-33.96-3.12-71.51,0.7-98.08,23.17
			c-57.4,48.55-49.75,138.39-22.69,200.82c13.3,30.69,32.8,63.76,64.29,78.07c33.9,15.41,73.51,10.62,108.84,3.54
			C329.23,351.48,334.44,341.64,372.27,335.97z"/>
	</g>
	<g>
		<g>
			<polygon points="177.34,121.41 154.32,312.73 203.48,307.36 			"/>
			<polygon class="st4" points="409.09,314.12 498.82,307.75 484.38,220.98 484.38,220.98 474.14,159.41 474.14,159.41 
				464.42,101.02 213.79,118.82 213.79,118.82 177.34,121.41 206.45,328.51 206.45,328.51 206.45,328.51 217.45,327.73 
				409.09,314.12 			"/>
		</g>
		<g>
			<path class="st23" d="M392.03,140.55l78.11-5.55l-5.71-33.98l-104.5,7.42C370.62,119.14,381.32,129.84,392.03,140.55z"/>
		</g>
		<polygon points="464.42,101.02 213.79,118.82 213.79,118.82 177.34,121.41 182.02,155.46 470.13,135 		"/>
		<g>
			
				<ellipse transform="matrix(0.2298 -0.9732 0.9732 0.2298 38.1727 320.8766)" class="st4" cx="221.81" cy="136.32" rx="5.93" ry="5.93"/>
			<g>
				<path d="M210.65,105.63c-8.12,0-14.92,6.26-16.56,14.59l2.47-0.18c1.63-6.92,7.32-12.05,14.09-12.05
					c8.04,0,14.57,7.22,14.57,16.1c0,4.32-1.53,8.38-4.31,11.43c-0.44,0.48-0.41,1.23,0.08,1.67c0.23,0.21,0.51,0.31,0.8,0.31
					c0.32,0,0.64-0.13,0.87-0.39c3.18-3.48,4.92-8.11,4.92-13.02C227.59,113.91,219.99,105.63,210.65,105.63z"/>
			</g>
		</g>
		<g>
			
				<ellipse transform="matrix(0.7071 -0.7071 0.7071 0.7071 7.1813 271.7115)" class="st4" cx="331.58" cy="127.19" rx="5.93" ry="5.93"/>
			<g>
				<path d="M320.32,96.49c-8.56,0-15.65,6.96-16.78,15.95l2.43-0.17c1.16-7.6,7.15-13.41,14.35-13.41c8.04,0,14.57,7.22,14.57,16.1
					c0,4.32-1.53,8.38-4.31,11.43c-0.44,0.48-0.41,1.23,0.08,1.67c0.23,0.21,0.51,0.31,0.8,0.31c0.32,0,0.64-0.13,0.87-0.39
					c3.18-3.48,4.92-8.11,4.92-13.02C337.26,104.78,329.66,96.49,320.32,96.49z"/>
			</g>
		</g>
		<g>
			<circle class="st4" cx="435.68" cy="120.54" r="5.93"/>
			<g>
				<path d="M424.69,89.57c-8.4,0-15.39,6.7-16.71,15.46l2.43-0.17c1.34-7.36,7.24-12.92,14.28-12.92c8.04,0,14.57,7.22,14.57,16.1
					c0,4.32-1.53,8.38-4.31,11.43c-0.44,0.48-0.41,1.23,0.08,1.67c0.23,0.21,0.51,0.31,0.8,0.31c0.32,0,0.64-0.13,0.87-0.39
					c3.18-3.48,4.92-8.11,4.92-13.02C441.63,97.86,434.03,89.57,424.69,89.57z"/>
			</g>
		</g>
		<g>
			<polygon points="337.25,310.5 337.26,310.56 375.41,307.81 375.38,307.61 			"/>
			<polygon points="375.38,307.61 375.41,307.81 413.56,305.06 413.5,304.72 			"/>
			<polygon points="320.65,311.76 337.26,310.56 337.25,310.5 			"/>
			<polygon points="413.5,304.72 413.56,305.06 451.7,302.31 451.62,301.83 			"/>
			<path d="M246.67,254.67l-5.44-32.38l41.56-3l5.44,32.38L246.67,254.67z M242.15,223.02l5.18,30.82l39.98-2.88l-5.18-30.82
				L242.15,223.02z"/>
			<path d="M251.79,285.14l-5.25-31.25l41.56-3l5.25,31.25L251.79,285.14z M247.46,254.62l4.99,29.69l39.98-2.88l-4.99-29.69
				L247.46,254.62z"/>
			<path d="M282.12,220.13l-5.35-31.82l39.85-2.88l5.35,31.82L282.12,220.13z M277.7,189.04l5.09,30.25l38.27-2.76l-5.09-30.25
				L277.7,189.04z"/>
			<path d="M321.19,217.32l-5.35-31.82l38.94-2.81l5.35,31.82L321.19,217.32z M316.76,186.22l5.09,30.25l37.36-2.7l-5.09-30.25
				L316.76,186.22z"/>
			<path d="M241.36,223.08l-5.35-31.82l41.56-3l5.35,31.82L241.36,223.08z M236.93,191.98l5.09,30.25l39.98-2.88l-5.09-30.25
				L236.93,191.98z"/>
			<path d="M375.05,308.03l-5.41-32.18l38.94-2.81l5.39,32.04l-0.43,0.03L375.05,308.03z M370.56,276.57l5.15,30.61l37.33-2.83
				l-5.12-30.48L370.56,276.57z"/>
			<path d="M292.56,282.2l-5.25-31.25l39.85-2.88l5.25,31.25L292.56,282.2z M288.23,251.67l4.99,29.69l38.27-2.76l-4.99-29.69
				L288.23,251.67z"/>
			<path d="M336.92,310.92l-5.43-32.32l38.94-2.81l5.41,32.18l-0.43,0.03L336.92,310.92z M332.41,279.33l5.17,30.75l37.33-2.83
				l-5.15-30.62L332.41,279.33z"/>
			<path d="M331.62,279.38l-5.25-31.25l38.94-2.81l5.25,31.25L331.62,279.38z M327.29,248.86l4.99,29.69l37.36-2.7l-4.99-29.69
				L327.29,248.86z"/>
			<path d="M364.65,246.16l-5.44-32.38l38.94-2.81l5.44,32.38L364.65,246.16z M360.12,214.51l5.18,30.82l37.36-2.7l-5.18-30.82
				L360.12,214.51z"/>
			<path d="M326.5,248.91l-5.44-32.38l38.94-2.81l5.44,32.38L326.5,248.91z M321.98,217.26l5.18,30.82l37.36-2.7l-5.18-30.82
				L321.98,217.26z"/>
			<path d="M257.1,316.74l-5.44-32.38l41.56-3l5.44,32.38L257.1,316.74z M252.58,285.09l5.18,30.82l39.98-2.88l-5.18-30.82
				L252.58,285.09z"/>
			<path d="M287.44,251.73l-5.44-32.38l39.85-2.88l5.44,32.38L287.44,251.73z M282.91,220.08l5.18,30.82l38.27-2.76l-5.18-30.82
				L282.91,220.08z"/>
			<path d="M413.17,305.14l-5.39-32.04l38.94-2.81l5.36,31.9l-0.43,0.03L413.17,305.14z M408.7,273.82l5.12,30.48l37.33-2.83
				l-5.1-30.34L408.7,273.82z"/>
			<path d="M369.77,276.63l-5.25-31.25l38.94-2.81l5.25,31.25L369.77,276.63z M365.44,246.1l4.99,29.69l37.36-2.7l-4.99-29.69
				L365.44,246.1z"/>
			<path d="M402.79,243.41l-5.44-32.38l38.94-2.81l5.44,32.38L402.79,243.41z M398.27,211.75l5.18,30.82l37.36-2.7l-5.18-30.82
				L398.27,211.75z"/>
			<path d="M397.48,211.81L392.13,180l38.94-2.81l5.35,31.82L397.48,211.81z M393.05,180.72l5.09,30.25l37.36-2.7l-5.09-30.25
				L393.05,180.72z"/>
			<path d="M407.91,273.88l-5.25-31.25l38.94-2.81l5.25,31.25L407.91,273.88z M403.58,243.35l4.99,29.69l37.36-2.7l-4.99-29.69
				L403.58,243.35z"/>
			<path d="M359.33,214.56l-5.35-31.82l38.94-2.81l5.35,31.82L359.33,214.56z M354.91,183.47l5.09,30.25l37.36-2.7l-5.09-30.25
				L354.91,183.47z"/>
			<path d="M446.06,271.13l-5.25-31.25l37.72-2.72l5.24,31.25L446.06,271.13z M441.73,240.6l4.99,29.69l36.13-2.61l-4.98-29.69
				L441.73,240.6z"/>
			<path d="M209.97,288.16l-4.41-31.31l0.42-0.03l41.34-2.98l5.25,31.25L209.97,288.16z M206.47,257.57l4.18,29.75l41.01-2.96
				l-4.99-29.69L206.47,257.57z"/>
			<path d="M205.68,257.63l-4.56-32.44l0.42-0.03l40.48-2.92l5.44,32.38L205.68,257.63z M202.01,225.91l4.34,30.88l40.18-2.9
				l-5.18-30.81L202.01,225.91z"/>
			<path d="M201.22,225.97l-4.48-31.88l40.06-2.89l5.35,31.82L201.22,225.97z M197.64,194.82l4.26,30.31l39.32-2.84l-5.09-30.25
				L197.64,194.82z"/>
			<path d="M214.43,319.82l-4.56-32.44l0.42-0.03l42.17-3.04l5.44,32.38l-0.43,0.03L214.43,319.82z M210.76,288.1l4.34,30.88
				l41.87-3.02l-5.18-30.82L210.76,288.1z"/>
			<polygon points="298.21,313.46 320.65,311.76 298.2,313.38 			"/>
			<polygon points="214.77,319.4 214.82,319.79 257.47,316.55 257.43,316.32 			"/>
			<g>
				<polygon points="231.66,162.99 193.17,165.91 197.19,194.46 236.47,191.62 				"/>
				<path d="M196.85,194.88l-4.13-29.32l39.26-2.98l4.94,29.41L196.85,194.88z M193.62,166.28l3.91,27.76l38.48-2.78l-4.68-27.85
					L193.62,166.28z"/>
			</g>
			<path d="M297.87,313.8l-5.44-32.38l39.85-2.88l5.43,32.32l-17.04,1.29L297.87,313.8z M293.35,282.15l5.18,30.82l22.09-1.59
				l16.17-1.23l-5.17-30.76L293.35,282.15z"/>
			<polygon points="257.43,316.32 257.47,316.55 298.21,313.46 298.2,313.38 			"/>
			<g>
				<polygon points="277.24,188.68 272.4,159.9 231.66,162.99 236.47,191.62 				"/>
				<path d="M236.14,192.04l-4.94-29.41l41.53-3.15l4.97,29.56L236.14,192.04z M232.12,163.35l4.68,27.85l39.98-2.88l-4.71-28
					L232.12,163.35z"/>
			</g>
			<g>
				<polygon points="467.7,174.94 462.75,145.44 425.8,148.25 430.74,177.61 				"/>
				<path d="M430.41,178.02l-5.07-30.13l37.74-2.87l5.08,30.28L430.41,178.02z M426.27,148.61l4.8,28.58l36.17-2.61l-4.82-28.71
					L426.27,148.61z"/>
			</g>
			<g>
				<polygon points="430.74,177.61 425.8,148.25 387.68,151.15 392.59,180.36 				"/>
				<path d="M392.26,180.78l-5.04-29.99l38.91-2.95l5.07,30.14L392.26,180.78z M388.14,151.51l4.78,28.43l37.36-2.7l-4.8-28.57
					L388.14,151.51z"/>
			</g>
			<path d="M435.63,209.06l-5.35-31.82l37.75-2.72l5.34,31.82L435.63,209.06z M431.2,177.97l5.09,30.25l36.15-2.61l-5.07-30.25
				L431.2,177.97z"/>
			<path d="M451.29,302.25l-5.36-31.9l37.71-2.72l5.33,31.77l-0.43,0.03L451.29,302.25z M446.85,271.07l5.1,30.34l36.1-2.74
				l-5.07-30.21L446.85,271.07z"/>
			<path d="M440.94,240.66l-5.44-32.38l37.74-2.72l5.43,32.38L440.94,240.66z M436.42,209l5.18,30.82l36.14-2.61l-5.17-30.82
				L436.42,209z"/>
			<g>
				<polygon points="392.59,180.36 387.68,151.15 349.56,154.04 354.45,183.11 				"/>
				<path d="M354.12,183.53l-5.02-29.85l38.91-2.95l5.04,30L354.12,183.53z M350.02,154.4l4.76,28.29l37.36-2.7l-4.78-28.43
					L350.02,154.4z"/>
			</g>
			<g>
				<polygon points="316.3,185.86 311.44,156.93 272.4,159.9 277.24,188.68 				"/>
				<path d="M276.91,189.1l-4.97-29.56l39.83-3.02l4.99,29.71L276.91,189.1z M272.86,160.26l4.71,28l38.27-2.76l-4.73-28.15
					L272.86,160.26z"/>
			</g>
			<g>
				<polygon points="354.45,183.11 349.56,154.04 311.44,156.93 316.3,185.86 				"/>
				<path d="M315.97,186.28l-4.99-29.71l38.91-2.95l5.02,29.85L315.97,186.28z M311.9,157.29l4.73,28.15l37.36-2.7l-4.76-28.29
					L311.9,157.29z"/>
			</g>
		</g>
		<text transform="matrix(0.9973 -0.073 0.073 0.9973 207.4914 188.2733)" class="st4 st67 st68">L</text>
		<text transform="matrix(0.9973 -0.073 0.073 0.9973 248.3512 184.694)" class="st4 st67 st68">M</text>
		<text transform="matrix(0.9973 -0.073 0.073 0.9973 287.2993 182.7026)" class="st4 st67 st68">M</text>
		<text transform="matrix(0.9973 -0.073 0.073 0.9973 326.3628 179.7363)" class="st4 st67 st68">J</text>
		<text transform="matrix(0.9973 -0.073 0.073 0.9973 365.4307 176.7728)" class="st4 st67 st68">V</text>
		<text transform="matrix(0.9973 -0.073 0.073 0.9973 403.4264 173.8201)" class="st4 st67 st68">S</text>
		<text transform="matrix(0.9973 -0.073 0.073 0.9973 441.1974 170.4991)" class="st4 st67 st68">D</text>
		<path class="st24" d="M351.28,238.79c-4.16,3.5-10.07,5.35-13.47,4.22c-3.01-1.01-5.99-5.12-7.09-9.79
			c-0.56-2.35-1.39-8.28,2.85-12.52c0.49-0.49,2.01-1.4,3.75-1.4c0.25,0,0.5,0.02,0.76,0.06c1.72,0.28,3.17,1.58,4.3,3.87l1.19,2.39
			l2.42-1.12c2.85-1.31,5.34-1.47,7.2-0.47c1.83,0.99,2.71,2.86,2.93,4.28C356.87,233.26,353.41,237,351.28,238.79z"/>
	</g>
	<g>
		<path class="st4" d="M377.34,184.92c-1.44,6.05-4.34,12.41-2.05,18.19c1.66,4.18,5.82,6.98,10.18,8.05c4.37,1.07,8.95,0.66,13.4,0
			c6.3-0.92,12.53-2.31,18.63-4.14c5.67-1.7,11.64-4.12,14.73-9.17c2.41-3.95,2.62-8.82,2.56-13.45
			c-0.08-5.63-0.46-11.26-1.14-16.85c-0.33-2.71-0.75-5.47-1.93-7.93c-2.42-5.04-7.72-8.14-13.14-9.52
			c-10.88-2.77-21.43,1.25-30.46,7.2C378.36,163.74,379.81,174.57,377.34,184.92z"/>
		<g>
			<path d="M353.05,218.44l-10.04,12.66c-0.48,0.6,0.21,1.43,0.89,1.06l14.42-7.79L353.05,218.44z"/>
			<path d="M351.28,216.56c-0.67,0.56-0.88,1.5-0.51,2.29c0.6,1.29,1.58,3.18,2.56,4.15c0.95,0.95,2.47,2.18,3.53,3.02
				c0.7,0.55,1.68,0.54,2.38-0.01l88.73-70.99c0.54-0.43,0.8-1.11,0.7-1.8c-0.35-2.32-1.87-7.51-8.31-9.59
				c-0.63-0.2-1.32-0.07-1.83,0.35L351.28,216.56z"/>
		</g>
		<path class="st27" d="M499.76,153.49c-3.91,1.18-8.08,1.69-12.15,1.2c-3.54-0.43-7.12-2.17-10.49-3.31
			c-4.09-1.38-8.17-2.76-12.26-4.14c-3.26-1.1-6.52-2.2-9.87-2.99c-1.69-0.4-3.4-0.72-5.05-1.27c-2.16-0.73-4.17-1.86-6.24-2.79
			c-5.18-2.52-10.36-5.04-15.54-7.56c-7.87-3.91-17.29-1.82-25.41,0.18c-8.67,2.13-17.06,5.3-24.95,9.49
			c-2.74,1.46-4.58,2.58-5.92,5.42c-1.57,3.31-1.76,7.14-2.73,10.55c-0.57,3.04-1.13,6.05-1.7,9.08c-0.11,2.69-1.33,5.79-1.76,8.31
			c-0.28,1.47-0.56,2.94-0.84,4.41c-1.02,4.07-1.42,7.79-2.85,11.49c-1.01,2.62-2.21,5.15-3.24,7.77c0,0,0,0,0,0.01
			c-0.04,0.11-0.09,0.23-0.13,0.35c-0.05,0.14-0.1,0.29-0.14,0.44c-0.03,0.1-0.06,0.2-0.08,0.3c-0.2,0.85-0.23,1.72,0.23,2.32
			c0.09,0.12,0.21,0.24,0.35,0.34c0.42,0.3,0.97,0.37,1.49,0.4c3.63,0.24,7.32-0.74,10.36-2.74c1.36-0.9,2.64-1.97,3.83-3.17
			c0.01-0.01,0.03-0.03,0.04-0.04c0.42-0.43,0.83-0.87,1.23-1.32c0.5-0.57,0.98-1.15,1.45-1.75c0.31-0.4,0.61-0.81,0.91-1.22
			c1.57-2.18,2.94-4.51,4.14-6.77c0.26-0.49,0.51-0.98,0.76-1.46c2.31-4.59,4.01-9.49,5.01-14.53c0.33-1.68,0.59-3.38,0.76-5.08
			c0.38,0.04,0.76,0.06,1.15,0.07c0.77,0.01,1.56-0.03,2.35-0.14c1.98-0.25,3.96-0.82,5.72-1.53c0.7-0.28,1.4-0.59,2.09-0.9
			c2.07-0.94,4.1-1.96,6.23-2.77c0.31-0.12,0.64-0.24,0.97-0.24c0.17,0,0.33,0.03,0.48,0.08c0.47,0.14,0.89,0.46,1.3,0.75
			c0.24,0.16,0.48,0.31,0.74,0.44c1.53,0.8,3.37,1.16,5.21,1.52c1.22,0.24,2.44,0.49,3.56,0.89c0.56,0.2,1.09,0.43,1.58,0.72
			c0.74,0.43,1.4,0.99,1.93,1.72c0.55,0.75,0.87,1.65,1.13,2.54c0.15,0.51,0.28,1.02,0.39,1.54c0.69,3.1,0.8,6.31,0.78,9.5
			c0,0.53-0.01,1.06-0.02,1.59c0,0.12-0.01,0.25-0.01,0.37v0c-0.05,2.71-0.21,5.5-1.42,7.92c-1.27,2.54-3.56,4.39-5.84,6.08
			c-2.04,1.51-4.16,2.97-6.55,3.83c-2.46,0.89-5.11,1.1-7.72,1.29c-4.54,0.33-9.08,0.62-13.6,1.22c-3.46,0.46-8.54,0.66-11.16,3.25
			c-4.57,4.5-1.32,12.08,3.89,14.25c2.85,1.18,5.99,1.37,9.07,1.54c3.67,0.2,7.35,0.41,11.02,0.61c1.88,0.1,3.79,0.11,5.66,0.31
			c1.28,0.14,2.37,0.62,3.68,0.64c6.87,0.07,13.27-3.16,19.76-4.97c7.88-2.19,16.09-2.48,24.19-3.26c1.95-0.19,3.91-0.4,5.85-0.69
			c1.23-0.18,2.47-0.2,3.71-0.12c4.21,0.29,8.52-0.79,12.09-3.06c1.8-1.15,3.4-2.58,5.17-3.79c2.71-1.85,5.77-3.12,8.8-4.38
			c5.78-2.4,11.56-4.8,17.34-7.2c12.76-5.3,24.8-10.3,38.01-14.31c0.08-0.02,0.13-0.11,0.1-0.19l-15.29-44.43
			c-0.01-0.01-0.02-0.02-0.03-0.01C517.52,149.57,518.32,147.87,499.76,153.49z"/>
		<g>
			<g>
				<g>
					<path d="M448.67,153.23c-0.35-2.32-1.87-7.51-8.31-9.59c-0.63-0.2-1.32-0.07-1.83,0.35l-29.19,24.28
						c2.31,1.46,4.07,3.76,5.37,6.19c0.92,1.71,1.66,3.51,2.27,5.36l30.99-24.79C448.51,154.59,448.77,153.91,448.67,153.23z"/>
				</g>
			</g>
		</g>
	</g>
	<path class="st66" d="M372.27,335.97c24.26-3.64,48.84-4.15,74.06,1.87c10.43,2.49,20.7,5.91,31.38,6.83
		c53.33,4.61,78.38-56.51,77.87-97.4c-0.57-44.94-12.24-98.14-37.24-135.41c-29.12-43.42-83.03-51.65-130.52-39.44
		c-17.79,4.57-34.7,8.72-53.36,6.43c-33.4-4.1-61.46-22.39-95.05-25.48c-33.96-3.12-71.51,0.7-98.08,23.17
		c-57.4,48.55-49.75,138.39-22.69,200.82c13.3,30.69,32.8,63.76,64.29,78.07c33.9,15.41,73.51,10.62,108.84,3.54
		C329.23,351.48,334.44,341.64,372.27,335.97z"/>
</g>
<text transform="matrix(1 0 0 1 27.2037 237.9909)" class="st69 st70">3</text>
<polygon class="st4" points="545.54,180.47 548.03,179.74 532.75,135.29 530.2,137.81 "/>
</svg>
