<svg id="Capa_1" data-name="Capa 1" xmlns="http://www.w3.org/2000/svg" viewBox="0 0 582.79 418.09"><defs><style>.cls-1{font-size:200.43px;font-family:PTMono-Regular, PT Mono;}.cls-2{fill:#fc4b44;}.cls-3,.cls-7,.cls-8{fill:#fff;}.cls-10,.cls-3,.cls-8,.cls-9{stroke:#000;}.cls-10,.cls-3,.cls-9{stroke-miterlimit:10;}.cls-4{fill:#241352;}.cls-5{opacity:0.18;}.cls-6{opacity:0.13;}.cls-8{stroke-linecap:round;stroke-linejoin:round;}.cls-10,.cls-9{fill:none;}.cls-10{stroke-width:0.5px;}</style></defs><text class="cls-1" transform="translate(21.7 314.03)">4</text><path class="cls-2" d="M377.78,337.38c24.26-3.64,48.83-4.15,74.05,1.86,10.43,2.49,20.71,5.91,31.39,6.84,53.33,4.6,78.38-56.52,77.86-97.4-.57-44.94-12.24-98.14-37.23-135.41-29.13-43.42-83-51.65-130.53-39.44-17.78,4.58-34.7,8.72-53.35,6.43-33.4-4.09-61.47-22.39-95.06-25.47C211,51.67,173.4,55.49,146.83,78c-57.39,48.55-49.75,138.39-22.68,200.82,13.3,30.69,32.8,63.76,64.29,78.07,33.9,15.41,73.5,10.62,108.83,3.54C334.74,352.88,340,343.05,377.78,337.38Z"/><path class="cls-3" d="M472.18,140.51l.9-11.87a16.84,16.84,0,0,0-13.59-17.82L445,108a14.21,14.21,0,0,0-16.85,12.29c-2.26,19.7-3.41,42.54,11.81,50.48l-1.65,9.31a13.92,13.92,0,0,0,27.39,5L471,156.8c2.15.66,6.34.94,8.42-5.73C482.27,141.87,472.18,140.51,472.18,140.51Z"/><path d="M500.36,175.36a3.64,3.64,0,0,0-.43-2.5c-.85-1.19-2.65-1.16-4-.62s-2.55,1.48-4,1.78c-2.8.58-5.58-1.59-6.69-4.23s-.95-5.61-.78-8.46l1.89-30.87c.25-4.11.44-8.49-1.6-12.06a13,13,0,0,0-8.63-6,21.74,21.74,0,0,0-10.67.72l1.85,0-1.29.39v0a16.84,16.84,0,0,1,7.06,15l-.9,11.87s10.09,1.36,7.21,10.56c-2.08,6.67-6.27,6.39-8.42,5.73l-5.3,28.27c0,.22-.11.43-.16.64,1,4.7,3.09,9.11,6.8,12a20,20,0,0,0,10.62,4,11,11,0,0,0,5.31-.56,5.13,5.13,0,0,0,3.25-4,3.4,3.4,0,0,0-3-3.74,16.55,16.55,0,0,0,6.47-.74c2-.82,3.79-2.71,3.76-4.89s-2.5-4.17-4.47-3.22A12.24,12.24,0,0,0,500.36,175.36Z"/><path d="M445.46,150.75s0,.1,0,.27a1,1,0,0,1-.58.54,1.45,1.45,0,0,1-1.26-.21,2.48,2.48,0,0,1-.93-1.34,10.74,10.74,0,0,1-.26-3.9c.08-1.44.16-3,.25-4.64.41-6.56,1-11.87,1.26-11.86s.19,5.36-.22,11.93c-.12,1.63-.23,3.19-.33,4.63a11.49,11.49,0,0,0,0,3.63c.17,1,.9,1.45,1.37,1.37S445.38,150.69,445.46,150.75Z"/><path d="M437.33,168.86c.1-.13,1.22.67,3.22,1.56a20.68,20.68,0,0,0,16.49.35c2-.81,3.19-1.56,3.29-1.42s-.95,1.07-3,2.1a18.54,18.54,0,0,1-17.12-.37C438.23,170,437.25,169,437.33,168.86Z"/><path d="M442.34,155.62c.12-.11.65.41,1.66.88a5.52,5.52,0,0,0,7.33-2.36c.55-1,.67-1.7.83-1.68s.28.8-.17,2a5.63,5.63,0,0,1-8.35,2.68C442.58,156.43,442.24,155.69,442.34,155.62Z"/><path d="M473.5,149.48c-.06,0-.08-.16,0-.35a1.06,1.06,0,0,1,.76-.44,1.54,1.54,0,0,1,1.29.43,1.79,1.79,0,0,1,.39,1.62,2.15,2.15,0,0,1-.89,1.3,2.45,2.45,0,0,1-1.11.41c-.66.07-1-.09-1-.23s.36-.26.84-.48a1.89,1.89,0,0,0,1.17-1.23.8.8,0,0,0-.64-1.08C473.89,149.32,473.63,149.54,473.5,149.48Z"/><path d="M454.34,128.83c0-.13.22-.34.72-.49a3.94,3.94,0,0,1,2,0,3.87,3.87,0,0,1,1.75,1c.37.37.49.68.39.78s-1.13-.43-2.4-.74S454.42,129.12,454.34,128.83Z"/><path d="M433.45,125.52c-.13-.24,1.12-1,2.86-.88s2.83,1.15,2.66,1.37-1.3-.22-2.75-.33S433.56,125.8,433.45,125.52Z"/><path d="M472.18,140.51c-6.75-6.58-8.73-17.53-10.56-26.77a23.58,23.58,0,0,1-22,2.87,35.43,35.43,0,0,1-7.85,6.86,3.47,3.47,0,0,1-2.77.77c-1.14-.34-1.64-1.64-1.91-2.79a19.87,19.87,0,0,1,.39-11.18,13.46,13.46,0,0,1,7.51-8c3.77-1.46,8-.83,11.93.19a65.93,65.93,0,0,1,16.84,7c5.16,3,10.12,7,12.3,12.59s2.18,16.38-3.09,19.19"/><path class="cls-4" d="M467.07,252a3.7,3.7,0,0,1-.13-.69c-.06-.51-.15-1.18-.26-2-.22-1.8-.52-4.3-.89-7.37-.71-6.28-1.67-14.86-2.74-24.34a28,28,0,0,1,0-7,12.72,12.72,0,0,1,2.57-6,16.19,16.19,0,0,1,9.39-5.62,24.41,24.41,0,0,1,7.43-.35c.87.09,1.55.2,2,.28a3.56,3.56,0,0,1,.69.16,4.08,4.08,0,0,1-.7-.06c-.46,0-1.14-.12-2-.17a25.38,25.38,0,0,0-7.33.5,15.9,15.9,0,0,0-9.09,5.55,12.29,12.29,0,0,0-2.44,5.81,27.48,27.48,0,0,0,0,6.9c1,9.49,1.91,18.07,2.58,24.35.3,3.08.55,5.59.73,7.39.07.83.12,1.5.17,2A3.48,3.48,0,0,1,467.07,252Z"/><g class="cls-5"><path d="M451.16,155.77c.22.68-.61,1.55-1.84,1.94s-2.41.13-2.62-.55.61-1.56,1.84-1.94S451,155.08,451.16,155.77Z"/></g><g class="cls-6"><path d="M463.32,143.18c0,.72-2.46,1.32-5.51,1.34s-5.53-.54-5.53-1.26,2.46-1.32,5.51-1.34S463.32,142.46,463.32,143.18Z"/></g><g class="cls-6"><path d="M440.57,144.79c0,.72-2.46,1.32-5.51,1.34s-5.53-.54-5.54-1.26,2.47-1.32,5.52-1.34S440.57,144.07,440.57,144.79Z"/></g><path class="cls-7" d="M473.53,124.47a3,3,0,0,0,0-1.89,10.11,10.11,0,0,0-.95-2c-.42-.75-.87-1.57-1.33-2.45-1.84-3.5-3.12-6.45-2.87-6.59s1.95,2.6,3.79,6.12c.46.88.89,1.72,1.27,2.5a7.56,7.56,0,0,1,.8,2.22,2.4,2.4,0,0,1-.24,1.68C473.8,124.44,473.57,124.52,473.53,124.47Z"/><path class="cls-7" d="M468,237.16l-4.19.07c-1.2-10.66-2.41-39.37,18.87-41.85l-5.67-4s-26.55,3.44-20.12,46l-29.84.48v-48.9l-7.2,2.81v46.2l-4.91.08-4.23,56.28,55.49,4.45,7.94.06c0,.21-4.42-48.55-4.42-48.55Z"/><path d="M455.45,139.16c-.78,0-1.26-1-1.08-2.26s.95-2.18,1.73-2.16,1.26,1,1.08,2.26S456.23,139.18,455.45,139.16Z"/><path d="M434.26,137.61c-.73,0-1.18-1-1-2.26s.89-2.18,1.62-2.16,1.18,1,1,2.26S435,137.63,434.26,137.61Z"/><path class="cls-8" d="M385.5,284.23l30.28,7.25v0c5.67-.82,19.71-2.68,18.86-1-1.06,2.08-4.69,1.62-8.84,4.6,0,0,23.72,3.86,22.28,5.64s-17-.06-17.12.26,16.8,3.31,16.14,5.06S430.7,305,430.7,305s14.41,3.77,13.82,5.68-13.89-1.55-13.89-1.55,11.11,3,10.54,4.73c-.34,1-29.75-2.71-29.75-2.71s-62.34-7.95-57.19-21.68c9-24,26.08-54.59,26.08-54.59L413.68,240Z"/><path class="cls-8" d="M507,261.78l-1.62-15.09-31.53-2.54s9.51,56-3.9,54.65c-33.24-3.42-56.34-4.61-65.7-5l0-.15s-21.59-6.77-20.85-4.54,4.42,2.3,8.09,5.9c0,0-24.13.26-23,2.25s16.87,2.48,17,2.82-17.18.76-16.79,2.6,16.44,1.39,16.44,1.39-14.88,1.58-14.57,3.56,14,.56,14,.56-11.48,1.31-11.18,3.1c.14.84,19.73,1.18,29,1.66,22.62,7.32,76.35,20.71,86.9,14.49C498.76,321.86,513.89,306.8,507,261.78Z"/><path d="M482.64,195.38s-22.32-1.95-19,42l4.33-.2,1.72,13.09,4.18,46.14s3.6-7.06,3.68-12.84a142.8,142.8,0,0,0-3.05-32.77l34.26,3.79S506.76,213.84,482.64,195.38Z"/><path d="M427,237.82l29.8-.66s-8.2-37.89,20.16-45.81c0,0-7-3.73-11.74-4.59a14.5,14.5,0,0,1-14.35,9.67c-11.23-.32-12.61-11.55-12.61-11.55L427,188.64Z"/><polygon points="419.81 237.82 414.9 238.02 410.89 291.64 409.29 291.22 410.45 231.69 419.81 223.04 419.81 237.82"/><path class="cls-4" d="M426.66,238.32a5.56,5.56,0,0,1,.61,2.69,5.83,5.83,0,0,1-.6,3.06,4.36,4.36,0,0,1-1.23,1.47,3.32,3.32,0,0,1-2,.7,4.27,4.27,0,0,1-3.39-2,6.18,6.18,0,0,1-1-2.94c-.15-1.72.05-2.74.17-2.75s.24,1,.55,2.63a6.39,6.39,0,0,0,1.05,2.5,3.47,3.47,0,0,0,2.61,1.48,2.93,2.93,0,0,0,2.42-1.6,5.65,5.65,0,0,0,.71-2.59C426.6,239.4,426.49,238.34,426.66,238.32Z"/><path class="cls-4" d="M422.29,239.26c.08.12-.11.41,0,.83a.79.79,0,0,0,.35.51.67.67,0,0,0,.9-.6.8.8,0,0,0-.34-.52c-.34-.26-.69-.19-.76-.32s0-.18.19-.29a1.11,1.11,0,0,1,.87-.06,1.44,1.44,0,0,1,1,1,1.55,1.55,0,0,1-2.4,1.6,1.43,1.43,0,0,1-.51-1.27,1.09,1.09,0,0,1,.39-.77C422.12,239.2,422.25,239.21,422.29,239.26Z"/><path class="cls-4" d="M463.63,237.36c.1-.07.59.58.38,1.76a3.62,3.62,0,0,1-.93,1.81,3.26,3.26,0,0,1-4.7.2,3.69,3.69,0,0,1-1.08-1.73c-.3-1.16.13-1.84.23-1.79s.06.69.47,1.54a2.78,2.78,0,0,0,5.3-.22C463.64,238.05,463.47,237.4,463.63,237.36Z"/><path class="cls-4" d="M459.15,235.71c-.09-.09.26-.55,1.11-.54a1.76,1.76,0,0,1,1.33.65,1.54,1.54,0,0,1,.35.93,1.72,1.72,0,0,1-.29,1,1.52,1.52,0,0,1-1.87.66,1.37,1.37,0,0,1-.71-1.44,1.07,1.07,0,0,1,.58-.85c.24-.08.38,0,.38,0s-.32.33-.22.83.54.78,1,.19a.72.72,0,0,0,.05-.79,1.22,1.22,0,0,0-.67-.49C459.63,235.72,459.22,235.85,459.15,235.71Z"/><path class="cls-4" d="M458,261.73a1,1,0,1,1-.13-2,1,1,0,1,1,.13,2Z"/><path class="cls-4" d="M457.54,265.7a1,1,0,1,1,.34-2,1,1,0,1,1-.34,2Z"/><path class="cls-4" d="M456.22,269.47a1,1,0,1,1,.77-1.85,1,1,0,1,1-.77,1.85Z"/><path class="cls-4" d="M454.11,272.87a1.09,1.09,0,0,1-.28-1.42,1.08,1.08,0,0,1,1.43-.22,1,1,0,1,1-1.15,1.64Z"/><path class="cls-4" d="M451.31,275.71a1,1,0,1,1,1.48-1.34,1,1,0,1,1-1.48,1.34Z"/><path class="cls-4" d="M447.9,277.79a1,1,0,1,1,1.77-.93,1,1,0,0,1-.39,1.39A1,1,0,0,1,447.9,277.79Z"/><path class="cls-4" d="M444.1,279a1,1,0,1,1,1.94-.5,1,1,0,1,1-1.94.5Z"/><path class="cls-4" d="M440.12,279.34a1.09,1.09,0,0,1,1-1.07,1.07,1.07,0,0,1,1,1,1,1,0,1,1-2,0Z"/><path class="cls-4" d="M436.16,278.81a1.08,1.08,0,0,1,1.18-.84,1.09,1.09,0,0,1,.79,1.22,1,1,0,1,1-2-.38Z"/><path class="cls-4" d="M432.42,277.41a1,1,0,1,1,1.83.81,1,1,0,1,1-1.83-.81Z"/><path class="cls-4" d="M429.12,275.16a1.07,1.07,0,0,1,1.43-.2,1.09,1.09,0,0,1,.15,1.43,1,1,0,0,1-1.43.21A1,1,0,0,1,429.12,275.16Z"/><path class="cls-4" d="M426.46,272.19a1,1,0,1,1,1.24,1.56,1,1,0,1,1-1.24-1.56Z"/><path class="cls-4" d="M424.52,268.69a1,1,0,1,1,.88,1.81,1,1,0,1,1-.88-1.81Z"/><path class="cls-4" d="M423.39,264.86a1.08,1.08,0,0,1,1.25.73,1.09,1.09,0,0,1-.79,1.22,1,1,0,1,1-.46-1.95Z"/><path class="cls-4" d="M423.14,260.87a1,1,0,1,1,0,2,1,1,0,0,1-1-1A1,1,0,0,1,423.14,260.87Z"/><path class="cls-4" d="M425,258.55a1,1,0,0,1-1,1,1.06,1.06,0,0,1-.6-.23l.85-.67a1.1,1.1,0,0,1-.89.23,1,1,0,0,1-.74-.56v0l.85-.63a.94.94,0,0,1,.61-.19A1,1,0,0,1,425,258.55Z"/><path class="cls-4" d="M429,258.7a1,1,0,1,1-2-.07,1,1,0,1,1,2,.07Z"/><path class="cls-4" d="M433,258.84a1,1,0,1,1-1-1.07A1,1,0,0,1,433,258.84Z"/><path class="cls-4" d="M437,259a1,1,0,1,1-1-1.08A1,1,0,0,1,437,259Z"/><path class="cls-4" d="M441,259.13a1,1,0,0,1-1,1,1,1,0,0,1-1-1.08,1,1,0,1,1,2,.07Z"/><path class="cls-4" d="M445,259.27a1,1,0,1,1-1-1.07A1,1,0,0,1,445,259.27Z"/><path class="cls-4" d="M449,259.42a1,1,0,1,1-1-1.08A1,1,0,0,1,449,259.42Z"/><path class="cls-4" d="M453,259.56a1,1,0,1,1-2-.07,1,1,0,1,1,2,.07Z"/><path class="cls-4" d="M457,259.71a1,1,0,1,1-1-1.08A1,1,0,0,1,457,259.71Z"/><line class="cls-9" x1="419.23" y1="192.27" x2="427.56" y2="189.18"/><path class="cls-9" d="M475.76,191.22a34.14,34.14,0,0,1,7,4.79"/><path d="M419.81,191.36v46.57l-4.91.08L410,253.06l-39.59-11.54S390.45,199.15,419.81,191.36Z"/><path class="cls-3" d="M156.32,256.93l-4.16.33s-1.83-56.77,40.44-67.3c0,0,3.35,11.87,16.41,9.1,0,0,8.88-1.83,10.47-11.15l49.6,17.92L264,240.18l-16.69-5.48s3.41,36.37,1.41,62.61l-55.8,4.51s-7.35,2.42-7.53-15.71a182,182,0,0,1,2.5-32.3Z"/><path class="cls-3" d="M229.64,123.3A14.21,14.21,0,0,0,212.79,111l-14.52,2.82a16.88,16.88,0,0,0-13.59,17.83l.9,11.87s-10.09,1.36-7.21,10.56c2.08,6.67,6.27,6.39,8.42,5.73l5.3,28.26a13.93,13.93,0,0,0,27.4-5l-1.66-9.3C233.05,165.84,231.91,143,229.64,123.3Z"/><path class="cls-3" d="M271.38,298c3.68-3.59,7.35-3.67,8.09-5.9s-20.84,4.55-20.84,4.55l0,.15c-9.37.38-32.47,1.57-65.71,5-13.4,1.38-5-48-5-48l-31.55,3.12-.47,7.87c-6.86,45,8.26,60.08,17.76,65.67,10.54,6.21,64.28-7.18,86.9-14.49,9.23-.48,28.82-.82,29-1.66.3-1.79-11.18-3.11-11.18-3.11s13.72,1.43,14-.55-14.57-3.56-14.57-3.56,16.05.45,16.44-1.39-16.88-2.26-16.79-2.6,15.8-.84,17-2.83S271.38,298,271.38,298Z"/><path class="cls-3" d="M310.14,182.9s-9.89-28-11-27.79c-1.79.28.53,11.55.53,11.55s-2.9-13.42-4.87-13.1,1.15,14.9,1.15,14.9-4.56-15.33-6.42-15.13,3.1,16.68,2.75,16.7-5.7-14.69-7.94-15.17,5,22.43,5,22.43c-4.53-2.36-5.75-5.81-8.09-5.82-1.87,0,6.13,11.68,9.41,16.38h-.05l7.16,30.3-28.93-10.85-4.71,31.75s26.89,7.43,52.41,4.66C331.13,242.13,310.14,182.9,310.14,182.9Z"/><path d="M190.9,253.13a13,13,0,0,1,.08-2.65c.13-1.7.34-4.16.63-7.2.55-6.06,1.45-14.45,2.41-23.67a23.47,23.47,0,0,0-.19-6.62,11.85,11.85,0,0,0-2.61-5.41,16,16,0,0,0-8.85-5.14,26.48,26.48,0,0,0-7.09-.52,19.22,19.22,0,0,1-2.64.12,10.29,10.29,0,0,1,2.61-.52,23.73,23.73,0,0,1,7.27.2A16.43,16.43,0,0,1,192,207a12.67,12.67,0,0,1,2.88,5.83,23.72,23.72,0,0,1,.23,6.9c-1,9.28-2,17.62-2.72,23.67-.38,3-.71,5.47-1,7.16A13.25,13.25,0,0,1,190.9,253.13Z"/><path d="M190.9,253.13c0,.28-8.7,1.46-19.5,2.63s-19.59,1.88-19.62,1.6,8.7-1.47,19.5-2.64S190.87,252.84,190.9,253.13Z"/><path d="M248.77,253.28c-.16,0-.23-1.65-.48-4.3s-.68-6.3-1.18-10.35-.84-7.75-.89-10.43.13-4.35.26-4.35.24,1.65.48,4.3.68,6.31,1.18,10.35.85,7.75.89,10.44S248.9,253.29,248.77,253.28Z"/><path d="M212.3,153.77c.08-.06.24.33.72.42s1.2-.4,1.38-1.38a11.83,11.83,0,0,0,0-3.63c-.1-1.43-.21-3-.33-4.62-.41-6.57-.51-11.91-.22-11.93s.85,5.29,1.26,11.86c.09,1.64.17,3.19.25,4.63a10.71,10.71,0,0,1-.26,3.9,2.41,2.41,0,0,1-.93,1.34,1.42,1.42,0,0,1-1.26.22,1,1,0,0,1-.58-.54C212.27,153.87,212.27,153.78,212.3,153.77Z"/><path d="M220.14,172.25c.08.09-.9,1.11-2.89,2.22a18.58,18.58,0,0,1-17.12.36c-2-1-3.06-2-3-2.1s1.26.61,3.29,1.42a20.63,20.63,0,0,0,16.49-.34C218.92,172.91,220,172.11,220.14,172.25Z"/><path d="M215.42,158.64c.1.06-.24.81-1.3,1.52a5.62,5.62,0,0,1-8.35-2.69c-.45-1.19-.29-2-.17-2s.28.71.84,1.68a5.49,5.49,0,0,0,7.32,2.35C214.78,159.05,215.3,158.53,215.42,158.64Z"/><path d="M184.82,153.24c0,.13-.37.29-1,.23a2.47,2.47,0,0,1-1.12-.42,2.16,2.16,0,0,1-.89-1.29,1.79,1.79,0,0,1,.39-1.62,1.53,1.53,0,0,1,1.29-.44,1.1,1.1,0,0,1,.76.44c.11.19.09.32,0,.35s-.39-.15-.81-.05a.81.81,0,0,0-.64,1.08,1.87,1.87,0,0,0,1.17,1.23C184.47,153,184.83,153.09,184.82,153.24Z"/><path d="M203.43,131.85c-.09.29-1.2.19-2.46.53s-2.18,1-2.4.75,0-.42.39-.79a4.09,4.09,0,0,1,3.74-1C203.2,131.5,203.46,131.72,203.43,131.85Z"/><path d="M224.31,128.54c-.11.28-1.32,0-2.77.15s-2.59.59-2.75.33.92-1.22,2.66-1.36S224.44,128.3,224.31,128.54Z"/><path d="M203.4,140.43c.78,0,1.26-1,1.08-2.25s-.95-2.19-1.72-2.16-1.27,1-1.09,2.26S202.62,140.46,203.4,140.43Z"/><path d="M223,138.25c.73.05,1.3-.9,1.27-2.13s-.63-2.27-1.36-2.33-1.29.9-1.27,2.13S222.32,138.19,223,138.25Z"/><path d="M178.66,112.64c1.88-4.52,7.23-7.07,12.08-6.37-3.06-2.09-2.82-7.07-.31-9.79s6.45-3.61,10.16-3.75,7.45.31,11.09-.37c3.23-.6,6.39-2.08,9.65-1.67s6.37,4.08,4.62,6.85c4.7-.69,9.78-1.31,14,.95s6.27,8.72,2.69,11.83c2.37,1.21,3,4.64,1.63,6.94a8.36,8.36,0,0,1-6.72,3.7,14.8,14.8,0,0,1-2.66-.09c-.11.82-.23,1.64-.42,2.44-.28,1.21-.81,2.58-2,2.94a3.71,3.71,0,0,1-2.92-.81,37.4,37.4,0,0,1-8.26-7.21,24.84,24.84,0,0,1-23.17-3c-1.93,9.71-4,21.23-11.1,28.15l-.8.66a5.25,5.25,0,0,1-1-.64l-.18-.17c-4.32-3.79-4.24-13.68-2.19-19.15C178.87,122.16,176.93,116.79,178.66,112.64Z"/><polygon class="cls-7" points="255.55 55.2 252.38 119.83 275.78 119.83 276.82 138.84 295.99 118.74 411.52 118.26 408.36 51.03 255.55 55.2"/><path d="M267.67,68v1.1h-1V68Zm0,2.41v7.2h-1v-7.2Z"/><path d="M274,75.41A4.07,4.07,0,0,1,272,75a3.38,3.38,0,0,1-1.32-1.28,3.82,3.82,0,0,1-.48-1.94V65.61h1v6a3,3,0,0,0,.25,1.29,2.57,2.57,0,0,0,.66.9,2.82,2.82,0,0,0,.9.52,2.9,2.9,0,0,0,1.9,0,2.82,2.82,0,0,0,.9-.52,2.57,2.57,0,0,0,.66-.9,3,3,0,0,0,.25-1.29v-6h1v6.14a3.76,3.76,0,0,1-.48,1.93A3.28,3.28,0,0,1,275.9,75,4,4,0,0,1,274,75.41Zm.37-10.81h-1l.51-1.6h1Z"/><path d="M279.57,75.21V68h.89v1.78h.1v5.43Zm5.21,0V71.53a5.39,5.39,0,0,0-.11-1.1,2.6,2.6,0,0,0-.37-.88,1.62,1.62,0,0,0-.64-.58,2.07,2.07,0,0,0-1-.21,2.22,2.22,0,0,0-.92.18,1.76,1.76,0,0,0-.66.52,2.21,2.21,0,0,0-.41.81,3.72,3.72,0,0,0-.14,1.1l-.7-.16a4,4,0,0,1,.39-1.86,2.69,2.69,0,0,1,1.07-1.14,3.06,3.06,0,0,1,1.56-.39A3,3,0,0,1,284,68a2.66,2.66,0,0,1,.82.54,2.79,2.79,0,0,1,.54.78,3.62,3.62,0,0,1,.3.93,4.66,4.66,0,0,1,.1,1v4Z"/><path d="M290.5,75.41a3.45,3.45,0,0,1-1.82-.47,3.24,3.24,0,0,1-1.2-1.31,4.45,4.45,0,0,1-.42-2,4.58,4.58,0,0,1,.42-2,3.06,3.06,0,0,1,1.18-1.33,3.4,3.4,0,0,1,1.8-.47,3.35,3.35,0,0,1,1.83.49,3.09,3.09,0,0,1,1.14,1.41,5.23,5.23,0,0,1,.35,2.18h-1v-.35a3.44,3.44,0,0,0-.6-2.11,2,2,0,0,0-1.69-.72,2.18,2.18,0,0,0-1.78.76,3.32,3.32,0,0,0-.61,2.15,3.24,3.24,0,0,0,.61,2.11,2.14,2.14,0,0,0,1.75.75,2.4,2.4,0,0,0,2.27-1.39l.91.36a3.19,3.19,0,0,1-1.26,1.45A3.43,3.43,0,0,1,290.5,75.41Zm-2.75-3.53v-.82h5.5v.82Z"/><path d="M294.45,68.85V68h4.73v.85Zm4.73,6.36a5,5,0,0,1-1.2.1,2.7,2.7,0,0,1-1.05-.25,1.53,1.53,0,0,1-.71-.71,2,2,0,0,1-.21-.81c0-.27,0-.59,0-.94V66h1v6.56c0,.3,0,.56,0,.76a1.2,1.2,0,0,0,.14.54,1,1,0,0,0,.76.53,4.17,4.17,0,0,0,1.3,0Z"/><path d="M303.38,75.41a3.45,3.45,0,0,1-1.82-.47,3.17,3.17,0,0,1-1.2-1.31,4.32,4.32,0,0,1-.43-2,4.58,4.58,0,0,1,.42-2,3.09,3.09,0,0,1,1.19-1.33,3.4,3.4,0,0,1,1.8-.47,3.32,3.32,0,0,1,1.82.49,3,3,0,0,1,1.15,1.41,5.4,5.4,0,0,1,.35,2.18h-1v-.35a3.38,3.38,0,0,0-.61-2.11,2,2,0,0,0-1.68-.72,2.18,2.18,0,0,0-1.78.76,3.32,3.32,0,0,0-.62,2.15,3.24,3.24,0,0,0,.62,2.11,2.14,2.14,0,0,0,1.75.75,2.47,2.47,0,0,0,1.35-.36,2.41,2.41,0,0,0,.91-1l.92.36a3.25,3.25,0,0,1-1.26,1.45A3.43,3.43,0,0,1,303.38,75.41Zm-2.75-3.53v-.82h5.5v.82Z"/><path d="M312.86,75.41a2.94,2.94,0,0,1-1.36-.29,2.09,2.09,0,0,1-.83-.78,2.17,2.17,0,0,1-.27-1.06,2,2,0,0,1,.24-1,1.92,1.92,0,0,1,.65-.68,3,3,0,0,1,.95-.41c.36-.09.76-.17,1.21-.24l1.3-.18,1.12-.15-.35.22a2.34,2.34,0,0,0-.41-1.58,1.88,1.88,0,0,0-1.51-.52,2.24,2.24,0,0,0-1.25.33,1.84,1.84,0,0,0-.72,1.06l-1-.28a2.54,2.54,0,0,1,1-1.5,3.25,3.25,0,0,1,1.94-.54,3.59,3.59,0,0,1,1.68.37,2.15,2.15,0,0,1,1,1.08,2.4,2.4,0,0,1,.17.7,6.68,6.68,0,0,1,0,.78v4.48h-.87V73.4l.25.11a2.77,2.77,0,0,1-1.14,1.41A3.4,3.4,0,0,1,312.86,75.41Zm.12-.85a2.79,2.79,0,0,0,1.2-.24,2.22,2.22,0,0,0,.83-.68,2.38,2.38,0,0,0,.4-1,3.62,3.62,0,0,0,.09-.77c0-.27,0-.48,0-.62l.37.19-1.08.14c-.39,0-.78.09-1.15.15a10.1,10.1,0,0,0-1,.21,3.32,3.32,0,0,0-.59.24,1.27,1.27,0,0,0-.47.42,1,1,0,0,0-.19.65,1.2,1.2,0,0,0,.16.6,1.15,1.15,0,0,0,.51.49A1.89,1.89,0,0,0,313,74.56Z"/><path d="M320.88,75.21V65.6h3.44a5.27,5.27,0,0,1,.71,0,3.36,3.36,0,0,1,1.83.82,4,4,0,0,1,1.1,1.68,7,7,0,0,1,0,4.49,4,4,0,0,1-1.1,1.69,3.35,3.35,0,0,1-1.83.81c-.22,0-.46,0-.71,0h-3.44Zm1-.94h1.9l.59,0a3.69,3.69,0,0,0,.54-.06,2.45,2.45,0,0,0,1.36-.68,3.16,3.16,0,0,0,.76-1.34,6.09,6.09,0,0,0,.24-1.76,6.23,6.23,0,0,0-.24-1.78,3.06,3.06,0,0,0-.76-1.33,2.48,2.48,0,0,0-1.36-.68,3.69,3.69,0,0,0-.55-.06l-.58,0h-1.9Z"/><path d="M332.89,75.41a3.45,3.45,0,0,1-1.82-.47,3.24,3.24,0,0,1-1.2-1.31,4.94,4.94,0,0,1,0-4,3.06,3.06,0,0,1,1.18-1.33,3.4,3.4,0,0,1,1.8-.47,3.35,3.35,0,0,1,1.83.49,3.09,3.09,0,0,1,1.14,1.41,5.4,5.4,0,0,1,.35,2.18h-1v-.35a3.44,3.44,0,0,0-.6-2.11,2,2,0,0,0-1.69-.72,2.18,2.18,0,0,0-1.78.76,3.32,3.32,0,0,0-.61,2.15,3.24,3.24,0,0,0,.61,2.11,2.14,2.14,0,0,0,1.75.75,2.4,2.4,0,0,0,2.27-1.39l.91.36a3.19,3.19,0,0,1-1.26,1.45A3.43,3.43,0,0,1,332.89,75.41Zm-2.75-3.53v-.82h5.5v.82Z"/><path d="M340.33,75.4a3.69,3.69,0,0,1-2.08-.54,2.32,2.32,0,0,1-1-1.52l1-.17a1.67,1.67,0,0,0,.74,1,2.59,2.59,0,0,0,1.41.36,2.22,2.22,0,0,0,1.29-.34,1.11,1.11,0,0,0,.48-.94.88.88,0,0,0-.16-.55,1.29,1.29,0,0,0-.6-.39,13.8,13.8,0,0,0-1.38-.42,9,9,0,0,1-1.53-.54,1.84,1.84,0,0,1-.79-.61,1.5,1.5,0,0,1-.24-.86,1.77,1.77,0,0,1,.35-1.08,2.22,2.22,0,0,1,1-.72,3.72,3.72,0,0,1,1.43-.26,3.76,3.76,0,0,1,1.46.27,2.56,2.56,0,0,1,1,.74,2.05,2.05,0,0,1,.46,1.1l-1,.18a1.42,1.42,0,0,0-.63-1,2.33,2.33,0,0,0-1.34-.38,2.09,2.09,0,0,0-1.25.29.93.93,0,0,0-.48.82.75.75,0,0,0,.17.49,1.63,1.63,0,0,0,.63.39,11.11,11.11,0,0,0,1.31.39,9,9,0,0,1,1.56.53,2,2,0,0,1,.81.66,1.76,1.76,0,0,1,.24,1,1.92,1.92,0,0,1-.76,1.6A3.35,3.35,0,0,1,340.33,75.4Z"/><path d="M344.64,78.41V68h.89v5.43h.1v5Zm3.25-3a2.77,2.77,0,0,1-1.68-.5,3.22,3.22,0,0,1-1-1.37,5.2,5.2,0,0,1-.35-1.94,5,5,0,0,1,.36-1.95,3.1,3.1,0,0,1,1.05-1.35,3.14,3.14,0,0,1,3.4,0,3.31,3.31,0,0,1,1.09,1.37,4.75,4.75,0,0,1,.37,1.93,4.63,4.63,0,0,1-.38,1.94,3.24,3.24,0,0,1-1.09,1.37A3,3,0,0,1,347.89,75.41Zm-.1-.91a2,2,0,0,0,1.25-.38,2.23,2.23,0,0,0,.75-1A4.07,4.07,0,0,0,350,71.6a4.28,4.28,0,0,0-.24-1.47,2.34,2.34,0,0,0-.75-1,2.11,2.11,0,0,0-1.28-.38,2,2,0,0,0-1.25.37,2.16,2.16,0,0,0-.75,1,4.37,4.37,0,0,0-.24,1.5,4.31,4.31,0,0,0,.24,1.49,2.29,2.29,0,0,0,.75,1A2.06,2.06,0,0,0,347.79,74.5Z"/><path d="M354.61,75.41a2.94,2.94,0,0,1-1.36-.29,2.09,2.09,0,0,1-.83-.78,2.17,2.17,0,0,1-.27-1.06,1.91,1.91,0,0,1,.88-1.69,3.2,3.2,0,0,1,1-.41c.36-.09.76-.17,1.21-.24l1.3-.18,1.12-.15-.35.22a2.33,2.33,0,0,0-.42-1.58,1.84,1.84,0,0,0-1.5-.52,2.24,2.24,0,0,0-1.25.33,1.84,1.84,0,0,0-.72,1.06l-1-.28a2.54,2.54,0,0,1,1-1.5,3.23,3.23,0,0,1,1.94-.54,3.59,3.59,0,0,1,1.68.37,2.15,2.15,0,0,1,1,1.08,2.76,2.76,0,0,1,.17.7,6.68,6.68,0,0,1,0,.78v4.48h-.87V73.4l.25.11a2.88,2.88,0,0,1-1.14,1.41A3.4,3.4,0,0,1,354.61,75.41Zm.12-.85a2.86,2.86,0,0,0,1.2-.24,2.11,2.11,0,0,0,.82-.68,2.27,2.27,0,0,0,.41-1,3.62,3.62,0,0,0,.09-.77v-.62l.38.19-1.09.14c-.38,0-.77.09-1.14.15a10.1,10.1,0,0,0-1,.21,3,3,0,0,0-.59.24,1.27,1.27,0,0,0-.47.42,1,1,0,0,0-.19.65,1.2,1.2,0,0,0,.16.6,1.15,1.15,0,0,0,.51.49A1.89,1.89,0,0,0,354.73,74.56ZM355.88,67h-1l.51-1.6h1Z"/><path d="M363,75.41a3.28,3.28,0,0,1-1.84-.49A3.06,3.06,0,0,1,360,73.58a4.87,4.87,0,0,1-.41-2,4.74,4.74,0,0,1,.42-2,3,3,0,0,1,1.15-1.34A3.33,3.33,0,0,1,363,67.8a3.39,3.39,0,0,1,1.91.54A2.66,2.66,0,0,1,366,69.8l-1,.31a2,2,0,0,0-.81-1,2.44,2.44,0,0,0-2.57,0,2.07,2.07,0,0,0-.77,1,4.26,4.26,0,0,0-.27,1.49,3.42,3.42,0,0,0,.61,2.08,2,2,0,0,0,1.74.78,2.18,2.18,0,0,0,1.25-.34,2,2,0,0,0,.79-1l1,.29a3.16,3.16,0,0,1-1.18,1.47A3.34,3.34,0,0,1,363,75.41Z"/><path d="M367.34,75.21V65.6h.89V71h.1v4.18Zm5.22,0V71.53a4.75,4.75,0,0,0-.12-1.1,2.59,2.59,0,0,0-.36-.88,1.65,1.65,0,0,0-.65-.58,2,2,0,0,0-1-.21,2.19,2.19,0,0,0-.92.18,1.71,1.71,0,0,0-.67.52,2.37,2.37,0,0,0-.41.81,4.08,4.08,0,0,0-.14,1.1l-.69-.16a4.16,4.16,0,0,1,.38-1.86,2.75,2.75,0,0,1,1.07-1.14,3.11,3.11,0,0,1,1.56-.39,3,3,0,0,1,1.13.2,2.54,2.54,0,0,1,.82.54,2.83,2.83,0,0,1,.55.78,3.62,3.62,0,0,1,.3.93,5.41,5.41,0,0,1,.09,1v4Z"/><path d="M377.34,75.41a3,3,0,0,1-1.37-.29,2.06,2.06,0,0,1-.82-.78,2.17,2.17,0,0,1-.27-1.06,2.09,2.09,0,0,1,.23-1,2,2,0,0,1,.65-.68,3,3,0,0,1,.95-.41c.37-.09.77-.17,1.21-.24l1.3-.18,1.12-.15-.35.22a2.28,2.28,0,0,0-.41-1.58,1.86,1.86,0,0,0-1.51-.52,2.26,2.26,0,0,0-1.25.33,1.84,1.84,0,0,0-.72,1.06l-1-.28a2.54,2.54,0,0,1,1-1.5,3.21,3.21,0,0,1,1.94-.54,3.58,3.58,0,0,1,1.67.37,2.06,2.06,0,0,1,1,1.08,2.12,2.12,0,0,1,.17.7,6.66,6.66,0,0,1,0,.78v4.48h-.88V73.4l.25.11a2.77,2.77,0,0,1-1.14,1.41A3.34,3.34,0,0,1,377.34,75.41Zm.11-.85a2.79,2.79,0,0,0,1.2-.24,2.15,2.15,0,0,0,.83-.68,2.4,2.4,0,0,0,.41-1,3.64,3.64,0,0,0,.08-.77c0-.27,0-.48,0-.62l.37.19-1.08.14c-.39,0-.77.09-1.15.15s-.71.13-1,.21a3.13,3.13,0,0,0-.6.24,1.36,1.36,0,0,0-.47.42,1.11,1.11,0,0,0-.18.65,1.3,1.3,0,0,0,.15.6,1.27,1.27,0,0,0,.51.49A1.92,1.92,0,0,0,377.45,74.56Z"/><path d="M381.89,68.85V68h4.72v.85Zm4.72,6.36a4.83,4.83,0,0,1-1.19.1,2.71,2.71,0,0,1-1.06-.25,1.51,1.51,0,0,1-.7-.71,2,2,0,0,1-.21-.81c0-.27,0-.59,0-.94V66h1v7.32a1.35,1.35,0,0,0,.14.54,1,1,0,0,0,.77.53,4.11,4.11,0,0,0,1.29,0Z"/><path d="M390.82,75.41a3.48,3.48,0,0,1-1.83-.47,3.24,3.24,0,0,1-1.2-1.31,4.45,4.45,0,0,1-.42-2,4.58,4.58,0,0,1,.42-2A3.06,3.06,0,0,1,389,68.27a3.41,3.41,0,0,1,1.81-.47,3.32,3.32,0,0,1,1.82.49,3.09,3.09,0,0,1,1.14,1.41,5.08,5.08,0,0,1,.35,2.18h-1v-.35a3.44,3.44,0,0,0-.6-2.11,2,2,0,0,0-1.69-.72,2.16,2.16,0,0,0-1.77.76,3.26,3.26,0,0,0-.62,2.15,3.18,3.18,0,0,0,.62,2.11,2.13,2.13,0,0,0,1.75.75,2.52,2.52,0,0,0,1.35-.36,2.48,2.48,0,0,0,.91-1l.91.36a3.23,3.23,0,0,1-1.25,1.45A3.45,3.45,0,0,1,390.82,75.41Zm-2.76-3.53v-.82h5.51v.82Z"/><path d="M396.24,72.81V65.6h1v7.21Zm0,2.4v-1.1h1v1.1Z"/><path d="M284.5,91.42a4.05,4.05,0,0,1-1.94-.45,3.28,3.28,0,0,1-1.33-1.28,3.8,3.8,0,0,1-.48-1.94V81.62h1v6a3,3,0,0,0,.25,1.29,2.52,2.52,0,0,0,.67.89,2.6,2.6,0,0,0,.89.52,3,3,0,0,0,.95.17,2.93,2.93,0,0,0,.95-.17,2.55,2.55,0,0,0,.9-.52,2.62,2.62,0,0,0,.66-.89,3,3,0,0,0,.25-1.29v-6h1v6.13a3.8,3.8,0,0,1-.48,1.94A3.34,3.34,0,0,1,286.44,91,4.05,4.05,0,0,1,284.5,91.42Z"/><path d="M292.81,91.42a3.73,3.73,0,0,1-2.09-.55,2.26,2.26,0,0,1-1-1.52l1-.17a1.59,1.59,0,0,0,.73,1,2.59,2.59,0,0,0,1.41.36,2.18,2.18,0,0,0,1.3-.34,1.11,1.11,0,0,0,.47-.94.91.91,0,0,0-.15-.54,1.39,1.39,0,0,0-.61-.39c-.31-.12-.77-.26-1.38-.43a9.41,9.41,0,0,1-1.53-.53,2,2,0,0,1-.79-.62,1.55,1.55,0,0,1-.23-.86,1.71,1.71,0,0,1,.34-1.07,2.42,2.42,0,0,1,1-.73,3.67,3.67,0,0,1,1.42-.25,3.92,3.92,0,0,1,1.46.26,2.59,2.59,0,0,1,1,.74,2.06,2.06,0,0,1,.47,1.1l-1,.18a1.44,1.44,0,0,0-.64-1,2.33,2.33,0,0,0-1.34-.39,2.25,2.25,0,0,0-1.25.29,1,1,0,0,0-.48.83.72.72,0,0,0,.18.49,1.59,1.59,0,0,0,.63.38,10.84,10.84,0,0,0,1.3.39,8.13,8.13,0,0,1,1.56.54,1.84,1.84,0,0,1,.81.66,1.7,1.7,0,0,1,.24.94,1.9,1.9,0,0,1-.76,1.6A3.32,3.32,0,0,1,292.81,91.42Z"/><path d="M299.19,91.42a2.84,2.84,0,0,1-1.37-.29,2,2,0,0,1-.82-.78,2.18,2.18,0,0,1-.28-1.06,1.89,1.89,0,0,1,.89-1.69,3.29,3.29,0,0,1,.95-.41c.36-.09.77-.16,1.21-.23l1.3-.18,1.12-.15-.35.21a2.35,2.35,0,0,0-.41-1.58,1.89,1.89,0,0,0-1.51-.51,2.26,2.26,0,0,0-1.25.33,1.78,1.78,0,0,0-.72,1l-.95-.28a2.54,2.54,0,0,1,1-1.5,3.32,3.32,0,0,1,1.94-.53,3.48,3.48,0,0,1,1.68.37,2,2,0,0,1,1,1.07,2.18,2.18,0,0,1,.17.7,6.85,6.85,0,0,1,0,.79v4.47h-.87v-1.8l.25.1A2.84,2.84,0,0,1,301,90.94,3.44,3.44,0,0,1,299.19,91.42Zm.11-.84a2.79,2.79,0,0,0,1.2-.25,2.13,2.13,0,0,0,.83-.68,2.34,2.34,0,0,0,.41-1,3.55,3.55,0,0,0,.08-.76c0-.28,0-.49,0-.63l.37.2-1.08.13-1.15.15a10.1,10.1,0,0,0-1,.21,2.75,2.75,0,0,0-.59.25,1.33,1.33,0,0,0-.47.41,1.11,1.11,0,0,0-.19.65,1.35,1.35,0,0,0,.16.61,1.25,1.25,0,0,0,.51.48A1.89,1.89,0,0,0,299.3,90.58Z"/><path d="M307.2,91.22V84h.88v1.77h.11v5.43Zm4.31,0V86.56a2,2,0,0,0-.46-1.36,1.58,1.58,0,0,0-1.21-.49,1.54,1.54,0,0,0-1.2.51,1.92,1.92,0,0,0-.46,1.35l-.59-.32a2.37,2.37,0,0,1,.33-1.24,2.26,2.26,0,0,1,.89-.87,2.62,2.62,0,0,1,1.29-.32,2.42,2.42,0,0,1,1.22.3,2.11,2.11,0,0,1,.85.85,2.87,2.87,0,0,1,.3,1.36v4.89Zm4.29,0V86.49a1.81,1.81,0,0,0-.47-1.31,1.56,1.56,0,0,0-1.18-.47,1.86,1.86,0,0,0-.79.18,1.6,1.6,0,0,0-.64.6,2.16,2.16,0,0,0-.25,1.08l-.58-.16a2.61,2.61,0,0,1,.31-1.36,2.27,2.27,0,0,1,.89-.9,2.53,2.53,0,0,1,1.29-.33,2.33,2.33,0,0,1,1.74.67,2.5,2.5,0,0,1,.66,1.82v4.91Z"/><path d="M318.66,82.65v-1.1h1v1.1Zm0,8.57V84h1v7.2Z"/><path d="M327.3,91.42a3.4,3.4,0,0,1-1.85-.48,3.14,3.14,0,0,1-1.14-1.35,4.71,4.71,0,0,1-.4-2,4.59,4.59,0,0,1,.41-2,3.1,3.1,0,0,1,1.16-1.34,3.4,3.4,0,0,1,1.82-.47,3.44,3.44,0,0,1,1.91.53,2.7,2.7,0,0,1,1.11,1.46l-1,.31a2,2,0,0,0-.81-1,2.21,2.21,0,0,0-1.25-.36,2.28,2.28,0,0,0-1.32.36,2.13,2.13,0,0,0-.77,1,4,4,0,0,0-.26,1.49,3.47,3.47,0,0,0,.6,2.08,2,2,0,0,0,1.75.78,2.28,2.28,0,0,0,1.25-.33,2.17,2.17,0,0,0,.78-1l1,.3a3.14,3.14,0,0,1-1.18,1.46A3.25,3.25,0,0,1,327.3,91.42Z"/><path d="M334.5,91.42a3.35,3.35,0,0,1-1.83-.48,3.21,3.21,0,0,1-1.17-1.35,4.58,4.58,0,0,1-.41-2,4.44,4.44,0,0,1,.42-2,3.12,3.12,0,0,1,1.17-1.34,3.78,3.78,0,0,1,3.67,0,3,3,0,0,1,1.16,1.34,4.56,4.56,0,0,1,.41,2,4.67,4.67,0,0,1-.41,2,3.09,3.09,0,0,1-1.17,1.33A3.43,3.43,0,0,1,334.5,91.42Zm0-.94a2.08,2.08,0,0,0,1.79-.79,3.46,3.46,0,0,0,.59-2.08,3.38,3.38,0,0,0-.59-2.08,2.13,2.13,0,0,0-1.79-.77,2.29,2.29,0,0,0-1.33.36,2.15,2.15,0,0,0-.78,1,4,4,0,0,0-.26,1.48,3.35,3.35,0,0,0,.6,2.09A2.1,2.1,0,0,0,334.5,90.48ZM335,83h-1l.51-1.6h1Z"/><path d="M342.18,91.42a2.89,2.89,0,0,1-1.72-.5,3.27,3.27,0,0,1-1.09-1.36,4.71,4.71,0,0,1-.38-2,4.78,4.78,0,0,1,.37-1.93,3.21,3.21,0,0,1,1.09-1.36,2.79,2.79,0,0,1,1.69-.5,2.86,2.86,0,0,1,1.71.49,3.1,3.1,0,0,1,1,1.35,5,5,0,0,1,.36,2,5.16,5.16,0,0,1-.35,1.94,3.16,3.16,0,0,1-1.05,1.37A2.72,2.72,0,0,1,342.18,91.42Zm.1-.91a2.06,2.06,0,0,0,1.27-.37,2.34,2.34,0,0,0,.75-1,4.37,4.37,0,0,0,.24-1.5,4.27,4.27,0,0,0-.24-1.49,2.14,2.14,0,0,0-.75-1,2,2,0,0,0-1.25-.37,2.11,2.11,0,0,0-1.28.38,2.23,2.23,0,0,0-.75,1,4.18,4.18,0,0,0-.24,1.46,4.07,4.07,0,0,0,.25,1.48,2.18,2.18,0,0,0,.75,1A2,2,0,0,0,342.28,90.51Zm2.26.71V85.8h-.1V81.62h1v9.6Z"/><path d="M347.43,82.65v-1.1h1v1.1Zm0,8.57V84h1v7.2Z"/><path d="M353.21,91.42a2.9,2.9,0,0,1-1.73-.5,3.27,3.27,0,0,1-1.09-1.36,4.88,4.88,0,0,1-.38-2,4.78,4.78,0,0,1,.38-1.93,3.19,3.19,0,0,1,1.08-1.36,2.81,2.81,0,0,1,1.69-.5,2.86,2.86,0,0,1,1.71.49,3,3,0,0,1,1.05,1.35,5,5,0,0,1,.36,2,5.16,5.16,0,0,1-.35,1.94,3.21,3.21,0,0,1-1,1.37A2.74,2.74,0,0,1,353.21,91.42Zm.06,3.21a3.7,3.7,0,0,1-1.09-.17,3.11,3.11,0,0,1-1-.51,2.84,2.84,0,0,1-.76-.91l.89-.49a1.85,1.85,0,0,0,.84.86,2.44,2.44,0,0,0,1.11.26,2.41,2.41,0,0,0,1.27-.29,1.67,1.67,0,0,0,.7-.86,3.61,3.61,0,0,0,.21-1.41V89.19h.12V84h.87v7.1a5.53,5.53,0,0,1,0,.59,5,5,0,0,1-.06.56,2.91,2.91,0,0,1-.52,1.33,2.37,2.37,0,0,1-1,.77A4.15,4.15,0,0,1,353.27,94.63Zm0-4.12a2,2,0,0,0,1.26-.37,2.2,2.2,0,0,0,.75-1,4.14,4.14,0,0,0,.25-1.5,4,4,0,0,0-.25-1.49,2.12,2.12,0,0,0-.74-1,2,2,0,0,0-1.26-.37,2.11,2.11,0,0,0-1.28.38,2.37,2.37,0,0,0-.75,1,4.18,4.18,0,0,0-.24,1.46,4.07,4.07,0,0,0,.25,1.48,2.32,2.32,0,0,0,.75,1A2,2,0,0,0,353.31,90.51Z"/><path d="M361.32,91.42a3.38,3.38,0,0,1-1.84-.48,3.25,3.25,0,0,1-1.16-1.35,4.44,4.44,0,0,1-.41-2,4.58,4.58,0,0,1,.41-2,3.21,3.21,0,0,1,1.18-1.34,3.45,3.45,0,0,1,1.82-.47,3.38,3.38,0,0,1,1.84.48,3.12,3.12,0,0,1,1.17,1.34,4.56,4.56,0,0,1,.41,2,4.67,4.67,0,0,1-.41,2,3.11,3.11,0,0,1-1.18,1.33A3.37,3.37,0,0,1,361.32,91.42Zm0-.94a2.08,2.08,0,0,0,1.79-.79,3.46,3.46,0,0,0,.58-2.08,3.31,3.31,0,0,0-.59-2.08,2.1,2.1,0,0,0-1.78-.77,2.29,2.29,0,0,0-1.33.36,2.15,2.15,0,0,0-.78,1,4,4,0,0,0-.26,1.48,3.35,3.35,0,0,0,.6,2.09A2.1,2.1,0,0,0,361.32,90.48Z"/><path d="M365.8,92.62l.06-.49a.46.46,0,0,0,.39-.11.57.57,0,0,0,.15-.34,3.41,3.41,0,0,0,0-.46h-.61v-1.4h1.14v1.67a1.22,1.22,0,0,1-.31.92A.87.87,0,0,1,365.8,92.62Z"/><path d="M371.35,84.86V84h4.72v.84Zm4.72,6.36a4.43,4.43,0,0,1-1.2.1,2.54,2.54,0,0,1-1.05-.25,1.51,1.51,0,0,1-.7-.71,2,2,0,0,1-.21-.81c0-.27,0-.58,0-.94V82h1v6.55c0,.31,0,.56,0,.76a1.2,1.2,0,0,0,.14.54,1,1,0,0,0,.76.53,3.88,3.88,0,0,0,1.3,0Z"/><path d="M380.28,91.42a3.46,3.46,0,0,1-1.83-.46,3.2,3.2,0,0,1-1.2-1.32,4.42,4.42,0,0,1-.43-2,4.64,4.64,0,0,1,.43-2,3.18,3.18,0,0,1,1.18-1.33,3.41,3.41,0,0,1,1.81-.46,3.26,3.26,0,0,1,1.82.49,3.06,3.06,0,0,1,1.14,1.4,5.23,5.23,0,0,1,.35,2.18h-1v-.34a3.47,3.47,0,0,0-.6-2.12,2.07,2.07,0,0,0-1.69-.71,2.19,2.19,0,0,0-1.78.75,3.34,3.34,0,0,0-.61,2.15,3.24,3.24,0,0,0,.61,2.11,2.16,2.16,0,0,0,1.76.75,2.61,2.61,0,0,0,1.35-.35,2.55,2.55,0,0,0,.91-1l.91.35a3.21,3.21,0,0,1-1.26,1.46A3.5,3.5,0,0,1,380.28,91.42Zm-2.76-3.53v-.82H383v.82Z"/><path d="M274.22,107.44a2.89,2.89,0,0,1-1.72-.51,3.21,3.21,0,0,1-1.09-1.36,4.8,4.8,0,0,1-.38-1.94,4.67,4.67,0,0,1,.38-1.94,3.25,3.25,0,0,1,1.08-1.36,2.88,2.88,0,0,1,1.69-.5,2.93,2.93,0,0,1,1.71.49,3.07,3.07,0,0,1,1.05,1.36,5,5,0,0,1,.36,1.95,5.23,5.23,0,0,1-.35,1.94,3.18,3.18,0,0,1-1,1.36A2.76,2.76,0,0,1,274.22,107.44Zm.1-.92a2.06,2.06,0,0,0,1.27-.37,2.29,2.29,0,0,0,.75-1,4.35,4.35,0,0,0,.25-1.49,4.28,4.28,0,0,0-.25-1.5,2.24,2.24,0,0,0-.75-1,2.35,2.35,0,0,0-2.53,0,2.22,2.22,0,0,0-.75,1,4.28,4.28,0,0,0-.24,1.47,4.07,4.07,0,0,0,.25,1.48,2.34,2.34,0,0,0,.75,1A2,2,0,0,0,274.32,106.52Zm2.27.72v-5.43h-.11V97.63h1v9.61Z"/><path d="M281.4,107.44a2.83,2.83,0,0,1-1.37-.3,1.88,1.88,0,0,1-.82-.78,2.15,2.15,0,0,1-.28-1.06,2,2,0,0,1,.24-1,2,2,0,0,1,.65-.69,3.28,3.28,0,0,1,.95-.4c.36-.09.77-.17,1.21-.24l1.3-.18,1.12-.15-.35.21a2.3,2.3,0,0,0-.41-1.58,1.89,1.89,0,0,0-1.51-.51,2.26,2.26,0,0,0-1.25.33,1.81,1.81,0,0,0-.72,1.06l-1-.28a2.53,2.53,0,0,1,1-1.51,3.32,3.32,0,0,1,1.94-.53,3.48,3.48,0,0,1,1.68.37,2.12,2.12,0,0,1,1,1.07,2.25,2.25,0,0,1,.17.7,6.85,6.85,0,0,1,0,.79v4.48h-.87v-1.81l.25.11a2.81,2.81,0,0,1-1.14,1.41A3.34,3.34,0,0,1,281.4,107.44Zm.11-.85a2.65,2.65,0,0,0,1.2-.25,2.2,2.2,0,0,0,.83-.67,2.4,2.4,0,0,0,.41-1,3.71,3.71,0,0,0,.08-.77c0-.28,0-.48,0-.62l.37.19c-.33,0-.69.09-1.08.13l-1.15.16c-.38.06-.71.12-1,.2a2.75,2.75,0,0,0-.59.25,1.27,1.27,0,0,0-.47.42,1.08,1.08,0,0,0-.19.64,1.35,1.35,0,0,0,.16.61,1.27,1.27,0,0,0,.51.49A1.89,1.89,0,0,0,281.51,106.59Z"/><path d="M286.75,107.24V100h.88v1.74l-.17-.23a2.55,2.55,0,0,1,.31-.59,2,2,0,0,1,.42-.44,1.92,1.92,0,0,1,.65-.38,2.5,2.5,0,0,1,.76-.15,2.2,2.2,0,0,1,.69,0V101a2.43,2.43,0,0,0-.86,0,1.61,1.61,0,0,0-.86.37,1.82,1.82,0,0,0-.54.67,2.94,2.94,0,0,0-.24.83,6.33,6.33,0,0,0-.06.86v3.6Z"/><path d="M293.35,107.44a2.82,2.82,0,0,1-1.36-.3,2,2,0,0,1-.83-.78,2.14,2.14,0,0,1-.27-1.06,2,2,0,0,1,.24-1,2,2,0,0,1,.65-.69,3.28,3.28,0,0,1,1-.4c.36-.09.76-.17,1.21-.24l1.3-.18,1.12-.15-.35.21a2.41,2.41,0,0,0-.41-1.58,1.91,1.91,0,0,0-1.51-.51,2.24,2.24,0,0,0-1.25.33,1.81,1.81,0,0,0-.72,1.06l-1-.28a2.59,2.59,0,0,1,1-1.51,3.3,3.3,0,0,1,1.94-.53,3.48,3.48,0,0,1,1.68.37,2.12,2.12,0,0,1,1,1.07,2.56,2.56,0,0,1,.17.7,6.85,6.85,0,0,1,0,.79v4.48h-.87v-1.81l.25.11a2.92,2.92,0,0,1-1.14,1.41A3.4,3.4,0,0,1,293.35,107.44Zm.12-.85a2.71,2.71,0,0,0,1.2-.25,2.09,2.09,0,0,0,.82-.67,2.27,2.27,0,0,0,.41-1,3.13,3.13,0,0,0,.09-.77c0-.28,0-.48,0-.62l.37.19c-.33,0-.7.09-1.08.13l-1.15.16a10.26,10.26,0,0,0-1,.2,2.55,2.55,0,0,0-.59.25,1.19,1.19,0,0,0-.47.42,1,1,0,0,0-.19.64,1.24,1.24,0,0,0,.16.61,1.15,1.15,0,0,0,.51.49A1.89,1.89,0,0,0,293.47,106.59ZM294.62,99h-1l.51-1.6h1Z"/><path d="M298.7,107.24V100h.89v1.78h.1v5.43Zm5.21,0v-3.68a5.32,5.32,0,0,0-.11-1.1,2.6,2.6,0,0,0-.37-.88,1.61,1.61,0,0,0-.65-.59,2,2,0,0,0-1-.2,2.22,2.22,0,0,0-.92.18,1.84,1.84,0,0,0-.66.51,2.34,2.34,0,0,0-.41.82,3.65,3.65,0,0,0-.14,1.09l-.7-.15a4,4,0,0,1,.39-1.86,2.69,2.69,0,0,1,1.07-1.14,3.06,3.06,0,0,1,1.56-.39,3,3,0,0,1,1.13.2,2.34,2.34,0,0,1,.82.54,2.79,2.79,0,0,1,.54.78,3.62,3.62,0,0,1,.3.93,4.57,4.57,0,0,1,.1,1v4Z"/><path d="M312.06,107.42a3,3,0,0,1-1.13-.2,2.71,2.71,0,0,1-.83-.54,3,3,0,0,1-.54-.78,3.62,3.62,0,0,1-.3-.93,5.33,5.33,0,0,1-.09-1v-4h1v3.68a4.83,4.83,0,0,0,.11,1.1,2.59,2.59,0,0,0,.36.88,1.76,1.76,0,0,0,.65.59,2.16,2.16,0,0,0,1,.2,2.19,2.19,0,0,0,.92-.18,1.87,1.87,0,0,0,.67-.51,2.34,2.34,0,0,0,.41-.82,4.13,4.13,0,0,0,.14-1.1l.69.16a4.13,4.13,0,0,1-.38,1.86,2.75,2.75,0,0,1-1.07,1.14A3.11,3.11,0,0,1,312.06,107.42Zm2.42-.18v-1.78h-.1V100h1v7.21Z"/><path d="M317.22,107.24V100h.89v1.78h.1v5.43Zm5.21,0v-3.68a5.32,5.32,0,0,0-.11-1.1,2.6,2.6,0,0,0-.37-.88,1.65,1.65,0,0,0-.64-.59,2.07,2.07,0,0,0-1-.2,2.17,2.17,0,0,0-.91.18,1.79,1.79,0,0,0-.67.51,2.34,2.34,0,0,0-.41.82,3.65,3.65,0,0,0-.14,1.09l-.7-.15a4,4,0,0,1,.39-1.86,2.75,2.75,0,0,1,1.07-1.14,3.06,3.06,0,0,1,1.56-.39,3,3,0,0,1,1.13.2,2.34,2.34,0,0,1,.82.54,2.83,2.83,0,0,1,.55.78,4.6,4.6,0,0,1,.3.93,5.31,5.31,0,0,1,.09,1v4Z"/><path d="M330.62,107.44a2.87,2.87,0,0,1-1.72-.51,3.23,3.23,0,0,1-1.1-1.36,5.14,5.14,0,0,1,0-3.88,3.25,3.25,0,0,1,1.08-1.36,2.91,2.91,0,0,1,1.7-.5,3,3,0,0,1,1.71.49,3.07,3.07,0,0,1,1,1.36,5,5,0,0,1,.35,1.95,5,5,0,0,1-.35,1.94,3,3,0,0,1-1,1.36A2.75,2.75,0,0,1,330.62,107.44Zm.1-.92a2.08,2.08,0,0,0,1.27-.37,2.2,2.2,0,0,0,.74-1,4.12,4.12,0,0,0,.25-1.49,4.07,4.07,0,0,0-.25-1.5,2.22,2.22,0,0,0-.74-1,2.08,2.08,0,0,0-1.25-.36,2,2,0,0,0-1.28.38,2.15,2.15,0,0,0-.75,1,4,4,0,0,0-.25,1.47,4.29,4.29,0,0,0,.25,1.48,2.34,2.34,0,0,0,.75,1A2,2,0,0,0,330.72,106.52Zm2.26.72v-5.43h-.11V97.63h1v9.61Z"/><path d="M338.78,107.44A3.51,3.51,0,0,1,337,107a3.15,3.15,0,0,1-1.19-1.31,4.32,4.32,0,0,1-.43-2,4.58,4.58,0,0,1,.42-2,3.06,3.06,0,0,1,1.18-1.33,3.44,3.44,0,0,1,1.81-.47,3.24,3.24,0,0,1,1.82.49,3.09,3.09,0,0,1,1.14,1.41,5.2,5.2,0,0,1,.36,2.18h-1v-.35a3.38,3.38,0,0,0-.6-2.11,2,2,0,0,0-1.68-.72,2.14,2.14,0,0,0-1.78.76,4,4,0,0,0,0,4.26,2.13,2.13,0,0,0,1.75.75,2.5,2.5,0,0,0,1.35-.36,2.41,2.41,0,0,0,.91-1l.91.35a3.2,3.2,0,0,1-1.25,1.46A3.45,3.45,0,0,1,338.78,107.44ZM336,103.91v-.82h5.51v.82Z"/><path d="M346.22,107.43a3.65,3.65,0,0,1-2.09-.55,2.26,2.26,0,0,1-1-1.52l1-.16a1.63,1.63,0,0,0,.73,1,2.51,2.51,0,0,0,1.41.37,2.18,2.18,0,0,0,1.3-.35,1.1,1.1,0,0,0,.47-.93.92.92,0,0,0-.15-.55,1.33,1.33,0,0,0-.61-.39c-.31-.12-.77-.26-1.37-.43a8.4,8.4,0,0,1-1.54-.53,1.92,1.92,0,0,1-.79-.62,1.54,1.54,0,0,1-.23-.85,1.77,1.77,0,0,1,.35-1.08,2.22,2.22,0,0,1,1-.72,4,4,0,0,1,2.88,0,2.57,2.57,0,0,1,1,.73,2.13,2.13,0,0,1,.47,1.1l-1,.18a1.48,1.48,0,0,0-.63-1,2.29,2.29,0,0,0-1.35-.38,2.11,2.11,0,0,0-1.25.29.93.93,0,0,0-.48.82.72.72,0,0,0,.18.49,1.48,1.48,0,0,0,.63.38,10.55,10.55,0,0,0,1.3.4,7.74,7.74,0,0,1,1.56.53,2,2,0,0,1,.81.66,1.75,1.75,0,0,1,.24.94,1.92,1.92,0,0,1-.76,1.61A3.32,3.32,0,0,1,346.22,107.43Z"/><path d="M353.53,107.44a3.32,3.32,0,0,1-1.85-.49,3.06,3.06,0,0,1-1.14-1.34,4.76,4.76,0,0,1-.4-2,4.62,4.62,0,0,1,.41-2,3.12,3.12,0,0,1,1.15-1.33,3.37,3.37,0,0,1,1.83-.48,3.44,3.44,0,0,1,1.91.53,2.72,2.72,0,0,1,1.11,1.47l-1,.3a2.06,2.06,0,0,0-.81-1,2.44,2.44,0,0,0-2.57,0,2.13,2.13,0,0,0-.77,1,4,4,0,0,0-.26,1.48,3.45,3.45,0,0,0,.6,2.08,2,2,0,0,0,1.75.79,2.23,2.23,0,0,0,1.25-.34,2.09,2.09,0,0,0,.78-1l1,.29a3.09,3.09,0,0,1-1.18,1.46A3.26,3.26,0,0,1,353.53,107.44Z"/><path d="M360.68,107.42a3,3,0,0,1-1.13-.2,2.54,2.54,0,0,1-.82-.54,2.83,2.83,0,0,1-.55-.78,3.62,3.62,0,0,1-.3-.93,5.33,5.33,0,0,1-.09-1v-4h1v3.68a4.83,4.83,0,0,0,.11,1.1,2.8,2.8,0,0,0,.36.88,1.84,1.84,0,0,0,.65.59,2.16,2.16,0,0,0,1,.2,2.19,2.19,0,0,0,.92-.18,1.79,1.79,0,0,0,.67-.51,2.34,2.34,0,0,0,.41-.82,4.13,4.13,0,0,0,.14-1.1l.69.16a4,4,0,0,1-.38,1.86,2.75,2.75,0,0,1-1.07,1.14A3.09,3.09,0,0,1,360.68,107.42Zm2.42-.18v-1.78H363V100h1v7.21Z"/><path d="M368.9,107.44a3.51,3.51,0,0,1-1.83-.47,3.15,3.15,0,0,1-1.19-1.31,4.32,4.32,0,0,1-.43-2,4.58,4.58,0,0,1,.42-2,3.06,3.06,0,0,1,1.18-1.33,3.41,3.41,0,0,1,1.81-.47,3.24,3.24,0,0,1,1.82.49,3.09,3.09,0,0,1,1.14,1.41,5,5,0,0,1,.35,2.18h-1v-.35a3.38,3.38,0,0,0-.6-2.11,2,2,0,0,0-1.68-.72,2.14,2.14,0,0,0-1.78.76,4,4,0,0,0,0,4.26,2.13,2.13,0,0,0,1.75.75,2.52,2.52,0,0,0,1.35-.36,2.48,2.48,0,0,0,.91-1l.91.35a3.2,3.2,0,0,1-1.25,1.46A3.45,3.45,0,0,1,368.9,107.44Zm-2.76-3.53v-.82h5.51v.82Z"/><path d="M373.44,107.24V100h.89v1.78h.1v5.43Zm5.21,0v-3.68a4.71,4.71,0,0,0-.11-1.1,2.8,2.8,0,0,0-.36-.88,1.75,1.75,0,0,0-.65-.59,2.06,2.06,0,0,0-1-.2,2.19,2.19,0,0,0-.92.18,1.79,1.79,0,0,0-.67.51,2.34,2.34,0,0,0-.41.82,4,4,0,0,0-.14,1.09l-.69-.15a4,4,0,0,1,.38-1.86,2.75,2.75,0,0,1,1.07-1.14,3.06,3.06,0,0,1,1.56-.39,3,3,0,0,1,1.13.2,2.34,2.34,0,0,1,.82.54,2.83,2.83,0,0,1,.55.78,4,4,0,0,1,.3.93,5.31,5.31,0,0,1,.09,1v4Z"/><path d="M380.57,100.87V100h4.73v.84Zm4.73,6.37a5,5,0,0,1-1.2.1,2.54,2.54,0,0,1-1.05-.26,1.51,1.51,0,0,1-.71-.7,2,2,0,0,1-.21-.81c0-.28,0-.59,0-.94V98h1v6.56c0,.3,0,.55,0,.76a1.13,1.13,0,0,0,.14.53,1,1,0,0,0,.76.54,4.17,4.17,0,0,0,1.3,0Z"/><path d="M389.46,107.44a3.29,3.29,0,0,1-1.83-.49,3.09,3.09,0,0,1-1.17-1.35,4.56,4.56,0,0,1-.41-2,4.45,4.45,0,0,1,.42-2,3.16,3.16,0,0,1,1.17-1.33,3.36,3.36,0,0,1,1.82-.48,3.42,3.42,0,0,1,1.85.48,3.15,3.15,0,0,1,1.17,1.35,4.71,4.71,0,0,1,.4,2,4.62,4.62,0,0,1-.41,2A3.12,3.12,0,0,1,391.3,107,3.41,3.41,0,0,1,389.46,107.44Zm0-.94a2.08,2.08,0,0,0,1.79-.8,3.41,3.41,0,0,0,.59-2.07,3.36,3.36,0,0,0-.59-2.08,2.11,2.11,0,0,0-1.79-.78,2.22,2.22,0,0,0-1.33.37,2.12,2.12,0,0,0-.78,1,4,4,0,0,0-.26,1.49,3.32,3.32,0,0,0,.6,2.08A2.08,2.08,0,0,0,389.46,106.5Z"/><polyline class="cls-10" points="255.5 56.26 252.38 120.07 275.8 120.07 276.58 139.16 295.88 118.77 411.52 118.25 409.28 70.55"/></svg>