<svg id="Capa_1" data-name="Capa 1" xmlns="http://www.w3.org/2000/svg" viewBox="0 0 582.79 418.09"><defs><style>.cls-1{font-size:200.43px;font-family:PTMono-Regular, PT Mono;}.cls-2{fill:#f9dd10;}.cls-3{fill:#fff;stroke:#000;stroke-miterlimit:10;}</style></defs><text class="cls-1" transform="translate(32.05 264.83)">5</text><path class="cls-2" d="M357.27,80.33c-24.06-8.18-46.45-21.64-71.06-27.79-37.54-9.39-78.86-.26-109.69,24.23s-49.28,71.41-51.15,112.1c-2.17,47.3,19.46,94,52.87,125.58,40.23,38,94.84,53.87,149.25,54.65,38.12.55,77.32-2,113.9-13.48,64.34-20.16,104.35-75.55,108.87-142.4,2.88-42.66-6.44-88.43-50.6-105.95a103.31,103.31,0,0,0-21.88-5.83c-20.5-3.26-41.16-.79-61.6-4.06C395.93,94.13,376.61,86.9,357.27,80.33Z"/><path class="cls-3" d="M454.93,250.23c-52-14.2-104-5.16-155.94-24q7.06-40.83,14.13-82.3c52,14.2,104,5.16,155.94,24Q462,208.76,454.93,250.23Z"/><path class="cls-3" d="M449.07,229.2q3.78-22.27,7.55-44.4c-5.87-1.66-9.84-7.4-8.85-13.22-38.87-9.1-77.73-6.53-116.59-13.64a10.13,10.13,0,0,1-12.42,8.31q-3.78,22.27-7.55,44.4c5.87,1.66,9.83,7.4,8.85,13.23,38.86,9.14,77.73,6.57,116.59,13.64A10.14,10.14,0,0,1,449.07,229.2Z"/><path class="cls-3" d="M407.43,198.89c-2.16,13.05-14.4,22.84-27.33,22s-21.65-12.51-19.48-25.6,14.39-22.84,27.32-22S409.6,185.8,407.43,198.89Z"/><path class="cls-3" d="M384.76,208.25c-.26,1.6-.53,3.2-.79,4.8l-4.11-.28c.27-1.62.53-3.23.8-4.84a14.27,14.27,0,0,1-7.24-3.92l2.94-4.33a12.39,12.39,0,0,0,7.3,3.89c1.67.11,2.82-.44,3-1.6.62-3.74-11.16-2.28-9.87-10.07.57-3.48,3.44-5.73,7.5-6.11.26-1.54.51-3.08.76-4.62l4.11.29-.75,4.59a14.39,14.39,0,0,1,6.38,2.84l-2.88,4.4a15.14,15.14,0,0,0-6.6-2.85c-1.36-.1-2.34.34-2.5,1.35-.6,3.64,11.14,2.37,9.84,10.29C392,205.94,388.74,208,384.76,208.25Z"/><path class="cls-3" d="M403.21,277.19c-53.89.41-101.47,23.2-156.61,19.15q-4.26-41.22-8.7-83c53.88-.41,101.47-23.2,156.61-19.15Q398.77,235.35,403.21,277.19Z"/><path class="cls-3" d="M391.87,258.54q-2.4-22.47-4.76-44.79c-6.1,0-11.47-4.45-12.11-10.33-39.87,1.77-76.59,14.78-115.92,18.47a10.13,10.13,0,0,1-9.7,11.36q2.4,22.45,4.76,44.78c6.1,0,11.47,4.46,12.11,10.33,39.88-1.72,76.6-14.73,115.92-18.45A10.13,10.13,0,0,1,391.87,258.54Z"/><path class="cls-3" d="M343.58,240.64c1.45,13.15-7.67,25.89-20.35,28.56S299,263,297.53,249.84s7.67-25.89,20.35-28.56S342.11,227.45,343.58,240.64Z"/><path class="cls-3" d="M324.29,255.79l.54,4.84-4,.84c-.18-1.63-.37-3.25-.55-4.87a14.3,14.3,0,0,1-8-1.82l1.65-5a12.42,12.42,0,0,0,8.08,1.76c1.64-.34,2.6-1.18,2.47-2.35-.42-3.77-11.36.83-12.24-7-.39-3.51,1.77-6.44,5.58-7.91-.18-1.55-.35-3.1-.52-4.65l4-.84c.17,1.54.34,3.08.52,4.62a14.39,14.39,0,0,1,6.91,1l-1.59,5a15.27,15.27,0,0,0-7.12-1c-1.33.28-2.15,1-2,2,.41,3.67,11.37-.74,12.26,7.24C330.65,251.6,328.05,254.46,324.29,255.79Z"/><circle class="cls-3" cx="250.84" cy="143.45" r="32.37" transform="translate(-37.46 123.86) rotate(-25.88)"/><circle class="cls-3" cx="250.84" cy="143.45" r="26.33" transform="translate(-35.56 105.05) rotate(-22.13)"/><path class="cls-3" d="M253.91,156.08l0,5.53-4.81,0,0-5.56a18.77,18.77,0,0,1-9.13-3.81l2.53-5.18c2.62,2.22,6.57,3.78,9.21,3.76,1.95,0,3.17-.74,3.16-2.08,0-4.3-13.34-1.6-13.4-10.56,0-4,2.84-6.81,7.46-7.6l0-5.32,4.81,0,0,5.28a18.58,18.58,0,0,1,7.93,2.65l-2.45,5.26c-2.69-1.5-6.09-2.67-8.19-2.66-1.59,0-2.63.6-2.62,1.76,0,4.19,13.34,1.71,13.41,10.81C261.84,152.81,258.46,155.43,253.91,156.08Z"/><path class="cls-3" d="M401.67,268.71c-49.49-18.38-105.83-10.67-155.89-26.9q7.66-42.57,15.39-85.27c49.49,18.38,105.83,10.67,155.89,26.91Q409.4,226,401.67,268.71Z"/><path class="cls-3" d="M396.45,246.64q4.1-22.71,8.17-45.38A11.82,11.82,0,0,1,396.1,188c-38.42-8.35-79.46-6.7-117.64-16a9.68,9.68,0,0,1-12.3,7.88q-4.1,22.71-8.18,45.39a11.79,11.79,0,0,1,8.52,13.23c38.43,8.33,79.47,6.68,117.65,16A9.67,9.67,0,0,1,396.45,246.64Z"/><path class="cls-3" d="M355.27,215c-2.29,12.82-14.79,22-28,20.87s-22-12.65-19.7-25.51,14.79-22,28-20.88S357.58,202.08,355.27,215Z"/><path class="cls-3" d="M332.1,223.58c-.28,1.56-.55,3.12-.83,4.68l-4.2-.37.84-4.72a15,15,0,0,1-7.36-4l3-4.17a13.13,13.13,0,0,0,7.43,4c1.7.15,2.88-.36,3.08-1.5.66-3.64-11.38-2.48-10-10.09.61-3.4,3.55-5.52,7.71-5.8.27-1.5.53-3,.8-4.5l4.2.38c-.27,1.49-.54,3-.8,4.47a15.29,15.29,0,0,1,6.49,2.93l-3,4.24a16.26,16.26,0,0,0-6.71-2.95c-1.39-.12-2.39.29-2.57,1.27-.63,3.55,11.37,2.57,10,10.3C339.53,221.49,336.17,223.42,332.1,223.58Z"/><path class="cls-3" d="M490.6,148.62l-1.13-3.33-1.12,3.33a18.07,18.07,0,0,1-8.43,10h0a18,18,0,0,1,8.43,10.05l1.12,3.33,1.13-3.33A18,18,0,0,1,499,158.67h0A18.07,18.07,0,0,1,490.6,148.62Z"/><path class="cls-3" d="M467.5,136.48l-.78-2.31-.78,2.31a12.49,12.49,0,0,1-5.84,7h0a12.49,12.49,0,0,1,5.84,7l.78,2.31.78-2.31a12.53,12.53,0,0,1,5.84-7h0A12.53,12.53,0,0,1,467.5,136.48Z"/><path class="cls-3" d="M230.09,251.84l-.78-2.31-.78,2.31a12.47,12.47,0,0,1-5.84,7h0a12.49,12.49,0,0,1,5.84,7l.78,2.31.78-2.31a12.51,12.51,0,0,1,5.85-7h0A12.48,12.48,0,0,1,230.09,251.84Z"/><path class="cls-3" d="M480.7,257.87l-.78-2.31-.78,2.31a12.48,12.48,0,0,1-5.85,7h0a12.54,12.54,0,0,1,5.85,7l.78,2.31.78-2.31a12.52,12.52,0,0,1,5.84-7h0A12.47,12.47,0,0,1,480.7,257.87Z"/><path class="cls-3" d="M375.29,118.29l-.78-2.3-.78,2.3a12.51,12.51,0,0,1-5.85,7h0a12.51,12.51,0,0,1,5.85,7l.78,2.31.78-2.31a12.49,12.49,0,0,1,5.84-7h0A12.49,12.49,0,0,1,375.29,118.29Z"/><path class="cls-3" d="M182.08,236.32,181.3,234l-.78,2.31a12.52,12.52,0,0,1-5.84,7h0a12.47,12.47,0,0,1,5.84,7l.78,2.31.78-2.31a12.48,12.48,0,0,1,5.85-7h0A12.54,12.54,0,0,1,182.08,236.32Z"/><path class="cls-3" d="M272.63,77l-.78-2.31L271.07,77a12.52,12.52,0,0,1-5.84,7h0a12.47,12.47,0,0,1,5.84,7l.78,2.31.78-2.31a12.48,12.48,0,0,1,5.85-7h0A12.54,12.54,0,0,1,272.63,77Z"/><path class="cls-3" d="M251.43,88.22l-.54-1.6-.54,1.6a8.65,8.65,0,0,1-4.06,4.83h0a8.7,8.7,0,0,1,4.06,4.84l.54,1.6.54-1.6a8.69,8.69,0,0,1,4-4.84h0A8.63,8.63,0,0,1,251.43,88.22Z"/><path class="cls-3" d="M356.18,130.3l-.54-1.6-.54,1.6a8.68,8.68,0,0,1-4.06,4.83h0A8.68,8.68,0,0,1,355.1,140l.54,1.6.54-1.6a8.67,8.67,0,0,1,4.05-4.83h0A8.67,8.67,0,0,1,356.18,130.3Z"/><path class="cls-3" d="M442.48,287.8c-52.54-5.22-105.08,16.55-157.62,13.55q-3.37-43.11-6.76-86.37c52.54,5.21,105.08-16.56,157.62-13.56Q439.1,244.53,442.48,287.8Z"/><path class="cls-3" d="M431.82,267.78q-1.8-23-3.61-46a11.81,11.81,0,0,1-11.61-10.64c-39.28,1.68-78.56,13.7-117.84,14.42a9.68,9.68,0,0,1-9.9,10.75q1.81,23,3.62,46a11.81,11.81,0,0,1,11.6,10.64c39.28-1.7,78.56-13.71,117.84-14.42A9.67,9.67,0,0,1,431.82,267.78Z"/><path class="cls-3" d="M384,247.57c1,13-8.72,25.07-21.79,27.31a21.47,21.47,0,0,1-25.53-19.68c-1-13,8.72-25.07,21.78-27.31S382.91,234.55,384,247.57Z"/><path class="cls-3" d="M363.73,261.81c.13,1.58.25,3.16.38,4.74l-4.15.7c-.13-1.59-.26-3.18-.38-4.78a15,15,0,0,1-8.14-2l1.86-4.8a13.07,13.07,0,0,0,8.2,2c1.69-.28,2.7-1.08,2.61-2.23-.3-3.69-11.64.49-12.26-7.21-.27-3.45,2-6.24,6-7.57l-.36-4.56,4.15-.7.36,4.53a15.41,15.41,0,0,1,7,1.18l-1.8,4.86a16.07,16.07,0,0,0-7.24-1.14c-1.38.23-2.24.88-2.16,1.87.28,3.6,11.64-.39,12.27,7.44C370.38,257.9,367.63,260.62,363.73,261.81Z"/><circle class="cls-3" cx="437.46" cy="292.94" r="32.37"/><circle class="cls-3" cx="437.46" cy="292.94" r="26.33" transform="translate(-79.01 395.13) rotate(-45)"/><path class="cls-3" d="M440.53,305.56l0,5.53-4.8,0,0-5.56a18.68,18.68,0,0,1-9.13-3.8l2.53-5.19c2.62,2.23,6.56,3.79,9.2,3.77,1.95,0,3.18-.74,3.17-2.08,0-4.3-13.35-1.61-13.41-10.57,0-4,2.84-6.81,7.46-7.6l0-5.31,4.8,0,0,5.27a18.77,18.77,0,0,1,7.93,2.66l-2.46,5.25c-2.68-1.5-6.09-2.67-8.18-2.65-1.59,0-2.63.6-2.63,1.75,0,4.19,13.35,1.72,13.41,10.82C448.45,302.29,445.07,304.92,440.53,305.56Z"/><circle class="cls-3" cx="450.21" cy="228.26" r="27.29" transform="translate(42.61 526.01) rotate(-63.03)"/><circle class="cls-3" cx="450.21" cy="228.26" r="22.2" transform="matrix(1, -0.07, 0.07, 1, -14.75, 31.77)"/><path class="cls-3" d="M445.11,238l-3.06,3.52L439,238.81l3.08-3.54a15.71,15.71,0,0,1-3.64-7.5l4.49-1.86a13.58,13.58,0,0,0,3.71,7.51c1.24,1.08,2.42,1.3,3.16.45,2.38-2.73-7.53-8.46-2.57-14.15,2.22-2.55,5.59-2.72,8.95-.64l2.94-3.38,3.06,2.66-2.92,3.35a15.87,15.87,0,0,1,3.53,6.11l-4.49,2a16.57,16.57,0,0,0-3.69-6.25c-1-.88-2-1.09-2.63-.35-2.32,2.66,7.47,8.53,2.43,14.31C451.94,240.31,448.34,240.08,445.11,238Z"/><circle class="cls-3" cx="203.5" cy="200.97" r="27.29" transform="translate(-80.9 170.71) rotate(-38.57)"/><circle class="cls-3" cx="203.5" cy="200.97" r="22.2"/><path class="cls-3" d="M214.16,203.49l4.17,2.09-1.81,3.62-4.2-2.1a15.71,15.71,0,0,1-6.35,5.41L203,208.63a13.58,13.58,0,0,0,6.35-5.48c.74-1.47.66-2.67-.35-3.17-3.24-1.62-6.31,9.41-13.06,6-3-1.51-4-4.74-2.86-8.51l-4-2,1.82-3.62,4,2a15.74,15.74,0,0,1,5-4.94l3,3.85a16.69,16.69,0,0,0-5.12,5.14c-.6,1.19-.56,2.2.31,2.64,3.16,1.58,6.39-9.37,13.26-5.94C214.74,196.29,215.42,199.83,214.16,203.49Z"/><circle class="cls-3" cx="310.94" cy="107.17" r="21.49" transform="translate(85.66 346.79) rotate(-65.79)"/><circle class="cls-3" cx="310.94" cy="107.17" r="17.48" transform="translate(-0.75 212.14) rotate(-37.63)"/><path class="cls-3" d="M308.82,115.53l-1.7,3.26-2.83-1.48L306,114a12.43,12.43,0,0,1-4.18-5.07l3.09-2.26a10.73,10.73,0,0,0,4.24,5.07c1.15.6,2.09.55,2.5-.24,1.32-2.53-7.33-5.08-4.59-10.36,1.23-2.36,3.79-3.12,6.74-2.15l1.63-3.12,2.83,1.47-1.62,3.1a12.27,12.27,0,0,1,3.83,4l-3.07,2.32a12.93,12.93,0,0,0-4-4.1c-.93-.49-1.73-.47-2.08.21-1.29,2.47,7.3,5.15,4.51,10.51C314.49,116.07,311.69,116.56,308.82,115.53Z"/></svg>