<svg xmlns="http://www.w3.org/2000/svg" xmlns:xlink="http://www.w3.org/1999/xlink" viewBox="0 0 752.59 418.09"><defs><style>.cls-1,.cls-11,.cls-21,.cls-7{fill:#fff;}.cls-2{isolation:isolate;}.cls-3{font-size:200.43px;font-family:PTMono-Regular, PT Mono;}.cls-4{fill:#f7941d;}.cls-5{clip-path:url(#clip-path);}.cls-13,.cls-19,.cls-6{fill:none;}.cls-11,.cls-13,.cls-15,.cls-17,.cls-19,.cls-21,.cls-6,.cls-7,.cls-9{stroke:#000;}.cls-17,.cls-21,.cls-6,.cls-7,.cls-9{stroke-miterlimit:10;}.cls-8{mix-blend-mode:multiply;}.cls-9{stroke-width:0.5px;}.cls-10{clip-path:url(#clip-path-2);}.cls-11,.cls-15,.cls-19{stroke-linecap:round;}.cls-11,.cls-13,.cls-15,.cls-19{stroke-linejoin:round;}.cls-12{clip-path:url(#clip-path-3);}.cls-14{fill:#253044;}.cls-15,.cls-17{stroke-width:0.25px;}.cls-16{fill:#1d1d1b;}.cls-18{clip-path:url(#clip-path-4);}.cls-20{clip-path:url(#clip-path-5);}.cls-21{stroke-width:0.75px;}</style><clipPath id="clip-path"><path class="cls-1" d="M290.43,202.1s-18.24,9.58-43,3.27S209.3,174,210.24,153.23s16.59-52.83,54.94-55.87,51.43,26.42,54.24,44.42-2.81,37.4-13.56,52.6c5.61,15.43,16.13,20.11,16.13,20.11a42.69,42.69,0,0,1-19.17-.7C292.3,211,290.43,202.1,290.43,202.1Z"/></clipPath><clipPath id="clip-path-2"><path class="cls-1" d="M402.05,143.77s-20.58.87-40.29-15.42-21.07-44.61-11.33-63S388,24.65,424,38.28,459.19,84.15,454,101.62s-18.52,32.62-34.73,41.77c-1.52,16.34,6,25.07,6,25.07a42.67,42.67,0,0,1-17-8.83C400,152.6,402.05,143.77,402.05,143.77Z"/></clipPath><clipPath id="clip-path-3"><path class="cls-1" d="M502.93,214.44a40.52,40.52,0,0,0,17.18,2.8,65.93,65.93,0,0,0,16.49-3.5s23.14,18.58,54,9.11,43.37-36.59,39.28-69.08c-4.26-33.82-28.41-51.55-62.07-47.7s-52.34,33.66-54,54c-2.1,25.72,11.57,41.38,11.57,41.38s-4.79,5.38-9.7,7.95A56.09,56.09,0,0,1,502.93,214.44Z"/></clipPath><clipPath id="clip-path-4"><path class="cls-1" d="M263,352.15s-4.44.23-13.56-5.61-11-10.06-11-10.06,17.31-8.18,24.08-36.7-12.15-64.53-48.16-71.07S157.1,239,148.22,270.79s7.95,56.34,21.51,65.69,31.33,9.82,37.17,10.29a36,36,0,0,0,11.46-1.17s8.06,7.25,23.14,9S263,352.15,263,352.15Z"/></clipPath><clipPath id="clip-path-5"><path class="cls-1" d="M557.23,336.11s6.31,3.74,17.3,3,14.26-3,14.26-3,8.19,20.34,41.62,21.51,58.45-22.21,58.68-57.51S665.94,245.4,636.25,244s-52.6,18-56.58,40a70.55,70.55,0,0,0,4.45,39.51A22.42,22.42,0,0,1,572,332.37,149.31,149.31,0,0,1,557.23,336.11Z"/></clipPath></defs><g class="cls-2"><g id="Capa_1" data-name="Capa 1"><text class="cls-3" transform="translate(22.62 291.17)">6</text><path class="cls-4" d="M105.33,265.52c4,42.36,31.73,78.72,68.4,102.32,41,26.38,93.61,39.06,143.7,38,61.6-1.27,119.28-22,181.25-19.08,43.16,2.05,88.12,15.53,128.55,6.2C683.31,380,735.32,332,729.52,272.52,723.11,206.62,674.44,148.9,626,105.23,570.16,54.87,508.67,28.65,433.79,16.32,277.31-9.45,110.66,86.51,104.91,251.17A112,112,0,0,0,105.33,265.52Z"/><path class="cls-1" d="M290.43,202.1s-18.24,9.58-43,3.27S209.3,174,210.24,153.23s16.59-52.83,54.94-55.87,51.43,26.42,54.24,44.42-2.81,37.4-13.56,52.6c5.61,15.43,16.13,20.11,16.13,20.11a42.69,42.69,0,0,1-19.17-.7C292.3,211,290.43,202.1,290.43,202.1Z"/><g class="cls-5"><path class="cls-6" d="M281.32,141.36a8.84,8.84,0,0,0-.33-2.1,1.9,1.9,0,0,0-.57-1,1.11,1.11,0,0,0-1.17-.18,1.29,1.29,0,0,0-.41.36,13.4,13.4,0,0,0-1.53,2.31A39.63,39.63,0,0,0,276,129.41a8.72,8.72,0,0,0-4-5,8,8,0,0,0-4.66-.89c-1.6.1-3.17.47-4.77.62-2.71.26-5.59-.05-8.07,1a1.81,1.81,0,0,0-1.21.49,3.79,3.79,0,0,0-.91,1.52c-1.21,3.18-1.08,6.69-.93,10.09.08,1.65.15,3.3.22,4.95a5.45,5.45,0,0,0-3.15-2.67,1.45,1.45,0,0,0-.85,0,1.28,1.28,0,0,0-.58.57,4.66,4.66,0,0,0-.26,3.11,5.57,5.57,0,0,0,.66,2.13,2.57,2.57,0,0,0,1.86,1.27,3.07,3.07,0,0,0,1.9-.53,6.31,6.31,0,0,0,.58-.44c0,.5,0,1,.07,1.5.1,2.34.24,4.8,1.48,6.78a11.51,11.51,0,0,0,2.63,2.72c.48.38,1,.74,1.5,1.09,0,.75,0,1.51,0,2.26,0,.19,0,.38,0,.57a.22.22,0,0,1,0,.08,5.44,5.44,0,0,1-.05.58h0a3,3,0,0,1-.88,1.95c-.56.51-4,1.7-4.82,2.34a.5.5,0,0,0-.24.3.52.52,0,0,0,.1.36,10.71,10.71,0,0,0,4.09,3.78,18.37,18.37,0,0,0,10.61,2.71,12.51,12.51,0,0,0,9.4-5.2,1.27,1.27,0,0,0,.28-1.15c-.08-.19.4-.28.23-.41a17.75,17.75,0,0,0-3.09-1.61,2.6,2.6,0,0,1-1-.69,2.24,2.24,0,0,1-.33-1c-.08-.53-.13-1.07-.2-1.61-.09-.77-.17-1.53-.24-2.3,0-.25,0-.5-.05-.76a23.83,23.83,0,0,0,3.06-2.66,7.8,7.8,0,0,0,1.87-2.65,10,10,0,0,0,.51-2.61c.12-1.17.24-2.35.33-3.54a2.45,2.45,0,0,0,1.26.08,3.67,3.67,0,0,0,2.6-2.06A6.61,6.61,0,0,0,281.32,141.36Z"/><path d="M277.86,129.56c-1.26-3.71-3.18-7.39-7-9a15,15,0,0,0-4.36-1,25.27,25.27,0,0,0-4.92,0,16.94,16.94,0,0,0-3.48.72,12.47,12.47,0,0,0-7.94,8.36,22.53,22.53,0,0,0-.5,6.86c.05,1.45.09,2.91.13,4.36a2.52,2.52,0,0,0,.1.73c.34.94,2.19,2.29,2.34,3.27l.12-.18c1.05-3.58-.22-5.74.41-9.41a2.19,2.19,0,0,1,2.65-2.31,19.7,19.7,0,0,1,4.16,1.18,13.6,13.6,0,0,0,7.69.12c1.95-.55,3.8-1.55,5.83-1.57a2,2,0,0,1,1.66.59,1.86,1.86,0,0,1,.3.79c.75,3.62.34,6,1.87,9.55,1.53-1.53,1.48-4.55,1.61-6.65A17.26,17.26,0,0,0,277.86,129.56Z"/><path class="cls-7" d="M252.44,164.4s4,5.2,12.27,5.32,10.75-4.56,10.75-4.56,8.89,3.39,13.45,6.54,4.67,4.44,5.26,6.55,1.75,5.73,2.33,7.71,1.06,4.68,1.06,4.68a17.38,17.38,0,0,0-5.26,1.17,64.17,64.17,0,0,0-8.42,4.23l1.87,10.5A176.11,176.11,0,0,1,266,208.88a99.15,99.15,0,0,1-22.67-1.64l1.05-15.08s-2.46-1.52-7.83-2.34-7.6-.93-7.6-.93.7-13,3.62-15.78S252.44,164.4,252.44,164.4Z"/><path d="M258,185.5l-1.08-16.22a1.57,1.57,0,0,1,.24-1.15,1.51,1.51,0,0,1,.95-.34,92.34,92.34,0,0,1,11-.63,3,3,0,0,1,1.45.25,3,3,0,0,1,1.12,2.48,101.12,101.12,0,0,1,.4,16,5,5,0,0,1-.25,1.49,4.08,4.08,0,0,1-3.09,2.15A10.67,10.67,0,0,1,258,185.21"/><path class="cls-7" d="M291.62,204a55.89,55.89,0,0,0-5.15-5.29c-1.84-1.83-3.59-3.74-5.41-5.59-1.68-1.7-3.44-3.31-5.2-4.93a18,18,0,0,0,.15-2,23.15,23.15,0,0,0-.22-3.72,32.57,32.57,0,0,0-.64-3.5,17.7,17.7,0,0,0-1-3.41c-.27-.55-.85-1-1.47-.7s-.53,1.71-.59,2.33a28.76,28.76,0,0,1-.6,3.92c-.14.61-.31,1.21-.49,1.82v0c-4.59.79-9.07,0-13.64-1.14-1-.24-4.84-1.74-4.42.68a3.36,3.36,0,0,0,1.75,2.12,3.49,3.49,0,0,0,.73,2.18,10.32,10.32,0,0,0,2.07,1.82,3.77,3.77,0,0,0,.82,1.94,8.7,8.7,0,0,0,2.88,2.41,12.94,12.94,0,0,0,4,1.34,14.4,14.4,0,0,0,3.55.32,35.17,35.17,0,0,0,2.86,7.65c1.42,2.92,3.07,6.41,5.66,8.48,2.43,1.94,5.67,2.1,8.59,1.37,2.36-.6,7.94.87,8.9-1.44C295.5,209.38,293.5,206.4,291.62,204Z"/><g class="cls-8"><path class="cls-9" d="M261.35,186.65c.86.19,1.72.36,2.59.51a9.72,9.72,0,0,0,2.39.3c.19,0-7-1.71-8.25-2.05a17.54,17.54,0,0,1-3.47-1.29h0a2.08,2.08,0,0,0,0,.43,17.39,17.39,0,0,0,2.83,1.09C258.76,186,260.06,186.36,261.35,186.65Z"/><path class="cls-9" d="M260.89,189.46a15.62,15.62,0,0,1-3.46-1.32c0,.11,0,.22.06.34a14,14,0,0,0,3.22,1.35,23.56,23.56,0,0,0,2.34.59c.38.07.75.13,1.14.18a1.85,1.85,0,0,0,1,0C265.28,190.55,261.59,189.66,260.89,189.46Z"/></g><path class="cls-6" d="M230.07,189.07a131.73,131.73,0,0,0-.77,17.29"/><path class="cls-6" d="M296.48,190.74s3.54,10.79-1.73,18.46"/></g><path class="cls-1" d="M402.05,143.77s-20.58.87-40.29-15.42-21.07-44.61-11.33-63S388,24.65,424,38.28,459.19,84.15,454,101.62s-18.52,32.62-34.73,41.77c-1.52,16.34,6,25.07,6,25.07a42.67,42.67,0,0,1-17-8.83C400,152.6,402.05,143.77,402.05,143.77Z"/><g class="cls-10"><path class="cls-11" d="M414.89,77a8.92,8.92,0,0,0-.33-2.11,1.9,1.9,0,0,0-.57-1,1.15,1.15,0,0,0-1.17-.18,1.29,1.29,0,0,0-.4.37,12.83,12.83,0,0,0-1.54,2.3,39.17,39.17,0,0,0-1.33-11.37,8.74,8.74,0,0,0-4-5,7.93,7.93,0,0,0-4.66-.89c-1.6.11-3.17.47-4.77.62-2.71.26-5.59,0-8.06,1a1.81,1.81,0,0,0-1.22.49,3.83,3.83,0,0,0-.91,1.51c-1.21,3.18-1.08,6.69-.93,10.09l.23,5a5.47,5.47,0,0,0-3.16-2.67,1.45,1.45,0,0,0-.85,0,1.31,1.31,0,0,0-.58.56,4.69,4.69,0,0,0-.26,3.12,5.89,5.89,0,0,0,.66,2.12,2.58,2.58,0,0,0,1.87,1.28,3,3,0,0,0,1.89-.54,4.92,4.92,0,0,0,.58-.44c0,.5.05,1,.07,1.51.1,2.34.24,4.79,1.49,6.77a11.14,11.14,0,0,0,2.62,2.73c.48.38,1,.74,1.51,1.08,0,.76,0,1.51,0,2.27,0,.18,0,.37,0,.56v.09c0,.19,0,.39-.06.58a3,3,0,0,1-.88,2c-.56.51-4,1.7-4.82,2.34a.54.54,0,0,0-.24.3.6.6,0,0,0,.1.36,10.67,10.67,0,0,0,4.1,3.78,18.42,18.42,0,0,0,10.6,2.71,12.55,12.55,0,0,0,9.4-5.21,1.29,1.29,0,0,0,.29-1.14c-.09-.19.39-.29.23-.42a19,19,0,0,0-3.1-1.61,2.58,2.58,0,0,1-1-.68,2.24,2.24,0,0,1-.33-1c-.08-.54-.13-1.08-.19-1.61h0c-.1-.77-.18-1.54-.25-2.3,0-.26,0-.51-.05-.76a23.83,23.83,0,0,0,3.06-2.66,7.9,7.9,0,0,0,1.87-2.65,10.06,10.06,0,0,0,.51-2.62c.12-1.17.24-2.35.34-3.53a2.4,2.4,0,0,0,1.25.08,3.69,3.69,0,0,0,2.6-2.07A6.55,6.55,0,0,0,414.89,77Z"/><path class="cls-7" d="M361.46,147.82A114.18,114.18,0,0,1,363.11,123a.82.82,0,0,1,.18-.46.86.86,0,0,1,.4-.18,22.63,22.63,0,0,1,13.7,1.12,1.22,1.22,0,0,1,.62.44,1.12,1.12,0,0,1,.13.63c.2,6.7-1.26,13.36-1.28,20.07a1.45,1.45,0,0,1-.14.77,1.39,1.39,0,0,1-.62.44,24.89,24.89,0,0,1-14.39,1.9"/><g class="cls-8"><path class="cls-7" d="M417,126a27.12,27.12,0,0,1,13-2.88c.49,3.71,1.3,7.4,1.36,11.14s-.7,7.65-3,10.59c-1.16,1.46-3,2.71-4.78,2.11a5.22,5.22,0,0,1-2.66-2.89c-2.72-5.49-3.66-11.71-3.85-17.84"/></g><path d="M386,100.07s4,5.2,12.27,5.32S409,100.83,409,100.83s8.89,3.39,13.45,6.55,4.67,4.44,5.26,6.54,1.75,5.73,2.34,7.72,1.05,4.68,1.05,4.68a17.51,17.51,0,0,0-5.26,1.16,63.75,63.75,0,0,0-8.42,4.24l1.87,10.49a173.33,173.33,0,0,1-19.75,2.34,99.2,99.2,0,0,1-22.68-1.64l1.05-15.08s-2.45-1.51-7.83-2.33-7.6-.94-7.6-.94.7-13,3.62-15.78S386,100.07,386,100.07Z"/><path class="cls-7" d="M391.57,121.17q-.54-8.1-1.07-16.21a1.13,1.13,0,0,1,1.18-1.5,94.47,94.47,0,0,1,11-.62,2.26,2.26,0,0,1,2.57,2.72,101.27,101.27,0,0,1,.4,16,4.75,4.75,0,0,1-.25,1.49,4.07,4.07,0,0,1-3.09,2.14,10.65,10.65,0,0,1-10.81-4.26"/><path class="cls-7" d="M425.19,139.62a55.78,55.78,0,0,0-5.15-5.28c-1.84-1.83-3.59-3.74-5.41-5.59s-3.44-3.32-5.2-4.93a18.16,18.16,0,0,0,.15-2,22.06,22.06,0,0,0-.22-3.72,29.49,29.49,0,0,0-.63-3.5,18.22,18.22,0,0,0-1.06-3.41,1.11,1.11,0,0,0-1.47-.7c-.7.36-.53,1.7-.59,2.33a30.23,30.23,0,0,1-.59,3.91c-.15.62-.32,1.22-.49,1.83v0c-4.6.78-9.08,0-13.65-1.14-1-.25-4.84-1.74-4.42.68a3.41,3.41,0,0,0,1.75,2.12,3.47,3.47,0,0,0,.73,2.17,10.65,10.65,0,0,0,2.07,1.83,3.84,3.84,0,0,0,.82,1.94,8.82,8.82,0,0,0,2.88,2.41,12.92,12.92,0,0,0,4,1.33,13.5,13.5,0,0,0,3.55.32,35.24,35.24,0,0,0,2.86,7.66c1.42,2.92,3.07,6.4,5.66,8.47,2.43,1.94,5.67,2.11,8.59,1.37,2.36-.59,7.95.88,8.9-1.43C429.07,145.05,427.07,142.07,425.19,139.62Z"/><g class="cls-8"><path class="cls-9" d="M394.92,122.39c.86.19,1.72.36,2.59.51a9.72,9.72,0,0,0,2.39.3c.19,0-7-1.71-8.25-2a17.54,17.54,0,0,1-3.47-1.29h0a3.11,3.11,0,0,0,0,.43,17.39,17.39,0,0,0,2.83,1.09C392.33,121.77,393.63,122.1,394.92,122.39Z"/><path class="cls-9" d="M394.46,125.2a15.36,15.36,0,0,1-3.45-1.32,2.15,2.15,0,0,0,.05.34,14,14,0,0,0,3.22,1.35,23.56,23.56,0,0,0,2.34.59q.57.11,1.14.18a1.85,1.85,0,0,0,1,0C398.85,126.29,395.16,125.4,394.46,125.2Z"/></g><path d="M412,67.55c.07-3.77.23-9.71-1-10.82a4.69,4.69,0,0,0-2.27-1.15,3.62,3.62,0,0,0-1.09,0c-.72.09-1.42.56-2.16.29s-1.49-1.37-2.22-1.94a6.49,6.49,0,0,0-2.61-1.21,6.41,6.41,0,0,0-5.22,1.11c-.88.64-1.64,1.87-2.82,1.86-1,0-1.85-.75-2.71-1.2a3.4,3.4,0,0,0-4.45.8c-1.35,1.63-2.57,10.07-2.13,12.09a38,38,0,0,0,0,3.85c.05,1.46.09,2.91.13,4.37a2.5,2.5,0,0,0,.1.72c.35.94,1.16,1,1.31,2l.87.27c1.06-3.58.06-5,.69-8.62a2.66,2.66,0,0,1,1.49-2.24,2.83,2.83,0,0,1,1.16-.07,19.53,19.53,0,0,1,4.16,1.18,13.6,13.6,0,0,0,7.69.12c1-.29,2-.69,3-1a4.63,4.63,0,0,1,2.78-.43c2.36.77,2.31,2.8,2.53,4.87.1,1,1,3.67,1.18,4.63.07.33.82-.09.76,0,1.53-1.53.9-3.21,1-5.3A20.4,20.4,0,0,0,412,67.55Z"/></g><path class="cls-1" d="M502.93,214.44a40.52,40.52,0,0,0,17.18,2.8,65.93,65.93,0,0,0,16.49-3.5s23.14,18.58,54,9.11,43.37-36.59,39.28-69.08c-4.26-33.82-28.41-51.55-62.07-47.7s-52.34,33.66-54,54c-2.1,25.72,11.57,41.38,11.57,41.38s-4.79,5.38-9.7,7.95A56.09,56.09,0,0,1,502.93,214.44Z"/><g class="cls-12"><path d="M615.15,158.59c-2.15-3.42-5.8-5.47-7.71-9-2.05-3.81-1.79-8-1.92-12.28a25.71,25.71,0,0,0-1.82-8.74,9.3,9.3,0,0,0-1.88-3.18c-1.82-1.87-4.66-2.27-7.27-2.3a22,22,0,0,0-7.63.82c-5.73-2.2-12.9-2.63-18.16.48s-8.56,10.2-6.26,16c.53,1.33,1.31,2.55,1.84,3.88a11.35,11.35,0,0,1,.46,6.91c-.84,3.39-3.77,6.85-4.68,10.22a14.13,14.13,0,0,0,2.9,12.16c2.68,3.39,7.14,5,11.24,6.41A56.55,56.55,0,0,0,587,182.19a43.67,43.67,0,0,0,12.56-.18,24.11,24.11,0,0,0,11-5.34,18,18,0,0,0,5.7-8.27A12.1,12.1,0,0,0,615.15,158.59Z"/><path class="cls-6" d="M606.38,198.57a44.06,44.06,0,0,0-7.49,2.5c-.12.81-.22,1.64-.33,2.46.07,1.2.15,2.4.2,3.61.22,5.26.37,10.53.41,15.8a.61.61,0,0,0,.6.59,12.72,12.72,0,0,0,9.66-3.14,6.7,6.7,0,0,0,2.19-4.13c.28-2.17.41-4.38.55-6.57.26-4,.39-8,.36-12A24.33,24.33,0,0,0,606.38,198.57Z"/><path class="cls-13" d="M559.92,195.69a16.1,16.1,0,0,1,.46-3.52,17.76,17.76,0,0,0-7.15-7.54l-1.21,1a49,49,0,0,0-5.45,5.14,1.62,1.62,0,0,1-.1-.18c-.54-1.08-1.06-2.17-1.55-3.28-1-2.34-1.9-4.77-2.7-7.2a69.88,69.88,0,0,1-1.91-7,47,47,0,0,1-1-6.61c.39-.69,3-6.26,3.3-7a2.47,2.47,0,0,0,.22-.59,1,1,0,0,0-.33-.92.87.87,0,0,0-.94-.14,2.34,2.34,0,0,0-.55.4q-1.2,1-2.37,2.1c-.18.17-.37.33-.57.5-.08-.75-2.19-7.81-2.74-9.17-.39-.95-.69-2.26-1.73-2.66a.4.4,0,0,0-.5.29,8.78,8.78,0,0,0,.28,3.41c.21,1.19,1,4.09,1.23,5.28-.73-1.74-2.37-5-3.31-6.68-.33-.59-.74-1.5-1.54-1.53s-.73.8-.57,1.4a14.8,14.8,0,0,0,1,2.64c.47,1,.81,2,1.25,3s.77,1.78,1.16,2.68c-.21-.32-.51-.58-.72-.9-.57-.82-1.16-1.62-1.76-2.41a13,13,0,0,0-1.71-2.06c-.41-.36-1-.76-1.49-.27s-.06.89.08,1.32a26,26,0,0,0,2.48,4.7c.38.65.69,1.45,1.09,2.08-.58-.44-1.21-.85-1.74-1.29a19.61,19.61,0,0,0-2.08-1.54c-.4-.26-1.07-.74-1.57-.44s-.38.61-.22,1c.42,1.15,4,4.92,4.84,5.89.68.77,2.3,2.08,2.36,2.16,0,1.81.18,3.61.26,5.43.1,2.46.25,4.92.52,7.37A60.12,60.12,0,0,0,535.75,194a37.88,37.88,0,0,0,2.68,6,10.34,10.34,0,0,0,3.37,3.9c3.53,2.17,8.11,0,11.42-1.61a38.41,38.41,0,0,0,6-3.69l.9-.68A11.4,11.4,0,0,1,559.92,195.69Z"/><path class="cls-7" d="M613.25,193.92c-.09-1.84.35-7.63-1.66-10.61-1.17-1.72-3.71-3.61-5.66-4.91a.6.6,0,0,0-.13-.14,80.43,80.43,0,0,0-12.32-6.92,28.17,28.17,0,0,1-12.41,13.07,12.1,12.1,0,0,1-4.88,1.56,5.73,5.73,0,0,1-4.66-1.77c-1.67-1.94-1.37-4.89-.55-7.32a22.23,22.23,0,0,1,4.32-7.46,3.18,3.18,0,0,0,.46-.63A19.28,19.28,0,0,1,572.7,170l-5.19,1.16a9.2,9.2,0,0,0-2.58.85,9.62,9.62,0,0,0-2.52,2.33q-4.49,5.25-9.25,10.25a17.78,17.78,0,0,1,7.22,7.58,16.1,16.1,0,0,0-.46,3.52,9.65,9.65,0,0,0,2.64,7.13,5.55,5.55,0,0,1,1.49,1.72,4,4,0,0,1,0,2.17,117.9,117.9,0,0,0-1.55,19.59,1.52,1.52,0,0,0,.29,1.09,1.57,1.57,0,0,0,.87.35,63.18,63.18,0,0,0,34.07-3.81,1.66,1.66,0,0,0,.87-.61,8.45,8.45,0,0,0,.52-2.38,48.49,48.49,0,0,1-.13-6.15c0-5.06-.17-8.89-.13-13.72a44.06,44.06,0,0,1,7.49-2.5c5-1.23,6.7-.88,6.7-.88A23.87,23.87,0,0,0,613.25,193.92Z"/><path class="cls-7" d="M597.43,144.88a3.05,3.05,0,0,0-1.91.07,6,6,0,0,0-.88.35,15,15,0,0,1-.62,2c-3.06-.85-5.49-5.89-6.84-8.77a59,59,0,0,1-3.37-10.32,43.36,43.36,0,0,1-8.55,7,16.26,16.26,0,0,1-7.37,2.19,33,33,0,0,0-.91,7.85c.07,5.27,1.93,10.72,5.93,14.15a12.85,12.85,0,0,0,2.25,1.55q.4.21.84.39c0,.32,0,.64,0,.95s0,.42,0,.63c0,1,0,1.94,0,2.91,0,.67,0,1.33-.07,2a2.47,2.47,0,0,1-.16.9,2.61,2.61,0,0,1-.51.72,22.23,22.23,0,0,0-4.32,7.46c-.82,2.43-1.12,5.38.55,7.32a5.73,5.73,0,0,0,4.66,1.77,12.1,12.1,0,0,0,4.88-1.56,28.16,28.16,0,0,0,12.46-13.17c-2.73-.61-4.7-3.15-5.46-5.84a13.78,13.78,0,0,1-.45-2.63,23.64,23.64,0,0,1,0-3.15,10.83,10.83,0,0,0,1-1,20.51,20.51,0,0,0,3.94-8.24v0a3.76,3.76,0,0,0,2.37.26,5.71,5.71,0,0,0,2.62-1,3.29,3.29,0,0,0,1.32-2.41A2.34,2.34,0,0,0,597.43,144.88Z"/></g><rect class="cls-14" x="350.4" y="174.16" width="107.41" height="195.51" rx="11.74"/><rect class="cls-1" x="355.89" y="179.94" width="96.44" height="183.94" rx="10.8"/><path d="M427.43,335.18c-2.11-11.45-4-15.49-4-15.49l-25-4.44c0,.12.1.84.29,2l-17.12.8s-.47,12-1.17,25.54c-.6,11.48-.86,18.42-.92,20.28h22.72L404.09,342c.3,1.55.6,3.05.89,4.45,1.94,9.35,3.43,14.92,4.17,17.48h24.09C432.32,359.57,429.21,344.87,427.43,335.18Z"/><path class="cls-7" d="M372.93,262c-.3-2.69-1.78-5.16-2.91-7.56a.39.39,0,0,0-.39-.23,1.92,1.92,0,0,0-1.27-.74c-1.85-.22-3.5,2-4.67,3.14-2.77,2.6-5.71,5-8.56,7.51,0-.11,0-.23,0-.34-.22-2.09-.45-4.17-.71-6.26-.36-2.89-.61-5.9-1.15-8.81a19,19,0,0,0,2.89-3.79c.12-.2.23-.41.35-.63a11.35,11.35,0,0,0,1.71-3.49,9.57,9.57,0,0,0,.52-2.53,4.11,4.11,0,0,0-.63-2.47,1.39,1.39,0,0,0-1.17-.71,1.14,1.14,0,0,0-.89.75,2.61,2.61,0,0,0-.13,1.21c.05.69.15,1.37.23,2.05a2.36,2.36,0,0,0-2.81,1.17,10.31,10.31,0,0,0-.86,2,1.92,1.92,0,0,0-.32-.05,2.78,2.78,0,0,0-1.61.44,9.11,9.11,0,0,0-1.41,1,5.79,5.79,0,0,0-1.13,1.29.2.2,0,0,0,.06.29,87.55,87.55,0,0,0-2.82,16.56,47.6,47.6,0,0,0-.28,8.27c.19,2.27.58,4.91,1.92,6.83,2.82,4,8.37,2.42,11.95.53a45.55,45.55,0,0,0,6.35-4.1,34.26,34.26,0,0,0,5.2-4.57A8.8,8.8,0,0,0,372.93,262Z"/><path class="cls-7" d="M479.75,240.13a6.26,6.26,0,0,0-1.21-5c-.43-.35-.86-.7-1.3-1a5,5,0,0,0-3.66.46l-.19.12a29.91,29.91,0,0,0-8,6.17l-.06-.15c-.14-.35-.28-.69-.43-1-.3-.72-.62-1.42-1-2.11s-1.17-2.95-2.14-2a2.18,2.18,0,0,0-.43,1.45,11.4,11.4,0,0,0,.13,2.41c.1.59.22,1.17.36,1.75,0,.37,0,.73,0,1.05,0,1,0,2,0,2.95,0,.64,0,1.29,0,1.94l-.74,1.36a49,49,0,0,1-6.36,9,62.68,62.68,0,0,1-6.65,6.28c-1-.63-1.95-1.28-2.89-2a46.59,46.59,0,0,1-5.24-4.36.26.26,0,0,0-.42.29q-1.73,3.66-3.43,7.33c-.56,1.18-1.12,2.36-1.67,3.54-.27.59-.53,1.19-.79,1.79a12.89,12.89,0,0,0-.63,1.48l-.27-.14c-.25-.13-.43.24-.2.39l.39.24a.2.2,0,0,0,.25.16c3.27,2,6.53,4.09,9.94,5.84a12.27,12.27,0,0,0,4.63,1.52,4.87,4.87,0,0,0,4-1.75c2.66-2.54,4.5-5.83,6.45-8.91,2.12-3.34,4.27-6.66,6.18-10.12,1.08-2,2.18-3.91,3.23-5.89.43-.8.88-1.62,1.31-2.45.62-.48,1.22-1,1.83-1.49,1.32-1.07,2.68-2.25,4-3.36C475.6,245.33,479.44,241.62,479.75,240.13Z"/><g class="cls-8"><path class="cls-15" d="M472.25,238c.68-.56,1-.66,1.67-1.24a25.81,25.81,0,0,1,2.06-1.7,5.77,5.77,0,0,1,1.26-.7l.25-.1-.25-.19L477,234a12.4,12.4,0,0,1-1.08.78,18.6,18.6,0,0,0-2.18,1.68c-.68.63-1,.75-1.69,1.37-.31.27-.61.56-.9.85a5.94,5.94,0,0,0-.91,1,.07.07,0,0,0,.11.09,7.83,7.83,0,0,0,.82-.81C471.51,238.68,471.88,238.35,472.25,238Z"/><path class="cls-15" d="M471.63,241.35c-.11.09,0,.28.13.18,1.46-1.17,3-2,4.34-3.31q1-.94,2.13-1.83l.76-.61a2.46,2.46,0,0,0-.22-.34l-.69.54c-.75.61-1.48,1.24-2.2,1.89C474.47,239.16,473.06,240.08,471.63,241.35Z"/><path class="cls-15" d="M479.78,238.6l.06,0c0-.21,0-.42-.08-.63l-.23.18c-.73.56-1.45,1.13-2.14,1.74-1.36,1.22-3,2.37-4.45,3.52-.07.06,0,.17.08.12,1.45-1.1,3.29-2,4.69-3.2C478.4,239.72,479.07,239.14,479.78,238.6Z"/></g><path class="cls-11" d="M433.62,274.34l8.77-15.9s-10.05-9.82-17.88-14.85-18.44-1.45-18.44-1.45.67,2.39-2.49,4.14-4.52,2.65-8,.78c-.74-.39-.21-.95-.61-1.48l-2.24-4a21.71,21.71,0,0,0-4.44-.44H388a9.76,9.76,0,0,0-2.42.14,22.54,22.54,0,0,0-10.71,4.15c-4.47,3.42-12.12,10.7-12.12,10.7s3.15,8.59,4,11.22,2.28,5.7,2.28,5.7L380,267.3c-1,17.34.84,54.85.84,54.85s15.19,1.05,24.78,1.05,19.33-.6,19.33-.6-.63-8.87-1.33-21.84-.58-31.57-.58-31.57Z"/><path class="cls-16" d="M353.37,227.9a24.45,24.45,0,0,1-.94,6.16c-.8,3.33-1.69,6.82-4.05,9.3a13.18,13.18,0,0,0-1.47,1.61,2.33,2.33,0,0,0-.37,2.06c.45,1.16,2,1.41,3.2,1.08,2.75-.78,4.47-3.43,5.79-6a74.36,74.36,0,0,0,5.21-12.67,1.11,1.11,0,0,0,.06-.62,1,1,0,0,0-.46-.51,7,7,0,0,0-6.78-.47"/><path class="cls-7" d="M348.27,197.81a17.11,17.11,0,0,0,8.2,9c6.43,3.39,6.55,3.63,10.64,4.21s7.19,2,8.42,6.66c1.27,4.83-.24,9.94-3.86,12.28s-8.07,1.17-9.24.82a21,21,0,0,0-8.76-1.17,34.38,34.38,0,0,0-12.74,3.15,45.66,45.66,0,0,1-4.23,2s-2-4-.92-12,4.68-18.12,5.26-18.94S345.92,194.93,348.27,197.81Z"/><path d="M348.27,197.81c-.81-2-2.21-3.49-4.6-3.22a5.71,5.71,0,0,0-2.8,1.34c-3.83,3.08-6,8.07-7.53,12.61a43.64,43.64,0,0,0-2.15,19.86c.35,2.75,1.62,8,5.51,6.36,2.59-1.11,4.44-4,5.85-6.34a47.84,47.84,0,0,0,6.69-21.92C349.37,204.42,349.37,200.58,348.27,197.81Z"/><path class="cls-16" d="M367.9,211.11l-.79-.13a21.86,21.86,0,0,1-3.36-.66,15.68,15.68,0,0,1,.75,3,19.18,19.18,0,0,1-.43,6.36,25.44,25.44,0,0,1-1.9,5.57,20.93,20.93,0,0,1-2.7,4.31l-.26.31a22.62,22.62,0,0,1,3.22.87l.73.19a6.45,6.45,0,0,0,.59-.58,17.16,17.16,0,0,0,2.07-2.65,23,23,0,0,0,3.22-8.82A12.08,12.08,0,0,0,367.9,211.11Z"/><path class="cls-7" d="M344.41,223.9c-1.25-2.18-4.28-4.57-6.28-6.1a.53.53,0,0,1-.21-.28.41.41,0,0,1,.09-.28,14,14,0,0,0,2.05-7.53,18.08,18.08,0,0,0,8.16-.16l-.75,3.56a33.09,33.09,0,0,1-2,6.78,9.73,9.73,0,0,0-1.19,3.48"/><path class="cls-7" d="M341.42,210.83a1.77,1.77,0,0,0-2-1.23,2.17,2.17,0,0,0-1,.63,6.94,6.94,0,0,0-1.75,4.53c0,1.09,0,2.76,1.41,3s2.43-1.43,2.92-2.48a6.74,6.74,0,0,0,.54-4.17Z"/><path class="cls-7" d="M348.27,197.81c-.81-2-2.21-3.49-4.6-3.22a5.71,5.71,0,0,0-2.8,1.34c-3.83,3.08-6,8.07-7.53,12.61a43.64,43.64,0,0,0-2.15,19.86c.35,2.75,1.62,8,5.51,6.36,2.59-1.11,4.44-4,5.85-6.34a47.84,47.84,0,0,0,6.69-21.92C349.37,204.42,349.37,200.58,348.27,197.81Zm-.76,8.79a45.91,45.91,0,0,1-5.69,20c-1.2,2.1-3.06,5.6-5.26,6.61-3.32,1.53-4.39-3.28-4.69-5.8A46.43,46.43,0,0,1,334,208.46c1.33-4.14,3.58-8.93,6.83-11.73a4.69,4.69,0,0,1,2.39-1.22c2-.25,3.22,1.08,3.91,2.93C348.06,201,347.62,204.71,347.51,206.6Z"/><path class="cls-7" d="M354.86,236.07a6,6,0,0,0-1.36-1.4,6.12,6.12,0,0,0-2.38-.92,6.78,6.78,0,0,0-1.09-.14,4.47,4.47,0,0,0-3.41,1.71,7.19,7.19,0,0,0-1.46,3.61,7.43,7.43,0,0,0,.79,4.71,10.4,10.4,0,0,0,.87,1.22.48.48,0,0,0,.09.11c0-.07.51-.62.64-.76s.78-.79.78-.8a2.52,2.52,0,0,1,.33-.39,3.34,3.34,0,0,1,2.44-.68,2.32,2.32,0,0,1,.77.21,5,5,0,0,0,.6.32,1,1,0,0,0,1-.34,1.53,1.53,0,0,0,.36-1.05,1,1,0,0,1,0-.25.83.83,0,0,1,.28-.31,1.39,1.39,0,0,0,.55-1,.95.95,0,0,1,.34-.84,1.71,1.71,0,0,0,.18-.92C355.22,237.35,355.38,236.77,354.86,236.07Z"/><g class="cls-8"><path class="cls-17" d="M353.86,241c-.22-.16-.45-.33-.69-.48a9.53,9.53,0,0,0-1.53-.77,8.94,8.94,0,0,0-3.31-.64.11.11,0,1,0,0,.22,7.59,7.59,0,0,1,3.18.73,8,8,0,0,1,1.36.85,5.27,5.27,0,0,1,.57.49,4.64,4.64,0,0,0,.39.38c0-.1,0-.21,0-.31a1,1,0,0,1,0-.25.67.67,0,0,1,.09-.14Z"/><path class="cls-17" d="M354.83,239.39h0a8,8,0,0,0-.74-.68,8.17,8.17,0,0,0-1.66-1.05,8.92,8.92,0,0,0-3.77-.85.17.17,0,0,0,0,.34,7.68,7.68,0,0,1,3.63,1,9.18,9.18,0,0,1,1.5,1,8.47,8.47,0,0,1,.67.67,2.66,2.66,0,0,0,.23.24.68.68,0,0,0,0-.14,1.83,1.83,0,0,1,0-.33A.61.61,0,0,1,354.83,239.39Z"/><path class="cls-17" d="M355.2,237.55a7.9,7.9,0,0,0-2.39-1.74,6.4,6.4,0,0,0-3.42-.65c-.17,0-.18.29,0,.29a6.44,6.44,0,0,1,3.22.71,8,8,0,0,1,2.32,1.94c.06.07.16.22.28.35,0-.1,0-.19,0-.28s0-.41,0-.59Z"/></g><path class="cls-11" d="M394.63,202.3a7.31,7.31,0,0,0-4.29,1.4,7.18,7.18,0,0,0-2.91,5c-1.31,11.39-1.48,22.48,6.1,26.43a.3.3,0,0,1,.15.31l-.87,4.92a7.07,7.07,0,0,0,13.92,2.54l2.81-15a.26.26,0,0,1,.13-.19.33.33,0,0,1,.24,0c1.33.41,3.13.25,4.09-2.84a3.78,3.78,0,0,0-.22-3.28,5.22,5.22,0,0,0-3.35-1.94.27.27,0,0,1-.25-.31l.47-6.28a8.64,8.64,0,0,0-7-9.13L396,202.44A7.18,7.18,0,0,0,394.63,202.3Z"/><path class="cls-17" d="M396.32,224.78s.06.26-.32.44-1-.2-1.18-.82a5.8,5.8,0,0,1-.14-2.07l.13-2.46a34.38,34.38,0,0,1,.69-6.27c.17,0,.13,2.84-.09,6.31-.06.85-.12,1.66-.18,2.45a6.8,6.8,0,0,0,0,1.92c.09.51.47.76.71.72S396.28,224.75,396.32,224.78Z"/><path class="cls-17" d="M392.17,234.21a13.46,13.46,0,0,1,1.72.81,11,11,0,0,0,8.71.18,14.4,14.4,0,0,1,1.75-.74,4,4,0,0,1-1.57,1.13,9.8,9.8,0,0,1-9.08-.19A4,4,0,0,1,392.17,234.21Z"/><path class="cls-17" d="M394.67,227.36c.07-.06.35.21.89.45a3.11,3.11,0,0,0,2.17.16,3.16,3.16,0,0,0,1.68-1.4c.3-.5.37-.89.46-.88s.16.43-.07,1.07a3,3,0,0,1-4.45,1.42C394.79,227.8,394.61,227.4,394.67,227.36Z"/><path class="cls-17" d="M410.87,224.86c0-.09.31-.14.66-.35a.89.89,0,0,0,.39-.5c.05-.23,0-.44-.19-.5s-.29,0-.32.05l-.49-.3a.82.82,0,0,1,1-.31.84.84,0,0,1,.53.57.93.93,0,0,1,0,.66,1.15,1.15,0,0,1-.73.71C411.18,225.06,410.86,224.93,410.87,224.86Z"/><path class="cls-17" d="M401,213.19c-.06-.15.6-.51,1.45-.28s1.25.85,1.12,1-.61-.2-1.28-.37S401.07,213.35,401,213.19Z"/><path class="cls-17" d="M390,211.43c-.08-.14.58-.58,1.51-.49s1.51.62,1.41.75-.7-.09-1.46-.15S390,211.59,390,211.43Z"/><path d="M414.64,203.91a5.77,5.77,0,0,0-6.08-3.21c1.54-1,1.43-3.55.16-4.92a7.15,7.15,0,0,0-5.11-1.89,38.41,38.41,0,0,1-5.58-.19c-1.63-.3-3.22-1-4.86-.84s-3.21,2.06-2.32,3.45c-2.37-.35-4.92-.66-7,.48s-3.16,4.38-1.35,6a2.57,2.57,0,0,0-.82,3.49,4.17,4.17,0,0,0,3.37,1.86,6.65,6.65,0,0,0,1.34,0c.06.41.12.82.21,1.23.15.61.41,1.29,1,1.47a1.83,1.83,0,0,0,1.47-.4,19.22,19.22,0,0,0,4.16-3.63,12.49,12.49,0,0,0,11.66-1.52c1,4.89,2,10.69,5.58,14.16l.41.34a3.08,3.08,0,0,0,.48-.32c0,.29.06.23.09-.09,2.18-1.91,2.14-6.89,1.11-9.63A4.63,4.63,0,0,0,414.64,203.91Z"/><path class="cls-17" d="M401.91,218.3c-.34,0-.55-.45-.47-1s.41-.95.75-.94.56.45.48,1S402.25,218.31,401.91,218.3Z"/><path class="cls-17" d="M391.66,217c-.32,0-.52-.45-.45-1s.39-.95.71-.94.51.45.44,1S392,217,391.66,217Z"/><path class="cls-1" d="M263,352.15s-4.44.23-13.56-5.61-11-10.06-11-10.06,17.31-8.18,24.08-36.7-12.15-64.53-48.16-71.07S157.1,239,148.22,270.79s7.95,56.34,21.51,65.69,31.33,9.82,37.17,10.29a36,36,0,0,0,11.46-1.17s8.06,7.25,23.14,9S263,352.15,263,352.15Z"/><g class="cls-18"><path class="cls-6" d="M186,249.89h.22c0-.15.05-.31.08-.46Z"/><path class="cls-6" d="M209.36,252a9.59,9.59,0,0,0-6.78-4,25.69,25.69,0,0,0-8.32.64,50.27,50.27,0,0,1-8.06,1.28,47.12,47.12,0,0,0-.69,14.51,5.71,5.71,0,0,0-.77-.51,2.92,2.92,0,0,0-3.29.13,2.39,2.39,0,0,0-.66,2.15,3.68,3.68,0,0,0,1.16,2,5.5,5.5,0,0,0,4.38,1.31c.17.79.36,1.58.57,2.36a17.94,17.94,0,0,0,1.75,4.44,10.5,10.5,0,0,0,1.61,2c0,.66.07,1.33.08,2a18,18,0,0,1-.13,2.75,10.29,10.29,0,0,1-2.79,6.14,8.31,8.31,0,0,0,5.44,2.5c1.45.15,5.27,7.84,7.39,7.52.86-.13-.29-7.34.69-7.94s.95-1.75,1.09-2.75a48.18,48.18,0,0,0,.47-6.19h0c0-.43,0-.85,0-1.28v-.13a1.41,1.41,0,0,0,0-.2,14.72,14.72,0,0,0,7.41-8.3c1.49-3.86,1.74-8.08,1.7-12.22A14.57,14.57,0,0,0,209.36,252Z"/><path d="M216.88,248.25c-.84-.09-1.68-.3-2.52-.41-.55-.07-1.11-.13-1.67-.18a7,7,0,0,0,.79-.35c.73-.38,2.33-1.22,1.69-2.24-.75-1.19-2.51-1.91-3.79-2.28a20.21,20.21,0,0,0-5.25-.72,26.57,26.57,0,0,0-10.94,2.18,31.85,31.85,0,0,0-4.66,2.45c-.72.45-1.43.92-2.12,1.42-.14.11-.3.21-.44.33a14.78,14.78,0,0,0-.9-2.26c-.41-.94-.81-1.91-1.26-2.84a.4.4,0,0,0-.73.1,8.14,8.14,0,0,0-.13,2.65,7.71,7.71,0,0,0,.25,1.27,4.77,4.77,0,0,0,.27.63,6.59,6.59,0,0,0-1.34-.7,9.63,9.63,0,0,0-2.24-.6c-.28,0-.62.18-.51.5a6.48,6.48,0,0,0,2.25,3.14c-.08.36-.11.73-.16,1.07-.08.68-.13,1.36-.17,2.05a29.11,29.11,0,0,0,.12,4.38,27.6,27.6,0,0,0,.73,4.14,11.58,11.58,0,0,0,1.47,3.87c0,.06.29.09.34,0a10.29,10.29,0,0,0,1.62-3.71,28,28,0,0,0,1.09-4.4,29,29,0,0,0,.3-4.36c0-.72-.05-1.43-.13-2.14a17.45,17.45,0,0,0,4.94,1.87,58.64,58.64,0,0,0,7.64,1.62A30.37,30.37,0,0,0,209,255a16.37,16.37,0,0,0,3.47-.74,7,7,0,0,0,2.12-1.06c.28-.22.88-.76.83-1.17s-.74-.76-1-.94a7.72,7.72,0,0,0-1.57-.72,14.42,14.42,0,0,0,2-.56,8.84,8.84,0,0,0,2.19-1A.25.25,0,0,0,216.88,248.25Z"/><path class="cls-19" d="M256.63,280.42c-.34-.43-.92-.11-1.26.12a27.2,27.2,0,0,0-3,2.36c.41-.66.79-1.36,1.16-2a16.47,16.47,0,0,0,1.86-4c.11-.43.28-1.12-.14-1.43s-1,.17-1.36.47a39.66,39.66,0,0,0-3.63,4.91c.33-.7.93-2.13,1.27-2.81a13.93,13.93,0,0,0,1.57-4.32c0-.43.16-1.1-.34-1.33s-1.07.42-1.38.73c-1,1-3.4,6.44-3.52,6.65.19-.74,1.06-3.8,1.22-4.54a5,5,0,0,0,0-2.69c-.17-.42-.56-.83-1-.48a6.31,6.31,0,0,0-1.31,2.43c-.6,1.45-1.13,2.93-1.64,4.41-.63,1.84-1.2,3.69-1.69,5.57a16.53,16.53,0,0,0-1.84-2.09c-.48-.46-2.79-2.6-3.08-.88a3,3,0,0,0,.18,1.15c.15.56.32,1.11.51,1.66.32.9.81,1.76,1.2,2.7.81,2,2.11,3.51,1.13,5.74a.13.13,0,0,0,0,.06.11.11,0,0,0-.12.17,6.23,6.23,0,0,0,2.59,1.9,9.7,9.7,0,0,0,3.22.88c.27,0,.54,0,.81,0s.57.06.75-.1.13-.19.08-.26,0,0,0,0q.42-1.63.69-3.3c.09-.53.17-1.06.25-1.59l.52-.6c.41-.45.8-.92,1.19-1.39.82-1,1.61-2,2.4-3.08a23.87,23.87,0,0,0,2.2-3.29C256.41,281.73,257,280.87,256.63,280.42Z"/><path d="M250.52,294.75a.38.38,0,0,0-.56-.31l-.17-.05a14.46,14.46,0,0,1-8.22-3.15.35.35,0,0,0-.58.16,113.43,113.43,0,0,1-4.39,12.66,54.9,54.9,0,0,1-4.25,8.42c-.75-.8-1.65-1.5-2.42-2.25-1.15-1.11-2.25-2.26-3.33-3.44q-3.37-3.72-6.37-7.75c-1.65-2.2-2.94-4.78-5.58-5.92-3.21-1.39-6.62-2.45-9.92-3.62a.23.23,0,0,0-.18-.08,15,15,0,0,0-1.5.16c-.5.06-1,.13-1.51.21-.94.13-1.86.31-2.78.52a.33.33,0,0,0-.47.36,30.74,30.74,0,0,1,1,6.45c-.24-.79-.48-1.57-.73-2.35s-.46-1.36-.69-2a9.55,9.55,0,0,0-.74-1.88c0-.09-.05-.19-.17-.18a14.39,14.39,0,0,1-9.11-2.26.42.42,0,0,0-.42,0,92.19,92.19,0,0,1-9.47,6.19c-3,1.72-6.17,3.24-8.77,5.61a9.6,9.6,0,0,0-2.67,3.81,26.24,26.24,0,0,0-1.07,5.43q-.79,5.69-1.22,11.42c-.32,4.53-.51,9.08-.42,13.62a.49.49,0,0,0,.65.45,18.33,18.33,0,0,0,4.4,4.77,17.85,17.85,0,0,0,6.23,2.82.47.47,0,0,0,.41-.09.3.3,0,0,0,.36-.18,59.66,59.66,0,0,0,1.69-10.55c0,.86,0,1.71,0,2.57a50.7,50.7,0,0,0,.3,5.07c.09.75.19,1.51.32,2.26a5.06,5.06,0,0,0,.28,1.36.38.38,0,0,0,.16.31l.11.08.06.06.1.05c5,3.65,12,4.26,18,4.63a78.14,78.14,0,0,0,20.64-1.47c.08.2.15.4.24.59.19.42.76.1.69-.29-.34-1.91-.84-3.77-1.11-5.69s-.46-4-.58-6.05c-.24-3.86-.41-7.73-.61-11.59l-.22-4.15a50.25,50.25,0,0,0,6.73,4.64c3.48,2,7.39,3.88,11.5,3.3,3.62-.5,6.34-3.16,8.24-6.14a34.83,34.83,0,0,0,2.55-5.51c.85-2,1.61-4.13,2.31-6.22.8-2.38,1.71-4.73,2.29-7.18A26.12,26.12,0,0,0,250.52,294.75Z"/><path class="cls-7" d="M197,290.47a12,12,0,0,1-8.88-3.21.32.32,0,0,0-.57-.1,14.43,14.43,0,0,1-3.85,3.74,12.93,12.93,0,0,0,4.17,4.71,21.86,21.86,0,0,0,3.29,2,15.26,15.26,0,0,0,1.92.8c.61.21,1.26.34,1.85.58.8-2.69,1.62-5.38,2.38-8.08A.33.33,0,0,0,197,290.47Z"/><path class="cls-7" d="M204,297.23a12.86,12.86,0,0,0,2.77-4.49,27.54,27.54,0,0,0,.85-2.81,12.19,12.19,0,0,0,.26-1.34c-.39-.22-.78-.43-1.18-.63a20.62,20.62,0,0,0-2.75-1.13.36.36,0,0,0-.38.1,9.88,9.88,0,0,1-4.81,3.25c-.14,0-.65.17-.56.29,1.1,1.45,2.61,3,3.8,4.43l1.84,2.12Z"/></g><path class="cls-1" d="M557.23,336.11s6.31,3.74,17.3,3,14.26-3,14.26-3,8.19,20.34,41.62,21.51,58.45-22.21,58.68-57.51S665.94,245.4,636.25,244s-52.6,18-56.58,40a70.55,70.55,0,0,0,4.45,39.51A22.42,22.42,0,0,1,572,332.37,149.31,149.31,0,0,1,557.23,336.11Z"/><g class="cls-20"><path d="M662.33,288.85l0,0c-2-2.42-4.59-4.26-6.67-6.61a7.35,7.35,0,0,1-1.71-2.79,10.28,10.28,0,0,1,.28-4.76c.58-3,.7-6.32-.83-9a8.53,8.53,0,0,0-10-3.59,9.09,9.09,0,0,0-5.68,9.16,7.3,7.3,0,0,0-7.49,2.92c.7-1-2.75-2.27-3.26-2.43a31.57,31.57,0,0,0-8.9-1.35c-2.5,0-5.31.3-7.21,2.08-1.58,1.49-1.79,3.55.39,4.55a8.37,8.37,0,0,0,2.85.58,3.34,3.34,0,0,0,1.92,5.75,18.65,18.65,0,0,0-.13,12.23l3.65-10.73a2.3,2.3,0,0,1,.49-.91,2.06,2.06,0,0,1,.83-.43l3.91-1.34c.19,1.58,2.06,2.33,3.65,2.48a14.73,14.73,0,0,0,8.22-1.62c.51,2.14,1,4.41.37,6.51-.28.92-.77,1.76-1.14,2.65a10.35,10.35,0,0,0-.31,6.9c.9,2.94,3.15,5.7,2.56,8.71-.28,1.45-1.21,2.73-1.33,4.2a5,5,0,0,0,2.11,4.24,10.56,10.56,0,0,0,4.55,1.82,24.26,24.26,0,0,0,9.34-.05,9.36,9.36,0,0,0,4.75-2.15,4.3,4.3,0,0,0,1.12-4.81c-.89-1.77-3.39-2.87-3.17-4.84.13-1.17,1.22-2,2.23-2.58,2.68-1.61,5.75-3.18,6.86-6.11S664.3,291.27,662.33,288.85Z"/><path d="M654.12,325.08c-.43-3.38-1.64-7-5-8.44a6.45,6.45,0,0,0-4.81,0,40.28,40.28,0,0,0-5.77,2.69.39.39,0,0,0-.28.25c-2,5.41-6.13,10.55-11.63,12.61-2.68,1-7,1.35-8.12-2a9.7,9.7,0,0,1-.22-3.94,41.3,41.3,0,0,1,.79-5.2.28.28,0,0,0-.3-.32,4.12,4.12,0,0,0-4.92-2.37c-2.72.62-4.42,3-5.48,5.44-2.68,6.06-3.4,12.74-4.06,19.25-.2,1.93-.4,3.85-.5,5.78a17.75,17.75,0,0,0,.33,5.68.31.31,0,0,0,.47.17,12,12,0,0,0,3.85,2.24,39.17,39.17,0,0,0,5.28,1.71,86.63,86.63,0,0,0,10.85,1.87,45.15,45.15,0,0,0,11.14.1c1.86-.25,3.71-.6,5.56-.87a35.1,35.1,0,0,1,4.9-.28.49.49,0,0,0,.83.4,19.89,19.89,0,0,0,2.7-5.22q1.15-2.73,2.06-5.55a62.6,62.6,0,0,0,2.43-11.8A52.75,52.75,0,0,0,654.12,325.08Z"/><path class="cls-21" d="M645.85,294.55a3,3,0,0,0-1.49-.17,6,6,0,0,0-1.51.35c-.51.72-1,1.43-1.56,2.12a.19.19,0,0,1-.28.14l0,0a.24.24,0,0,1-.15-.13,6.83,6.83,0,0,1-1.62-2.75,33,33,0,0,1-1.45-4.34,35.06,35.06,0,0,1-.84-4.32c-.1-.75-.18-1.51-.22-2.28a1.48,1.48,0,0,1,0-.21,15.88,15.88,0,0,1-7.25,1.81,6.11,6.11,0,0,1-4.1-1.27,1.93,1.93,0,0,1-.63-1.46,12.84,12.84,0,0,1-6.83,1.68,76.4,76.4,0,0,0-2.11,10.21c-.68,4.6-1.19,9.5.74,13.73a12,12,0,0,0,5.56,5.81,10.92,10.92,0,0,0,2.95.94c0,.67-.08,1.34-.16,2-.05.49-.12,1-.19,1.47-.18,1.1-.52,2.34-1.53,2.82a3.71,3.71,0,0,1-1.59.24H616c-.62,2.68-1.23,5.48-.56,8.14a9,9,0,0,0,7.64,6.57c2.68.25,5.32-.74,7.75-1.91a21.09,21.09,0,0,0,3.5-2.05c3.52-2.65,5.53-6.88,6.57-11.16.09-.36.13-.81-.16-1a1,1,0,0,0-.6-.1c-2.11.16-4.27.82-6.3.24a1.05,1.05,0,0,1-.46-.23,1.11,1.11,0,0,1-.2-.76l0-3.7h0l0-2.49.77-.5a17.8,17.8,0,0,0,3.25-2.61,13.89,13.89,0,0,0,3.27-7.24c.11-.65.18-1.31.23-2a3.49,3.49,0,0,0,.34.15,5.12,5.12,0,0,0,2.52.07,5.26,5.26,0,0,0,2.52-1.13,3.34,3.34,0,0,0,1.21-2.43A2.44,2.44,0,0,0,645.85,294.55Z"/></g></g></g></svg>