<svg id="Capa_1" data-name="Capa 1" xmlns="http://www.w3.org/2000/svg" xmlns:xlink="http://www.w3.org/1999/xlink" viewBox="0 0 582.79 418.09"><defs><style>.cls-1{font-size:200.43px;font-family:PTMono-Regular, PT Mono;}.cls-2{fill:url(#Degradado_sin_nombre_35);}.cls-3,.cls-6,.cls-7{fill:#fff;}.cls-4,.cls-5{fill:none;}.cls-4,.cls-5,.cls-7{stroke:#1d1d1b;}.cls-4{stroke-linecap:round;stroke-linejoin:round;}.cls-5,.cls-6,.cls-7,.cls-8{stroke-miterlimit:10;}.cls-6{stroke:#000;}.cls-8{stroke:#fff;stroke-width:0.75px;}</style><linearGradient id="Degradado_sin_nombre_35" x1="143.98" y1="209.04" x2="520.97" y2="209.04" gradientUnits="userSpaceOnUse"><stop offset="0" stop-color="#fc4b44"/><stop offset="0.5" stop-color="#62059e"/><stop offset="1" stop-color="#00d2b8"/></linearGradient></defs><text class="cls-1" transform="translate(61.82 311.89)">7</text><path class="cls-2" d="M227.89,82.68c-13.49,12.49-25.55,26.56-37,41-13.64,17.23-26.58,35.24-35.57,55.29-24.23,54-9.42,141.11,41.9,175.94,22,14.93,49.14,20.15,75.63,22.39,42.39,3.59,85.1.44,127.21-5.58,38.43-5.5,80.09-15.55,103.26-46.69,17.1-23,20.68-53.91,15.34-82s-18.73-54-33.11-78.82c-18.8-32.4-40-64.12-68.72-88.18s-66-39.89-103.26-36.16c-25.34,2.54-49.23,13.9-69.54,29.26C238.43,73.34,233.05,77.89,227.89,82.68Z"/><path class="cls-3" d="M395.57,297.51c5.19,37.17-28.39,45.62-28.39,45.62-27.37,18.61-73.7,6-73.7,6l-58.33-26.34S216.47,314.55,223,288s11.08-104.59,11.08-104.59l1.89.41,33.66,7.28,42.83,9.28,29.14,6.31,19.33-8.47,18.34-8.06,1.58-.68Z"/><path class="cls-3" d="M389.62,103.51c.43,5.24-.73,10.51-2,15.63-1.19,4.91-2.43,9.79-3.76,14.65l-4-1.1a13,13,0,0,0-4.91-8.35,17.9,17.9,0,0,0-9.08-3.62,15.78,15.78,0,0,0-6.8.54l-5.15-2.48A162.4,162.4,0,0,1,371.6,98.62c3.35-3.2,7.87-6.46,12.21-4.88C387.58,95.1,389.3,99.5,389.62,103.51Z"/><path class="cls-3" d="M333.35,152.32c1.58-3.06,3.21-6.1,4.91-9.09,1.77-3.18,3.61-6.33,5.53-9.42.95-1.55,1.95-3.11,2.94-4.64,2.31-3.54,4.71-7,7.21-10.39l5.15,2.48a10.55,10.55,0,0,0-1.41.55,176.72,176.72,0,0,0,22.2,10.88l4,1.1q-6.12,22.14-14.4,43.56c-2.72,7-5.59,13.94-8.63,20.81l.05.1-19.33,8.47-29.14-6.31.25-1.07a33.4,33.4,0,0,1,3-9.3c.41-.92.82-1.87,1.24-2.79v0c3.15-7.16,6.38-14.35,9.76-21.44.17-.41.36-.8.56-1.19Q330.2,158.41,333.35,152.32Zm37.11-2.51a13.08,13.08,0,0,0-5.78-7.77,18.13,18.13,0,0,0-9.42-2.62,14.7,14.7,0,0,0-8,2A180.12,180.12,0,0,0,370.46,149.81ZM358.22,171a13.22,13.22,0,0,0-5.76-7.77,18.17,18.17,0,0,0-9.44-2.62,14.69,14.69,0,0,0-8,2A175.39,175.39,0,0,0,358.22,171ZM348,197.17a13,13,0,0,0-6.36-7.29,17.94,17.94,0,0,0-9.59-1.87,14.53,14.53,0,0,0-7.87,2.6A178.41,178.41,0,0,0,348,197.17Z"/><path class="cls-3" d="M379.25,190.2l-18.34,8.06-.05-.1c3-6.87,5.91-13.79,8.63-20.81C369.49,177.35,377,180.46,379.25,190.2Z"/><path class="cls-3" d="M375,124.34a13,13,0,0,1,4.91,8.35,176.72,176.72,0,0,1-22.2-10.88,10.55,10.55,0,0,1,1.41-.55,15.78,15.78,0,0,1,6.8-.54A17.9,17.9,0,0,1,375,124.34Z"/><path class="cls-3" d="M364.68,142a13.08,13.08,0,0,1,5.78,7.77,180.12,180.12,0,0,1-23.24-8.42,14.7,14.7,0,0,1,8-2A18.13,18.13,0,0,1,364.68,142Z"/><path class="cls-3" d="M354.24,91.12c-1-.15-2.07-.32-3.11-.46-3.65-.56-7.56-1.09-10.93.44A14.37,14.37,0,0,0,335.44,95a26.94,26.94,0,0,0-4.44,7.53l.12.66a13.77,13.77,0,0,0-4.47,1.57A23.5,23.5,0,0,0,321,110a11.63,11.63,0,0,0-.78.93l-.34-.27a23.34,23.34,0,0,1,.53-6,75.75,75.75,0,0,1,4.33-11.47A23.39,23.39,0,0,1,328,88.35a11.62,11.62,0,0,1,4.86-3.23,13.69,13.69,0,0,1,4.86-.51A29.3,29.3,0,0,1,351.9,89,7,7,0,0,1,354.24,91.12Z"/><path class="cls-3" d="M352.46,163.24a13.22,13.22,0,0,1,5.76,7.77,175.39,175.39,0,0,1-23.22-8.4,14.69,14.69,0,0,1,8-2A18.17,18.17,0,0,1,352.46,163.24Z"/><path class="cls-3" d="M348.16,104.7a25,25,0,0,0-12.6,3.1,18.29,18.29,0,0,0-8.35,9.79,30.72,30.72,0,0,1,9.32-2.91,5,5,0,0,1,3.28.29,5.08,5.08,0,0,1,1.72,1.87,33.72,33.72,0,0,1,4.67,12l.53.36c-1,1.53-2,3.09-2.94,4.64l-.22-.14a42,42,0,0,0-6.82-6.71,5.84,5.84,0,0,0-3.69-1.6,6,6,0,0,0-3.57,2c-1.48,1.31-3,2.65-4.44,4l0,.08a26,26,0,0,0-3.62-1.24c-.26-.07-.51-.12-.75-.2a20.82,20.82,0,0,0-3.71-.58,33.21,33.21,0,0,0-7.34.22,20.52,20.52,0,0,0-2.26.44l-.17-.85c-2.33-2.53-3.57-5.83-5.41-8.72s-4.76-5.54-8.19-5.37a12.51,12.51,0,0,0-3.44.83l-6.41,2.21c2.74-2.45,4.59-6,7.84-7.8a18.09,18.09,0,0,1,7.36-1.75,32.68,32.68,0,0,1,4-.12,11.12,11.12,0,0,1,3.18.66,7.43,7.43,0,0,1,1.11.51,21,21,0,0,1,4.16,3.3c2,1.92,4.12,4.08,4.54,6.85.07-3.38,2.13-6.27,4.32-8.86A11.63,11.63,0,0,1,321,110a23.5,23.5,0,0,1,5.68-5.27,13.77,13.77,0,0,1,4.47-1.57,38.4,38.4,0,0,1,8-.34C342.21,102.92,345.49,103,348.16,104.7Z"/><path class="cls-3" d="M341.68,189.88a13,13,0,0,1,6.36,7.29,178.41,178.41,0,0,1-23.82-6.56,14.53,14.53,0,0,1,7.87-2.6A17.94,17.94,0,0,1,341.68,189.88Z"/><path class="cls-3" d="M325.92,139.25a49.85,49.85,0,0,1-4.59-8.81l.07-.27a27.46,27.46,0,0,1,16.86,13.06c-1.7,3-3.33,6-4.91,9.09a37.13,37.13,0,0,0-1.77-3.84C329.9,145.3,327.86,142.31,325.92,139.25Z"/><path class="cls-3" d="M331.58,148.48a37.13,37.13,0,0,1,1.77,3.84q-3.14,6.08-6.09,12.28l-.37-.17a52.38,52.38,0,0,0-4.25-10.8C325.6,151.88,328.57,150.13,331.58,148.48Z"/><path class="cls-3" d="M329.34,75a16.92,16.92,0,0,1,4.62-.76,30.28,30.28,0,0,0-6,14l.07.07a23.39,23.39,0,0,0-3.27,4.88,75.75,75.75,0,0,0-4.33,11.47,23.34,23.34,0,0,0-.53,6,27.35,27.35,0,0,0-1.82-4.06c-2.82-5.44-5.83-11.12-10.78-14.66l.26-.39c.51-2.43-.53-4.88-1.53-7.14-2.69-6-5.36-12-8.06-18,2.89,2.29,6.46,3.62,9.25,6a24.84,24.84,0,0,1,4,4.74c3.43,5,6.22,10.51,6.83,16.48a23.55,23.55,0,0,0,2-5.87,29.4,29.4,0,0,1,.78-3.52A14.88,14.88,0,0,1,323,80.51C324.63,78.2,326.65,76,329.34,75Z"/><path class="cls-3" d="M325.92,139.25c1.94,3.06,4,6.05,5.66,9.23-3,1.65-6,3.4-8.94,5.15-1.53-3.06-3.25-6-5.05-9,1.46-1,2.89-2,4.37-2.94C323.25,140.8,324.59,140,325.92,139.25Z"/><path class="cls-3" d="M326.89,164.43l.37.17c-.2.39-.39.78-.56,1.19l-.08,0a34.41,34.41,0,0,0-13.35-.32l0-.31c-.66-1.53-1.34-3.06-2-4.59,2.14-1.36,4.3-2.67,6.46-4,1.15-.68,2.29-1.34,3.4-2,.54-.31,1.05-.63,1.58-.94A52.38,52.38,0,0,1,326.89,164.43Z"/><path class="cls-3" d="M326.62,165.77l.08,0c-3.38,7.09-6.61,14.28-9.76,21.44-.59-10.34-8.82-14.81-13.29-16.48.27-.39,2.84-4,9.62-5.3A34.41,34.41,0,0,1,326.62,165.77Z"/><path class="cls-3" d="M325.92,139.25c-1.33.75-2.67,1.55-4,2.4-1.48,1-2.91,2-4.37,2.94-1.8-3.11-3.64-6.19-5.34-9.37a43,43,0,0,1,8.35-5.08l0-.17c.24.08.49.13.75.2l-.07.27A49.85,49.85,0,0,0,325.92,139.25Z"/><path class="cls-3" d="M322.64,153.63c-.53.31-1,.63-1.58.94-1.11.68-2.25,1.34-3.4,2-2.16,1.29-4.32,2.6-6.46,4-1.38-3.11-2.76-6.2-4.22-9.28.56-.41,1.12-.82,1.7-1.21,2-1.41,4.27-2.53,6.39-3.84.85-.51,1.7-1.07,2.52-1.63C319.39,147.58,321.11,150.57,322.64,153.63Z"/><path class="cls-3" d="M320.65,130l0,.17a43,43,0,0,0-8.35,5.08c-.92-1.75-1.8-3.52-2.6-5.34l0-.27a33.21,33.21,0,0,1,7.34-.22A20.82,20.82,0,0,1,320.65,130Z"/><path class="cls-3" d="M319.85,110.67l.34.27c-2.19,2.59-4.25,5.48-4.32,8.86-.42-2.77-2.5-4.93-4.54-6.85a21,21,0,0,0-4.16-3.3l.22-.41a23.41,23.41,0,0,0-1.7-7,10,10,0,0,0-4.88-5.1,3.06,3.06,0,0,0-.48-.17l0-.1c-2-2.09-4.71-3.33-7.38-4.49l-10.15-4.52a76.31,76.31,0,0,1,12.28-.14,25.32,25.32,0,0,1,11.56,3.78,7.16,7.16,0,0,1,.59.42c4.95,3.54,8,9.22,10.78,14.66A27.35,27.35,0,0,1,319.85,110.67Z"/><path class="cls-3" d="M303.65,170.75c4.47,1.67,12.7,6.14,13.29,16.48v0c-.42.92-.83,1.87-1.24,2.79a33.4,33.4,0,0,0-3,9.3l-.25,1.07-42.83-9.28s-1.7-13.25,10.24-19.18a25.59,25.59,0,0,1,6.76-2.16,42.13,42.13,0,0,1,9.95-.56l.37.12-.81,2.45,2.12,1.53,2.18-5.46.37.15c1.14-.93,3.11-2.33,4.25-3.21,2-1.53,4.08-2.94,6.16-4.27.68,1.53,1.36,3.06,2,4.59l0,.31C306.49,166.79,303.92,170.36,303.65,170.75Z"/><path class="cls-3" d="M317.59,144.59c-.82.56-1.67,1.12-2.52,1.63-2.12,1.31-4.35,2.43-6.39,3.84-.58.39-1.14.8-1.7,1.21-.39-.8-.78-1.63-1.17-2.43-1.19-2.45-2.38-4.93-3.71-7.33a22.67,22.67,0,0,1,1.92-1.26c1.11-.68,2.28-1.24,3.42-1.87a53.13,53.13,0,0,0,4.81-3.16C314,138.4,315.79,141.48,317.59,144.59Z"/><path class="cls-3" d="M309.65,129.88c.8,1.82,1.68,3.59,2.6,5.34a53.13,53.13,0,0,1-4.81,3.16c-1.14.63-2.31,1.19-3.42,1.87a22.67,22.67,0,0,0-1.92,1.26,2.7,2.7,0,0,0-.17-.34,26.25,26.25,0,0,1-3.11-7.58l-.05-.07a26.17,26.17,0,0,1,8.57-3.47,20.52,20.52,0,0,1,2.26-.44Z"/><path class="cls-3" d="M311.2,160.55c-2.08,1.33-4.17,2.74-6.16,4.27-1.14.88-3.11,2.28-4.25,3.21l-.37-.15,1.82-4.59-2.59-.85.26-.8c-.6-1-1.19-2.09-1.75-3.13l5.64-4.69c1-.87,2.09-1.72,3.18-2.55C308.44,154.35,309.82,157.44,311.2,160.55Z"/><path class="cls-3" d="M307.39,109.24l-.22.41a7.43,7.43,0,0,0-1.11-.51,11.12,11.12,0,0,0-3.18-.66l0-.14c-2.72-3.77-7.65-5.44-12.26-5.25s-9,2-13.19,4.08c3.25-4.76,8.6-7.67,14.06-9.52,2.84-.94,6-1.65,8.82-.65a3.06,3.06,0,0,1,.48.17,10,10,0,0,1,4.88,5.1A23.41,23.41,0,0,1,307.39,109.24Z"/><path class="cls-3" d="M305.81,148.84c.39.8.78,1.63,1.17,2.43-1.09.83-2.14,1.68-3.18,2.55l-5.64,4.69c-1.72-3.09-3.35-6.19-4.9-9.35.85-.73,1.7-1.48,2.55-2.24a73.51,73.51,0,0,1,6.29-5.41C303.43,143.91,304.62,146.39,305.81,148.84Z"/><polygon class="cls-3" points="302.24 163.29 300.42 167.88 298.24 173.34 296.13 171.81 296.93 169.36 299.23 162.3 299.65 162.44 302.24 163.29"/><path class="cls-3" d="M301.93,141.17a2.7,2.7,0,0,1,.17.34,73.51,73.51,0,0,0-6.29,5.41c-.85.76-1.7,1.51-2.55,2.24-1.19-2.33-2.33-4.71-3.42-7.09a30.88,30.88,0,0,1,8.93-8.55l.05.07A26.25,26.25,0,0,0,301.93,141.17Z"/><path class="cls-3" d="M293.26,149.16c1.55,3.16,3.18,6.26,4.9,9.35.56,1,1.15,2.09,1.75,3.13l-.26.8-.42-.14-2.3,7.06-.37-.12a42.13,42.13,0,0,0-9.95.56l-.13-.85c-.17-.61-.31-1.21-.48-1.82a57.68,57.68,0,0,0-.54-17.49l.39-.07a32,32,0,0,1,4-7.5C290.93,144.45,292.07,146.83,293.26,149.16Z"/><path class="cls-3" d="M286.48,169l.13.85a25.59,25.59,0,0,0-6.76,2.16l0-.05s-6.12-15.22-24.26-9.59l-.1-.34s-4.68-14.81,7-18.72a15.24,15.24,0,0,1,2-.54C278,140,281.68,150.81,286,167.13,286.17,167.74,286.31,168.34,286.48,169Z"/><path class="cls-3" d="M285.46,149.64a57.68,57.68,0,0,1,.54,17.49c-4.32-16.32-8-27.18-21.59-24.41a15.24,15.24,0,0,0-2,.54l-.09-.27a31.8,31.8,0,0,0-9-8.21l.17-.29s6.12-11.92,5.93-20.11l.43-14.42h13.65l.24,7.33.2,6.63s.31,11.54,6,20.86A43.21,43.21,0,0,1,285.46,149.64Z"/><path class="cls-3" d="M279.83,171.91l0,.05c-11.94,5.93-10.24,19.18-10.24,19.18L236,183.86l.15-.73s-.51-9.62,10.7-16.63v0a32.18,32.18,0,0,1,2.87-1.6l.34-.12,1,2.91,3.45-.53-1.22-4.06.39-.12c.66-.24,1.29-.46,1.92-.63C273.71,156.69,279.83,171.91,279.83,171.91Z"/><polygon class="cls-3" points="273.35 93.38 273.54 99.96 259.89 99.96 260.09 93.38 273.35 93.38"/><path class="cls-3" d="M262.35,143l.09.27c-11.65,3.91-7,18.72-7,18.72l.1.34c-.63.17-1.26.39-1.92.63l-.39.12-1.89-6.43-3.81,1.21,2.45,6.9-.34.12a32.18,32.18,0,0,0-2.87,1.6c-.07-.87-1.18-17.7,4.76-27.07l.39-.9Z"/><path class="cls-3" d="M216.21,146.9l-16,11.39s-5.63,1.63-.65-4.79,13.79-12.91,22.61-16.9c0,0-12.65-.87-8.23-4s31.83-.46,31.83-.46a17.34,17.34,0,0,1,7.6,2.64,31.8,31.8,0,0,1,9,8.21L252,138.5l-.87-.37s-4.76,6.37-10.37,6.71c-5.12.31.1-5.47,1.07-6.51l-12,10.15s-2.89,2.84-6.49-1.29l-1.33,23.75s-.29,4.81-3.81,1.85l-1.32-1.12-4.46,39.56s-1,7-4.11-.95-4.08-22.83-.07-36.91c-.46,1.29-10.34,27.71-12,11.44S215,148.11,216.21,146.9Z"/><polygon class="cls-3" points="253.26 163.07 254.48 167.13 251.03 167.66 250.01 164.75 247.56 157.85 251.37 156.64 253.26 163.07"/><path class="cls-4" d="M360.91,198.26l-19.33,8.47-29.14-6.31-42.83-9.28L236,183.86l-1.89-.41S229.49,261.54,223,288s12.17,34.75,12.17,34.75l58.33,26.34s46.33,12.61,73.7-6c0,0,33.58-8.45,28.39-45.62l-14.74-108-1.58.68Z"/><line class="cls-4" x1="342.58" y1="216.25" x2="344.01" y2="229.85"/><path class="cls-5" d="M344.52,239.88q.44,23.18.92,46.33a150.53,150.53,0,0,0,.93,16.59c.77,5.88,2.23,11.61,3.06,17.46a84.43,84.43,0,0,1,0,24"/><path class="cls-4" d="M316.94,187.23c3.15-7.16,6.38-14.35,9.76-21.44.17-.41.36-.8.56-1.19q2.94-6.19,6.09-12.28c1.58-3.06,3.21-6.1,4.91-9.09,1.77-3.18,3.61-6.33,5.53-9.42.95-1.55,1.95-3.11,2.94-4.64,2.31-3.54,4.71-7,7.21-10.39A162.4,162.4,0,0,1,371.6,98.62c3.35-3.2,7.87-6.46,12.21-4.88,3.77,1.36,5.49,5.76,5.81,9.77.43,5.24-.73,10.51-2,15.63-1.19,4.91-2.43,9.79-3.76,14.65q-6.12,22.14-14.4,43.56c-2.72,7-5.59,13.94-8.63,20.81"/><path class="cls-4" d="M312.69,199.35a33.4,33.4,0,0,1,3-9.3c.41-.92.82-1.87,1.24-2.79"/><path class="cls-4" d="M357.68,121.81a176.72,176.72,0,0,0,22.2,10.88,13,13,0,0,0-4.91-8.35,17.9,17.9,0,0,0-9.08-3.62,15.78,15.78,0,0,0-6.8.54,10.55,10.55,0,0,0-1.41.55"/><path class="cls-4" d="M347.22,141.39a180.12,180.12,0,0,0,23.24,8.42,13.08,13.08,0,0,0-5.78-7.77,18.13,18.13,0,0,0-9.42-2.62A14.7,14.7,0,0,0,347.22,141.39Z"/><path class="cls-4" d="M335,162.61a175.39,175.39,0,0,0,23.22,8.4,13.22,13.22,0,0,0-5.76-7.77,18.17,18.17,0,0,0-9.44-2.62A14.69,14.69,0,0,0,335,162.61Z"/><path class="cls-4" d="M324.22,190.61A178.41,178.41,0,0,0,348,197.17a13,13,0,0,0-6.36-7.29,17.94,17.94,0,0,0-9.59-1.87A14.53,14.53,0,0,0,324.22,190.61Z"/><path class="cls-4" d="M269.61,191.14s-1.7-13.25,10.24-19.18a25.59,25.59,0,0,1,6.76-2.16,42.13,42.13,0,0,1,9.95-.56"/><path class="cls-4" d="M300.79,169.9a18.24,18.24,0,0,1,2.86.85c4.47,1.67,12.7,6.14,13.29,16.48v0"/><polygon class="cls-4" points="296.93 169.36 296.13 171.81 298.24 173.34 300.42 167.88 302.24 163.29 299.65 162.44 299.23 162.3 296.93 169.36"/><path class="cls-4" d="M216.26,146.85l0,.05-16,11.39s-5.63,1.63-.65-4.79,13.79-12.91,22.61-16.9c0,0-12.65-.87-8.23-4s31.83-.46,31.83-.46a17.34,17.34,0,0,1,7.6,2.64,31.8,31.8,0,0,1,9,8.21L252,138.5l-.87-.37s-4.76,6.37-10.37,6.71c-5.12.31.1-5.47,1.07-6.51"/><path class="cls-4" d="M208.19,173.32s0,0,0,.05c-.46,1.29-10.34,27.71-12,11.44s18.82-36.7,20.06-37.91"/><path class="cls-4" d="M241.92,138.18l-.14.15-12,10.15s-2.89,2.84-6.49-1.29l-1.33,23.75s-.29,4.81-3.81,1.85l-1.32-1.12-4.46,39.56s-1,7-4.11-.95-4.08-22.83-.07-36.91"/><path class="cls-4" d="M255.47,162s-4.68-14.81,7-18.72a15.24,15.24,0,0,1,2-.54C278,140,281.68,150.81,286,167.13c.17.61.31,1.21.48,1.82"/><path class="cls-4" d="M246.8,166.47a32.18,32.18,0,0,1,2.87-1.6"/><path class="cls-4" d="M236.1,183.13s-.51-9.62,10.7-16.63"/><polygon class="cls-4" points="250.01 164.75 251.03 167.66 254.48 167.13 253.26 163.07 251.37 156.64 247.56 157.85 250.01 164.75"/><path class="cls-4" d="M279.83,171.91s-6.12-15.22-24.26-9.59c-.63.17-1.26.39-1.92.63"/><path class="cls-4" d="M246.8,166.5v0c-.07-.87-1.18-17.7,4.76-27.07"/><path class="cls-4" d="M253.53,134.49s6.12-11.92,5.93-20.11l.43-14.42.2-6.58h13.26l.19,6.58.24,7.33.2,6.63s.31,11.54,6,20.86a43.21,43.21,0,0,1,5.44,14.86,57.68,57.68,0,0,1,.54,17.49"/><line class="cls-4" x1="259.89" y1="99.96" x2="273.54" y2="99.96"/><path class="cls-4" d="M369.49,177.35s7.52,3.11,9.76,12.85"/><path class="cls-4" d="M285.85,149.57a32,32,0,0,1,4-7.5,30.88,30.88,0,0,1,8.93-8.55,26.17,26.17,0,0,1,8.57-3.47,20.52,20.52,0,0,1,2.26-.44,33.21,33.21,0,0,1,7.34-.22,20.82,20.82,0,0,1,3.71.58c.24.08.49.13.75.2a27.46,27.46,0,0,1,16.86,13.06"/><path class="cls-4" d="M303.63,170.77l0,0c.27-.39,2.84-4,9.62-5.3a34.41,34.41,0,0,1,13.35.32"/><path class="cls-4" d="M283.72,118.15l6.41-2.21a12.51,12.51,0,0,1,3.44-.83c3.43-.17,6.34,2.5,8.19,5.37s3.08,6.19,5.41,8.72"/><path class="cls-4" d="M283.59,118.27l.13-.12c2.74-2.45,4.59-6,7.84-7.8a18.09,18.09,0,0,1,7.36-1.75,32.68,32.68,0,0,1,4-.12,11.12,11.12,0,0,1,3.18.66,7.43,7.43,0,0,1,1.11.51,21,21,0,0,1,4.16,3.3c2,1.92,4.12,4.08,4.54,6.85.07-3.38,2.13-6.27,4.32-8.86A11.63,11.63,0,0,1,321,110a23.5,23.5,0,0,1,5.68-5.27,13.77,13.77,0,0,1,4.47-1.57,38.4,38.4,0,0,1,8-.34c3.13.09,6.41.21,9.08,1.87a25,25,0,0,0-12.6,3.1,18.29,18.29,0,0,0-8.35,9.79,30.72,30.72,0,0,1,9.32-2.91,5,5,0,0,1,3.28.29,5.08,5.08,0,0,1,1.72,1.87,33.72,33.72,0,0,1,4.67,12"/><path class="cls-4" d="M325.05,131.33c1.48-1.33,3-2.67,4.44-4a6,6,0,0,1,3.57-2,5.84,5.84,0,0,1,3.69,1.6,42,42,0,0,1,6.82,6.71"/><path class="cls-4" d="M302.9,108.34c-2.72-3.77-7.65-5.44-12.26-5.25s-9,2-13.19,4.08c3.25-4.76,8.6-7.67,14.06-9.52,2.84-.94,6-1.65,8.82-.65a3.06,3.06,0,0,1,.48.17,10,10,0,0,1,4.88,5.1,23.41,23.41,0,0,1,1.7,7"/><path class="cls-4" d="M300.35,96.9c-2-2.09-4.71-3.33-7.38-4.49l-10.15-4.52a76.31,76.31,0,0,1,12.28-.14,25.32,25.32,0,0,1,11.56,3.78,7.16,7.16,0,0,1,.59.42c4.95,3.54,8,9.22,10.78,14.66a27.35,27.35,0,0,1,1.82,4.06"/><path class="cls-4" d="M307.51,91.56c.51-2.43-.53-4.88-1.53-7.14-2.69-6-5.36-12-8.06-18,2.89,2.29,6.46,3.62,9.25,6a24.84,24.84,0,0,1,4,4.74c3.43,5,6.22,10.51,6.83,16.48a23.55,23.55,0,0,0,2-5.87,29.4,29.4,0,0,1,.78-3.52A14.88,14.88,0,0,1,323,80.51c1.67-2.31,3.69-4.54,6.38-5.51a16.92,16.92,0,0,1,4.62-.76,30.28,30.28,0,0,0-6,14"/><path class="cls-4" d="M319.85,110.67a23.34,23.34,0,0,1,.53-6,75.75,75.75,0,0,1,4.33-11.47A23.39,23.39,0,0,1,328,88.35a11.62,11.62,0,0,1,4.86-3.23,13.69,13.69,0,0,1,4.86-.51A29.3,29.3,0,0,1,351.9,89a7,7,0,0,1,2.34,2.14c-1-.15-2.07-.32-3.11-.46-3.65-.56-7.56-1.09-10.93.44A14.37,14.37,0,0,0,335.44,95a26.94,26.94,0,0,0-4.44,7.53"/><path class="cls-4" d="M309.65,129.88c.8,1.82,1.68,3.59,2.6,5.34,1.7,3.18,3.54,6.26,5.34,9.37s3.52,6,5.05,9a52.38,52.38,0,0,1,4.25,10.8"/><path class="cls-4" d="M298.82,133.59a26.25,26.25,0,0,0,3.11,7.58,2.7,2.7,0,0,1,.17.34c1.33,2.4,2.52,4.88,3.71,7.33.39.8.78,1.63,1.17,2.43,1.46,3.08,2.84,6.17,4.22,9.28.68,1.53,1.36,3.06,2,4.59"/><path class="cls-4" d="M289.81,142s0,0,0,.08c1.09,2.38,2.23,4.76,3.42,7.09,1.55,3.16,3.18,6.26,4.9,9.35.56,1,1.15,2.09,1.75,3.13"/><path class="cls-4" d="M287.26,167.93a36.62,36.62,0,0,1,3.94-3.64c2.33-1.92,4.63-3.84,7-5.78l5.64-4.69c1-.87,2.09-1.72,3.18-2.55.56-.41,1.12-.82,1.7-1.21,2-1.41,4.27-2.53,6.39-3.84.85-.51,1.7-1.07,2.52-1.63,1.46-1,2.89-2,4.37-2.94,1.29-.85,2.63-1.65,4-2.4a59,59,0,0,1,6.17-3.06"/><path class="cls-4" d="M286.78,154.43c2.23-1.7,4.39-3.45,6.48-5.27.85-.73,1.7-1.48,2.55-2.24a73.51,73.51,0,0,1,6.29-5.41,22.67,22.67,0,0,1,1.92-1.26c1.11-.68,2.28-1.24,3.42-1.87a53.13,53.13,0,0,0,4.81-3.16,43,43,0,0,1,8.35-5.08"/><path class="cls-4" d="M321.33,130.44a49.85,49.85,0,0,0,4.59,8.81c1.94,3.06,4,6.05,5.66,9.23a37.13,37.13,0,0,1,1.77,3.84s0,0,0,0"/><path class="cls-4" d="M300.79,168c1.14-.93,3.11-2.33,4.25-3.21,2-1.53,4.08-2.94,6.16-4.27s4.3-2.67,6.46-4c1.15-.68,2.29-1.34,3.4-2,.54-.31,1.05-.63,1.58-.94,3-1.75,5.93-3.5,8.94-5.15,1.7-1,3.42-1.92,5.17-2.79"/><path class="cls-6" d="M376.71,244.27l17.08,75.33a9.15,9.15,0,0,0,10.94,6.89l69.79-15.82a9.15,9.15,0,0,0,6.89-10.94L464.32,224.4a9,9,0,0,0-2.27-4.25,11.28,11.28,0,0,0-2.94-2.76L423,192.71a15.71,15.71,0,0,0-22.74,5.16L378.38,235.7a11.28,11.28,0,0,0-1.45,3.76A9,9,0,0,0,376.71,244.27Zm30.13-26a9.78,9.78,0,1,1,11.71,7.37A9.79,9.79,0,0,1,406.84,218.27Z"/><line class="cls-7" x1="403.81" y1="311.89" x2="469.41" y2="297.7"/><line class="cls-7" x1="390.97" y1="250.37" x2="456.57" y2="236.18"/><path class="cls-5" d="M402.43,195s-15.72-13.88-24.69-3.22c-5.94,7.07,7.95,14.66,13.2,17.2a77.73,77.73,0,0,0,10.13,4.15,25.13,25.13,0,0,0,8.6,1.63,5.45,5.45,0,0,0,4.53-2.35c1-1.88-.21-3.89-1.26-5.48"/><path class="cls-8" d="M419.86,275.17a9.52,9.52,0,0,1-5.14-.31,10.13,10.13,0,0,1-4.23-2.78,9.46,9.46,0,0,1-2.3-4.62,9.28,9.28,0,0,1,.35-5.12,10.57,10.57,0,0,1,2.83-4.25,9.71,9.71,0,0,1,9.65-2,10.16,10.16,0,0,1,4.23,2.78,9.92,9.92,0,0,1,2,9.77,10.18,10.18,0,0,1-2.79,4.21A9.53,9.53,0,0,1,419.86,275.17Zm-.47-2.26a7.16,7.16,0,0,0,3.51-1.77,7.79,7.79,0,0,0,2.15-3.26,7.14,7.14,0,0,0,.25-3.92,7.24,7.24,0,0,0-1.76-3.5,7.88,7.88,0,0,0-3.26-2.16,7.47,7.47,0,0,0-7.42,1.52,8,8,0,0,0-2.15,3.26,7.15,7.15,0,0,0-.26,3.92,7.26,7.26,0,0,0,1.78,3.51,8,8,0,0,0,3.26,2.15A7.17,7.17,0,0,0,419.39,272.91Zm-1.87,23.77-1.94-1.29,29.66-44.75,1.93,1.23Zm29.34-5.16a9.45,9.45,0,0,1-5.12-.31,10.25,10.25,0,0,1-4.23-2.78,9.48,9.48,0,0,1-2.32-4.62,9.29,9.29,0,0,1,.36-5.12,10.47,10.47,0,0,1,2.83-4.25,9.33,9.33,0,0,1,4.52-2.29,9.52,9.52,0,0,1,5.14.3,10.15,10.15,0,0,1,4.23,2.79,10,10,0,0,1,2,9.77,10.05,10.05,0,0,1-2.79,4.21A9.6,9.6,0,0,1,446.86,291.52Zm-.46-2.26a7.23,7.23,0,0,0,3.51-1.76,7.92,7.92,0,0,0,2.15-3.26,7.25,7.25,0,0,0,.25-3.92,7.16,7.16,0,0,0-1.77-3.51,7.79,7.79,0,0,0-3.26-2.15,7.47,7.47,0,0,0-7.41,1.51,8,8,0,0,0-2.15,3.26,7.37,7.37,0,0,0,1.52,7.43,7.89,7.89,0,0,0,3.25,2.15A7.2,7.2,0,0,0,446.4,289.26Z"/></svg>