<svg id="Capa_1" data-name="Capa 1" xmlns="http://www.w3.org/2000/svg" viewBox="0 0 1920 400"><defs><style>.cls-1{fill:#fff;}.cls-2{fill:#231f20;}.cls-3{fill:#00d2b8;}</style></defs><rect class="cls-1" width="1920" height="400"/><path class="cls-2" d="M488.06,141.75l-3-5.58h-.22l.56,5.58V166h-4.37V127.27h3l15.51,24.1,2.86,5.3h.28l-.61-5.3v-24.1h4.36V166h-3Z"/><path class="cls-2" d="M530.36,138.33h7.9v18.84a39.54,39.54,0,0,0,.33,5.2h3.71V166h-7.41l-.17-4.7h-.22a11.44,11.44,0,0,1-3.8,3.87,10.58,10.58,0,0,1-5.73,1.49,14.09,14.09,0,0,1-4.33-.58,6.13,6.13,0,0,1-2.94-2,9.1,9.1,0,0,1-1.71-3.84,27.21,27.21,0,0,1-.55-6V142h-3.71v-3.7h8.07v15c0,1.51.07,2.87.19,4.07a9.23,9.23,0,0,0,.8,3,4.11,4.11,0,0,0,1.78,1.88,6.6,6.6,0,0,0,3.15.64,7.24,7.24,0,0,0,5-1.88,12.16,12.16,0,0,0,3.21-4.7V142h-3.54Z"/><path class="cls-2" d="M572.75,162.48a14.55,14.55,0,0,1-2.35,1.66,17.79,17.79,0,0,1-3,1.32,21.23,21.23,0,0,1-3.34.86,20.62,20.62,0,0,1-3.51.3,15.64,15.64,0,0,1-5.86-1,11.39,11.39,0,0,1-4.26-2.93,12.77,12.77,0,0,1-2.59-4.56,18.82,18.82,0,0,1-.89-6,18.24,18.24,0,0,1,1-6.19,12.09,12.09,0,0,1,2.79-4.53,12.21,12.21,0,0,1,4.42-2.79,16.66,16.66,0,0,1,5.81-1,17.84,17.84,0,0,1,4.58.61,9.14,9.14,0,0,1,4,2.29,11,11,0,0,1,2.68,4.65,21.37,21.37,0,0,1,.66,7.65H551.58q0,5,2.67,7.43a10.16,10.16,0,0,0,7.14,2.46,12.28,12.28,0,0,0,3-.36,23.12,23.12,0,0,0,2.78-.85,13.9,13.9,0,0,0,2.35-1.11,10,10,0,0,0,1.57-1.1Zm-11.64-21.17a14.68,14.68,0,0,0-3.44.39,7.84,7.84,0,0,0-2.87,1.3,7.27,7.27,0,0,0-2,2.37,9.53,9.53,0,0,0-1,3.62h17.13a8.54,8.54,0,0,0-2.34-5.66A7.43,7.43,0,0,0,561.11,141.31Z"/><path class="cls-2" d="M600.82,158.5a3.16,3.16,0,0,0-1.38-2.74,11.34,11.34,0,0,0-3.41-1.55c-1.36-.38-2.84-.74-4.44-1.07a25.53,25.53,0,0,1-4.43-1.33,9.92,9.92,0,0,1-3.42-2.24,5.4,5.4,0,0,1-1.38-3.95,6.81,6.81,0,0,1,.91-3.59,7.55,7.55,0,0,1,2.41-2.46,11.17,11.17,0,0,1,3.48-1.44,18.2,18.2,0,0,1,4.15-.47,20.5,20.5,0,0,1,6.65,1,21.19,21.19,0,0,1,4.45,2l-1.76,3.48c-1.21-.66-2.52-1.3-3.94-1.91a13.46,13.46,0,0,0-5.31-.91,11.37,11.37,0,0,0-2.4.25,7.91,7.91,0,0,0-2.15.75,4.26,4.26,0,0,0-1.54,1.29,3.26,3.26,0,0,0-.58,2,2.43,2.43,0,0,0,1.38,2.21,14.31,14.31,0,0,0,3.41,1.3q2,.53,4.44,1a21,21,0,0,1,4.43,1.35,10.09,10.09,0,0,1,3.42,2.38,5.71,5.71,0,0,1,1.38,4,7.86,7.86,0,0,1-3,6.31q-3,2.48-9,2.48a19.49,19.49,0,0,1-3.59-.33,22.65,22.65,0,0,1-3.32-.88,20.44,20.44,0,0,1-2.82-1.25,11.94,11.94,0,0,1-2.1-1.41l2.21-3.59a10.17,10.17,0,0,0,1.76,1.36,16.72,16.72,0,0,0,5.26,2.12,14.34,14.34,0,0,0,3.06.33,15.23,15.23,0,0,0,2.78-.24,8.22,8.22,0,0,0,2.29-.78,4.22,4.22,0,0,0,1.57-1.38A3.57,3.57,0,0,0,600.82,158.5Z"/><path class="cls-2" d="M611.54,138.33h6.58v-5.48l4.36-1.21v6.69h14.76V142H622.48v13c0,2.69.66,4.68,2,6A7.61,7.61,0,0,0,630,163a9.48,9.48,0,0,0,4.32-.93,23.37,23.37,0,0,0,3.34-2l1.43,3.26a15.74,15.74,0,0,1-4.61,2.49,16.69,16.69,0,0,1-5.5.94,13.6,13.6,0,0,1-4.18-.64,9.59,9.59,0,0,1-3.45-2,9.33,9.33,0,0,1-2.38-3.4,12.55,12.55,0,0,1-.88-5V142h-6.58Z"/><path class="cls-2" d="M646.64,166v-3.7h7.46V142h-7.46v-3.7H657l.88,3.59h.28a19.85,19.85,0,0,1,4.2-2.93,11.78,11.78,0,0,1,5.53-1.22,5.56,5.56,0,0,1,3,.72,4.85,4.85,0,0,1,1.77,2.1,11.14,11.14,0,0,1,.86,3.35,41.81,41.81,0,0,1,.22,4.44l-3.87.06a14.18,14.18,0,0,0-.69-5.15,2.51,2.51,0,0,0-2.52-1.65,9.1,9.1,0,0,0-3.09.5,10.06,10.06,0,0,0-2.41,1.21,14.16,14.16,0,0,0-1.74,1.43,8.57,8.57,0,0,0-1,1.22v16.26H669V166Z"/><path class="cls-2" d="M682.12,140.48a17.66,17.66,0,0,1,5.36-2,29.67,29.67,0,0,1,5.85-.61,10.48,10.48,0,0,1,4.62.89,7.44,7.44,0,0,1,2.82,2.29,8.12,8.12,0,0,1,1.38,3.21,18.29,18.29,0,0,1,.36,3.62c0,1.4,0,2.89-.11,4.47s-.13,3.17-.17,4.76a40,40,0,0,0,.33,5.25h3.71V166H699l-.49-4.15h-.28a12.68,12.68,0,0,1-1,1.27,8.69,8.69,0,0,1-1.75,1.52,10.84,10.84,0,0,1-6.29,1.86,9.44,9.44,0,0,1-6.48-2.1,7.27,7.27,0,0,1-2.39-5.75,8.33,8.33,0,0,1,1.25-4.7,7.82,7.82,0,0,1,3.58-2.87,16.2,16.2,0,0,1,5.62-1.16,37.54,37.54,0,0,1,7.4.44,19.88,19.88,0,0,0,.09-4.23,5.84,5.84,0,0,0-.89-2.68A3.75,3.75,0,0,0,695.4,142a9.77,9.77,0,0,0-3.08-.41,16.38,16.38,0,0,0-4.77.69c-1.52.46-2.86.93-4,1.41Zm8.18,22.27a8.12,8.12,0,0,0,2.87-.49,8.91,8.91,0,0,0,2.32-1.28,8.35,8.35,0,0,0,2.65-3.42v-3.87a31.35,31.35,0,0,0-5.3-.5,14.85,14.85,0,0,0-4.2.53,5.88,5.88,0,0,0-2.77,1.63,4.14,4.14,0,0,0-1,2.87,4.53,4.53,0,0,0,1.24,3.18C687,162.3,688.34,162.75,690.3,162.75Z"/><path class="cls-2" d="M747.77,148c0-.33,0-.77,0-1.3s0-1.09-.08-1.66-.08-1.13-.14-1.69-.12-1-.19-1.43h-3.7v-3.59H751l.55,3.86h.28a12.56,12.56,0,0,1,3.78-3.23,11.3,11.3,0,0,1,5.61-1.3q5.91,0,8.9,3.26t3,10.67a18.16,18.16,0,0,1-1,6.27,13.23,13.23,0,0,1-2.9,4.73,12.73,12.73,0,0,1-4.53,3,15.79,15.79,0,0,1-5.86,1.05c-.77,0-1.47,0-2.07-.08s-1.16-.13-1.66-.22a12.12,12.12,0,0,1-1.47-.36c-.47-.15-1-.33-1.54-.55V177h-4.26Zm12.71-6.25a8,8,0,0,0-3.12.61,9.29,9.29,0,0,0-2.6,1.6,9.14,9.14,0,0,0-1.85,2.2,6.46,6.46,0,0,0-.88,2.43v12.57a10.1,10.1,0,0,0,2.73,1.29,14.11,14.11,0,0,0,4,.47,9.15,9.15,0,0,0,7.07-2.89q2.65-2.9,2.66-8.47c0-3.12-.62-5.54-1.86-7.24S763.36,141.75,760.48,141.75Z"/><path class="cls-2" d="M779.27,166v-3.7h7.46V142h-7.46v-3.7h10.34l.88,3.59h.28A19.85,19.85,0,0,1,795,139a11.77,11.77,0,0,1,5.52-1.22,5.58,5.58,0,0,1,3,.72,4.85,4.85,0,0,1,1.77,2.1,11.15,11.15,0,0,1,.85,3.35,39.31,39.31,0,0,1,.22,4.44l-3.87.06a14.18,14.18,0,0,0-.69-5.15,2.51,2.51,0,0,0-2.51-1.65,9.16,9.16,0,0,0-3.1.5,10,10,0,0,0-2.4,1.21,14.16,14.16,0,0,0-1.74,1.43,8.57,8.57,0,0,0-1,1.22v16.26H801.6V166Z"/><path class="cls-2" d="M814.59,166v-3.7h9.61V142h-9.61v-3.7h14v23.93H838V166Zm8.07-35.48a3.66,3.66,0,0,1,1-2.57,3.3,3.3,0,0,1,2.54-1.08,3.63,3.63,0,0,1,2.68,1.08,3.5,3.5,0,0,1,1.08,2.57,3.17,3.17,0,0,1-1.08,2.43,3.81,3.81,0,0,1-2.68,1,3.44,3.44,0,0,1-2.54-1A3.3,3.3,0,0,1,822.66,130.48Z"/><path class="cls-2" d="M845.09,152.14q0-6.67,3.49-10.58t9.94-3.9a14.47,14.47,0,0,1,6,1.14,11.6,11.6,0,0,1,4.17,3.06,12.38,12.38,0,0,1,2.46,4.59,19.42,19.42,0,0,1,.8,5.69,19.1,19.1,0,0,1-.88,6,12.45,12.45,0,0,1-2.6,4.56,11.45,11.45,0,0,1-4.23,2.9,15.08,15.08,0,0,1-5.72,1,14.69,14.69,0,0,1-6-1.13,11.85,11.85,0,0,1-4.2-3.07,12.51,12.51,0,0,1-2.45-4.59A19.32,19.32,0,0,1,845.09,152.14Zm4.59,0a16.52,16.52,0,0,0,.47,3.87,10.69,10.69,0,0,0,1.51,3.48,8,8,0,0,0,2.73,2.49,8.27,8.27,0,0,0,4.11.94c2.93,0,5.15-.91,6.63-2.74s2.24-4.5,2.24-8a16.37,16.37,0,0,0-.47-3.89,10.43,10.43,0,0,0-1.55-3.46,8,8,0,0,0-2.75-2.48,8.26,8.26,0,0,0-4.1-.94q-4.41,0-6.62,2.7T849.68,152.14Z"/><path class="cls-2" d="M878.75,166v-3.7h7.46V142h-7.46v-3.7h10.33l.89,3.59h.28a19.85,19.85,0,0,1,4.2-2.93,11.71,11.71,0,0,1,5.52-1.22,5.54,5.54,0,0,1,3,.72,4.72,4.72,0,0,1,1.77,2.1,10.85,10.85,0,0,1,.86,3.35,39.31,39.31,0,0,1,.22,4.44l-3.87.06a14.18,14.18,0,0,0-.69-5.15,2.51,2.51,0,0,0-2.51-1.65,9.12,9.12,0,0,0-3.1.5,10,10,0,0,0-2.4,1.21,14.16,14.16,0,0,0-1.74,1.43,8.57,8.57,0,0,0-1,1.22v16.26h10.61V166Z"/><path class="cls-2" d="M914.06,166v-3.7h9.62V142h-9.62v-3.7h14v23.93h9.39V166Zm8.07-35.48a3.63,3.63,0,0,1,1-2.57,3.3,3.3,0,0,1,2.54-1.08,3.63,3.63,0,0,1,2.68,1.08,3.5,3.5,0,0,1,1.08,2.57,3.17,3.17,0,0,1-1.08,2.43,3.81,3.81,0,0,1-2.68,1,3.44,3.44,0,0,1-2.54-1A3.27,3.27,0,0,1,922.13,130.48Z"/><path class="cls-2" d="M960.65,127.27h9v29.24c0,.33,0,.74.06,1.24s.08,1,.14,1.58.11,1.09.19,1.63.15,1,.22,1.41H974V166h-7.4L966,161.7h-.22a9.75,9.75,0,0,1-3.61,3.51,10.71,10.71,0,0,1-5.54,1.41q-6.23,0-9.18-3.51t-2.94-10.91a17.69,17.69,0,0,1,1-6.16,11.78,11.78,0,0,1,2.84-4.48,12.32,12.32,0,0,1,4.43-2.74,17.07,17.07,0,0,1,5.79-.94q1.15,0,2.07.06c.6,0,1.16.09,1.68.16a12.53,12.53,0,0,1,1.46.31l1.51.41V131h-4.64Zm-3.29,35.65a7.6,7.6,0,0,0,5.29-1.74,9.26,9.26,0,0,0,2.64-5.22V143.13a8.5,8.5,0,0,0-2.72-1.21,16.53,16.53,0,0,0-4-.39,9.31,9.31,0,0,0-6.94,2.57q-2.53,2.57-2.54,8.1a20.22,20.22,0,0,0,.42,4.23,9.47,9.47,0,0,0,1.37,3.39,6.85,6.85,0,0,0,2.56,2.27A8.46,8.46,0,0,0,957.36,162.92Z"/><path class="cls-2" d="M980.55,140.48a17.66,17.66,0,0,1,5.36-2,29.69,29.69,0,0,1,5.86-.61,10.43,10.43,0,0,1,4.61.89,7.44,7.44,0,0,1,2.82,2.29,8.12,8.12,0,0,1,1.38,3.21,18.29,18.29,0,0,1,.36,3.62c0,1.4,0,2.89-.11,4.47s-.13,3.17-.16,4.76a40,40,0,0,0,.33,5.25h3.7V166h-7.3l-.49-4.15h-.28a11.36,11.36,0,0,1-1,1.27,8.61,8.61,0,0,1-1.74,1.52,10.91,10.91,0,0,1-6.3,1.86,9.46,9.46,0,0,1-6.48-2.1,7.27,7.27,0,0,1-2.39-5.75,8.33,8.33,0,0,1,1.25-4.7,7.87,7.87,0,0,1,3.58-2.87,16.25,16.25,0,0,1,5.62-1.16,37.68,37.68,0,0,1,7.41.44,19.79,19.79,0,0,0,.08-4.23,5.84,5.84,0,0,0-.89-2.68,3.75,3.75,0,0,0-1.94-1.41,9.77,9.77,0,0,0-3.08-.41,16.38,16.38,0,0,0-4.77.69c-1.51.46-2.86.93-4,1.41Zm8.18,22.27a8.12,8.12,0,0,0,2.87-.49,8.75,8.75,0,0,0,2.32-1.28,8,8,0,0,0,1.66-1.68,8.82,8.82,0,0,0,1-1.74v-3.87a31.55,31.55,0,0,0-5.31-.5,14.85,14.85,0,0,0-4.2.53,5.8,5.8,0,0,0-2.76,1.63,4.1,4.1,0,0,0-1,2.87,4.54,4.54,0,0,0,1.25,3.18Q985.79,162.75,988.73,162.75Z"/><path class="cls-2" d="M1027,127.27h9v29.24c0,.33,0,.74,0,1.24s.09,1,.14,1.58.12,1.09.2,1.63.14,1,.22,1.41h3.7V166h-7.4l-.56-4.26h-.22a9.75,9.75,0,0,1-3.61,3.51,10.71,10.71,0,0,1-5.54,1.41q-6.23,0-9.18-3.51t-2.95-10.91a17.45,17.45,0,0,1,1-6.16,11.88,11.88,0,0,1,2.83-4.48,12.36,12.36,0,0,1,4.44-2.74,17.07,17.07,0,0,1,5.79-.94q1.15,0,2.07.06c.6,0,1.16.09,1.68.16a12.53,12.53,0,0,1,1.46.31l1.51.41V131H1027Zm-3.29,35.65a7.62,7.62,0,0,0,5.29-1.74,9.32,9.32,0,0,0,2.64-5.22V143.13a8.59,8.59,0,0,0-2.72-1.21,16.57,16.57,0,0,0-4-.39,9.33,9.33,0,0,0-6.94,2.57q-2.54,2.57-2.53,8.1a20.94,20.94,0,0,0,.41,4.23,9.67,9.67,0,0,0,1.38,3.39,6.77,6.77,0,0,0,2.56,2.27A8.46,8.46,0,0,0,1023.68,162.92Z"/><path class="cls-2" d="M1103.29,162.48a13.71,13.71,0,0,1-2.35,1.66,18.06,18.06,0,0,1-3,1.32,21.35,21.35,0,0,1-3.35.86,20.62,20.62,0,0,1-3.51.3,15.59,15.59,0,0,1-5.85-1,11.24,11.24,0,0,1-4.26-2.93,12.79,12.79,0,0,1-2.6-4.56,18.82,18.82,0,0,1-.88-6,18.24,18.24,0,0,1,1-6.19,12,12,0,0,1,2.79-4.53,12.13,12.13,0,0,1,4.42-2.79,16.6,16.6,0,0,1,5.8-1,17.86,17.86,0,0,1,4.59.61,9.11,9.11,0,0,1,4,2.29,10.84,10.84,0,0,1,2.68,4.65,21.58,21.58,0,0,1,.67,7.65h-21.34c0,3.32.9,5.8,2.68,7.43a10.12,10.12,0,0,0,7.14,2.46,12.34,12.34,0,0,0,3-.36,23.12,23.12,0,0,0,2.78-.85,14.16,14.16,0,0,0,2.34-1.11,9.59,9.59,0,0,0,1.57-1.1Zm-11.63-21.17a14.77,14.77,0,0,0-3.45.39,7.8,7.8,0,0,0-2.86,1.3,7,7,0,0,0-2,2.37,9.72,9.72,0,0,0-1,3.62h17.13a8.45,8.45,0,0,0-2.34-5.66A7.41,7.41,0,0,0,1091.66,141.31Z"/><path class="cls-2" d="M1131.37,158.5a3.16,3.16,0,0,0-1.38-2.74,11.52,11.52,0,0,0-3.42-1.55c-1.36-.38-2.83-.74-4.43-1.07a25.64,25.64,0,0,1-4.44-1.33,9.78,9.78,0,0,1-3.41-2.24,5.4,5.4,0,0,1-1.38-3.95,6.72,6.72,0,0,1,.91-3.59,7.62,7.62,0,0,1,2.4-2.46,11.33,11.33,0,0,1,3.49-1.44,18.05,18.05,0,0,1,4.14-.47,20.53,20.53,0,0,1,6.66,1,21.68,21.68,0,0,1,4.45,2l-1.76,3.48c-1.22-.66-2.53-1.3-3.94-1.91a13.51,13.51,0,0,0-5.32-.91,11.37,11.37,0,0,0-2.4.25,7.84,7.84,0,0,0-2.14.75,4.29,4.29,0,0,0-1.55,1.29,3.33,3.33,0,0,0-.58,2,2.43,2.43,0,0,0,1.38,2.21,14.57,14.57,0,0,0,3.42,1.3c1.36.35,2.84.68,4.43,1a21.31,21.31,0,0,1,4.44,1.35,10.09,10.09,0,0,1,3.42,2.38,5.76,5.76,0,0,1,1.37,4,7.83,7.83,0,0,1-3,6.31q-3,2.48-9,2.48a19.6,19.6,0,0,1-3.6-.33,22.51,22.51,0,0,1-3.31-.88,20.44,20.44,0,0,1-2.82-1.25,11.58,11.58,0,0,1-2.1-1.41l2.2-3.59a9.91,9.91,0,0,0,1.77,1.36,16.61,16.61,0,0,0,2.42,1.24,16.24,16.24,0,0,0,2.84.88,14.34,14.34,0,0,0,3.06.33,15.23,15.23,0,0,0,2.78-.24,8.34,8.34,0,0,0,2.29-.78,4.3,4.3,0,0,0,1.57-1.38A3.65,3.65,0,0,0,1131.37,158.5Z"/><path class="cls-2" d="M1180.11,127.27h9.23v29.4c0,2.25.38,3.84,1.13,4.76a4.09,4.09,0,0,0,3.35,1.38,8.17,8.17,0,0,0,3-.55,13.46,13.46,0,0,0,3.13-1.88l2,3a13.57,13.57,0,0,1-1.94,1.38,15.81,15.81,0,0,1-2.17,1,14.27,14.27,0,0,1-2.22.64,11,11,0,0,1-2,.22,11.84,11.84,0,0,1-3.66-.53,6.29,6.29,0,0,1-2.69-1.68,7.55,7.55,0,0,1-1.63-3.07,17.17,17.17,0,0,1-.56-4.73V131h-4.86Z"/><path class="cls-2" d="M1213.27,127.27h9.23v29.4c0,2.25.38,3.84,1.13,4.76a4.09,4.09,0,0,0,3.35,1.38,8.17,8.17,0,0,0,3-.55,13.46,13.46,0,0,0,3.13-1.88l2,3a12.53,12.53,0,0,1-1.94,1.38,15.17,15.17,0,0,1-2.16,1,14.27,14.27,0,0,1-2.22.64,11.12,11.12,0,0,1-2,.22,11.75,11.75,0,0,1-3.66-.53,6.29,6.29,0,0,1-2.69-1.68,7.55,7.55,0,0,1-1.63-3.07,17.17,17.17,0,0,1-.56-4.73V131h-4.86Z"/><path class="cls-2" d="M1269.09,162.48a14.55,14.55,0,0,1-2.35,1.66,17.79,17.79,0,0,1-3,1.32,21.23,21.23,0,0,1-3.34.86,20.62,20.62,0,0,1-3.51.3,15.68,15.68,0,0,1-5.86-1,11.28,11.28,0,0,1-4.25-2.93,12.64,12.64,0,0,1-2.6-4.56,18.82,18.82,0,0,1-.89-6,18.49,18.49,0,0,1,1-6.19,11.67,11.67,0,0,1,7.21-7.32,16.7,16.7,0,0,1,5.81-1,17.84,17.84,0,0,1,4.58.61,9.14,9.14,0,0,1,4,2.29,11,11,0,0,1,2.68,4.65,21.37,21.37,0,0,1,.66,7.65h-21.33q0,5,2.67,7.43a10.16,10.16,0,0,0,7.14,2.46,12.28,12.28,0,0,0,3-.36,23.28,23.28,0,0,0,2.79-.85,14.16,14.16,0,0,0,2.34-1.11,10,10,0,0,0,1.57-1.1Zm-11.64-21.17a14.68,14.68,0,0,0-3.44.39,7.92,7.92,0,0,0-2.87,1.3,7.12,7.12,0,0,0-2,2.37,9.36,9.36,0,0,0-1,3.62h17.13a8.5,8.5,0,0,0-2.34-5.66A7.43,7.43,0,0,0,1257.45,141.31Z"/><path class="cls-2" d="M1289.67,160.6h.61l8.65-22.27h4.81L1292.08,166h-4.81l-11.88-27.63h5.08Z"/><path class="cls-2" d="M1312.14,140.48a17.66,17.66,0,0,1,5.36-2,29.69,29.69,0,0,1,5.86-.61,10.4,10.4,0,0,1,4.61.89,7.44,7.44,0,0,1,2.82,2.29,8.12,8.12,0,0,1,1.38,3.21,18.29,18.29,0,0,1,.36,3.62c0,1.4,0,2.89-.11,4.47s-.13,3.17-.16,4.76a40,40,0,0,0,.33,5.25h3.7V166H1329l-.49-4.15h-.28a11.36,11.36,0,0,1-1,1.27,8.61,8.61,0,0,1-1.74,1.52,10.91,10.91,0,0,1-6.29,1.86,9.47,9.47,0,0,1-6.49-2.1,7.27,7.27,0,0,1-2.38-5.75,8.33,8.33,0,0,1,1.24-4.7,7.87,7.87,0,0,1,3.58-2.87,16.26,16.26,0,0,1,5.63-1.16,37.62,37.62,0,0,1,7.4.44,19.79,19.79,0,0,0,.08-4.23,5.73,5.73,0,0,0-.89-2.68,3.75,3.75,0,0,0-1.94-1.41,9.77,9.77,0,0,0-3.08-.41,16.38,16.38,0,0,0-4.77.69c-1.51.46-2.86.93-4,1.41Zm8.18,22.27a8.12,8.12,0,0,0,2.87-.49,8.75,8.75,0,0,0,2.32-1.28,8,8,0,0,0,1.66-1.68,8.35,8.35,0,0,0,1-1.74v-3.87a31.55,31.55,0,0,0-5.31-.5,14.85,14.85,0,0,0-4.2.53,5.8,5.8,0,0,0-2.76,1.63,4.1,4.1,0,0,0-1,2.87,4.54,4.54,0,0,0,1.25,3.18Q1317.4,162.75,1320.32,162.75Z"/><path class="cls-2" d="M1343,166v-3.7h7.46V142H1343v-3.7h10.33l.89,3.59h.27a20.1,20.1,0,0,1,4.2-2.93,11.78,11.78,0,0,1,5.53-1.22,5.54,5.54,0,0,1,3,.72,4.72,4.72,0,0,1,1.77,2.1,11.14,11.14,0,0,1,.86,3.35,41.81,41.81,0,0,1,.22,4.44l-3.87.06a14.18,14.18,0,0,0-.69-5.15,2.51,2.51,0,0,0-2.52-1.65,9.1,9.1,0,0,0-3.09.5,10,10,0,0,0-2.4,1.21,13.59,13.59,0,0,0-1.75,1.43,9.29,9.29,0,0,0-1,1.22v16.26h10.61V166Z"/><path class="cls-2" d="M1411.62,140.48a17.66,17.66,0,0,1,5.36-2,29.69,29.69,0,0,1,5.86-.61,10.46,10.46,0,0,1,4.61.89,7.44,7.44,0,0,1,2.82,2.29,8.12,8.12,0,0,1,1.38,3.21,18.29,18.29,0,0,1,.36,3.62c0,1.4,0,2.89-.11,4.47s-.13,3.17-.17,4.76a38.28,38.28,0,0,0,.34,5.25h3.7V166h-7.3l-.49-4.15h-.28a12.68,12.68,0,0,1-1,1.27,8.69,8.69,0,0,1-1.75,1.52,10.84,10.84,0,0,1-6.29,1.86,9.46,9.46,0,0,1-6.48-2.1,7.27,7.27,0,0,1-2.39-5.75,8.33,8.33,0,0,1,1.25-4.7,7.82,7.82,0,0,1,3.58-2.87,16.2,16.2,0,0,1,5.62-1.16,37.54,37.54,0,0,1,7.4.44,19.24,19.24,0,0,0,.09-4.23,5.84,5.84,0,0,0-.89-2.68,3.75,3.75,0,0,0-1.94-1.41,9.77,9.77,0,0,0-3.08-.41,16.38,16.38,0,0,0-4.77.69q-2.27.69-4,1.41Zm8.18,22.27a8.12,8.12,0,0,0,2.87-.49A8.91,8.91,0,0,0,1425,161a8.35,8.35,0,0,0,2.65-3.42v-3.87a31.35,31.35,0,0,0-5.3-.5,14.85,14.85,0,0,0-4.2.53,5.8,5.8,0,0,0-2.76,1.63,4.1,4.1,0,0,0-1,2.87,4.53,4.53,0,0,0,1.24,3.18C1416.45,162.3,1417.84,162.75,1419.8,162.75Z"/><path class="cls-2" d="M528.65,200.33h6.57v-5.48l4.37-1.21v6.69h14.75V204H539.59v13q0,4,1.95,6a7.62,7.62,0,0,0,5.59,1.93,9.5,9.5,0,0,0,4.33-.93,23.25,23.25,0,0,0,3.33-2l1.43,3.26a15.74,15.74,0,0,1-4.61,2.49,16.69,16.69,0,0,1-5.5.94,13.49,13.49,0,0,1-4.17-.64,9.63,9.63,0,0,1-3.46-2,9.31,9.31,0,0,1-2.37-3.4,12.55,12.55,0,0,1-.89-5V204h-6.57Z"/><path class="cls-2" d="M580.1,200.33H588v18.84a39.54,39.54,0,0,0,.33,5.2H592V228h-7.4l-.17-4.7h-.22a11.53,11.53,0,0,1-3.8,3.87,10.58,10.58,0,0,1-5.73,1.49,14.09,14.09,0,0,1-4.33-.58,6.13,6.13,0,0,1-3-2,9.22,9.22,0,0,1-1.7-3.84,27.21,27.21,0,0,1-.55-6V204h-3.71v-3.7h8.07v15a38.25,38.25,0,0,0,.19,4.07,9.23,9.23,0,0,0,.8,3,4.06,4.06,0,0,0,1.78,1.88,6.6,6.6,0,0,0,3.15.64,7.26,7.26,0,0,0,5-1.88,12,12,0,0,0,3.2-4.7V204H580.1Z"/><path class="cls-2" d="M626.63,189.27h8.62v14.48h.28a12.37,12.37,0,0,1,4-3,13.05,13.05,0,0,1,5.63-1.08,17.09,17.09,0,0,1,4.62.56,6.49,6.49,0,0,1,3.2,1.93,8.8,8.8,0,0,1,1.86,3.79,25.74,25.74,0,0,1,.6,6.1V228h-4.36V212.87a26.41,26.41,0,0,0-.28-4.14,7.21,7.21,0,0,0-1.07-3,5,5,0,0,0-2.18-1.8,8.87,8.87,0,0,0-3.52-.6,8.41,8.41,0,0,0-2.92.52,9.68,9.68,0,0,0-2.62,1.44,8.76,8.76,0,0,0-2,2.21,8.21,8.21,0,0,0-1.19,2.84V228H631V193h-4.37Z"/><path class="cls-2" d="M662.72,214.14q0-6.69,3.48-10.58t9.95-3.9a14.39,14.39,0,0,1,6,1.14,11.72,11.72,0,0,1,4.18,3.06,12.68,12.68,0,0,1,2.46,4.59,19.76,19.76,0,0,1,.8,5.69,19.1,19.1,0,0,1-.89,6,12.44,12.44,0,0,1-2.59,4.56,11.61,11.61,0,0,1-4.23,2.9,15.15,15.15,0,0,1-5.72,1,14.62,14.62,0,0,1-6-1.13,11.68,11.68,0,0,1-4.2-3.07,12.38,12.38,0,0,1-2.46-4.59A19.66,19.66,0,0,1,662.72,214.14Zm4.59,0a16.5,16.5,0,0,0,.46,3.87,10.71,10.71,0,0,0,1.52,3.48A8,8,0,0,0,672,224a8.23,8.23,0,0,0,4.1.94q4.41,0,6.64-2.74t2.23-8a16.37,16.37,0,0,0-.47-3.89,10.13,10.13,0,0,0-1.54-3.46,8.19,8.19,0,0,0-2.75-2.48,8.3,8.3,0,0,0-4.11-.94q-4.41,0-6.61,2.7T667.31,214.14Z"/><path class="cls-2" d="M721.69,229.34a10,10,0,0,1-1,4.56,8.83,8.83,0,0,1-2.73,3.23,12.24,12.24,0,0,1-4.07,1.91,19.08,19.08,0,0,1-5,.64,21.83,21.83,0,0,1-5.69-.67,16.89,16.89,0,0,1-4.2-1.71l2.1-3.92a6.26,6.26,0,0,0,1.29.85,13,13,0,0,0,1.85.78,17.26,17.26,0,0,0,2.23.58,13.41,13.41,0,0,0,2.34.22,15.4,15.4,0,0,0,4.05-.45,6,6,0,0,0,2.62-1.38,5.27,5.27,0,0,0,1.43-2.43,13.15,13.15,0,0,0,.44-3.65v-3.09h-.22a8.76,8.76,0,0,1-3.25,2.82,11.49,11.49,0,0,1-5.13,1q-6.29,0-9.23-3.51t-3-10.91q0-7.08,3.76-10.7t11.16-3.62a31.13,31.13,0,0,1,5.83.47,30.43,30.43,0,0,1,4.4,1.19Zm-12.33-4.42a7.56,7.56,0,0,0,5.27-1.74,9.72,9.72,0,0,0,2.69-5.33v-13.1a15.81,15.81,0,0,0-6.75-1.16,9.22,9.22,0,0,0-6.92,2.59q-2.52,2.61-2.52,8a19.44,19.44,0,0,0,.44,4.34,9.93,9.93,0,0,0,1.4,3.4,6.65,6.65,0,0,0,2.52,2.24A8.47,8.47,0,0,0,709.36,224.92Z"/><path class="cls-2" d="M731.85,202.48a17.82,17.82,0,0,1,5.37-2,29.67,29.67,0,0,1,5.85-.61,10.48,10.48,0,0,1,4.62.89,7.44,7.44,0,0,1,2.82,2.29,8.12,8.12,0,0,1,1.38,3.21,18.29,18.29,0,0,1,.36,3.62c0,1.4,0,2.89-.11,4.47s-.13,3.17-.17,4.76a40,40,0,0,0,.33,5.25H756V228h-7.3l-.5-4.15h-.27a14.35,14.35,0,0,1-1,1.27,9,9,0,0,1-1.75,1.52,10.84,10.84,0,0,1-6.29,1.86,9.49,9.49,0,0,1-6.49-2.1,7.3,7.3,0,0,1-2.38-5.75,8.33,8.33,0,0,1,1.25-4.7,7.84,7.84,0,0,1,3.57-2.87,16.31,16.31,0,0,1,5.63-1.16,37.54,37.54,0,0,1,7.4.44,19.16,19.16,0,0,0,.08-4.23,5.73,5.73,0,0,0-.88-2.68,3.75,3.75,0,0,0-1.94-1.41,9.82,9.82,0,0,0-3.08-.41,16.38,16.38,0,0,0-4.77.69q-2.28.69-4,1.41ZM740,224.75a8.18,8.18,0,0,0,2.88-.49,9.19,9.19,0,0,0,2.32-1.27,8.54,8.54,0,0,0,1.66-1.69,8.27,8.27,0,0,0,1-1.74v-3.87a31.35,31.35,0,0,0-5.3-.5,14.85,14.85,0,0,0-4.2.53,5.88,5.88,0,0,0-2.77,1.63,4.12,4.12,0,0,0-1,2.87,4.53,4.53,0,0,0,1.24,3.18Q737.11,224.75,740,224.75Z"/><path class="cls-2" d="M762.69,228v-3.7h7.46V204h-7.46v-3.7H773l.88,3.59h.28a19.85,19.85,0,0,1,4.2-2.93,11.78,11.78,0,0,1,5.53-1.22,5.56,5.56,0,0,1,3,.72,4.85,4.85,0,0,1,1.77,2.1,11.15,11.15,0,0,1,.85,3.35,39.31,39.31,0,0,1,.22,4.44l-3.87.06a14.18,14.18,0,0,0-.69-5.15,2.5,2.5,0,0,0-2.51-1.65,9.16,9.16,0,0,0-3.1.5,10,10,0,0,0-2.4,1.21,14.16,14.16,0,0,0-1.74,1.43,8.57,8.57,0,0,0-1.05,1.22v16.26H785V228Z"/><path class="cls-2" d="M831.94,189.27h9.23v29.4c0,2.25.38,3.84,1.13,4.76a4.09,4.09,0,0,0,3.35,1.38,8.17,8.17,0,0,0,3-.55,13.46,13.46,0,0,0,3.13-1.88l2,3a13.13,13.13,0,0,1-2,1.38,15.17,15.17,0,0,1-2.16,1,14.27,14.27,0,0,1-2.22.64,11.12,11.12,0,0,1-2,.22,11.8,11.8,0,0,1-3.66-.53,6.29,6.29,0,0,1-2.69-1.68,7.55,7.55,0,0,1-1.63-3.07,17.17,17.17,0,0,1-.56-4.73V193h-4.86Z"/><path class="cls-2" d="M861.67,214.14q0-6.69,3.48-10.58t10-3.9a14.47,14.47,0,0,1,6,1.14,11.6,11.6,0,0,1,4.17,3.06,12.38,12.38,0,0,1,2.46,4.59,19.76,19.76,0,0,1,.8,5.69,19.1,19.1,0,0,1-.88,6,12.45,12.45,0,0,1-2.6,4.56,11.45,11.45,0,0,1-4.23,2.9,15.08,15.08,0,0,1-5.72,1,14.69,14.69,0,0,1-6-1.13,11.85,11.85,0,0,1-4.2-3.07,12.68,12.68,0,0,1-2.46-4.59A19.66,19.66,0,0,1,861.67,214.14Zm4.59,0a16.52,16.52,0,0,0,.47,3.87,10.69,10.69,0,0,0,1.51,3.48A8,8,0,0,0,871,224a8.27,8.27,0,0,0,4.11.94c2.93,0,5.15-.91,6.63-2.74s2.24-4.5,2.24-8a16.37,16.37,0,0,0-.47-3.89,10.34,10.34,0,0,0-1.55-3.46,8,8,0,0,0-2.75-2.48,8.26,8.26,0,0,0-4.1-.94q-4.41,0-6.62,2.7T866.26,214.14Z"/><path class="cls-2" d="M915.83,220.5a3.17,3.17,0,0,0-1.37-2.74,11.52,11.52,0,0,0-3.42-1.55c-1.36-.38-2.84-.74-4.44-1.07a25.79,25.79,0,0,1-4.43-1.33,9.92,9.92,0,0,1-3.42-2.24,5.4,5.4,0,0,1-1.38-3.95,6.72,6.72,0,0,1,.92-3.59,7.52,7.52,0,0,1,2.4-2.46,11.38,11.38,0,0,1,3.48-1.44,18.2,18.2,0,0,1,4.15-.47,20.53,20.53,0,0,1,6.66,1,21.68,21.68,0,0,1,4.45,2l-1.77,3.48c-1.21-.66-2.52-1.3-3.94-1.91a13.43,13.43,0,0,0-5.31-.91,11.37,11.37,0,0,0-2.4.25,7.91,7.91,0,0,0-2.15.75,4.26,4.26,0,0,0-1.54,1.29,3.26,3.26,0,0,0-.58,2,2.43,2.43,0,0,0,1.38,2.21,14.48,14.48,0,0,0,3.41,1.3q2,.53,4.44,1a21.31,21.31,0,0,1,4.44,1.35,10,10,0,0,1,3.41,2.38,5.7,5.7,0,0,1,1.38,4,7.79,7.79,0,0,1-3,6.3q-3,2.49-9,2.49a19.57,19.57,0,0,1-3.59-.33,21.46,21.46,0,0,1-3.32-.88,20.44,20.44,0,0,1-2.82-1.25,12.33,12.33,0,0,1-2.1-1.41l2.21-3.59a10.69,10.69,0,0,0,1.76,1.36,16.74,16.74,0,0,0,2.43,1.24,16.24,16.24,0,0,0,2.84.88,14.24,14.24,0,0,0,3.05.33,15.34,15.34,0,0,0,2.79-.24,8.27,8.27,0,0,0,2.28-.78,4.15,4.15,0,0,0,1.57-1.38A3.57,3.57,0,0,0,915.83,220.5Z"/><path class="cls-2" d="M963.31,210c0-.33,0-.77,0-1.3s0-1.09-.08-1.66-.09-1.13-.14-1.68-.12-1-.2-1.44h-3.7v-3.59h7.35l.55,3.86h.28a12.6,12.6,0,0,1,3.79-3.23,11.24,11.24,0,0,1,5.61-1.3q5.91,0,8.89,3.26t3,10.67a17.93,17.93,0,0,1-1,6.27,13.09,13.09,0,0,1-2.9,4.73,12.73,12.73,0,0,1-4.53,3,15.79,15.79,0,0,1-5.86,1.05c-.77,0-1.46,0-2.07-.08s-1.16-.13-1.66-.22a12.44,12.44,0,0,1-1.46-.36c-.48-.15-1-.33-1.55-.55V239h-4.25ZM976,203.75a8,8,0,0,0-3.13.61,9.23,9.23,0,0,0-2.59,1.6,8.7,8.7,0,0,0-1.85,2.2,6.48,6.48,0,0,0-.89,2.43v12.57a10,10,0,0,0,2.74,1.29,14,14,0,0,0,4,.47,9.14,9.14,0,0,0,7.08-2.89q2.65-2.9,2.65-8.47c0-3.12-.62-5.54-1.85-7.24S978.89,203.75,976,203.75Z"/><path class="cls-2" d="M994.81,228v-3.7h7.46V204h-7.46v-3.7h10.33l.89,3.59h.27a20.1,20.1,0,0,1,4.2-2.93,11.78,11.78,0,0,1,5.53-1.22,5.54,5.54,0,0,1,3,.72,4.72,4.72,0,0,1,1.77,2.1,11.14,11.14,0,0,1,.86,3.35,41.81,41.81,0,0,1,.22,4.44l-3.87.06a14.18,14.18,0,0,0-.69-5.15,2.51,2.51,0,0,0-2.52-1.65,9.1,9.1,0,0,0-3.09.5,10.25,10.25,0,0,0-2.41,1.21,14.16,14.16,0,0,0-1.74,1.43,8.57,8.57,0,0,0-1.05,1.22v16.26h10.61V228Z"/><path class="cls-2" d="M1027.47,214.14q0-6.69,3.48-10.58t10-3.9a14.39,14.39,0,0,1,6,1.14,11.72,11.72,0,0,1,4.18,3.06,12.68,12.68,0,0,1,2.46,4.59,19.76,19.76,0,0,1,.8,5.69,19.1,19.1,0,0,1-.89,6,12.44,12.44,0,0,1-2.59,4.56,11.61,11.61,0,0,1-4.23,2.9,15.15,15.15,0,0,1-5.72,1,14.62,14.62,0,0,1-6-1.13,11.68,11.68,0,0,1-4.2-3.07,12.38,12.38,0,0,1-2.46-4.59A19.66,19.66,0,0,1,1027.47,214.14Zm4.59,0a16.5,16.5,0,0,0,.46,3.87,10.71,10.71,0,0,0,1.52,3.48,8,8,0,0,0,2.73,2.49,8.23,8.23,0,0,0,4.1.94q4.41,0,6.64-2.74t2.23-8a16.37,16.37,0,0,0-.47-3.89,10.13,10.13,0,0,0-1.54-3.46,8.13,8.13,0,0,0-2.76-2.48,8.23,8.23,0,0,0-4.1-.94q-4.41,0-6.61,2.7T1032.06,214.14Z"/><path class="cls-2" d="M1076.71,189.27h9v29.24c0,.33,0,.74,0,1.24s.09,1,.14,1.58.12,1.09.2,1.63.14,1,.22,1.41h3.7V228h-7.4l-.56-4.26h-.22a9.75,9.75,0,0,1-3.61,3.51,10.74,10.74,0,0,1-5.54,1.41q-6.23,0-9.18-3.51t-3-10.91a17.69,17.69,0,0,1,1-6.16,12,12,0,0,1,2.84-4.48,12.27,12.27,0,0,1,4.44-2.74,17.07,17.07,0,0,1,5.79-.94c.77,0,1.46,0,2.06.06s1.17.09,1.69.16a12.53,12.53,0,0,1,1.46.31l1.51.41V193h-4.64Zm-3.29,35.65a7.62,7.62,0,0,0,5.29-1.74,9.32,9.32,0,0,0,2.64-5.22V205.13a8.59,8.59,0,0,0-2.72-1.21,16.57,16.57,0,0,0-4-.39,9.33,9.33,0,0,0-6.94,2.57q-2.54,2.57-2.53,8.1a20.94,20.94,0,0,0,.41,4.23,9.67,9.67,0,0,0,1.38,3.39,6.77,6.77,0,0,0,2.56,2.27A8.46,8.46,0,0,0,1073.42,224.92Z"/><path class="cls-2" d="M1110.64,200.33h7.91v18.84a39.54,39.54,0,0,0,.33,5.2h3.7V228h-7.4l-.17-4.7h-.22a11.62,11.62,0,0,1-3.8,3.87,10.59,10.59,0,0,1-5.74,1.49,14,14,0,0,1-4.32-.58,6.09,6.09,0,0,1-3-2,9.35,9.35,0,0,1-1.71-3.84,27.21,27.21,0,0,1-.55-6V204H1092v-3.7h8.07v15a38.25,38.25,0,0,0,.19,4.07,9.24,9.24,0,0,0,.79,3,4.13,4.13,0,0,0,1.79,1.88,6.54,6.54,0,0,0,3.15.64,7.24,7.24,0,0,0,5-1.88,12,12,0,0,0,3.21-4.7V204h-3.54Z"/><path class="cls-2" d="M1148.06,204.58a22.24,22.24,0,0,0-2.74-.74,13.69,13.69,0,0,0-2.9-.31q-5.42,0-8.07,2.55t-2.65,8.09a11.6,11.6,0,0,0,.77,4.35,8.9,8.9,0,0,0,2.21,3.24,9.87,9.87,0,0,0,3.46,2.05,13.1,13.1,0,0,0,4.45.72,14.58,14.58,0,0,0,5.05-.9,12.65,12.65,0,0,0,4.12-2.36l1.94,3.21a16.76,16.76,0,0,1-1.94,1.38,18.57,18.57,0,0,1-2.68,1.35,18.27,18.27,0,0,1-3.37,1,20.23,20.23,0,0,1-4,.38,18.11,18.11,0,0,1-6.33-1,12.08,12.08,0,0,1-4.56-2.93,12.64,12.64,0,0,1-2.76-4.59,17.71,17.71,0,0,1-.94-5.94,18.24,18.24,0,0,1,1-6.19,12,12,0,0,1,2.79-4.53,12.21,12.21,0,0,1,4.42-2.79,16.64,16.64,0,0,1,5.8-1,23.13,23.13,0,0,1,11,2.32l0,.17v7.68h-4Z"/><path class="cls-2" d="M1158.67,200.33h6.58v-5.48l4.36-1.21v6.69h14.76V204h-14.76v13q0,4,2,6a7.59,7.59,0,0,0,5.59,1.93,9.48,9.48,0,0,0,4.32-.93,23.25,23.25,0,0,0,3.33-2l1.44,3.26a15.67,15.67,0,0,1-4.62,2.49,16.69,16.69,0,0,1-5.5.94A13.58,13.58,0,0,1,1172,228a9.51,9.51,0,0,1-3.45-2,9.33,9.33,0,0,1-2.38-3.4,12.55,12.55,0,0,1-.88-5V204h-6.58Z"/><path class="cls-2" d="M1193.26,214.14q0-6.69,3.49-10.58t9.94-3.9a14.44,14.44,0,0,1,6,1.14,11.6,11.6,0,0,1,4.17,3.06,12.38,12.38,0,0,1,2.46,4.59,19.42,19.42,0,0,1,.8,5.69,19.1,19.1,0,0,1-.88,6,12.45,12.45,0,0,1-2.6,4.56,11.45,11.45,0,0,1-4.23,2.9,15.08,15.08,0,0,1-5.72,1,14.6,14.6,0,0,1-6-1.13,11.68,11.68,0,0,1-4.2-3.07,12.38,12.38,0,0,1-2.46-4.59A19.32,19.32,0,0,1,1193.26,214.14Zm4.59,0a16.52,16.52,0,0,0,.47,3.87,10.69,10.69,0,0,0,1.51,3.48,8,8,0,0,0,2.73,2.49,8.27,8.27,0,0,0,4.11.94c2.93,0,5.15-.91,6.64-2.74s2.23-4.5,2.23-8a16.37,16.37,0,0,0-.47-3.89,10.52,10.52,0,0,0-1.54-3.46,8.13,8.13,0,0,0-2.76-2.48,8.26,8.26,0,0,0-4.1-.94c-2.94,0-5.15.9-6.61,2.7S1197.85,210.57,1197.85,214.14Z"/><path class="cls-2" d="M1247.42,220.5a3.17,3.17,0,0,0-1.37-2.74,11.52,11.52,0,0,0-3.42-1.55c-1.36-.38-2.84-.74-4.43-1.07a25.64,25.64,0,0,1-4.44-1.33,9.92,9.92,0,0,1-3.42-2.24,5.39,5.39,0,0,1-1.37-3.95,6.72,6.72,0,0,1,.91-3.59,7.62,7.62,0,0,1,2.4-2.46,11.38,11.38,0,0,1,3.48-1.44,18.2,18.2,0,0,1,4.15-.47,20.53,20.53,0,0,1,6.66,1,21.68,21.68,0,0,1,4.45,2l-1.77,3.48c-1.21-.66-2.52-1.3-3.94-1.91a13.43,13.43,0,0,0-5.31-.91,11.37,11.37,0,0,0-2.4.25,7.91,7.91,0,0,0-2.15.75,4.34,4.34,0,0,0-1.54,1.29,3.26,3.26,0,0,0-.58,2,2.43,2.43,0,0,0,1.38,2.21,14.65,14.65,0,0,0,3.41,1.3q2,.53,4.44,1a21.31,21.31,0,0,1,4.44,1.35,10,10,0,0,1,3.41,2.38,5.7,5.7,0,0,1,1.38,4,7.79,7.79,0,0,1-3,6.3q-3,2.49-9,2.49a19.57,19.57,0,0,1-3.59-.33,21.77,21.77,0,0,1-3.32-.88,19.78,19.78,0,0,1-2.81-1.25,11.58,11.58,0,0,1-2.1-1.41l2.2-3.59a10.69,10.69,0,0,0,1.76,1.36,17.27,17.27,0,0,0,2.43,1.24,16.24,16.24,0,0,0,2.84.88,14.34,14.34,0,0,0,3.06.33,15.31,15.31,0,0,0,2.78-.24,8.45,8.45,0,0,0,2.29-.78,4.3,4.3,0,0,0,1.57-1.38A3.65,3.65,0,0,0,1247.42,220.5Z"/><path class="cls-2" d="M1302.91,228V211.05a12.91,12.91,0,0,0-.22-2.68,5.31,5.31,0,0,0-.58-1.61,1.79,1.79,0,0,0-.88-.77,3.07,3.07,0,0,0-1.08-.19,2.78,2.78,0,0,0-1.74.61,2.88,2.88,0,0,0-1.08,1.54v20h-6.63V200.33H1296l.77,3h.17a6.73,6.73,0,0,1,2.43-2.63,6.85,6.85,0,0,1,3.76-1,7.31,7.31,0,0,1,3.48.88,4.69,4.69,0,0,1,2.26,3.1,6.18,6.18,0,0,1,2.55-3,7.09,7.09,0,0,1,3.7-1,8.29,8.29,0,0,1,2.68.41,4.77,4.77,0,0,1,2.07,1.47,7.3,7.3,0,0,1,1.36,2.84,18.92,18.92,0,0,1,.47,4.62V228H1315V210.27a5.67,5.67,0,0,0-.8-3.48,2.43,2.43,0,0,0-2-1,3,3,0,0,0-1.71.47,2.49,2.49,0,0,0-1,1.52V228Z"/><path class="cls-2" d="M1327.72,202.21a29.76,29.76,0,0,1,5.12-1.72,28.77,28.77,0,0,1,6.88-.72,15.25,15.25,0,0,1,4.89.69,8.3,8.3,0,0,1,3.26,2,7.42,7.42,0,0,1,1.8,3,13.58,13.58,0,0,1,.55,4c0,1.87-.07,3.48-.2,4.8s-.19,2.51-.19,3.54c0,.77,0,1.64.11,2.6.07.51.13,1,.17,1.49h3.59V228h-9.28l-.72-3.76h-.28a9.61,9.61,0,0,1-3.13,3,10.46,10.46,0,0,1-5.49,1.24,9.33,9.33,0,0,1-6.54-2.21,7.57,7.57,0,0,1-2.42-5.86,8.74,8.74,0,0,1,.86-4,7.07,7.07,0,0,1,2.47-2.77,11.7,11.7,0,0,1,3.9-1.6,22.58,22.58,0,0,1,5.08-.53c.65,0,1.35,0,2.08.11s1.63.15,2.69.23a5.22,5.22,0,0,0,.11-1.11v-1a3.54,3.54,0,0,0-1.2-3,5.88,5.88,0,0,0-3.57-.91,16.51,16.51,0,0,0-5,.72,31,31,0,0,0-3.79,1.43Zm9.41,20.28a6.54,6.54,0,0,0,3.93-1,6.38,6.38,0,0,0,1.92-2.07v-3.32c-.37-.07-.91-.15-1.64-.25a19.24,19.24,0,0,0-2.35-.13,11.18,11.18,0,0,0-2.08.19,6.89,6.89,0,0,0-1.86.61,3.65,3.65,0,0,0-1.31,1.07,2.63,2.63,0,0,0-.49,1.61,3.15,3.15,0,0,0,.9,2.4A4.26,4.26,0,0,0,1337.13,222.49Zm2.09-34.32H1348l-7.57,8.51H1336Z"/><path class="cls-2" d="M1378.13,220.33a2,2,0,0,0-1.36-1.77,20.06,20.06,0,0,0-3.34-1.21c-1.33-.37-2.78-.75-4.37-1.14a19.43,19.43,0,0,1-4.36-1.6,10.88,10.88,0,0,1-3.35-2.6A6,6,0,0,1,1360,208a6.92,6.92,0,0,1,.91-3.59,8.17,8.17,0,0,1,2.49-2.62,11.64,11.64,0,0,1,3.76-1.64,19.59,19.59,0,0,1,4.72-.55,25.52,25.52,0,0,1,4.75.39,23.18,23.18,0,0,1,3.57.94,13.42,13.42,0,0,1,2.6,1.24c.71.46,1.33.88,1.85,1.25l-3,4.91c-.55-.33-1.19-.67-1.91-1s-1.47-.67-2.26-1a18.3,18.3,0,0,0-2.49-.71,12,12,0,0,0-2.57-.28,9.68,9.68,0,0,0-3.76.61,2,2,0,0,0-1.44,1.88c0,.66.45,1.19,1.36,1.6a21.18,21.18,0,0,0,3.34,1.13l4.37,1.14a22.85,22.85,0,0,1,4.36,1.57,10.49,10.49,0,0,1,3.35,2.52,5.81,5.81,0,0,1,1.35,4,7.93,7.93,0,0,1-3.07,6.61q-3.06,2.4-9.09,2.4a21.61,21.61,0,0,1-8.2-1.41,19.08,19.08,0,0,1-5.56-3.28l3.32-5.2a15.71,15.71,0,0,0,1.9,1.35,18.12,18.12,0,0,0,2.68,1.36,24.65,24.65,0,0,0,3.18,1,13.85,13.85,0,0,0,3.35.42,7.1,7.1,0,0,0,3-.61A2.12,2.12,0,0,0,1378.13,220.33Z"/><path class="cls-2" d="M481.12,290v-6.08h6.52V268.41h-6.58v-6.08h6.58v-1.55a10.15,10.15,0,0,1,.91-4.48,9.05,9.05,0,0,1,2.4-3.09,9.93,9.93,0,0,1,3.46-1.8,14.13,14.13,0,0,1,4.06-.58,25.34,25.34,0,0,1,6.27.64,16.17,16.17,0,0,1,4.07,1.57l-2.1,5.47a26.51,26.51,0,0,0-2.74-1.1,12.08,12.08,0,0,0-3.79-.5q-3,0-4.17,1.35a6,6,0,0,0-1.19,4.07h11.61v6.08H494.82v15.47h11.66V290Z"/><path class="cls-2" d="M512.51,283.88h6.85V268.41h-6.85v-6.08h12.43l.83,3.64H526a14.86,14.86,0,0,1,3.54-3,8.72,8.72,0,0,1,4.64-1.21,6.27,6.27,0,0,1,5.22,2.43c1.28,1.62,1.91,4.33,1.91,8.12h-6.47a5.55,5.55,0,0,0-.58-2.9,2,2,0,0,0-1.85-.91,5.43,5.43,0,0,0-3.56,1.11,11.11,11.11,0,0,0-2.3,2.54v11.77h12V290h-26Z"/><path class="cls-2" d="M573,287a9.59,9.59,0,0,1-1.85,1.3,18.46,18.46,0,0,1-2.65,1.19,20.3,20.3,0,0,1-3.34.88,21.79,21.79,0,0,1-3.87.33,18.86,18.86,0,0,1-6.33-1,12.34,12.34,0,0,1-7.68-7.49,16.87,16.87,0,0,1-1-6.11,16.11,16.11,0,0,1,1.17-6.38,12.83,12.83,0,0,1,3.17-4.56,13.27,13.27,0,0,1,4.73-2.74,18.42,18.42,0,0,1,10.19-.36,11.84,11.84,0,0,1,4.12,1.91,10.3,10.3,0,0,1,3.07,3.62,12.35,12.35,0,0,1,1.19,5.75,26.25,26.25,0,0,1-.56,5.14H553.46a6.28,6.28,0,0,0,.75,3,5.8,5.8,0,0,0,1.82,2,7.76,7.76,0,0,0,2.6,1.14,13,13,0,0,0,3.12.36,16,16,0,0,0,5.44-.78,11.39,11.39,0,0,0,3.46-1.88ZM561.09,267.3a9.2,9.2,0,0,0-2.71.39,7.78,7.78,0,0,0-2.3,1.16,6.23,6.23,0,0,0-1.68,1.89,5.91,5.91,0,0,0-.78,2.53h13.6a6.09,6.09,0,0,0-1.52-4.36A6,6,0,0,0,561.09,267.3Z"/><path class="cls-2" d="M598.89,282.33a2,2,0,0,0-1.36-1.77,19.73,19.73,0,0,0-3.34-1.21c-1.33-.37-2.78-.75-4.37-1.14a19.43,19.43,0,0,1-4.36-1.6,11,11,0,0,1-3.35-2.6,6,6,0,0,1-1.35-4.06,6.92,6.92,0,0,1,.91-3.59,8.17,8.17,0,0,1,2.49-2.62,11.64,11.64,0,0,1,3.76-1.64,19.59,19.59,0,0,1,4.72-.55,25.71,25.71,0,0,1,4.76.39,23,23,0,0,1,3.56.94,13.42,13.42,0,0,1,2.6,1.24c.72.46,1.33.88,1.85,1.25l-3,4.91c-.55-.33-1.19-.67-1.91-1s-1.47-.67-2.26-1a18.3,18.3,0,0,0-2.49-.71,12,12,0,0,0-2.57-.28,9.68,9.68,0,0,0-3.76.61,2,2,0,0,0-1.44,1.88c0,.66.46,1.19,1.36,1.6a21.54,21.54,0,0,0,3.34,1.13l4.37,1.14a22.85,22.85,0,0,1,4.36,1.57,10.49,10.49,0,0,1,3.35,2.52,5.81,5.81,0,0,1,1.35,4,7.93,7.93,0,0,1-3.07,6.61q-3.06,2.4-9.09,2.4a21.61,21.61,0,0,1-8.2-1.41,19.08,19.08,0,0,1-5.56-3.28l3.32-5.2a15.15,15.15,0,0,0,1.91,1.35,17.19,17.19,0,0,0,2.68,1.36,24,24,0,0,0,3.17,1,13.85,13.85,0,0,0,3.35.42,7.07,7.07,0,0,0,3-.61A2.12,2.12,0,0,0,598.89,282.33Z"/><path class="cls-2" d="M640,287.31a15.85,15.85,0,0,1-5.3,2.57,23.41,23.41,0,0,1-6.36.85,18,18,0,0,1-6.38-1.05,13,13,0,0,1-4.7-2.95,12.49,12.49,0,0,1-2.9-4.62,17.23,17.23,0,0,1-1-6,15.5,15.5,0,0,1,1.16-6.19,13,13,0,0,1,3.23-4.58,13.71,13.71,0,0,1,4.89-2.85,18.91,18.91,0,0,1,6.14-1,22.53,22.53,0,0,1,5.8.72,27.39,27.39,0,0,1,4.14,1.38v9.73h-6.08v-5.09a15.93,15.93,0,0,0-3.42-.38,10.45,10.45,0,0,0-3.07.47,7.49,7.49,0,0,0-2.71,1.49,7.87,7.87,0,0,0-1.93,2.57,9.27,9.27,0,0,0-.14,7,7.57,7.57,0,0,0,4.45,4.34,9.76,9.76,0,0,0,3.62.64,13,13,0,0,0,5.17-.89,21.75,21.75,0,0,0,3-1.54Z"/><path class="cls-2" d="M644.92,276.14A17.05,17.05,0,0,1,646,270a12.69,12.69,0,0,1,3-4.58,12.54,12.54,0,0,1,4.61-2.85,17.73,17.73,0,0,1,6-1,17.3,17.3,0,0,1,6.22,1.05,12.84,12.84,0,0,1,4.61,3,12.55,12.55,0,0,1,2.85,4.61,17.8,17.8,0,0,1,1,6,17,17,0,0,1-1.05,6.19,12.63,12.63,0,0,1-3,4.59,12.85,12.85,0,0,1-4.62,2.85,17.63,17.63,0,0,1-6,1,17.26,17.26,0,0,1-6.22-1.05,12.82,12.82,0,0,1-4.61-2.95,12.26,12.26,0,0,1-2.85-4.62A17.47,17.47,0,0,1,644.92,276.14Zm7.41,0a10.68,10.68,0,0,0,.5,3.37,8.25,8.25,0,0,0,1.43,2.71,6.5,6.5,0,0,0,2.27,1.8,7.68,7.68,0,0,0,8.26-1.41q2-2,2-6.47a9.59,9.59,0,0,0-1.88-6.16,6.48,6.48,0,0,0-5.36-2.35,8.7,8.7,0,0,0-2.88.47,5.69,5.69,0,0,0-2.29,1.52,7.59,7.59,0,0,0-1.52,2.65A11.91,11.91,0,0,0,652.33,276.14Z"/><path class="cls-2" d="M698.36,282.33a2,2,0,0,0-1.35-1.77,20.06,20.06,0,0,0-3.34-1.21c-1.33-.37-2.79-.75-4.37-1.14a19.69,19.69,0,0,1-4.37-1.6,11,11,0,0,1-3.34-2.6,6,6,0,0,1-1.35-4.06,6.92,6.92,0,0,1,.91-3.59,8.17,8.17,0,0,1,2.49-2.62,11.68,11.68,0,0,1,3.75-1.64,19.67,19.67,0,0,1,4.73-.55,25.6,25.6,0,0,1,4.75.39,23.49,23.49,0,0,1,3.57.94,13,13,0,0,1,2.59,1.24c.72.46,1.34.88,1.86,1.25l-3,4.91c-.56-.33-1.19-.67-1.91-1s-1.47-.67-2.27-1a17.76,17.76,0,0,0-2.48-.71,12,12,0,0,0-2.57-.28,9.68,9.68,0,0,0-3.76.61,2,2,0,0,0-1.44,1.88c0,.66.45,1.19,1.36,1.6a21.18,21.18,0,0,0,3.34,1.13l4.37,1.14a23.1,23.1,0,0,1,4.36,1.57,10.33,10.33,0,0,1,3.34,2.52,5.77,5.77,0,0,1,1.36,4,7.93,7.93,0,0,1-3.07,6.61q-3.06,2.4-9.09,2.4a21.7,21.7,0,0,1-8.21-1.41,19.15,19.15,0,0,1-5.55-3.28l3.32-5.2a15,15,0,0,0,1.9,1.35,17.64,17.64,0,0,0,2.68,1.36,24.65,24.65,0,0,0,3.18,1,13.77,13.77,0,0,0,3.34.42,7,7,0,0,0,3-.61A2.1,2.1,0,0,0,698.36,282.33Z"/><path class="cls-2" d="M759.1,282.17h2.1l5.36-19.84H774l-7.85,24.92q-1.05,3.09-2,5.67a20.1,20.1,0,0,1-2.32,4.44,9.67,9.67,0,0,1-3.12,2.91,8.77,8.77,0,0,1-4.39,1,8.61,8.61,0,0,1-2.41-.33,12.92,12.92,0,0,1-2.07-.8,12.14,12.14,0,0,1-1.66-1,9.83,9.83,0,0,1-1.16-1l3.71-4.91a9.57,9.57,0,0,0,1.71,1.13,4,4,0,0,0,1.88.52,3.21,3.21,0,0,0,2.62-1.16,12,12,0,0,0,1.85-3.81h-3.92l-11.5-27.63h7.8Z"/><path class="cls-2" d="M825.7,251.27h11.55v23.88a73.8,73.8,0,0,0,.44,8.18,3.41,3.41,0,0,0,0,.55h3.54V290h-8.9l-.72-3.54h-.22a6.22,6.22,0,0,1-1.49,1.77,10.77,10.77,0,0,1-2.1,1.35,10.59,10.59,0,0,1-2.54.89,13,13,0,0,1-2.76.3,14.13,14.13,0,0,1-4.9-.83,10.54,10.54,0,0,1-4-2.57,12.25,12.25,0,0,1-2.71-4.42,18.2,18.2,0,0,1-1-6.33,17.27,17.27,0,0,1,1.08-6.3,13.53,13.53,0,0,1,3-4.67,13,13,0,0,1,4.5-2.92,15.24,15.24,0,0,1,5.69-1,25.5,25.5,0,0,1,3.24.2,11.07,11.07,0,0,1,2.62.63v-5.14H825.7Zm-1.5,33.38a6.87,6.87,0,0,0,3.73-1,4.74,4.74,0,0,0,2.13-3V269a5.13,5.13,0,0,0-2.13-.91,12.49,12.49,0,0,0-2.84-.31,8.67,8.67,0,0,0-2.9.5,6.66,6.66,0,0,0-2.49,1.57,7.55,7.55,0,0,0-1.71,2.8,12,12,0,0,0-.64,4.2,8.7,8.7,0,0,0,1.77,5.69A6.21,6.21,0,0,0,824.2,284.65Z"/><path class="cls-2" d="M871.46,287a9.69,9.69,0,0,1-1.86,1.3,18.46,18.46,0,0,1-2.65,1.19,20.3,20.3,0,0,1-3.34.88,21.79,21.79,0,0,1-3.87.33,18.86,18.86,0,0,1-6.33-1,12.41,12.41,0,0,1-7.68-7.49,17.09,17.09,0,0,1-1-6.11,16.11,16.11,0,0,1,1.16-6.38A12.83,12.83,0,0,1,849,265.2a13.27,13.27,0,0,1,4.73-2.74,18.46,18.46,0,0,1,10.2-.36,11.88,11.88,0,0,1,4.11,1.91,10.19,10.19,0,0,1,3.07,3.62,12.35,12.35,0,0,1,1.19,5.75,27,27,0,0,1-.55,5.14h-19.9a6.39,6.39,0,0,0,.75,3,5.9,5.9,0,0,0,1.82,2,7.85,7.85,0,0,0,2.6,1.14,13,13,0,0,0,3.12.36,16,16,0,0,0,5.44-.78,11.39,11.39,0,0,0,3.46-1.88ZM859.52,267.3a9.2,9.2,0,0,0-2.71.39,7.6,7.6,0,0,0-2.29,1.16,6.14,6.14,0,0,0-1.69,1.89,5.77,5.77,0,0,0-.77,2.53h13.59a5.46,5.46,0,0,0-6.13-6Z"/><path class="cls-2" d="M913.07,251.27h11.77v25.54q0,4.24,1,5.91a3.7,3.7,0,0,0,3.37,1.66,9.3,9.3,0,0,0,2.82-.36,10.9,10.9,0,0,0,2.21-1l2.71,5c-.63.41-1.25.78-1.88,1.13a12.3,12.3,0,0,1-2,.89,13.48,13.48,0,0,1-2.29.55,18.17,18.17,0,0,1-2.79.19c-3.47,0-6.06-.88-7.8-2.65s-2.59-4.27-2.59-7.52V257.35h-4.59Z"/><path class="cls-2" d="M946.39,264.21a29.76,29.76,0,0,1,5.12-1.72,28.77,28.77,0,0,1,6.88-.72,15.25,15.25,0,0,1,4.89.69,8.19,8.19,0,0,1,3.26,2,7.42,7.42,0,0,1,1.8,3,13.58,13.58,0,0,1,.55,4c0,1.87-.07,3.48-.2,4.8s-.19,2.51-.19,3.54c0,.77,0,1.64.11,2.6.08.51.13,1,.17,1.49h3.59V290h-9.28l-.72-3.76h-.28a9.51,9.51,0,0,1-3.13,3,10.46,10.46,0,0,1-5.49,1.24,9.33,9.33,0,0,1-6.54-2.21,7.56,7.56,0,0,1-2.41-5.86,8.74,8.74,0,0,1,.85-4,7.07,7.07,0,0,1,2.47-2.77,11.7,11.7,0,0,1,3.9-1.6,22.58,22.58,0,0,1,5.08-.53c.65,0,1.35,0,2.08.11s1.63.15,2.69.23a5.22,5.22,0,0,0,.11-1.11v-1.05a3.54,3.54,0,0,0-1.2-3,5.88,5.88,0,0,0-3.57-.91,16.51,16.51,0,0,0-5,.72,30.21,30.21,0,0,0-3.78,1.43Zm9.41,20.28a6.54,6.54,0,0,0,3.93-1,6.38,6.38,0,0,0,1.92-2.07v-3.32c-.37-.07-.91-.15-1.64-.25a19.24,19.24,0,0,0-2.35-.13,11.26,11.26,0,0,0-2.08.19,6.89,6.89,0,0,0-1.86.61,3.65,3.65,0,0,0-1.31,1.07,2.63,2.63,0,0,0-.49,1.61,3.15,3.15,0,0,0,.9,2.4A4.26,4.26,0,0,0,955.8,284.49Z"/><path class="cls-2" d="M1021.06,290V273.05a13.64,13.64,0,0,0-.22-2.68,5.31,5.31,0,0,0-.58-1.61,1.81,1.81,0,0,0-.89-.77,3.07,3.07,0,0,0-1.08-.19,2.82,2.82,0,0,0-1.74.61,2.92,2.92,0,0,0-1.07,1.54v20h-6.64V262.33h5.25l.78,3h.16a6.76,6.76,0,0,1,6.19-3.65,7.32,7.32,0,0,1,3.49.88,4.69,4.69,0,0,1,2.26,3.1,6.16,6.16,0,0,1,2.54-3,7.12,7.12,0,0,1,3.71-1,8.33,8.33,0,0,1,2.68.41,4.77,4.77,0,0,1,2.07,1.47,7.16,7.16,0,0,1,1.35,2.84,18.44,18.44,0,0,1,.47,4.62V290h-6.63V272.27a5.74,5.74,0,0,0-.8-3.48,2.43,2.43,0,0,0-2-1,3,3,0,0,0-1.72.47,2.48,2.48,0,0,0-1,1.52V290Z"/><path class="cls-2" d="M1070.41,287a9.92,9.92,0,0,1-1.85,1.3,19,19,0,0,1-2.65,1.19,20.43,20.43,0,0,1-3.35.88,21.63,21.63,0,0,1-3.87.33,18.8,18.8,0,0,1-6.32-1,12.39,12.39,0,0,1-7.69-7.49,17.09,17.09,0,0,1-1-6.11,16.29,16.29,0,0,1,1.16-6.38,12.73,12.73,0,0,1,3.18-4.56,13.23,13.23,0,0,1,4.72-2.74,18.46,18.46,0,0,1,10.2-.36A11.92,11.92,0,0,1,1067,264a10.4,10.4,0,0,1,3.07,3.62,12.36,12.36,0,0,1,1.18,5.75,26.2,26.2,0,0,1-.55,5.14h-19.89a6.28,6.28,0,0,0,.74,3,5.83,5.83,0,0,0,1.83,2,7.8,7.8,0,0,0,2.59,1.14,13.1,13.1,0,0,0,3.13.36,16,16,0,0,0,5.44-.78,11.21,11.21,0,0,0,3.45-1.88Zm-11.94-19.73a9.2,9.2,0,0,0-2.71.39,7.72,7.72,0,0,0-2.29,1.16,6.23,6.23,0,0,0-1.68,1.89,5.65,5.65,0,0,0-.78,2.53h13.6a5.47,5.47,0,0,0-6.14-6Z"/><path class="cls-2" d="M1079.25,262.33h20.34V287.8q0,6.36-3.32,10t-9.94,3.64a15.6,15.6,0,0,1-5.14-.83,11.66,11.66,0,0,1-4.2-2.43l3.2-5.3a12,12,0,0,0,2.18,1.24,8.2,8.2,0,0,0,3.57.75,7.47,7.47,0,0,0,2.51-.42,4.88,4.88,0,0,0,2.08-1.38,6.64,6.64,0,0,0,1.38-2.51,12.85,12.85,0,0,0,.5-3.87V268.41h-13.16Zm9-7.52a3.9,3.9,0,0,1,1.27-2.93,4.92,4.92,0,0,1,3.54-1.21,5.39,5.39,0,0,1,3.7,1.21,3.77,3.77,0,0,1,1.38,2.93,3.58,3.58,0,0,1-1.38,2.9,5.62,5.62,0,0,1-3.7,1.13,5.12,5.12,0,0,1-3.54-1.13A3.69,3.69,0,0,1,1088.26,254.81Z"/><path class="cls-2" d="M1109.15,276.14a17.05,17.05,0,0,1,1-6.19,12.44,12.44,0,0,1,7.6-7.43,17.68,17.68,0,0,1,6-1,17.2,17.2,0,0,1,6.21,1.05,12.8,12.8,0,0,1,4.62,3,12.4,12.4,0,0,1,2.84,4.61,17.55,17.55,0,0,1,1,6,17,17,0,0,1-1,6.19,12.63,12.63,0,0,1-3,4.59,12.85,12.85,0,0,1-4.62,2.85,17.67,17.67,0,0,1-6,1,17.22,17.22,0,0,1-6.22-1.05,12.86,12.86,0,0,1-4.62-2.95,12.36,12.36,0,0,1-2.84-4.62A17.47,17.47,0,0,1,1109.15,276.14Zm7.41,0a11,11,0,0,0,.49,3.37,8.09,8.09,0,0,0,1.44,2.71,6.5,6.5,0,0,0,2.27,1.8,7.68,7.68,0,0,0,8.26-1.41c1.34-1.36,2-3.52,2-6.47a9.59,9.59,0,0,0-1.88-6.16,6.49,6.49,0,0,0-5.36-2.35,8.65,8.65,0,0,0-2.88.47,5.69,5.69,0,0,0-2.29,1.52,7.44,7.44,0,0,0-1.52,2.65A11.91,11.91,0,0,0,1116.56,276.14Z"/><path class="cls-2" d="M1142.53,283.88h6.85V268.41h-6.85v-6.08H1155l.83,3.64h.23a15,15,0,0,1,3.53-3,8.75,8.75,0,0,1,4.64-1.21,6.28,6.28,0,0,1,5.23,2.43q1.9,2.43,1.9,8.12h-6.46a5.65,5.65,0,0,0-.58-2.9,2,2,0,0,0-1.85-.91,5.44,5.44,0,0,0-3.57,1.11,10.84,10.84,0,0,0-2.29,2.54v11.77h12V290h-26Z"/><path class="cls-2" d="M1236.87,287.31a15.81,15.81,0,0,1-5.31,2.57,23.29,23.29,0,0,1-6.35.85,18.06,18.06,0,0,1-6.39-1.05,13,13,0,0,1-4.69-2.95,12.49,12.49,0,0,1-2.9-4.62,17,17,0,0,1-1-6,15.67,15.67,0,0,1,1.16-6.19,13.12,13.12,0,0,1,3.23-4.58,13.88,13.88,0,0,1,4.89-2.85,19,19,0,0,1,6.14-1,22.48,22.48,0,0,1,5.8.72,27.19,27.19,0,0,1,4.15,1.38v9.73h-6.08v-5.09a16,16,0,0,0-3.43-.38,10.5,10.5,0,0,0-3.07.47,7.45,7.45,0,0,0-2.7,1.49,7.76,7.76,0,0,0-1.94,2.57,8.42,8.42,0,0,0-.74,3.7,8.64,8.64,0,0,0,.6,3.26A7.82,7.82,0,0,0,1220,282a7.71,7.71,0,0,0,2.73,1.74,9.8,9.8,0,0,0,3.62.64,13,13,0,0,0,5.17-.89,21.18,21.18,0,0,0,3-1.54Z"/><path class="cls-2" d="M1244.83,264.21a29.34,29.34,0,0,1,5.11-1.72,28.83,28.83,0,0,1,6.88-.72,15.21,15.21,0,0,1,4.89.69,8.19,8.19,0,0,1,3.26,2,7.42,7.42,0,0,1,1.8,3,13.58,13.58,0,0,1,.55,4c0,1.87-.07,3.48-.19,4.8s-.2,2.51-.2,3.54c0,.77,0,1.64.11,2.6.08.51.13,1,.17,1.49h3.59V290h-9.28l-.72-3.76h-.28a9.51,9.51,0,0,1-3.13,3,10.43,10.43,0,0,1-5.49,1.24,9.33,9.33,0,0,1-6.54-2.21,7.56,7.56,0,0,1-2.41-5.86,8.74,8.74,0,0,1,.85-4,7.15,7.15,0,0,1,2.47-2.77,11.7,11.7,0,0,1,3.9-1.6,22.64,22.64,0,0,1,5.08-.53c.66,0,1.35,0,2.08.11s1.63.15,2.7.23a6,6,0,0,0,.1-1.11v-1.05a3.54,3.54,0,0,0-1.2-3,5.88,5.88,0,0,0-3.57-.91,16.56,16.56,0,0,0-5,.72,30.21,30.21,0,0,0-3.78,1.43Zm9.4,20.28a6.6,6.6,0,0,0,3.94-1,6.45,6.45,0,0,0,1.91-2.07v-3.32c-.36-.07-.91-.15-1.64-.25a19.24,19.24,0,0,0-2.35-.13,11.34,11.34,0,0,0-2.08.19,6.7,6.7,0,0,0-1.85.61,3.6,3.6,0,0,0-1.32,1.07,2.7,2.7,0,0,0-.49,1.61,3.15,3.15,0,0,0,.9,2.4A4.28,4.28,0,0,0,1254.23,284.49Z"/><path class="cls-2" d="M1277.82,251.27h11.77v25.54q0,4.24,1.05,5.91a3.71,3.71,0,0,0,3.37,1.66,9.3,9.3,0,0,0,2.82-.36,10.9,10.9,0,0,0,2.21-1l2.71,5c-.63.41-1.25.78-1.88,1.13a12.3,12.3,0,0,1-2,.89,13.48,13.48,0,0,1-2.29.55,18.17,18.17,0,0,1-2.79.19c-3.47,0-6.06-.88-7.8-2.65s-2.59-4.27-2.59-7.52V257.35h-4.59Z"/><path class="cls-2" d="M1309.43,283.88h9.73V268.41h-9.73v-6.08h16.91v21.55h10.23V290h-27.14Zm8.4-29.07a3.9,3.9,0,0,1,1.27-2.93,4.92,4.92,0,0,1,3.54-1.21,5.39,5.39,0,0,1,3.7,1.21,3.77,3.77,0,0,1,1.38,2.93,3.58,3.58,0,0,1-1.38,2.9,5.62,5.62,0,0,1-3.7,1.13,5.12,5.12,0,0,1-3.54-1.13A3.69,3.69,0,0,1,1317.83,254.81Z"/><path class="cls-2" d="M1356.24,251.27h11.55v23.88a76.31,76.31,0,0,0,.44,8.18,2.57,2.57,0,0,0,.06.55h3.54V290h-8.9l-.72-3.54H1362a6.39,6.39,0,0,1-1.49,1.77,10.77,10.77,0,0,1-2.1,1.35,10.66,10.66,0,0,1-2.55.89,13,13,0,0,1-2.76.3,14.11,14.11,0,0,1-4.89-.83,10.58,10.58,0,0,1-4-2.57,12.23,12.23,0,0,1-2.7-4.42,18,18,0,0,1-1-6.33,17.27,17.27,0,0,1,1.08-6.3,13.51,13.51,0,0,1,3-4.67,13,13,0,0,1,4.51-2.92,15.24,15.24,0,0,1,5.69-1,25.34,25.34,0,0,1,3.23.2,11,11,0,0,1,2.63.63v-5.14h-4.37Zm-1.49,33.38a6.89,6.89,0,0,0,3.73-1,4.74,4.74,0,0,0,2.13-3V269a5.25,5.25,0,0,0-2.13-.91,12.51,12.51,0,0,0-2.85-.31,8.71,8.71,0,0,0-2.9.5,6.55,6.55,0,0,0-2.48,1.57,7.69,7.69,0,0,0-1.72,2.8,12.22,12.22,0,0,0-.63,4.2,8.7,8.7,0,0,0,1.77,5.69A6.2,6.2,0,0,0,1354.75,284.65Z"/><path class="cls-2" d="M1377.46,264.21a29.76,29.76,0,0,1,5.12-1.72,28.77,28.77,0,0,1,6.88-.72,15.25,15.25,0,0,1,4.89.69,8.19,8.19,0,0,1,3.26,2,7.29,7.29,0,0,1,1.79,3,13.24,13.24,0,0,1,.56,4c0,1.87-.07,3.48-.2,4.8s-.19,2.51-.19,3.54c0,.77,0,1.64.11,2.6.07.51.13,1,.17,1.49h3.59V290h-9.28l-.72-3.76h-.28a9.61,9.61,0,0,1-3.13,3,10.48,10.48,0,0,1-5.49,1.24,9.33,9.33,0,0,1-6.54-2.21,7.57,7.57,0,0,1-2.42-5.86,8.87,8.87,0,0,1,.85-4,7.17,7.17,0,0,1,2.48-2.77,11.73,11.73,0,0,1,3.89-1.6,22.71,22.71,0,0,1,5.08-.53c.66,0,1.36,0,2.09.11s1.63.15,2.69.23a6,6,0,0,0,.11-1.11v-1.05a3.52,3.52,0,0,0-1.21-3,5.82,5.82,0,0,0-3.56-.91,16.51,16.51,0,0,0-5,.72,31,31,0,0,0-3.79,1.43Zm9.41,20.28a6.54,6.54,0,0,0,3.93-1,6.38,6.38,0,0,0,1.92-2.07v-3.32c-.37-.07-.91-.15-1.64-.25a19.36,19.36,0,0,0-2.35-.13,11.18,11.18,0,0,0-2.08.19,6.89,6.89,0,0,0-1.86.61,3.65,3.65,0,0,0-1.31,1.07,2.63,2.63,0,0,0-.49,1.61,3.15,3.15,0,0,0,.9,2.4A4.24,4.24,0,0,0,1386.87,284.49Z"/><path class="cls-2" d="M1422.56,251.27h11.55v23.88a76.31,76.31,0,0,0,.44,8.18,2.57,2.57,0,0,0,.06.55h3.53V290h-8.89l-.72-3.54h-.22a6.39,6.39,0,0,1-1.49,1.77,11.22,11.22,0,0,1-4.65,2.24,13,13,0,0,1-2.76.3,14.11,14.11,0,0,1-4.89-.83,10.58,10.58,0,0,1-4-2.57,12.39,12.39,0,0,1-2.71-4.42,18.21,18.21,0,0,1-1-6.33,17.27,17.27,0,0,1,1.08-6.3,13.51,13.51,0,0,1,3-4.67,13,13,0,0,1,4.51-2.92,15.2,15.2,0,0,1,5.69-1,25.34,25.34,0,0,1,3.23.2,11.16,11.16,0,0,1,2.63.63v-5.14h-4.37Zm-1.49,33.38a6.89,6.89,0,0,0,3.73-1,4.81,4.81,0,0,0,2.13-3V269a5.25,5.25,0,0,0-2.13-.91,12.58,12.58,0,0,0-2.85-.31,8.71,8.71,0,0,0-2.9.5,6.66,6.66,0,0,0-2.49,1.57,7.55,7.55,0,0,0-1.71,2.8,12.21,12.21,0,0,0-.64,4.2,8.7,8.7,0,0,0,1.77,5.69A6.23,6.23,0,0,0,1421.07,284.65Z"/><path class="cls-3" d="M403.38,149.41a18.93,18.93,0,0,1-1.32,6.85,18.62,18.62,0,0,1-4,6.2,20.34,20.34,0,0,1-6.45,4.48,20.78,20.78,0,0,1-8.57,1.71,26.71,26.71,0,0,1-10.15-2,22.79,22.79,0,0,1-8.31-5.66,24.65,24.65,0,0,1-4.48-8.18,31.56,31.56,0,0,1-1.58-10,46,46,0,0,1,13.71-33.48,45.84,45.84,0,0,1,6.59-5.41,71.21,71.21,0,0,1,7-4.21c2.19-1.14,4.08-2.07,5.66-2.77s2.55-1.14,2.9-1.32L405,111.18Q402,112.25,398.5,114a36.38,36.38,0,0,0-6.72,4.22,22.81,22.81,0,0,0-5.28,5.93,16.84,16.84,0,0,0-2.37,7.91,21.37,21.37,0,0,1,13.45,4.48Q403.37,141,403.38,149.41Zm55.62,0a19.12,19.12,0,0,1-5.27,13.05,20.38,20.38,0,0,1-6.46,4.48,20.78,20.78,0,0,1-8.57,1.71,26.71,26.71,0,0,1-10.15-2,22.76,22.76,0,0,1-8.3-5.66,24.3,24.3,0,0,1-4.48-8.18,31.28,31.28,0,0,1-1.59-10,46,46,0,0,1,13.71-33.48,45.84,45.84,0,0,1,6.59-5.41,71.21,71.21,0,0,1,7-4.21c2.19-1.14,4.08-2.07,5.67-2.77s2.54-1.14,2.89-1.32l10.55,15.55q-2.91,1.06-6.46,2.77a36.38,36.38,0,0,0-6.72,4.22,22.59,22.59,0,0,0-5.27,5.93,16.73,16.73,0,0,0-2.38,7.91,21.37,21.37,0,0,1,13.45,4.48Q459,141,459,149.41Z"/><path class="cls-3" d="M1454.16,245.76a18.93,18.93,0,0,1,1.32-6.85,18.69,18.69,0,0,1,4-6.2,20.43,20.43,0,0,1,6.46-4.48,20.75,20.75,0,0,1,8.57-1.71,26.79,26.79,0,0,1,10.15,2,23,23,0,0,1,8.3,5.66,24.48,24.48,0,0,1,4.48,8.18,31.28,31.28,0,0,1,1.58,10,46,46,0,0,1-13.7,33.48,45.07,45.07,0,0,1-6.59,5.41,70.43,70.43,0,0,1-7,4.21q-3.3,1.73-5.67,2.77c-1.58.7-2.55,1.15-2.9,1.32L1452.58,284c1.93-.7,4.09-1.63,6.46-2.77a35.86,35.86,0,0,0,6.72-4.22,22.61,22.61,0,0,0,5.27-5.93,16.58,16.58,0,0,0,2.37-7.91,21.32,21.32,0,0,1-13.44-4.48Q1454.15,254.2,1454.16,245.76Zm55.62,0a19.12,19.12,0,0,1,5.27-13,20.43,20.43,0,0,1,6.46-4.48,20.78,20.78,0,0,1,8.57-1.71,26.75,26.75,0,0,1,10.15,2,22.88,22.88,0,0,1,8.3,5.66,24.48,24.48,0,0,1,4.48,8.18,31.28,31.28,0,0,1,1.59,10,46,46,0,0,1-13.71,33.48,45.07,45.07,0,0,1-6.59,5.41,70.43,70.43,0,0,1-7,4.21c-2.2,1.15-4.08,2.07-5.67,2.77s-2.55,1.15-2.89,1.32L1508.2,284c1.93-.7,4.09-1.63,6.46-2.77a35.86,35.86,0,0,0,6.72-4.22,22.43,22.43,0,0,0,5.27-5.93,16.7,16.7,0,0,0,2.38-7.91,21.37,21.37,0,0,1-13.45-4.48Q1509.78,254.2,1509.78,245.76Z"/></svg>