<svg width="30" height="29" viewBox="0 0 30 29" fill="none" xmlns="http://www.w3.org/2000/svg">
<path d="M28.2885 7.25H22.5728V6.67C22.5728 2.987 19.1097 0 14.8397 0C10.5696 0 7.10656 2.987 7.10656 6.67V7.25H1.39079C0.646895 7.25 0.0458984 7.76837 0.0458984 8.41V27.84C0.0458984 28.4816 0.646895 29 1.39079 29H28.2885C29.0324 29 29.6334 28.4816 29.6334 27.84V8.41C29.6334 7.76837 29.0324 7.25 28.2885 7.25ZM10.1326 6.67C10.1326 4.42613 12.2381 2.61 14.8397 2.61C17.4412 2.61 19.5468 4.42613 19.5468 6.67V7.25H10.1326V6.67ZM26.6074 26.39H3.0719V9.86H7.10656V13.05C7.10656 13.2095 7.25786 13.34 7.44278 13.34H9.79634C9.98126 13.34 10.1326 13.2095 10.1326 13.05V9.86H19.5468V13.05C19.5468 13.2095 19.6981 13.34 19.883 13.34H22.2366C22.4215 13.34 22.5728 13.2095 22.5728 13.05V9.86H26.6074V26.39Z" fill="black"/>
</svg>
