<svg width="13" height="15" viewBox="0 0 13 15" fill="none" xmlns="http://www.w3.org/2000/svg">
<path d="M12.0484 1.29413H2.36363C2.33446 1.29413 2.30784 1.30614 2.2805 1.31515L2.04246 0.458573C1.96676 0.186171 1.7373 0 1.47726 0H0.295464C0.13229 0 0 0.144861 0 0.32354V0.97059C0 1.14927 0.13229 1.29413 0.295464 1.29413H1.03959L2.88561 7.93691L2.19616 8.81769C1.92366 9.1658 1.80095 9.64545 1.92637 10.0829C2.08678 10.6423 2.53769 11 3.05757 11H11.5227C11.6859 11 11.8182 10.8551 11.8182 10.6765V10.0294C11.8182 9.85073 11.6859 9.70587 11.5227 9.70587H3.05754L3.99412 8.50938C4.01767 8.47929 4.03498 8.44532 4.05285 8.41174H9.77829C10.2362 8.41174 10.653 8.12214 10.848 7.66842L12.9097 2.87098C12.9688 2.73291 13 2.57968 13 2.42769V2.33606C13 1.76065 12.574 1.29413 12.0484 1.29413Z" fill="#FC4B44"/>
<path d="M3.5 15C4.32843 15 5 14.3284 5 13.5C5 12.6716 4.32843 12 3.5 12C2.67157 12 2 12.6716 2 13.5C2 14.3284 2.67157 15 3.5 15Z" fill="#FC4B44"/>
<path d="M10.5 15C11.3284 15 12 14.3284 12 13.5C12 12.6716 11.3284 12 10.5 12C9.67157 12 9 12.6716 9 13.5C9 14.3284 9.67157 15 10.5 15Z" fill="#FC4B44"/>
</svg>
