<svg width="50" height="50" viewBox="0 0 50 50" fill="none" xmlns="http://www.w3.org/2000/svg">
<path d="M41.666 8.33334H8.33268C6.02018 8.33334 4.16602 10.1875 4.16602 12.5V37.5C4.16602 38.6051 4.605 39.6649 5.3864 40.4463C6.16781 41.2277 7.22761 41.6667 8.33268 41.6667H41.666C43.9785 41.6667 45.8327 39.8125 45.8327 37.5V12.5C45.8327 11.3949 45.3937 10.3351 44.6123 9.55372C43.8309 8.77232 42.7711 8.33334 41.666 8.33334ZM31.2494 20.8333H22.916V22.9167H29.166C30.3119 22.9167 31.2494 23.8542 31.2494 25V31.25C31.2494 32.3958 30.3119 33.3333 29.166 33.3333H27.0827V35.4167H22.916V33.3333H18.7493V29.1667H27.0827V27.0833H20.8327C19.6869 27.0833 18.7493 26.1458 18.7493 25V18.75C18.7493 17.6042 19.6869 16.6667 20.8327 16.6667H22.916V14.5833H27.0827V16.6667H31.2494V20.8333Z" fill="#7EB82F"/>
</svg>
