<svg width="40" height="38" viewBox="0 0 40 38" fill="none" xmlns="http://www.w3.org/2000/svg">
<g clip-path="url(#clip0)">
<path d="M32.3798 30.04C25.9698 35.43 16.8598 38.28 11.6298 36.54C6.99979 34.99 2.40979 28.65 0.709795 21.46C-0.150205 17.84 -1.43021 8.71 5.09979 2.16C5.84979 1.41 8.19979 0 10.8698 0C11.2598 0 11.6498 0.03 12.0398 0.09C14.6898 0.52 16.9198 2.52 18.6698 6.05L20.4998 9.73L24.2298 8.01C28.6198 5.99 32.4498 5.74 35.3198 7.28C38.1398 8.8 39.4998 11.68 39.8298 13.88C40.9998 21.51 35.6598 27.28 32.3798 30.04Z" fill="#FC4B44"/>
</g>
<defs>
<clipPath id="clip0">
<rect width="40" height="37.05" fill="white"/>
</clipPath>
</defs>
</svg>
