<svg id="Capa_1" data-name="Capa 1" xmlns="http://www.w3.org/2000/svg" viewBox="0 0 29.81 30"><defs><style>.cls-1{fill:#fff;}</style></defs><polygon class="cls-1" points="4.67 25.16 4.67 25.16 4.67 25.16 4.67 25.16"/><path class="cls-1" d="M2.49,29.36c1.79-.58,3.4-1.1,5.06-1.59a2,2,0,0,1,1.27.08,14.41,14.41,0,0,0,8.34,1.32A14.61,14.61,0,0,0,27,23.45,14.6,14.6,0,0,0,23.71,2.71,14.45,14.45,0,0,0,15.33,0a15,15,0,0,0-2.74.26A14.58,14.58,0,0,0,2.25,21.42a1.68,1.68,0,0,1,.09,1.5c-.53,1.48-1,3-1.54,4.53L.11,29.5a.39.39,0,0,0,.09.39A.36.36,0,0,0,.58,30ZM4.55,9.88a11.77,11.77,0,0,1,8.86-6.79,11.94,11.94,0,0,1,8.71,2.07,11.4,11.4,0,0,1,4.69,7.6,11.45,11.45,0,0,1-2.07,8.73,11.85,11.85,0,0,1-7.84,4.73,12.87,12.87,0,0,1-1.63.11,12.53,12.53,0,0,1-6-1.58,2.18,2.18,0,0,0-1.43-.14c-.92.26-1.84.55-2.81.87l-.58.19.18-.54.12,0-.12-.06c.28-.87.54-1.69.84-2.48a1.89,1.89,0,0,0-.21-1.85A11.39,11.39,0,0,1,4.55,9.88Z" transform="translate(-0.09 0)"/><path class="cls-1" d="M22.69,19.14a2,2,0,0,0-1.13-1.5l-.39-.2-.27-.14c-1.74-.92-1.83-.9-3.16.58a.91.91,0,0,1-1.28.25,10.52,10.52,0,0,1-4.3-3.92,1,1,0,0,1,.12-1.52l.12-.11c.39-.36.88-.82.57-1.59-.14-.34-.26-.68-.38-1v0c-.18-.5-.37-1-.6-1.5a1.7,1.7,0,0,0-1-.73,1.77,1.77,0,0,0-.5-.07A1.93,1.93,0,0,0,9,8.52a3.76,3.76,0,0,0-.8,3.63,14,14,0,0,0,7.31,8.52l.32.16a8.42,8.42,0,0,0,3.15,1.07h.18v-.12h.25v.12a4.94,4.94,0,0,0,2.52-1.15A1.87,1.87,0,0,0,22.69,19.14Z" transform="translate(-0.09 0)"/></svg>