<svg id="Capa_1" data-name="Capa 1" xmlns="http://www.w3.org/2000/svg" viewBox="0 0 30 24.32"><defs><style>.cls-1{fill:#fff;}</style></defs><path class="cls-1" d="M26.82,6.59A1,1,0,0,0,27.09,6c-.05-.16-.38-.27-.55-.33a2.91,2.91,0,0,0-.66,0H2.72a5.06,5.06,0,0,0,.49.94c3.75,3.2,7.56,6.34,11.31,9.54a.68.68,0,0,0,1.05,0c2.81-2.43,5.68-4.8,8.54-7.17C25,8.13,25.93,7.36,26.82,6.59Zm.33,16.76V10.12c-3.75,3.09-7.23,6-10.7,8.93a1.93,1.93,0,0,1-2.92,0L6.14,12.82c-1-.88-2-1.71-3.2-2.65v14c.11.06.16.11.22.11H26.43C27.15,24.29,27.15,23.85,27.15,23.35ZM30,5.21V24.79c0,1.82-.61,2.37-2.43,2.37H2.5C.62,27.16,0,26.5,0,24.62,0,18.23,0,11.77,0,5.38,0,3.45.57,2.84,2.5,2.84h25C29.41,2.84,30,3.39,30,5.21Z" transform="translate(0.04 -2.84)"/></svg>