<svg id="Capa_1" data-name="Capa 1" xmlns="http://www.w3.org/2000/svg" viewBox="0 0 29.99 30"><defs><style>.cls-1{fill:#fff;}</style></defs><path class="cls-1" d="M0,19.81V10.2l.06-.67c.08-.88.11-1.77.25-2.64a7.76,7.76,0,0,1,3-5.06,9.1,9.1,0,0,1,5-1.71L10.2,0h9.61l.79.06c.94.1,1.89.12,2.81.31a7.59,7.59,0,0,1,5.65,4.42,10.72,10.72,0,0,1,.88,4.47Q30,14.11,30,19a20.77,20.77,0,0,1-.34,4.45A7.74,7.74,0,0,1,25.27,29a10.94,10.94,0,0,1-4.55.9L12.46,30a31.16,31.16,0,0,1-5.55-.3,7.87,7.87,0,0,1-5.07-3,9,9,0,0,1-1.71-5C.08,21.09,0,20.45,0,19.81Zm15,7.53v-.06c1.29,0,2.58,0,3.87,0A30.71,30.71,0,0,0,22.7,27a4.91,4.91,0,0,0,4.22-3.86,11.38,11.38,0,0,0,.33-2.9c0-3,.05-6.09,0-9.14A25.73,25.73,0,0,0,27,7.28,4.93,4.93,0,0,0,23.21,3.1a11.83,11.83,0,0,0-3.08-.34c-2.71,0-5.42,0-8.14,0A25.47,25.47,0,0,0,7.29,3,5,5,0,0,0,3.16,6.63a11.42,11.42,0,0,0-.4,3.24c0,2.48-.07,5,0,7.44,0,1.69.06,3.4.23,5.08a5,5,0,0,0,2.47,3.94,6.62,6.62,0,0,0,3.22.85C10.75,27.26,12.87,27.29,15,27.34Z" transform="translate(0 0)"/><path class="cls-1" d="M23,8.76A1.78,1.78,0,0,0,24.82,7a1.8,1.8,0,1,0-3.6,0A1.77,1.77,0,0,0,23,8.76Z" transform="translate(0 0)"/><path class="cls-1" d="M15,7.29A7.71,7.71,0,1,1,7.29,15,7.73,7.73,0,0,1,15,7.29ZM10,15a5,5,0,1,0,5-5A5,5,0,0,0,10,15Z" transform="translate(0 0)"/></svg>