<svg width="22" height="16" viewBox="0 0 22 16" fill="none" xmlns="http://www.w3.org/2000/svg">
<path fill-rule="evenodd" clip-rule="evenodd" d="M19.3333 1.33333H2C1.82319 1.33333 1.65362 1.40357 1.5286 1.5286C1.40357 1.65362 1.33333 1.82319 1.33333 2V14C1.33333 14.1768 1.40357 14.3464 1.5286 14.4714C1.65362 14.5964 1.82319 14.6667 2 14.6667H19.3333C19.5101 14.6667 19.6797 14.5964 19.8047 14.4714C19.9298 14.3464 20 14.1768 20 14V2C20 1.82319 19.9298 1.65362 19.8047 1.5286C19.6797 1.40357 19.5101 1.33333 19.3333 1.33333ZM2 0C1.46957 0 0.960859 0.210714 0.585786 0.585787C0.210714 0.960859 0 1.46957 0 2L0 14C0 14.5304 0.210714 15.0391 0.585786 15.4142C0.960859 15.7893 1.46957 16 2 16H19.3333C19.8638 16 20.3725 15.7893 20.7475 15.4142C21.1226 15.0391 21.3333 14.5304 21.3333 14V2C21.3333 1.46957 21.1226 0.960859 20.7475 0.585787C20.3725 0.210714 19.8638 0 19.3333 0H2Z" fill="#62059E"/>
<path fill-rule="evenodd" clip-rule="evenodd" d="M6.6665 8C6.6665 7.82319 6.73674 7.65362 6.86177 7.5286C6.98679 7.40357 7.15636 7.33333 7.33317 7.33333H16.6665C16.8433 7.33333 17.0129 7.40357 17.1379 7.5286C17.2629 7.65362 17.3332 7.82319 17.3332 8C17.3332 8.17681 17.2629 8.34638 17.1379 8.47141C17.0129 8.59643 16.8433 8.66667 16.6665 8.66667H7.33317C7.15636 8.66667 6.98679 8.59643 6.86177 8.47141C6.73674 8.34638 6.6665 8.17681 6.6665 8ZM6.6665 4.66667C6.6665 4.48986 6.73674 4.32029 6.86177 4.19526C6.98679 4.07024 7.15636 4 7.33317 4H16.6665C16.8433 4 17.0129 4.07024 17.1379 4.19526C17.2629 4.32029 17.3332 4.48986 17.3332 4.66667C17.3332 4.84348 17.2629 5.01305 17.1379 5.13807C17.0129 5.2631 16.8433 5.33333 16.6665 5.33333H7.33317C7.15636 5.33333 6.98679 5.2631 6.86177 5.13807C6.73674 5.01305 6.6665 4.84348 6.6665 4.66667ZM6.6665 11.3333C6.6665 11.1565 6.73674 10.987 6.86177 10.8619C6.98679 10.7369 7.15636 10.6667 7.33317 10.6667H16.6665C16.8433 10.6667 17.0129 10.7369 17.1379 10.8619C17.2629 10.987 17.3332 11.1565 17.3332 11.3333C17.3332 11.5101 17.2629 11.6797 17.1379 11.8047C17.0129 11.9298 16.8433 12 16.6665 12H7.33317C7.15636 12 6.98679 11.9298 6.86177 11.8047C6.73674 11.6797 6.6665 11.5101 6.6665 11.3333Z" fill="#62059E"/>
<path d="M4.66667 5.33333C5.03486 5.33333 5.33333 5.03486 5.33333 4.66667C5.33333 4.29848 5.03486 4 4.66667 4C4.29848 4 4 4.29848 4 4.66667C4 5.03486 4.29848 5.33333 4.66667 5.33333Z" fill="#62059E"/>
<path d="M4.66667 8.66665C5.03486 8.66665 5.33333 8.36817 5.33333 7.99998C5.33333 7.63179 5.03486 7.33331 4.66667 7.33331C4.29848 7.33331 4 7.63179 4 7.99998C4 8.36817 4.29848 8.66665 4.66667 8.66665Z" fill="#62059E"/>
<path d="M4.66667 12C5.03486 12 5.33333 11.7015 5.33333 11.3334C5.33333 10.9652 5.03486 10.6667 4.66667 10.6667C4.29848 10.6667 4 10.9652 4 11.3334C4 11.7015 4.29848 12 4.66667 12Z" fill="#62059E"/>
</svg>
