<?xml version="1.0" encoding="utf-8"?>
<!-- Generator: Adobe Illustrator 24.1.0, SVG Export Plug-In . SVG Version: 6.00 Build 0)  -->
<svg version="1.1" id="Capa_1" xmlns="http://www.w3.org/2000/svg" xmlns:xlink="http://www.w3.org/1999/xlink" x="0px" y="0px"
	 viewBox="0 0 150 85" style="enable-background:new 0 0 150 85;" xml:space="preserve">
<style type="text/css">
	.st0{fill:url(#SVGID_1_);}
	.st1{fill:url(#SVGID_2_);}
	.st2{fill:url(#SVGID_3_);}
	.st3{fill:url(#SVGID_4_);}
	.st4{fill:url(#SVGID_5_);}
	.st5{fill:url(#SVGID_6_);}
	.st6{fill:url(#SVGID_7_);}
	.st7{fill:url(#SVGID_8_);}
	.st8{fill:url(#SVGID_9_);}
	.st9{fill:url(#SVGID_10_);}
	.st10{fill:#231F20;}
	.st11{fill:#FC4B44;}
</style>
<g>
	<g>
		<g>
			<linearGradient id="SVGID_1_" gradientUnits="userSpaceOnUse" x1="-0.6649" y1="69.722" x2="150.9227" y2="69.722">
				<stop  offset="0" style="stop-color:#FC4B44"/>
				<stop  offset="0.5" style="stop-color:#62059E"/>
				<stop  offset="1" style="stop-color:#00D2B8"/>
			</linearGradient>
			<path class="st0" d="M0,60.22c0.16-0.02,0.45-0.04,0.85-0.08c0.41-0.04,0.87-0.07,1.38-0.09c0.52-0.03,1.05-0.05,1.6-0.07
				c0.55-0.02,1.04-0.03,1.48-0.03c1.68,0,3.07,0.24,4.17,0.73c1.1,0.49,1.97,1.16,2.62,2.02c0.64,0.86,1.09,1.87,1.34,3.04
				c0.25,1.17,0.38,2.44,0.38,3.81c0,1.25-0.13,2.47-0.38,3.66c-0.25,1.19-0.71,2.25-1.37,3.19c-0.66,0.93-1.57,1.68-2.74,2.25
				c-1.17,0.57-2.66,0.85-4.49,0.85c-0.29,0-0.66-0.01-1.11-0.03c-0.45-0.02-0.91-0.04-1.38-0.07C1.89,79.37,1.44,79.35,1,79.32
				c-0.43-0.03-0.77-0.06-1-0.09V60.22z M5.45,63.26c-0.34,0-0.68,0.01-1,0.04c-0.33,0.03-0.57,0.05-0.73,0.07v12.71
				c0.07,0.02,0.18,0.03,0.33,0.04c0.14,0.01,0.29,0.02,0.45,0.03c0.15,0.01,0.3,0.02,0.45,0.03c0.14,0.01,0.26,0.01,0.35,0.01
				c1.05,0,1.88-0.19,2.51-0.58c0.62-0.39,1.09-0.9,1.4-1.53c0.31-0.63,0.51-1.35,0.6-2.14c0.09-0.8,0.14-1.59,0.14-2.39
				c0-0.69-0.04-1.4-0.12-2.14c-0.08-0.74-0.27-1.42-0.57-2.03c-0.3-0.61-0.75-1.12-1.34-1.52C7.29,63.46,6.48,63.26,5.45,63.26z"/>
			<linearGradient id="SVGID_2_" gradientUnits="userSpaceOnUse" x1="-0.6649" y1="72.4193" x2="150.9227" y2="72.4193">
				<stop  offset="0" style="stop-color:#FC4B44"/>
				<stop  offset="0.5" style="stop-color:#62059E"/>
				<stop  offset="1" style="stop-color:#00D2B8"/>
			</linearGradient>
			<path class="st1" d="M29.01,77.76c-0.24,0.22-0.54,0.43-0.91,0.64c-0.37,0.21-0.8,0.4-1.3,0.58c-0.5,0.18-1.04,0.33-1.64,0.43
				c-0.6,0.11-1.23,0.16-1.9,0.16c-1.16,0-2.19-0.16-3.1-0.49c-0.91-0.33-1.69-0.8-2.32-1.42c-0.63-0.62-1.12-1.37-1.45-2.25
				c-0.33-0.88-0.5-1.87-0.5-3c0-1.19,0.19-2.24,0.57-3.13c0.38-0.89,0.9-1.64,1.56-2.24c0.66-0.6,1.43-1.04,2.32-1.34
				c0.89-0.3,1.84-0.45,2.87-0.45c0.69,0,1.4,0.09,2.13,0.27c0.73,0.18,1.4,0.49,2.02,0.94c0.61,0.44,1.12,1.03,1.5,1.78
				c0.39,0.74,0.58,1.68,0.58,2.82c0,0.78-0.09,1.62-0.27,2.52h-9.76c0.02,0.58,0.14,1.07,0.37,1.46c0.23,0.4,0.52,0.72,0.89,0.98
				c0.37,0.25,0.79,0.44,1.27,0.56c0.48,0.12,0.99,0.18,1.53,0.18c1.08,0,1.97-0.13,2.67-0.38c0.7-0.25,1.26-0.56,1.69-0.92
				L29.01,77.76z M23.15,68.08c-0.47,0-0.91,0.06-1.33,0.19c-0.42,0.13-0.79,0.32-1.13,0.57c-0.33,0.25-0.61,0.56-0.83,0.92
				c-0.22,0.37-0.34,0.78-0.38,1.24h6.67c0-0.9-0.25-1.62-0.75-2.14C24.92,68.34,24.17,68.08,23.15,68.08z"/>
			<linearGradient id="SVGID_3_" gradientUnits="userSpaceOnUse" x1="-0.6649" y1="72.4193" x2="150.9227" y2="72.4193">
				<stop  offset="0" style="stop-color:#FC4B44"/>
				<stop  offset="0.5" style="stop-color:#62059E"/>
				<stop  offset="1" style="stop-color:#00D2B8"/>
			</linearGradient>
			<path class="st2" d="M40.41,75.46c0-0.36-0.22-0.65-0.66-0.87c-0.44-0.22-0.99-0.42-1.64-0.6c-0.65-0.18-1.36-0.37-2.14-0.56
				c-0.78-0.19-1.49-0.45-2.14-0.79c-0.65-0.33-1.2-0.76-1.64-1.27c-0.44-0.51-0.66-1.18-0.66-1.99c0-0.67,0.15-1.26,0.45-1.76
				c0.3-0.51,0.7-0.94,1.22-1.29c0.52-0.35,1.13-0.62,1.84-0.8c0.71-0.18,1.49-0.27,2.32-0.27c0.89,0,1.66,0.06,2.33,0.19
				c0.67,0.13,1.25,0.28,1.75,0.46c0.5,0.18,0.92,0.38,1.27,0.61c0.35,0.23,0.65,0.43,0.91,0.61l-1.49,2.41
				c-0.27-0.16-0.58-0.33-0.94-0.5c-0.35-0.17-0.72-0.33-1.11-0.47c-0.39-0.14-0.8-0.26-1.22-0.35c-0.42-0.09-0.85-0.14-1.26-0.14
				c-0.76,0-1.37,0.1-1.84,0.3c-0.47,0.2-0.7,0.51-0.7,0.92c0,0.33,0.22,0.59,0.66,0.79c0.44,0.2,0.99,0.38,1.64,0.56
				c0.65,0.17,1.36,0.36,2.14,0.56c0.78,0.2,1.49,0.46,2.14,0.77c0.65,0.32,1.2,0.73,1.64,1.23c0.44,0.51,0.66,1.16,0.66,1.95
				c0,1.37-0.5,2.45-1.5,3.24c-1,0.79-2.49,1.18-4.46,1.18c-1.55,0-2.9-0.23-4.03-0.69c-1.13-0.46-2.04-1-2.72-1.61l1.63-2.55
				c0.23,0.2,0.55,0.42,0.94,0.66c0.39,0.24,0.83,0.47,1.31,0.66c0.49,0.2,1.01,0.37,1.56,0.5c0.55,0.14,1.1,0.2,1.64,0.2
				c0.58,0,1.07-0.1,1.49-0.3C40.2,76.26,40.41,75.93,40.41,75.46z"/>
			<linearGradient id="SVGID_4_" gradientUnits="userSpaceOnUse" x1="-0.6649" y1="74.9405" x2="150.9227" y2="74.9405">
				<stop  offset="0" style="stop-color:#FC4B44"/>
				<stop  offset="0.5" style="stop-color:#62059E"/>
				<stop  offset="1" style="stop-color:#00D2B8"/>
			</linearGradient>
			<path class="st3" d="M45.49,65.64h4.61l0.41,1.63h0.11c0.94-1.34,2.46-2.01,4.55-2.01c0.83,0,1.59,0.13,2.29,0.39
				c0.7,0.26,1.29,0.67,1.79,1.23c0.5,0.56,0.88,1.27,1.15,2.11c0.27,0.85,0.41,1.87,0.41,3.06c0,1.16-0.15,2.2-0.46,3.13
				c-0.31,0.93-0.75,1.72-1.33,2.37c-0.58,0.65-1.28,1.15-2.11,1.49c-0.83,0.34-1.78,0.52-2.85,0.52c-0.56,0-1.11-0.04-1.65-0.12
				c-0.54-0.08-0.99-0.21-1.36-0.39v5.56h-3.52V68.62h-2.03V65.64z M54.11,68.24c-0.69,0-1.31,0.17-1.88,0.52
				c-0.57,0.34-0.96,0.86-1.18,1.55v5.64c0.25,0.2,0.62,0.36,1.1,0.47c0.48,0.12,0.96,0.18,1.45,0.18c0.51,0,0.98-0.09,1.41-0.26
				c0.43-0.17,0.81-0.45,1.14-0.83c0.33-0.38,0.58-0.86,0.76-1.44c0.18-0.58,0.27-1.27,0.27-2.09c0-1.19-0.29-2.11-0.87-2.77
				C55.73,68.57,55,68.24,54.11,68.24z"/>
			<linearGradient id="SVGID_5_" gradientUnits="userSpaceOnUse" x1="-0.6649" y1="69.5458" x2="150.9227" y2="69.5458">
				<stop  offset="0" style="stop-color:#FC4B44"/>
				<stop  offset="0.5" style="stop-color:#62059E"/>
				<stop  offset="1" style="stop-color:#00D2B8"/>
			</linearGradient>
			<path class="st4" d="M63.35,66.56c0.72-0.33,1.56-0.61,2.51-0.84c0.95-0.23,2.07-0.35,3.38-0.35c0.94,0,1.74,0.11,2.4,0.34
				c0.66,0.23,1.19,0.55,1.6,0.96c0.41,0.42,0.7,0.91,0.88,1.49c0.18,0.58,0.27,1.23,0.27,1.95c0,0.92-0.03,1.71-0.1,2.36
				s-0.09,1.23-0.09,1.73c0,0.38,0.02,0.8,0.05,1.27c0.04,0.25,0.06,0.5,0.08,0.73h1.76v2.98h-4.55l-0.36-1.84h-0.13
				c-0.36,0.56-0.87,1.04-1.54,1.45c-0.66,0.41-1.56,0.61-2.69,0.61c-1.35,0-2.42-0.36-3.21-1.08c-0.79-0.72-1.19-1.68-1.19-2.87
				c0-0.76,0.14-1.41,0.42-1.97c0.28-0.55,0.68-1,1.21-1.36c0.53-0.35,1.17-0.61,1.91-0.79c0.75-0.17,1.58-0.26,2.49-0.26
				c0.32,0,0.66,0.02,1.02,0.05c0.36,0.04,0.8,0.07,1.32,0.11c0.04-0.18,0.05-0.36,0.05-0.54V70.2c0-0.69-0.2-1.18-0.59-1.48
				c-0.39-0.3-0.98-0.45-1.75-0.45c-0.92,0-1.74,0.12-2.48,0.35c-0.74,0.24-1.35,0.47-1.86,0.71L63.35,66.56z M67.96,76.51
				c0.86,0,1.5-0.16,1.93-0.47c0.43-0.32,0.74-0.65,0.94-1.02V73.4c-0.18-0.04-0.45-0.08-0.8-0.12c-0.36-0.04-0.74-0.07-1.15-0.07
				c-0.34,0-0.68,0.03-1.02,0.1c-0.34,0.06-0.64,0.16-0.91,0.3c-0.27,0.14-0.48,0.31-0.64,0.53c-0.16,0.22-0.24,0.48-0.24,0.79
				c0,0.51,0.15,0.9,0.44,1.18C66.8,76.37,67.28,76.51,67.96,76.51z M68.99,59.68h4.28l-3.71,4.17h-2.17L68.99,59.68z"/>
			<linearGradient id="SVGID_6_" gradientUnits="userSpaceOnUse" x1="-0.6649" y1="72.4193" x2="150.9227" y2="72.4193">
				<stop  offset="0" style="stop-color:#FC4B44"/>
				<stop  offset="0.5" style="stop-color:#62059E"/>
				<stop  offset="1" style="stop-color:#00D2B8"/>
			</linearGradient>
			<path class="st5" d="M90.28,77.9c-0.74,0.56-1.61,0.98-2.6,1.26c-0.99,0.28-2.03,0.42-3.12,0.42c-1.18,0-2.22-0.17-3.13-0.52
				c-0.91-0.34-1.68-0.83-2.3-1.45c-0.62-0.62-1.1-1.38-1.42-2.26c-0.33-0.89-0.49-1.86-0.49-2.93c0-1.14,0.19-2.15,0.57-3.04
				c0.38-0.89,0.91-1.64,1.59-2.25c0.68-0.61,1.48-1.08,2.4-1.4c0.92-0.32,1.92-0.47,3.01-0.47c1.01,0,1.96,0.12,2.85,0.35
				c0.89,0.24,1.56,0.46,2.03,0.68v4.77h-2.98v-2.49c-0.56-0.13-1.12-0.19-1.68-0.19c-0.51,0-1.01,0.08-1.5,0.23
				c-0.5,0.15-0.94,0.4-1.33,0.73c-0.39,0.33-0.71,0.75-0.95,1.26c-0.24,0.51-0.37,1.11-0.37,1.82c0,0.58,0.1,1.11,0.3,1.6
				c0.2,0.49,0.48,0.91,0.84,1.27s0.81,0.65,1.34,0.85c0.53,0.21,1.13,0.31,1.78,0.31c1.03,0,1.87-0.14,2.53-0.43
				c0.66-0.29,1.15-0.54,1.48-0.76L90.28,77.9z"/>
			<linearGradient id="SVGID_7_" gradientUnits="userSpaceOnUse" x1="-0.6649" y1="69.7083" x2="150.9227" y2="69.7083">
				<stop  offset="0" style="stop-color:#FC4B44"/>
				<stop  offset="0.5" style="stop-color:#62059E"/>
				<stop  offset="1" style="stop-color:#00D2B8"/>
			</linearGradient>
			<path class="st6" d="M91.09,60.22h5.48v6.94h0.11c0.43-0.58,1.01-1.04,1.74-1.38c0.72-0.34,1.57-0.52,2.55-0.52
				c0.69,0,1.32,0.09,1.9,0.27c0.58,0.18,1.07,0.48,1.49,0.89c0.42,0.42,0.74,0.98,0.98,1.69c0.23,0.71,0.35,1.6,0.35,2.64v8.43
				h-3.52v-7.7c0-1.1-0.24-1.9-0.71-2.39c-0.47-0.49-1.08-0.73-1.84-0.73c-0.67,0-1.28,0.2-1.84,0.61
				c-0.56,0.41-0.96,0.93-1.19,1.56v8.65h-3.52V63.2h-1.95V60.22z"/>
			<linearGradient id="SVGID_8_" gradientUnits="userSpaceOnUse" x1="-0.6649" y1="72.3923" x2="150.9227" y2="72.3923">
				<stop  offset="0" style="stop-color:#FC4B44"/>
				<stop  offset="0.5" style="stop-color:#62059E"/>
				<stop  offset="1" style="stop-color:#00D2B8"/>
			</linearGradient>
			<path class="st7" d="M108.85,66.56c0.72-0.33,1.56-0.61,2.51-0.84c0.95-0.23,2.07-0.35,3.37-0.35c0.94,0,1.74,0.11,2.4,0.34
				c0.66,0.23,1.19,0.55,1.6,0.96c0.41,0.42,0.7,0.91,0.88,1.49c0.18,0.58,0.27,1.23,0.27,1.95c0,0.92-0.03,1.71-0.1,2.36
				c-0.06,0.65-0.09,1.23-0.09,1.73c0,0.38,0.02,0.8,0.05,1.27c0.04,0.25,0.06,0.5,0.08,0.73h1.76v2.98h-4.55l-0.36-1.84h-0.13
				c-0.36,0.56-0.87,1.04-1.54,1.45c-0.66,0.41-1.56,0.61-2.69,0.61c-1.35,0-2.42-0.36-3.21-1.08c-0.79-0.72-1.18-1.68-1.18-2.87
				c0-0.76,0.14-1.41,0.42-1.97c0.28-0.55,0.68-1,1.21-1.36c0.53-0.35,1.17-0.61,1.91-0.79c0.74-0.17,1.58-0.26,2.49-0.26
				c0.32,0,0.66,0.02,1.02,0.05c0.36,0.04,0.8,0.07,1.32,0.11c0.04-0.18,0.05-0.36,0.05-0.54V70.2c0-0.69-0.2-1.18-0.59-1.48
				c-0.39-0.3-0.98-0.45-1.75-0.45c-0.92,0-1.74,0.12-2.48,0.35c-0.74,0.24-1.35,0.47-1.86,0.71L108.85,66.56z M113.46,76.51
				c0.86,0,1.5-0.16,1.93-0.47c0.43-0.32,0.74-0.65,0.94-1.02V73.4c-0.18-0.04-0.45-0.08-0.8-0.12c-0.36-0.04-0.74-0.07-1.15-0.07
				c-0.34,0-0.68,0.03-1.02,0.1c-0.34,0.06-0.64,0.16-0.91,0.3c-0.27,0.14-0.48,0.31-0.64,0.53c-0.16,0.22-0.24,0.48-0.24,0.79
				c0,0.51,0.15,0.9,0.44,1.18C112.3,76.37,112.78,76.51,113.46,76.51z"/>
			<linearGradient id="SVGID_9_" gradientUnits="userSpaceOnUse" x1="-0.6649" y1="70.0895" x2="150.9227" y2="70.0895">
				<stop  offset="0" style="stop-color:#FC4B44"/>
				<stop  offset="0.5" style="stop-color:#62059E"/>
				<stop  offset="1" style="stop-color:#00D2B8"/>
			</linearGradient>
			<path class="st8" d="M124.87,68.62h-2.68v-2.98h2.68v-4.04l3.52-1v5.04h5.21v2.98h-5.21v3.88c0,1.39,0.26,2.4,0.79,3.02
				s1.26,0.94,2.2,0.94c0.49,0,0.93-0.06,1.33-0.18c0.4-0.12,0.75-0.27,1.07-0.45c0.16-0.09,0.45-0.28,0.45-0.28l1.43,2.62
				c-0.24,0.13-0.96,0.53-1.31,0.68c-0.53,0.23-1.09,0.4-1.67,0.53c-0.58,0.13-1.15,0.19-1.71,0.19c-2.02,0-3.55-0.56-4.57-1.69
				c-1.02-1.13-1.53-2.92-1.53-5.38V68.62z"/>
			<linearGradient id="SVGID_10_" gradientUnits="userSpaceOnUse" x1="-0.6649" y1="72.4193" x2="150.9227" y2="72.4193">
				<stop  offset="0" style="stop-color:#FC4B44"/>
				<stop  offset="0.5" style="stop-color:#62059E"/>
				<stop  offset="1" style="stop-color:#00D2B8"/>
			</linearGradient>
			<path class="st9" d="M149.57,77.76c-0.24,0.22-0.54,0.43-0.91,0.64c-0.37,0.21-0.8,0.4-1.3,0.58c-0.5,0.18-1.04,0.33-1.64,0.43
				c-0.6,0.11-1.23,0.16-1.9,0.16c-1.16,0-2.19-0.16-3.1-0.49c-0.91-0.33-1.69-0.8-2.32-1.42c-0.63-0.62-1.12-1.37-1.45-2.25
				c-0.33-0.88-0.5-1.87-0.5-3c0-1.19,0.19-2.24,0.57-3.13c0.38-0.89,0.9-1.64,1.56-2.24c0.66-0.6,1.43-1.04,2.32-1.34
				c0.89-0.3,1.84-0.45,2.87-0.45c0.69,0,1.4,0.09,2.13,0.27c0.73,0.18,1.41,0.49,2.02,0.94c0.61,0.44,1.12,1.03,1.5,1.78
				c0.39,0.74,0.58,1.68,0.58,2.82c0,0.78-0.09,1.62-0.27,2.52h-9.76c0.02,0.58,0.14,1.07,0.37,1.46c0.23,0.4,0.52,0.72,0.89,0.98
				c0.37,0.25,0.8,0.44,1.27,0.56c0.48,0.12,0.99,0.18,1.53,0.18c1.08,0,1.97-0.13,2.67-0.38c0.7-0.25,1.26-0.56,1.69-0.92
				L149.57,77.76z M143.71,68.08c-0.47,0-0.91,0.06-1.33,0.19c-0.42,0.13-0.79,0.32-1.13,0.57c-0.33,0.25-0.61,0.56-0.83,0.92
				c-0.22,0.37-0.34,0.78-0.38,1.24h6.67c0-0.9-0.25-1.62-0.75-2.14C145.48,68.34,144.72,68.08,143.71,68.08z"/>
		</g>
	</g>
	<g>
		<path class="st10" d="M99.32,32.62c-0.37-2.44-1.85-4.57-3.96-5.71c-1.38-0.74-3.56-1.34-6.52-0.47V2.51
			c0-0.76-0.41-1.47-1.07-1.85c-0.66-0.38-1.47-0.38-2.13,0.01l-4.97,2.9l-4.42-2.85c-0.7-0.45-1.6-0.45-2.31,0l-4.36,2.81
			l-4.36-2.81c-0.7-0.45-1.6-0.45-2.31,0L58.5,3.57l-4.97-2.9c-0.66-0.38-1.47-0.39-2.13-0.01c-0.66,0.38-1.07,1.08-1.07,1.85v38.13
			c0,3.55,2.89,6.44,6.44,6.44H82.4c0.02,0,0.03,0,0.05,0c0.67,0.16,1.38,0.23,2.12,0.23c3.26,0,7.08-1.46,10.11-4.02
			C98.21,40.33,99.9,36.44,99.32,32.62z M54.59,40.64V6.21l2.9,1.69c0.69,0.4,1.55,0.38,2.23-0.05l4.36-2.81l4.36,2.81
			c0.7,0.45,1.6,0.45,2.31,0l4.36-2.81l4.36,2.81c0.67,0.43,1.53,0.45,2.23,0.05l2.9-1.69v17.26c-0.29-0.08-0.56-0.14-0.82-0.19
			c-2.6-0.43-5.14,0.73-6.39,1.99c-3,3.01-4.08,7.44-2.97,12.16c0.48,2.02,1.3,3.86,2.35,5.39H56.77
			C55.57,42.83,54.59,41.85,54.59,40.64z M92.25,40.4c-2.86,2.41-6.94,3.68-9.27,2.9c-2.07-0.69-4.12-3.53-4.88-6.74
			c-0.38-1.62-0.96-5.7,1.96-8.62c0.34-0.34,1.38-0.97,2.58-0.97c0.17,0,0.35,0.01,0.52,0.04c1.18,0.19,2.18,1.09,2.96,2.66
			l0.82,1.64l1.67-0.77c1.96-0.9,3.67-1.01,4.96-0.32c1.26,0.68,1.87,1.97,2.01,2.95C96.1,36.59,93.72,39.17,92.25,40.4z"/>
		<path class="st11" d="M92.25,40.4c-2.86,2.41-6.94,3.68-9.27,2.9c-2.07-0.69-4.12-3.53-4.88-6.74c-0.38-1.62-0.96-5.7,1.96-8.62
			c0.34-0.34,1.38-0.97,2.58-0.97c0.17,0,0.35,0.01,0.52,0.04c1.18,0.19,2.18,1.09,2.96,2.66l0.82,1.64l1.67-0.77
			c1.96-0.9,3.67-1.01,4.96-0.32c1.26,0.68,1.87,1.97,2.01,2.95C96.1,36.59,93.72,39.17,92.25,40.4z"/>
	</g>
</g>
</svg>
