<svg width="51" height="40" viewBox="0 0 51 40" fill="none" xmlns="http://www.w3.org/2000/svg">
<path d="M9.28004 39.4867V36.8602C9.28004 35.8531 8.66704 35.1967 7.61631 35.1967C7.09104 35.1967 6.52191 35.3717 6.12786 35.9409C5.82156 35.4593 5.38384 35.1967 4.72716 35.1967C4.28924 35.1967 3.85172 35.3279 3.50134 35.8095V35.2842H2.58203V39.4867H3.50134V37.1665C3.50134 36.4225 3.89539 36.0721 4.5084 36.0721C5.12101 36.0721 5.42771 36.4661 5.42771 37.1665V39.4867H6.34702V37.1665C6.34702 36.4225 6.78454 36.0721 7.35368 36.0721C7.96668 36.0721 8.27299 36.4661 8.27299 37.1665V39.4867H9.28004ZM22.8944 35.2842H21.4062V34.0147H20.4869V35.2842H19.6551V36.1158H20.4867V38.0421C20.4867 39.0053 20.8807 39.5743 21.9314 39.5743C22.3255 39.5743 22.763 39.443 23.0697 39.268L22.8069 38.4799C22.5442 38.6549 22.2379 38.6988 22.019 38.6988C21.5813 38.6988 21.4062 38.4362 21.4062 37.9983V36.1158H22.8944V35.2842ZM30.6868 35.1965C30.1616 35.1965 29.8114 35.4593 29.5924 35.8095V35.2842H28.6731V39.4867H29.5924V37.1228C29.5924 36.4225 29.8987 36.0284 30.4679 36.0284C30.643 36.0284 30.8619 36.0723 31.037 36.116L31.2996 35.2405C31.1246 35.1967 30.8619 35.1967 30.6868 35.1967V35.1965ZM18.9109 35.6344C18.473 35.3279 17.8601 35.1967 17.2035 35.1967C16.1529 35.1967 15.4526 35.7219 15.4526 36.5537C15.4526 37.2542 15.9779 37.6481 16.8972 37.7795L17.3349 37.8234C17.8165 37.9107 18.0791 38.0421 18.0791 38.2611C18.0791 38.5674 17.7289 38.7864 17.1159 38.7864C16.5031 38.7864 16.0215 38.5674 15.715 38.3486L15.2773 39.049C15.7589 39.3992 16.4156 39.5743 17.0721 39.5743C18.2979 39.5743 18.9984 39.0053 18.9984 38.2172C18.9984 37.473 18.4293 37.079 17.5536 36.9477L17.1159 36.9039C16.7219 36.86 16.4156 36.7726 16.4156 36.51C16.4156 36.2035 16.7219 36.0284 17.2035 36.0284C17.7289 36.0284 18.2542 36.2472 18.5168 36.3786L18.9109 35.6344ZM43.3384 35.1967C42.813 35.1967 42.4628 35.4593 42.2438 35.8095V35.2842H41.3245V39.4867H42.2438V37.1228C42.2438 36.4225 42.5503 36.0284 43.1193 36.0284C43.2946 36.0284 43.5135 36.0723 43.6886 36.116L43.9512 35.2405C43.7762 35.1967 43.5135 35.1967 43.3384 35.1967ZM31.6061 37.3855C31.6061 38.6549 32.4816 39.5743 33.8388 39.5743C34.4516 39.5743 34.8893 39.443 35.3271 39.0929L34.8893 38.3486C34.5392 38.6113 34.189 38.7425 33.7949 38.7425C33.0507 38.7425 32.5255 38.2172 32.5255 37.3855C32.5255 36.5976 33.0507 36.0721 33.7949 36.0284C34.189 36.0284 34.5392 36.1596 34.8893 36.4225L35.3271 35.6782C34.8893 35.3279 34.4516 35.1967 33.8388 35.1967C32.4816 35.1967 31.6061 36.116 31.6061 37.3855ZM40.0989 37.3855V35.2842H39.1796V35.8095C38.8731 35.4156 38.4354 35.1967 37.8662 35.1967C36.6843 35.1967 35.765 36.116 35.765 37.3855C35.765 38.6549 36.6843 39.5743 37.8662 39.5743C38.479 39.5743 38.917 39.3555 39.1796 38.9614V39.4867H40.0989V37.3855ZM36.728 37.3855C36.728 36.6412 37.2096 36.0284 37.9975 36.0284C38.7417 36.0284 39.2671 36.5976 39.2671 37.3855C39.2671 38.1297 38.7417 38.7425 37.9975 38.7425C37.2096 38.6986 36.728 38.1297 36.728 37.3855ZM25.7401 35.1967C24.5143 35.1967 23.6386 36.0721 23.6386 37.3855C23.6386 38.6988 24.5141 39.5743 25.7838 39.5743C26.3966 39.5743 27.0096 39.3992 27.4912 39.0053L27.0533 38.3486C26.7031 38.6113 26.2654 38.7864 25.8276 38.7864C25.2585 38.7864 24.6894 38.5237 24.558 37.7793H27.6663V37.4293C27.7101 36.0721 26.922 35.1967 25.7399 35.1967H25.7401ZM25.7401 35.9846C26.309 35.9846 26.7033 36.3349 26.7906 36.9916H24.6018C24.6894 36.4225 25.0834 35.9846 25.7401 35.9846ZM48.5478 37.3855V33.6207H47.6285V35.8095C47.322 35.4156 46.8843 35.1967 46.3151 35.1967C45.1332 35.1967 44.2139 36.116 44.2139 37.3855C44.2139 38.6549 45.1332 39.5743 46.3151 39.5743C46.9281 39.5743 47.3659 39.3555 47.6285 38.9614V39.4867H48.5478V37.3855ZM45.1771 37.3855C45.1771 36.6412 45.6585 36.0284 46.4465 36.0284C47.1908 36.0284 47.716 36.5976 47.716 37.3855C47.716 38.1297 47.1908 38.7425 46.4465 38.7425C45.6585 38.6986 45.1771 38.1297 45.1771 37.3855ZM14.4455 37.3855V35.2842H13.5262V35.8095C13.2197 35.4156 12.782 35.1967 12.2129 35.1967C11.0309 35.1967 10.1116 36.116 10.1116 37.3855C10.1116 38.6549 11.0309 39.5743 12.2129 39.5743C12.8259 39.5743 13.2636 39.3555 13.5262 38.9614V39.4867H14.4455V37.3855ZM11.0309 37.3855C11.0309 36.6412 11.5125 36.0284 12.3004 36.0284C13.0446 36.0284 13.5701 36.5976 13.5701 37.3855C13.5701 38.1297 13.0446 38.7425 12.3004 38.7425C11.5125 38.6986 11.0309 38.1297 11.0309 37.3855Z" fill="black"/>
<path d="M18.6055 3.3708H32.3951V28.1485H18.6055V3.3708Z" fill="#FF5F00"/>
<path d="M19.4808 15.7597C19.4808 10.7254 21.8447 6.26009 25.4781 3.37074C22.8079 1.26949 19.4372 0 15.7599 0C7.04799 0 0 7.04799 0 15.7597C0 24.4712 7.04799 31.5194 15.7597 31.5194C19.437 31.5194 22.8077 30.2499 25.4781 28.1485C21.8447 25.303 19.4808 20.794 19.4808 15.7597Z" fill="#EB001B"/>
<path d="M50.9996 15.7597C50.9996 24.4712 43.9516 31.5194 35.2399 31.5194C31.5626 31.5194 28.1919 30.2499 25.5215 28.1485C29.1987 25.2593 31.5189 20.794 31.5189 15.7597C31.5189 10.7254 29.1549 6.26009 25.5215 3.37074C28.1917 1.26949 31.5626 0 35.2399 0C43.9516 0 50.9998 7.09186 50.9998 15.7597H50.9996Z" fill="#F79E1B"/>
</svg>
