<svg width="12" height="14" viewBox="0 0 12 14" fill="none" xmlns="http://www.w3.org/2000/svg">
<path d="M12 11.0529L11.9518 11.1095C10.3646 12.9732 8.25046 14 6 14C3.74921 14 1.6354 12.9735 0.047875 11.1095L0 11.0529L0.0113038 10.9803C0.317837 9.02359 1.36244 7.45176 2.95262 6.55344L3.06566 6.48967L3.15576 6.58207C3.9068 7.35318 4.91683 7.77745 5.99967 7.77745C7.08251 7.77745 8.09253 7.35285 8.84357 6.58207L8.93367 6.48967L9.04671 6.55344C10.6369 7.45176 11.6815 9.02359 11.9884 10.9803L12 11.0529ZM6 6.9917C7.96952 6.9917 9.57201 5.42346 9.57201 3.49601C9.57201 1.56857 7.96952 0 6 0C4.03048 0 2.42799 1.56857 2.42799 3.49569C2.42799 5.42281 4.03048 6.9917 6 6.9917Z" fill="#231F20"/>
</svg>
