<svg width="38" height="45" viewBox="0 0 38 45" fill="none" xmlns="http://www.w3.org/2000/svg">
<path d="M32.3544 3.38112C30.2781 1.01459 26.5249 0 21.7235 0H7.78832C7.31326 1.75902e-05 6.85379 0.169502 6.49251 0.477981C6.13124 0.786461 5.89185 1.2137 5.8174 1.68289L0.0150572 38.4828C-0.100274 39.2084 0.461632 39.8655 1.19713 39.8655H9.80021L11.9608 26.1612L11.8938 26.5903C12.0477 25.6216 12.8762 24.9072 13.8572 24.9072H17.9454C25.9766 24.9072 32.2651 21.6451 34.1021 12.2086C34.1566 11.9295 34.2039 11.6579 34.2447 11.3925C34.0128 11.2697 34.0128 11.2697 34.2447 11.3925C34.7917 7.90469 34.241 5.53055 32.3544 3.38112Z" fill="#27346A"/>
<path d="M15.2527 10.1361C15.4879 10.0241 15.7451 9.96604 16.0056 9.9662H26.9305C28.2242 9.9662 29.4309 10.0504 30.5335 10.2279C30.8421 10.2771 31.149 10.3358 31.4539 10.404C31.8861 10.4993 32.3133 10.6161 32.7339 10.7537C33.276 10.9347 33.7808 11.1456 34.2449 11.3925C34.7917 7.90334 34.241 5.53055 32.3544 3.38112C30.2769 1.01459 26.5249 0 21.7235 0H7.78713C6.80591 0 5.97118 0.714341 5.8174 1.68289L0.015058 38.4814C-0.100274 39.2083 0.461633 39.8645 1.19594 39.8645H9.80021L14.2828 11.4384C14.3269 11.159 14.4382 10.8945 14.6071 10.6676C14.7761 10.4408 14.9976 10.2583 15.2527 10.1361Z" fill="#27346A"/>
<path d="M34.1026 12.2086C32.2656 21.6438 25.9772 24.9072 17.9459 24.9072H13.8565C12.8754 24.9072 12.0468 25.6217 11.8944 26.5904L9.20643 43.6301C9.106 44.2651 9.59713 44.8406 10.2396 44.8406H17.4918C17.9073 44.8405 18.309 44.6922 18.6249 44.4223C18.9407 44.1524 19.1499 43.7787 19.2148 43.3684L19.2854 42.9989L20.6523 34.3362L20.7403 33.8574C20.8053 33.4471 21.0144 33.0735 21.3302 32.8036C21.646 32.5337 22.0478 32.3854 22.4632 32.3853H23.5485C30.5738 32.3853 36.0747 29.5312 37.6822 21.2768C38.3531 17.8272 38.006 14.9472 36.231 12.9243C35.6926 12.3116 35.024 11.8056 34.2452 11.3925C34.203 11.6592 34.1572 11.9295 34.1026 12.2086Z" fill="#2790C3"/>
<path d="M32.3218 10.626C32.0354 10.5424 31.7462 10.4683 31.4549 10.404C31.1498 10.3369 30.8429 10.2786 30.5344 10.2291C29.4306 10.0504 28.2248 9.96607 26.93 9.96607H16.0064C15.7457 9.96548 15.4883 10.024 15.2535 10.1373C14.9981 10.2592 14.7763 10.4415 14.6073 10.6684C14.4383 10.8953 14.3271 11.16 14.2834 11.4396L11.9616 26.1612L11.8945 26.5904C12.0473 25.6217 12.8757 24.9072 13.857 24.9072H17.9463C25.9775 24.9072 32.2659 21.6451 34.1029 12.2086C34.1576 11.9295 34.2034 11.6591 34.2456 11.3925C33.7804 11.147 33.2769 10.9348 32.7347 10.7549C32.5979 10.7096 32.4603 10.6666 32.3219 10.626" fill="#1F264F"/>
</svg>
