<svg width="172" height="189" viewBox="0 0 172 189" fill="none" xmlns="http://www.w3.org/2000/svg">
<path d="M168.509 145.038L92.6399 187.148C89.0002 189.168 83.0443 189.168 79.405 187.148L3.53542 145.038C1.71554 144.028 0.80579 142.697 0.80579 141.365H0V47.2975H171.239V141.365C171.239 142.697 170.329 144.028 168.509 145.038Z" fill="#FF473E"/>
<path d="M171.241 47.2975V141.365C171.241 142.697 170.331 144.028 168.511 145.039L92.6416 187.148C90.749 188.198 88.2307 188.698 85.7368 188.655C85.7958 141.551 87.1347 94.3878 85.6709 47.2971H171.241V47.2975Z" fill="#FF6E83"/>
<path d="M79.4027 93.0793L3.53353 50.9699C-0.10623 48.9497 -0.10623 45.6443 3.53353 43.6241L79.4027 1.51514C83.0424 -0.505047 88.9983 -0.505047 92.6377 1.51514L168.507 43.6245C172.147 45.6447 172.147 48.9501 168.507 50.9703L92.638 93.0793C88.9983 95.0995 83.0424 95.0995 79.4027 93.0793Z" fill="#FFA9BA"/>
<path d="M137.52 25.0716C137.516 25.5167 137.392 25.9526 137.161 26.3333C136.931 26.714 136.602 27.0255 136.209 27.235L45.3047 75.6909C45.1795 75.7577 45.0488 75.8135 44.914 75.8577L44.6067 76.0294V166.46C44.6067 166.891 44.4942 167.314 44.2803 167.689C44.0665 168.063 43.7586 168.374 43.3873 168.593C43.0159 168.812 42.5939 168.93 42.163 168.935C41.732 168.941 41.3072 168.834 40.9303 168.624L25.698 160.17C25.3118 159.956 24.99 159.642 24.766 159.261C24.5419 158.881 24.4238 158.447 24.4238 158.006V70.0066C24.4242 68.4966 24.7636 67.0059 25.417 65.6446C26.0703 64.2832 27.021 63.0859 28.1988 62.141L28.2886 62.0709C28.4882 61.9148 28.6775 61.7773 28.872 61.6459C29.1612 61.4496 29.4601 61.2681 29.7677 61.1021L118.016 14.0617C118.381 13.8673 118.788 13.7672 119.202 13.7708C119.615 13.7743 120.02 13.8812 120.382 14.0819L136.246 22.8865C136.635 23.1026 136.959 23.4196 137.183 23.8041C137.407 24.1887 137.523 24.6265 137.52 25.0716ZM145.902 63.3546C145.326 62.6979 144.667 62.1189 143.942 61.6322C143.894 61.5999 143.847 61.5675 143.791 61.5309C143.555 61.3774 143.313 61.234 143.065 61.101L54.8173 14.0613C54.4527 13.8668 54.0451 13.7667 53.6319 13.7702C53.2187 13.7738 52.8129 13.8808 52.4517 14.0815L36.5876 22.8861C36.1982 23.1021 35.8743 23.4191 35.65 23.8037C35.4256 24.1883 35.3092 24.6263 35.313 25.0715C35.3168 25.5168 35.4406 25.9528 35.6714 26.3335C35.9023 26.7143 36.2315 27.0257 36.6245 27.235L127.529 75.6909C127.655 75.7583 127.786 75.8139 127.92 75.8581L128.227 76.0298V166.46C128.227 166.891 128.339 167.315 128.553 167.689C128.767 168.063 129.075 168.375 129.446 168.594C129.818 168.812 130.24 168.93 130.67 168.936C131.101 168.941 131.526 168.834 131.903 168.625L147.135 160.171C147.522 159.956 147.843 159.642 148.067 159.262C148.291 158.881 148.41 158.448 148.41 158.006V70.0066C148.408 67.5585 147.517 65.1944 145.902 63.3546Z" fill="#FFD4DE"/>
<path d="M116.387 49.0471C116.387 55.2585 108.768 59.7665 98.2722 59.7665C93.9915 59.7665 90.1907 59.0159 87.1891 57.7067C86.8059 57.5403 86.3906 57.4605 85.973 57.4729C85.5554 57.4854 85.1456 57.5897 84.7729 57.7786C81.6446 59.3575 77.4964 60.2775 72.7592 60.2775C62.263 60.2775 54.6445 55.7695 54.6445 49.5581C54.6445 46.4309 56.576 43.736 59.8334 41.83C61.1167 41.0794 61.6556 39.4774 61.02 38.1335C58.6982 33.2234 58.7729 28.6167 61.6206 25.7691C63.0954 24.2942 65.1152 23.5147 67.4622 23.5147C69.1111 23.5147 70.9016 23.9042 72.7413 24.6358C73.4481 24.9177 74.2374 24.9103 74.9388 24.6151C75.6402 24.32 76.1973 23.7609 76.49 23.0585C78.3807 18.5455 81.509 15.766 85.26 15.766C88.947 15.766 92.0334 18.4511 93.9333 22.8288C94.5639 24.282 96.2284 24.9755 97.6926 24.3711C99.6149 23.5779 101.488 23.1537 103.207 23.1537C106.172 23.1537 108.021 24.3795 109.049 25.4081C111.848 28.2074 111.969 32.7059 109.767 37.5219C109.149 38.873 109.697 40.4717 110.99 41.2024C114.372 43.1133 116.387 45.8548 116.387 49.0471Z" fill="#FF6E83"/>
</svg>
