<svg width="63" height="21" viewBox="0 0 63 21" fill="none" xmlns="http://www.w3.org/2000/svg">
<path d="M32.5821 6.50376C32.5461 9.33777 35.1077 10.9192 37.0374 11.8595C39.0199 12.8242 39.6858 13.4429 39.6779 14.3057C39.6632 15.626 38.0965 16.2087 36.6306 16.2314C34.0729 16.271 32.5858 15.5408 31.4035 14.9886L30.4822 19.2999C31.6683 19.8465 33.8647 20.3232 36.1423 20.3441C41.4887 20.3441 44.9864 17.705 45.0054 13.6132C45.0263 8.42009 37.8224 8.13265 37.8716 5.8115C37.8886 5.10767 38.5602 4.35659 40.0318 4.16562C40.7603 4.06915 42.7711 3.99533 45.0509 5.04516L45.9457 0.873873C44.7197 0.427458 43.1439 -7.62939e-06 41.1821 -7.62939e-06C36.1499 -7.62939e-06 32.6106 2.67503 32.5821 6.50376ZM54.5437 0.359289C53.5675 0.359289 52.7448 0.928749 52.3776 1.80263L44.7406 20.0377H50.083L51.1462 17.0996H57.6745L58.2912 20.0377H63L58.891 0.359289H54.5437ZM55.2911 5.67516L56.8329 13.0646H52.6104L55.2911 5.67516ZM26.1046 0.359535L21.8935 20.0374H26.9844L31.1936 0.359043H26.1046V0.359535ZM18.5734 0.359043L13.2745 13.7532L11.1311 2.36471C10.8796 1.09339 9.88632 0.359289 8.78333 0.359289H0.121324L0 0.930719C1.77827 1.31659 3.7987 1.93896 5.02277 2.60489C5.77188 3.01169 5.98549 3.36729 6.23159 4.33395L10.2914 20.0377H15.6713L23.9193 0.359289L18.5734 0.359043Z" fill="url(#paint0_linear)"/>
<defs>
<linearGradient id="paint0_linear" x1="28.9636" y1="20.7522" x2="29.5525" y2="-0.141494" gradientUnits="userSpaceOnUse">
<stop stop-color="#222357"/>
<stop offset="1" stop-color="#254AA5"/>
</linearGradient>
</defs>
</svg>
