<svg id="Capa_1" enable-background="new 0 0 512 512" height="512" viewBox="0 0 512 512" width="512" xmlns="http://www.w3.org/2000/svg"><g><path d="m336 280h-160c-8.284 0-15 6.716-15 15v40c0 52.383 42.617 95 95 95s95-42.617 95-95v-40c0-8.284-6.716-15-15-15zm-15 55c0 35.841-29.159 65-65 65s-65-29.159-65-65v-25h130z"/><path d="m457 160c-8.271 0-15-6.729-15-15v-30c0-8.284-6.716-15-15-15s-15 6.716-15 15v30c0 24.813 20.187 45 45 45 13.785 0 25 11.215 25 25s-11.215 25-25 25h-38.75c-33.802-10.551-57.25-42.253-57.25-77.801v-57.199c0-57.897-47.103-105-105-105s-105 47.103-105 105v57.199c0 35.547-23.448 67.25-57.25 77.801h-38.75c-13.785 0-25-11.215-25-25s11.215-25 25-25c24.813 0 45-20.187 45-45v-30c0-8.284-6.716-15-15-15s-15 6.716-15 15v30c0 8.271-6.729 15-15 15-30.327 0-55 24.673-55 55s24.673 55 55 55h26v177c0 35.841 29.159 65 65 65h220c35.841 0 65-29.159 65-65v-177h26c30.327 0 55-24.673 55-55s-24.673-55-55-55zm-276-55c0-41.355 33.645-75 75-75s75 33.645 75 75v35h-150zm220 342c0 19.299-15.701 35-35 35h-220c-19.299 0-35-15.701-35-35v-181.288c18.854-7.52 35.126-19.938 47.513-36.359 13.136-17.415 20.743-37.795 22.221-59.353h150.532c1.478 21.558 9.084 41.938 22.221 59.353 12.387 16.422 28.659 28.84 47.513 36.359z"/></g></svg>