<svg width="93" height="108" viewBox="0 0 93 108" fill="none" xmlns="http://www.w3.org/2000/svg">
<path d="M86.1926 9.25801H16.909C16.7004 9.25801 16.51 9.34393 16.3144 9.40838L14.6114 3.28056C14.0699 1.33184 12.4284 0 10.5681 0H2.1137C0.946381 0 0 1.03631 0 2.31456V6.94345C0 8.2217 0.946381 9.25801 2.1137 9.25801H7.4371L20.6432 56.7794L15.711 63.0804C13.7616 65.5707 12.8837 69.0021 13.781 72.1314C14.9285 76.1336 18.1542 78.6923 21.8734 78.6923H82.4319C83.5992 78.6923 84.5456 77.656 84.5456 76.3778V71.7489C84.5456 70.4706 83.5992 69.4343 82.4319 69.4343H21.8732L28.5733 60.8748C28.7418 60.6595 28.8656 60.4165 28.9934 60.1763H69.9524C73.2284 60.1763 76.2097 58.1045 77.6047 54.8587L92.354 20.5385C92.7771 19.5508 93 18.4546 93 17.3673V16.7118C93 12.5954 89.9522 9.25801 86.1926 9.25801Z" fill="#62059E"/>
<path d="M25.0385 107.308C30.9649 107.308 35.7692 102.503 35.7692 96.577C35.7692 90.6505 30.9649 85.8462 25.0385 85.8462C19.112 85.8462 14.3077 90.6505 14.3077 96.577C14.3077 102.503 19.112 107.308 25.0385 107.308Z" fill="#62059E"/>
<path d="M75.1154 107.308C81.0418 107.308 85.8462 102.503 85.8462 96.577C85.8462 90.6505 81.0418 85.8462 75.1154 85.8462C69.1889 85.8462 64.3846 90.6505 64.3846 96.577C64.3846 102.503 69.1889 107.308 75.1154 107.308Z" fill="#62059E"/>
<path d="M32.4733 33.753C33.2517 28.5561 36.2068 23.9263 40.5806 21.0503C43.6359 19.0418 47.1194 18.0358 50.7114 18.0805L49.3811 16.7342C48.7633 16.1086 48.7633 15.0945 49.3811 14.4692C49.9991 13.8436 51.0009 13.8436 51.6186 14.4692L56.1182 19.0237C56.9507 19.6073 57.0109 20.8116 56.3289 21.5023L51.6186 26.2701C51.0009 26.8957 49.9991 26.8957 49.3811 26.2701C48.7633 25.6448 48.7633 24.6307 49.3811 24.0051L51.995 21.3591C48.5569 21.025 45.1939 21.8367 42.3043 23.7367C38.6879 26.1146 36.2448 29.9402 35.6021 34.2332C35.4714 35.1059 34.6661 35.7096 33.8005 35.5764C32.9365 35.4437 32.3426 34.6276 32.4733 33.753ZM55.9748 50.7549C51.9808 52.3377 47.4868 52.1091 43.6442 50.1275C40.5741 48.5443 38.1984 46.0022 36.7652 42.8216L40.3331 43.7891C41.177 44.0181 42.0444 43.5107 42.2706 42.6564C42.4968 41.8021 41.9959 40.9238 41.152 40.6948L34.7161 38.9497C33.7872 38.6979 32.8033 39.3522 32.7075 40.3504L31.0543 46.5953C30.8281 47.4498 31.329 48.3282 32.173 48.5572C33.0221 48.7874 33.8858 48.2735 34.1105 47.4248L34.599 45.5799C36.3567 48.7536 38.9602 51.3067 42.2079 52.9815C46.7615 55.33 52.1983 55.6913 57.1284 53.7375C57.9417 53.415 58.3431 52.486 58.0248 51.6624C57.7062 50.8388 56.7885 50.4327 55.9748 50.7549ZM69.9457 46.5953C69.7198 45.741 68.8518 45.2336 68.0082 45.4626L66.1859 45.9568C68.0205 42.83 68.9021 39.2728 68.7112 35.5895C68.4377 30.3172 65.9544 25.4121 61.898 22.1314C61.2151 21.5793 60.2198 21.6919 59.6743 22.3832C59.1289 23.0742 59.2402 24.082 59.9228 24.6338C63.2737 27.344 65.3253 31.3982 65.5512 35.7575C65.732 39.2396 64.7456 42.5926 62.7419 45.4391L61.7855 41.8272C61.5593 40.9729 60.6919 40.4658 59.8477 40.6948C59.0038 40.9238 58.5029 41.8021 58.7291 42.6564L60.4537 49.1696C60.7083 50.1318 61.7611 50.6583 62.6724 50.2257L68.8267 48.5565C69.671 48.3279 70.1719 47.4498 69.9457 46.5953Z" fill="white"/>
</svg>
